<?xml version="1.0" encoding="utf-8"?>
<!-- Generator: Adobe Illustrator 16.0.0, SVG Export Plug-In . SVG Version: 6.00 Build 0)  -->
<!DOCTYPE svg PUBLIC "-//W3C//DTD SVG 1.1//EN" "http://www.w3.org/Graphics/SVG/1.1/DTD/svg11.dtd">
<svg version="1.1" id="Layer_1" xmlns="http://www.w3.org/2000/svg" xmlns:xlink="http://www.w3.org/1999/xlink" x="0px" y="0px"
	 width="54.438px" height="54.438px" viewBox="0 0 54.438 54.438" enable-background="new 0 0 54.438 54.438" xml:space="preserve">
<g>
	<g>
		<path fill="#F5CC27" d="M46.51,51.553c-0.511,0-1.017-0.199-1.396-0.578L2.549,8.411C2.109,7.97,1.902,7.347,1.992,6.73
			s0.466-1.153,1.014-1.451l3.981-2.154c0.296-0.16,0.618-0.237,0.938-0.237c0.511,0,1.016,0.198,1.396,0.577l42.564,42.564
			c0.441,0.44,0.648,1.063,0.559,1.681s-0.467,1.153-1.014,1.451l-3.981,2.154C47.154,51.475,46.831,51.553,46.51,51.553z"/>
		<path fill="#030332" d="M7.927,4.859l42.564,42.565l-3.982,2.155L3.945,7.014L7.927,4.859 M7.926,0.913
			c-0.64,0-1.285,0.155-1.877,0.476L2.067,3.543C0.971,4.137,0.22,5.212,0.042,6.445c-0.181,1.232,0.232,2.479,1.114,3.358
			L43.72,52.369c0.759,0.76,1.771,1.154,2.792,1.154c0.641,0,1.285-0.154,1.877-0.475l3.982-2.156
			c1.096-0.593,1.846-1.668,2.025-2.901s-0.232-2.479-1.113-3.358L10.718,2.069C9.958,1.31,8.949,0.913,7.926,0.913L7.926,0.913z"/>
	</g>
	<g>
		<path fill="#F5CC27" d="M7.014,52.467c-0.094,0-0.188-0.008-0.284-0.021c-0.615-0.09-1.153-0.465-1.451-1.014l-2.155-3.981
			c-0.416-0.769-0.277-1.719,0.34-2.335L46.029,2.55c0.371-0.372,0.875-0.577,1.396-0.577c0.094,0,0.189,0.007,0.283,0.021
			c0.617,0.089,1.153,0.465,1.451,1.013l2.156,3.98c0.416,0.769,0.277,1.718-0.34,2.336L8.41,51.889
			C8.037,52.262,7.534,52.467,7.014,52.467z"/>
		<path fill="#030332" d="M47.423,3.946l2.156,3.981L7.014,50.494l-2.156-3.982L47.423,3.946 M47.423,0
			c-1.039,0-2.045,0.411-2.791,1.155L2.067,43.72c-1.233,1.234-1.511,3.134-0.68,4.669l2.156,3.982
			c0.593,1.096,1.669,1.848,2.901,2.025c0.189,0.027,0.381,0.041,0.568,0.041c1.039,0,2.045-0.41,2.791-1.154l42.567-42.567
			c1.232-1.234,1.51-3.134,0.678-4.67l-2.156-3.981c-0.593-1.095-1.668-1.846-2.901-2.024C47.801,0.013,47.611,0,47.423,0L47.423,0z
			"/>
	</g>
</g>
</svg>
