<?xml version="1.0" encoding="utf-8"?>
<!-- Generator: Adobe Illustrator 16.0.0, SVG Export Plug-In . SVG Version: 6.00 Build 0)  -->
<!DOCTYPE svg PUBLIC "-//W3C//DTD SVG 1.1//EN" "http://www.w3.org/Graphics/SVG/1.1/DTD/svg11.dtd">
<svg version="1.1" id="Layer_1" xmlns="http://www.w3.org/2000/svg" xmlns:xlink="http://www.w3.org/1999/xlink" x="0px" y="0px"
	 width="66.5px" height="58.25px" viewBox="0 0 66.5 58.25" enable-background="new 0 0 66.5 58.25" xml:space="preserve">
<g>
	<path fill="#407800" stroke="#030332" stroke-width="4.3049" stroke-linejoin="round" stroke-miterlimit="10" d="M2,40.34
		c0-2.507,2.556-4.54,5.708-4.54h51.361c3.152,0,5.708,2.033,5.708,4.54l0,0c0,2.509-2.556,4.541-5.708,4.541H7.708
		C4.556,44.881,2,42.848,2,40.34L2,40.34z"/>
	<path fill="#4D2B00" stroke="#030332" stroke-width="4.3049" stroke-linejoin="round" stroke-miterlimit="10" d="M2,29.893
		c0-3.152,2.556-5.709,5.708-5.709h51.361c3.152,0,5.708,2.557,5.708,5.709l0,0c0,3.151-2.556,5.707-5.708,5.707H7.708
		C4.556,35.6,2,33.045,2,29.893L2,29.893z"/>
	<path fill="#E08A00" stroke="#030332" stroke-width="4.3049" stroke-linejoin="round" stroke-miterlimit="10" d="M14.269,56.408
		H52.51c6.301,0,11.408-5.107,11.408-11.408H2.859C2.86,51.301,7.968,56.408,14.269,56.408z"/>
	<g>
		<path fill="#E08A00" stroke="#030332" stroke-width="4.3049" stroke-linejoin="round" stroke-miterlimit="10" d="M63.918,24.018
			c0-15.931-12.914-21.524-28.843-21.524h-3.372c-15.93,0-28.844,5.595-28.844,21.524H63.918z"/>
		
			<line fill="none" stroke="#030332" stroke-width="4.3049" stroke-linecap="round" stroke-linejoin="round" stroke-miterlimit="10" x1="18.07" y1="10.706" x2="19.793" y2="11.709"/>
		
			<line fill="none" stroke="#030332" stroke-width="4.3049" stroke-linecap="round" stroke-linejoin="round" stroke-miterlimit="10" x1="31.852" y1="8.399" x2="33.572" y2="9.404"/>
		
			<line fill="none" stroke="#030332" stroke-width="4.3049" stroke-linecap="round" stroke-linejoin="round" stroke-miterlimit="10" x1="46.345" y1="10.202" x2="48.066" y2="11.208"/>
	</g>
</g>
</svg>
