<?xml version="1.0" encoding="utf-8"?>
<!-- Generator: Adobe Illustrator 16.0.0, SVG Export Plug-In . SVG Version: 6.00 Build 0)  -->
<!DOCTYPE svg PUBLIC "-//W3C//DTD SVG 1.1//EN" "http://www.w3.org/Graphics/SVG/1.1/DTD/svg11.dtd">
<svg version="1.1" id="Layer_1" xmlns="http://www.w3.org/2000/svg" xmlns:xlink="http://www.w3.org/1999/xlink" x="0px" y="0px"
	 width="100px" height="100px" viewBox="550 400 100 100" enable-background="new 550 400 100 100" xml:space="preserve">
<g>
	<g>
		<g>
			<path fill="#F1D1C7" d="M591.453,457.383c-0.399,0-0.758-0.154-1.063-0.299c-0.418-0.197-0.884-0.451-1.112-0.971
				c-0.229-0.523-0.151-1.159,0.247-2l18.907-39.93c0.721-1.521,1.604-1.84,2.221-1.84c0.279,0,0.559,0.065,0.832,0.195
				c0.561,0.266,0.924,0.717,1.047,1.305c0.123,0.589-0.008,1.295-0.387,2.098l-18.908,39.93
				C592.93,456.52,592.411,457.383,591.453,457.383z"/>
			<path fill="#030332" d="M610.65,412.939c0.197,0,0.391,0.049,0.576,0.137c0.727,0.344,1.064,1.153,0.377,2.607l-18.907,39.93
				c-0.423,0.895-0.827,1.17-1.244,1.17c-0.261,0-0.526-0.107-0.807-0.24c-0.729-0.345-1.271-0.723-0.582-2.177l18.907-39.93
				C609.482,413.356,610.08,412.939,610.65,412.939 M610.65,411.745L610.65,411.745c-0.787,0-1.906,0.378-2.76,2.181l-18.907,39.93
				c-0.301,0.636-0.654,1.586-0.254,2.497c0.337,0.767,1.058,1.107,1.405,1.271c0.389,0.184,0.817,0.354,1.316,0.354
				c1.446,0,2.107-1.396,2.324-1.854l18.906-39.93c0.438-0.924,0.582-1.756,0.432-2.476c-0.16-0.767-0.648-1.378-1.377-1.723
				C611.385,411.829,611.02,411.745,610.65,411.745L610.65,411.745z"/>
		</g>
		
			<ellipse transform="matrix(0.4277 -0.9039 0.9039 0.4277 -24.1318 788.9661)" fill="#030332" cx="611" cy="413.541" rx="1.731" ry="1.98"/>
	</g>
	<g>
		<g>
			<path fill="#523A28" d="M600,487.062c-15.161,0-27.498-12.335-27.498-27.498s12.335-27.498,27.498-27.498
				c15.163,0,27.499,12.335,27.499,27.498S615.162,487.062,600,487.062z"/>
			<path fill="#030332" d="M600,433.259c14.504,0,26.305,11.8,26.305,26.304c0,14.503-11.801,26.303-26.305,26.303
				c-14.503,0-26.303-11.8-26.303-26.303C573.696,445.059,585.496,433.259,600,433.259 M600,430.872
				c-15.846,0-28.691,12.846-28.691,28.692c0,15.846,12.846,28.692,28.691,28.692c15.846,0,28.692-12.847,28.692-28.692
				C628.691,443.716,615.846,430.872,600,430.872L600,430.872z"/>
		</g>
		<g>
			<path fill="#F4F7F9" d="M616.105,453.586c-3.453,0-7.418-1.191-11.17-3.356c-7.274-4.2-11.542-11.001-9.319-14.852
				c1.011-1.75,3.268-2.714,6.352-2.714c3.453,0,7.42,1.193,11.17,3.358c3.686,2.128,6.674,4.919,8.414,7.859
				c1.613,2.726,1.934,5.209,0.904,6.993C621.445,452.623,619.191,453.586,616.105,453.586L616.105,453.586z"/>
			<path fill="#030332" d="M601.969,433.857c3.199,0,7.053,1.166,10.572,3.198c3.461,1.998,6.371,4.707,7.984,7.433
				c1.363,2.305,1.689,4.414,0.896,5.788c-0.775,1.345-2.715,2.117-5.316,2.117c-3.199,0-7.053-1.166-10.572-3.198
				c-7.299-4.214-10.54-10.349-8.881-13.22C597.428,434.629,599.366,433.857,601.969,433.857 M601.969,431.468
				c-3.387,0-6.109,1.101-7.386,3.312c-2.595,4.495,1.772,11.875,9.755,16.483c4.059,2.342,8.268,3.518,11.768,3.518
				c3.387,0,6.109-1.102,7.385-3.311c2.596-4.496-1.771-11.875-9.754-16.483C609.68,432.645,605.469,431.468,601.969,431.468
				L601.969,431.468z"/>
		</g>
		<g>
			
				<ellipse transform="matrix(-0.5001 0.866 -0.866 -0.5001 1297.0076 139.5237)" fill="#97A5B6" cx="608.232" cy="444.123" rx="5.639" ry="10.014"/>
		</g>
		
			<path fill="none" stroke="#030332" stroke-width="2.3888" stroke-linecap="round" stroke-linejoin="round" stroke-miterlimit="10" d="
			M594.737,441.522c0,0-12.741,7.186-10.989,21.041"/>
		
			<path fill="none" stroke="#030332" stroke-width="2.3888" stroke-linecap="round" stroke-linejoin="round" stroke-miterlimit="10" d="
			M579.449,451.256c0,0-4.141,7.006,0,17.358"/>
		
			<path fill="none" stroke="#030332" stroke-width="2.3888" stroke-linecap="round" stroke-linejoin="round" stroke-miterlimit="10" d="
			M612.893,477.852c0,0-5.24,4.617-12.893,4.459"/>
	</g>
	<g>
		<g>
			<path fill="#FF3179" d="M600.099,451.299c-0.967,0-3.427-0.215-5.372-2.206c-0.772-0.79-1.354-1.75-1.742-2.874
				c-1.219,1.47-3.245,2.77-6.599,2.77c-0.738,0-1.526-0.066-2.343-0.198c-0.918-0.089-1.145-1.082-1.269-1.627
				c-0.418-1.833-0.208-4.06,1.175-5.956c-2.015-0.164-4.652-0.912-7.157-3.242c-0.386-0.36-0.49-0.93-0.257-1.403
				c0.121-0.245,3.026-6.002,8.609-6.002c0.247,0,0.496,0.012,0.746,0.035c-0.624-1.107-1.123-2.442-1.188-3.935
				c-0.107-2.465,0.965-4.792,3.191-6.916c0.227-0.216,0.522-0.33,0.825-0.33c0.113,0,0.229,0.016,0.341,0.05l0.05,0.008
				c2.579,0.412,8.008,2.194,8.485,9.869c1.483-1.398,3.219-2.131,5.1-2.131c1.707,0,3.504,0.61,5.348,1.814
				c0.414,0.172,0.82,0.629,0.82,1.759c0,2.266-1.406,8.32-7.32,9.491c1.014,1.103,2.025,2.608,2.324,4.416
				c0.324,1.958-0.229,3.877-1.645,5.708C601.883,451.194,600.912,451.299,600.099,451.299z"/>
			<path fill="#030332" d="M588.72,420.609c0,0.12,9.087,0.351,7.534,12.534c-0.003,0.013-0.004,0.019-0.002,0.019
				c0.054,0,2.076-4.756,6.445-4.756c1.377,0,2.988,0.473,4.844,1.718c0.461,0,0.098,9.155-8.099,9.155
				c-0.299,0-0.607-0.012-0.928-0.037c0,0,7.472,4.668,2.601,10.635c0.113,0.095-0.314,0.227-1.016,0.227
				c-2.103,0-6.661-1.184-6.501-8.1c0.034-0.257,0.035-0.433,0.019-0.493c-0.009,0.167-0.015,0.332-0.019,0.493
				c-0.198,1.505-1.524,5.791-7.212,5.791c-0.672,0-1.405-0.06-2.205-0.191c-0.113,0-2.011-5.269,3.567-7.951
				c0.642-0.189,1.001-0.38,0.972-0.411c-0.347,0.128-0.669,0.266-0.972,0.411c-0.681,0.201-1.68,0.4-2.862,0.4
				c-2.095,0-4.768-0.623-7.278-2.96c0,0,2.633-5.336,7.537-5.336c1.278,0,2.71,0.362,4.291,1.276
				C589.436,433.031,581.959,427.059,588.72,420.609 M588.72,418.22c-0.604,0-1.196,0.229-1.649,0.661
				c-2.487,2.373-3.685,5.008-3.561,7.833c0.043,0.976,0.242,1.886,0.535,2.719c-5.593,0.677-8.453,6.346-8.579,6.602
				c-0.468,0.946-0.259,2.087,0.515,2.806c2.052,1.91,4.192,2.852,6.069,3.281c-0.759,1.782-0.812,3.678-0.439,5.308
				c0.36,1.582,1.134,2.438,2.3,2.549c0.858,0.136,1.69,0.204,2.475,0.204c2.716,0,4.734-0.802,6.205-1.95
				c0.357,0.622,0.785,1.187,1.282,1.695c2.262,2.314,5.107,2.564,6.227,2.564c0.616,0,2.415,0,3.153-1.472
				c1.939-2.573,2.057-4.952,1.797-6.523c-0.227-1.365-0.789-2.564-1.467-3.576c2.236-0.892,3.666-2.435,4.551-3.805
				c1.42-2.202,1.928-4.714,1.928-6.331c0-1.6-0.658-2.361-1.307-2.723c-2.061-1.357-4.098-2.045-6.059-2.045
				c-1.492,0-2.902,0.389-4.182,1.135c-1.395-6.96-7.11-8.519-9.196-8.855C589.121,418.245,588.92,418.22,588.72,418.22
				L588.72,418.22z"/>
		</g>
		<path fill="#FF0007" d="M590.948,434.851c0,0-1.925-3.105,0.418-7.764c0,0,4.167,1.612,3.57,7.943
			c-0.159,0.08,2.986-3.404,6.173-2.455c0.08-0.014,1.111,4.067-5.415,5.68c0.08,0.08,3.48,2.508,2.744,5.315
			c-0.08,0.08-2.728,0.358-5.133-3.344c-0.075,0.239-0.615,3.463-4.897,4.001c0.079,0.08-0.641-3.165,2.03-5.494
			c0.103-0.08-2.63,1.091-6.271-2.958C584.09,435.774,585.96,433.776,590.948,434.851z"/>
		<path fill="none" stroke="#FFC423" stroke-width="1.1944" stroke-linecap="round" stroke-miterlimit="10" d="M593.323,436.523
			c0,0-2.562-17.08-10.418-15.408c0,0-2.76,0.677-1.506,2.866c0.936,1.474,2.628,0.219,2.488-0.397
			c-0.141-0.618-0.318-1.056-1.234-0.677"/>
		<path fill="none" stroke="#FFC423" stroke-width="1.1944" stroke-linecap="round" stroke-miterlimit="10" d="M593.323,436.632
			c0,0-7.804-7.206-9.197-4.061c-0.656,1.652,1.593,3.13,2.271,2.058c0.677-1.072-0.558-1.222-0.558-1.222"/>
	</g>
</g>
</svg>
