<?xml version="1.0" encoding="utf-8"?>
<!-- Generator: Adobe Illustrator 16.0.0, SVG Export Plug-In . SVG Version: 6.00 Build 0)  -->
<!DOCTYPE svg PUBLIC "-//W3C//DTD SVG 1.1//EN" "http://www.w3.org/Graphics/SVG/1.1/DTD/svg11.dtd">
<svg version="1.1" id="Layer_1" xmlns="http://www.w3.org/2000/svg" xmlns:xlink="http://www.w3.org/1999/xlink" x="0px" y="0px"
	 width="940.886px" height="133.932px" viewBox="0 0 940.886 133.932" enable-background="new 0 0 940.886 133.932"
	 xml:space="preserve">
<g>
	<path fill="#FFB652" stroke="#030331" stroke-width="5" stroke-miterlimit="10" d="M600.703,95.261
		c0,3.637-2.947,6.586-6.586,6.586l0,0c-3.639,0-6.584-2.949-6.584-6.586V67.566c0-3.637,2.945-6.585,6.584-6.585l0,0
		c3.639,0,6.586,2.948,6.586,6.585V95.261z"/>
	<path fill="#FFB652" stroke="#030331" stroke-width="5" stroke-miterlimit="10" d="M610.271,101.431
		c0,3.638-2.947,20.263-6.586,20.263l0,0c-3.637,0-6.586-16.625-6.586-20.263V73.736c0-3.635,2.949-6.585,6.586-6.585l0,0
		c3.639,0,6.586,2.951,6.586,6.585V101.431z"/>
	<path fill="#FFB652" stroke="#030331" stroke-width="5" stroke-miterlimit="10" d="M619.841,120.4c0,3.638-2.949,6.588-6.586,6.588
		l0,0c-3.639,0-6.586-2.95-6.586-6.588V79.029c0-3.639,2.947-6.585,6.586-6.585l0,0c3.637,0,6.586,2.946,6.586,6.585V120.4z"/>
	<path fill="#FFB652" stroke="#030331" stroke-width="5" stroke-miterlimit="10" d="M629.412,126.142
		c0,3.637-2.949,6.587-6.586,6.587l0,0c-3.639,0-6.586-2.95-6.586-6.587V84.771c0-3.639,2.947-6.587,6.586-6.587l0,0
		c3.637,0,6.586,2.948,6.586,6.587V126.142z"/>
	<path fill="#FFB652" stroke="#030331" stroke-width="5" stroke-miterlimit="10" d="M591.134,101.431
		c0,3.638-2.949,20.263-6.588,20.263l0,0c-3.637,0-6.584-16.625-6.584-20.263V73.736c0-3.635,2.947-6.585,6.584-6.585l0,0
		c3.639,0,6.588,2.951,6.588,6.585V101.431z"/>
	<path fill="#FFB652" stroke="#030331" stroke-width="5" stroke-miterlimit="10" d="M581.562,120.4c0,3.638-2.945,6.588-6.584,6.588
		l0,0c-3.639,0-6.586-2.95-6.586-6.588V79.029c0-3.639,2.947-6.585,6.586-6.585l0,0c3.639,0,6.584,2.946,6.584,6.585V120.4z"/>
	<path fill="#FFB652" stroke="#030331" stroke-width="5" stroke-miterlimit="10" d="M571.996,126.142
		c0,3.637-2.949,6.587-6.586,6.587l0,0c-3.639,0-6.586-2.95-6.586-6.587V84.771c0-3.639,2.947-6.587,6.586-6.587l0,0
		c3.637,0,6.586,2.948,6.586,6.587V126.142z"/>
	<path fill="#FFB652" stroke="#030331" stroke-width="5" stroke-miterlimit="10" d="M600.703,120.406
		c0,3.64-2.947,6.588-6.586,6.588l0,0c-3.639,0-6.584-2.948-6.584-6.588V79.034c0-3.638,2.945-6.587,6.584-6.587l0,0
		c3.639,0,6.586,2.949,6.586,6.587V120.406z"/>
	<path fill="#FFB652" stroke="#030331" stroke-width="5" stroke-miterlimit="10" d="M591.134,126.142
		c0,3.637-2.949,6.587-6.588,6.587l0,0c-3.637,0-6.584-2.95-6.584-6.587V84.771c0-3.639,2.947-6.587,6.584-6.587l0,0
		c3.639,0,6.588,2.948,6.588,6.587V126.142z"/>
	<path fill="#FFB652" stroke="#030331" stroke-width="5" stroke-miterlimit="10" d="M581.562,131.884
		c0,3.636-2.945,6.587-6.584,6.587l0,0c-3.639,0-6.586-2.951-6.586-6.587V90.513c0-3.64,2.947-6.588,6.586-6.588l0,0
		c3.639,0,6.584,2.948,6.584,6.588V131.884z"/>
	<path fill="#FFB652" stroke="#030331" stroke-width="5" stroke-miterlimit="10" d="M610.271,126.142
		c0,3.637-2.947,6.587-6.586,6.587l0,0c-3.637,0-6.586-2.95-6.586-6.587V84.771c0-3.639,2.949-6.587,6.586-6.587l0,0
		c3.639,0,6.586,2.948,6.586,6.587V126.142z"/>
	<path fill="#FFB652" stroke="#030331" stroke-width="5" stroke-miterlimit="10" d="M600.703,131.876
		c0,3.638-2.947,6.586-6.586,6.586l0,0c-3.639,0-6.584-2.948-6.584-6.586V90.504c0-3.637,2.945-6.586,6.584-6.586l0,0
		c3.639,0,6.586,2.949,6.586,6.586V131.876z"/>
	<path fill="#FFB652" stroke="#030331" stroke-width="5" stroke-miterlimit="10" d="M619.841,131.884
		c0,3.636-2.949,6.587-6.586,6.587l0,0c-3.639,0-6.586-2.951-6.586-6.587V90.513c0-3.64,2.947-6.588,6.586-6.588l0,0
		c3.637,0,6.586,2.948,6.586,6.588V131.884z"/>
	<path fill="#FFB652" stroke="#030331" stroke-width="5" stroke-miterlimit="10" d="M591.134,137.174
		c0,3.639-2.949,6.587-6.588,6.587l0,0c-3.637,0-6.584-2.948-6.584-6.587V95.803c0-3.637,2.947-6.587,6.584-6.587l0,0
		c3.639,0,6.588,2.95,6.588,6.587V137.174z"/>
	<path fill="#FFB652" stroke="#030331" stroke-width="5" stroke-miterlimit="10" d="M610.271,137.174
		c0,3.639-2.947,6.587-6.586,6.587l0,0c-3.637,0-6.586-2.948-6.586-6.587V95.803c0-3.637,2.949-6.587,6.586-6.587l0,0
		c3.639,0,6.586,2.95,6.586,6.587V137.174z"/>
	<path fill="#FFB652" stroke="#030331" stroke-width="5" stroke-miterlimit="10" d="M600.703,143.347
		c0,3.636-2.947,6.585-6.586,6.585l0,0c-3.639,0-6.584-2.949-6.584-6.585v-41.373c0-3.638,2.945-6.587,6.584-6.587l0,0
		c3.639,0,6.586,2.949,6.586,6.587V143.347z"/>
</g>
<g>
	<g>
		
			<path fill="#97A5B6" stroke="#030332" stroke-width="5" stroke-linecap="round" stroke-linejoin="round" stroke-miterlimit="10" d="
			M508.542,186.925c0,0-3.027-82.72-25.725-97.347c-1.01,0-6.559-39.034-45.899-35.404c-39.344,3.628-47.916,7.846-58.508,41.044
			c-10.594,33.198-15.375,91.707-15.375,91.707H508.542L508.542,186.925L508.542,186.925z"/>
		
			<path fill="#97A5B6" stroke="#030332" stroke-width="5" stroke-linecap="round" stroke-linejoin="round" stroke-miterlimit="10" d="
			M445.493,133.965c0,0,1.514-44.387,37.325-44.387"/>
		
			<path fill="#97A5B6" stroke="#030332" stroke-width="5" stroke-linecap="round" stroke-linejoin="round" stroke-miterlimit="10" d="
			M426.823,55.212c0,0-21.179,4.159-21.179,31.339"/>
		
			<path fill="#97A5B6" stroke="#030332" stroke-width="5" stroke-linecap="round" stroke-linejoin="round" stroke-miterlimit="10" d="
			M399.594,153.802c0,0-12.442,0.674-12.442,33.125"/>
	</g>
	
		<path fill="#97A5B6" stroke="#030332" stroke-width="5" stroke-linecap="round" stroke-linejoin="round" stroke-miterlimit="10" d="
		M613.816,153.802c0,0,0-67.135,23.029-69.77c23.031-2.64,48.621-8.415,65.254,27.738c16.637,36.155,0,42.032,0,42.032h-88.285
		v-0.001H613.816z"/>
	<g>
		
			<path fill="#97A5B6" stroke="#030332" stroke-width="5" stroke-linecap="round" stroke-linejoin="round" stroke-miterlimit="10" d="
			M287.639,136.99c0,0,3.025-82.722,25.723-97.35c1.01,0,6.559-39.034,45.897-35.402c39.344,3.629,47.918,7.848,58.513,41.046
			c10.592,33.195,15.372,91.707,15.372,91.707L287.639,136.99L287.639,136.99z"/>
		
			<path fill="#97A5B6" stroke="#030332" stroke-width="5" stroke-linecap="round" stroke-linejoin="round" stroke-miterlimit="10" d="
			M350.686,84.031c0,0-1.514-44.39-37.323-44.39"/>
		
			<path fill="#97A5B6" stroke="#030332" stroke-width="5" stroke-linecap="round" stroke-linejoin="round" stroke-miterlimit="10" d="
			M369.358,5.277c0,0,21.178,4.159,21.178,31.343"/>
		
			<path fill="#97A5B6" stroke="#030332" stroke-width="5" stroke-linecap="round" stroke-linejoin="round" stroke-miterlimit="10" d="
			M396.586,103.869c0,0,12.441,0.674,12.441,33.122"/>
	</g>
	<g>
		
			<path fill="#97A5B6" stroke="#030332" stroke-width="5" stroke-linecap="round" stroke-linejoin="round" stroke-miterlimit="10" d="
			M915.513,136.99c0,0-3.025-82.722-25.723-97.35c-1.012,0-6.561-39.034-45.9-35.402c-39.342,3.629-47.916,7.848-58.51,41.046
			c-10.592,33.195-15.373,91.707-15.373,91.707L915.513,136.99L915.513,136.99z"/>
		
			<path fill="#97A5B6" stroke="#030332" stroke-width="5" stroke-linecap="round" stroke-linejoin="round" stroke-miterlimit="10" d="
			M852.462,84.031c0,0,1.514-44.39,37.326-44.39"/>
		
			<path fill="#97A5B6" stroke="#030332" stroke-width="5" stroke-linecap="round" stroke-linejoin="round" stroke-miterlimit="10" d="
			M833.794,5.277c0,0-21.176,4.159-21.176,31.343"/>
		
			<path fill="#97A5B6" stroke="#030332" stroke-width="5" stroke-linecap="round" stroke-linejoin="round" stroke-miterlimit="10" d="
			M806.566,103.869c0,0-12.441,0.674-12.441,33.122"/>
	</g>
	<g>
		
			<path fill="#97A5B6" stroke="#030332" stroke-width="5" stroke-linecap="round" stroke-linejoin="round" stroke-miterlimit="10" d="
			M25.372,186.925c0,0,3.026-82.72,25.724-97.347c1.008,0,6.557-39.034,45.898-35.404c39.343,3.628,47.918,7.846,58.51,41.044
			c10.593,33.198,15.373,91.709,15.373,91.709L25.372,186.925L25.372,186.925z"/>
		
			<path fill="#97A5B6" stroke="#030332" stroke-width="5" stroke-linecap="round" stroke-linejoin="round" stroke-miterlimit="10" d="
			M88.422,133.965c0,0-1.513-44.387-37.325-44.387"/>
		
			<path fill="#97A5B6" stroke="#030332" stroke-width="5" stroke-linecap="round" stroke-linejoin="round" stroke-miterlimit="10" d="
			M107.091,55.212c0,0,21.178,4.159,21.178,31.339"/>
		
			<path fill="#97A5B6" stroke="#030332" stroke-width="5" stroke-linecap="round" stroke-linejoin="round" stroke-miterlimit="10" d="
			M134.319,153.802c0,0,12.441,0.674,12.441,33.125"/>
	</g>
	
		<path fill="#97A5B6" stroke="#030332" stroke-width="5" stroke-linecap="round" stroke-linejoin="round" stroke-miterlimit="10" d="
		M123.039,153.802c0,0,0-67.135,23.029-69.77c23.031-2.64,48.621-8.415,65.256,27.738c16.634,36.155,0,42.032,0,42.032
		L123.039,153.802L123.039,153.802L123.039,153.802z"/>
</g>
<g opacity="0.4">
	<path fill="#030331" d="M482.82,89.578c-1.01,0-6.559-39.032-45.901-35.405c-3.617,0.333-6.975,0.672-10.096,1.039l0,0h-0.002
		c-2.113,0.247-4.119,0.507-6.025,0.786c-0.951-3.771-1.959-7.372-3.024-10.715c-9.617-30.146-17.572-36.396-48.408-40.009
		l-0.004-0.001l0,0c-3.123-0.362-6.479-0.701-10.099-1.038c-39.342-3.628-44.891,35.406-45.899,35.406
		c-22.695,14.627-25.723,97.35-25.723,97.35h81.544c-4.188,25.963-6.146,49.935-6.146,49.935h24.113c0,0,0,0,0,0.001v-0.001h121.394
		C508.542,186.924,505.515,104.205,482.82,89.578z"/>
	<path fill="#030331" d="M636.847,84.031c-23.029,2.636-23.029,69.77-23.029,69.77v0.001h88.283c0,0,16.635-5.874,0-42.032
		C685.468,75.615,659.878,81.393,636.847,84.031z"/>
	<path fill="#030331" d="M889.792,39.644c-1.01,0-6.559-39.034-45.898-35.406c-3.619,0.337-6.975,0.676-10.098,1.039V5.276
		c0,0-0.002,0-0.004,0c-30.836,3.612-38.793,9.863-48.41,40.01c-10.592,33.196-15.373,91.708-15.373,91.708l145.506-0.001
		C915.515,136.99,912.492,54.27,889.792,39.644z"/>
	<path fill="#030331" d="M151.293,83.402c-8.239-20.104-17.896-25.108-44.199-28.188h-0.001l0,0
		c-3.123-0.364-6.479-0.704-10.097-1.038C57.654,50.546,52.105,89.58,51.097,89.58c-22.696,14.627-25.723,97.347-25.723,97.347
		l145.506,0.001c0,0-1.184-14.48-3.678-33.124h44.124c0,0,16.634-5.874,0-42.032C195.939,78.326,172.89,80.761,151.293,83.402z"/>
</g>
<g>
	<path fill="#FF85AC" stroke="#030331" stroke-width="5" stroke-miterlimit="10" d="M537.531,86.69c0,3.723-3.02,6.741-6.74,6.741
		l0,0c-3.725,0-6.742-3.02-6.742-6.741V58.343c0-3.725,3.02-6.741,6.742-6.741l0,0c3.723,0,6.74,3.018,6.74,6.741V86.69z"/>
	<path fill="#FF85AC" stroke="#030331" stroke-width="5" stroke-miterlimit="10" d="M547.326,93.004
		c0,3.724-3.02,20.741-6.74,20.741l0,0c-3.725,0-6.742-17.019-6.742-20.741V64.657c0-3.723,3.02-6.741,6.742-6.741l0,0
		c3.723,0,6.74,3.02,6.74,6.741V93.004z"/>
	<path fill="#FF85AC" stroke="#030331" stroke-width="5" stroke-miterlimit="10" d="M557.121,112.421c0,3.722-3.02,6.741-6.74,6.741
		l0,0c-3.725,0-6.742-3.021-6.742-6.741V70.074c0-3.725,3.02-6.74,6.742-6.74l0,0c3.723,0,6.74,3.017,6.74,6.74V112.421z"/>
	<path fill="#FF85AC" stroke="#030331" stroke-width="5" stroke-miterlimit="10" d="M566.916,118.298
		c0,3.722-3.02,6.741-6.742,6.741l0,0c-3.723,0-6.74-3.021-6.74-6.741V75.951c0-3.726,3.02-6.741,6.74-6.741l0,0
		c3.725,0,6.742,3.017,6.742,6.741V118.298z"/>
	<path fill="#FF85AC" stroke="#030331" stroke-width="5" stroke-miterlimit="10" d="M527.736,93.004
		c0,3.724-3.02,20.741-6.74,20.741l0,0c-3.725,0-6.74-17.019-6.74-20.741V64.657c0-3.723,3.018-6.741,6.74-6.741l0,0
		c3.723,0,6.74,3.02,6.74,6.741V93.004z"/>
	<path fill="#FF85AC" stroke="#030331" stroke-width="5" stroke-miterlimit="10" d="M517.941,112.421c0,3.722-3.02,6.741-6.74,6.741
		l0,0c-3.725,0-6.74-3.021-6.74-6.741V70.074c0-3.725,3.018-6.74,6.74-6.74l0,0c3.723,0,6.74,3.017,6.74,6.74V112.421z"/>
	<path fill="#FF85AC" stroke="#030331" stroke-width="5" stroke-miterlimit="10" d="M508.146,118.298c0,3.722-3.02,6.741-6.74,6.741
		l0,0c-3.725,0-6.74-3.021-6.74-6.741V75.951c0-3.726,3.018-6.741,6.74-6.741l0,0c3.723,0,6.74,3.017,6.74,6.741V118.298z"/>
	<path fill="#FF85AC" stroke="#030331" stroke-width="5" stroke-miterlimit="10" d="M537.531,112.427c0,3.725-3.02,6.741-6.74,6.741
		l0,0c-3.725,0-6.742-3.018-6.742-6.741V70.08c0-3.723,3.02-6.741,6.742-6.741l0,0c3.723,0,6.74,3.02,6.74,6.741V112.427z"/>
	<path fill="#FF85AC" stroke="#030331" stroke-width="5" stroke-miterlimit="10" d="M527.736,118.298c0,3.722-3.02,6.741-6.74,6.741
		l0,0c-3.725,0-6.74-3.021-6.74-6.741V75.951c0-3.726,3.018-6.741,6.74-6.741l0,0c3.723,0,6.74,3.017,6.74,6.741V118.298z"/>
	<path fill="#FF85AC" stroke="#030331" stroke-width="5" stroke-miterlimit="10" d="M517.941,124.175c0,3.722-3.02,6.741-6.74,6.741
		l0,0c-3.725,0-6.74-3.021-6.74-6.741V81.828c0-3.726,3.018-6.741,6.74-6.741l0,0c3.723,0,6.74,3.017,6.74,6.741V124.175z"/>
	<path fill="#FF85AC" stroke="#030331" stroke-width="5" stroke-miterlimit="10" d="M547.326,118.298c0,3.722-3.02,6.741-6.74,6.741
		l0,0c-3.725,0-6.742-3.021-6.742-6.741V75.951c0-3.726,3.02-6.741,6.742-6.741l0,0c3.723,0,6.74,3.017,6.74,6.741V118.298z"/>
	<path fill="#FF85AC" stroke="#030331" stroke-width="5" stroke-miterlimit="10" d="M537.531,124.167c0,3.724-3.02,6.741-6.74,6.741
		l0,0c-3.725,0-6.742-3.019-6.742-6.741V81.821c0-3.722,3.02-6.74,6.742-6.74l0,0c3.723,0,6.74,3.02,6.74,6.74V124.167z"/>
	<path fill="#FF85AC" stroke="#030331" stroke-width="5" stroke-miterlimit="10" d="M557.121,124.175c0,3.722-3.02,6.741-6.74,6.741
		l0,0c-3.725,0-6.742-3.021-6.742-6.741V81.828c0-3.726,3.02-6.741,6.742-6.741l0,0c3.723,0,6.74,3.017,6.74,6.741V124.175z"/>
	<path fill="#FF85AC" stroke="#030331" stroke-width="5" stroke-miterlimit="10" d="M527.736,129.59c0,3.725-3.02,6.741-6.74,6.741
		l0,0c-3.725,0-6.74-3.018-6.74-6.741V87.243c0-3.723,3.018-6.741,6.74-6.741l0,0c3.723,0,6.74,3.02,6.74,6.741V129.59z"/>
	<path fill="#FF85AC" stroke="#030331" stroke-width="5" stroke-miterlimit="10" d="M547.326,129.59c0,3.725-3.02,6.741-6.74,6.741
		l0,0c-3.725,0-6.742-3.018-6.742-6.741V87.243c0-3.723,3.02-6.741,6.742-6.741l0,0c3.723,0,6.74,3.02,6.74,6.741V129.59z"/>
	<path fill="#FF85AC" stroke="#030331" stroke-width="5" stroke-miterlimit="10" d="M537.531,135.907c0,3.722-3.02,6.739-6.74,6.739
		l0,0c-3.725,0-6.742-3.019-6.742-6.739V93.56c0-3.724,3.02-6.74,6.742-6.74l0,0c3.723,0,6.74,3.018,6.74,6.74V135.907z"/>
</g>
<g>
	<path fill="#59AA89" stroke="#030331" stroke-width="5" stroke-miterlimit="10" d="M305.532,81.954
		c0,4.479-3.632,8.112-8.113,8.112l0,0c-4.481,0-8.113-3.635-8.113-8.112V47.838c0-4.482,3.632-8.113,8.113-8.113l0,0
		c4.48,0,8.113,3.631,8.113,8.113V81.954z"/>
	<path fill="#59AA89" stroke="#030331" stroke-width="5" stroke-miterlimit="10" d="M317.321,89.554
		c0,4.481-3.632,24.962-8.113,24.962l0,0c-4.481,0-8.113-20.479-8.113-24.962V55.438c0-4.479,3.632-8.112,8.113-8.112l0,0
		c4.48,0,8.113,3.634,8.113,8.112V89.554z"/>
	<path fill="#59AA89" stroke="#030331" stroke-width="5" stroke-miterlimit="10" d="M329.109,112.922
		c0,4.479-3.633,8.113-8.112,8.113l0,0c-4.481,0-8.113-3.635-8.113-8.113V61.957c0-4.481,3.632-8.112,8.113-8.112l0,0
		c4.479,0,8.112,3.631,8.112,8.112V112.922z"/>
	<path fill="#59AA89" stroke="#030331" stroke-width="5" stroke-miterlimit="10" d="M340.897,119.995
		c0,4.479-3.633,8.112-8.113,8.112l0,0c-4.48,0-8.113-3.634-8.113-8.112V69.031c0-4.482,3.632-8.113,8.113-8.113l0,0
		c4.48,0,8.113,3.631,8.113,8.113V119.995z"/>
	<path fill="#59AA89" stroke="#030331" stroke-width="5" stroke-miterlimit="10" d="M293.745,89.554
		c0,4.481-3.632,24.962-8.113,24.962l0,0c-4.48,0-8.113-20.479-8.113-24.962V55.438c0-4.479,3.632-8.112,8.113-8.112l0,0
		c4.481,0,8.113,3.634,8.113,8.112V89.554z"/>
	<path fill="#59AA89" stroke="#030331" stroke-width="5" stroke-miterlimit="10" d="M281.957,112.922
		c0,4.479-3.632,8.113-8.113,8.113l0,0c-4.48,0-8.113-3.635-8.113-8.113V61.957c0-4.481,3.632-8.112,8.113-8.112l0,0
		c4.481,0,8.113,3.631,8.113,8.112V112.922z"/>
	<path fill="#59AA89" stroke="#030331" stroke-width="5" stroke-miterlimit="10" d="M270.168,119.995
		c0,4.479-3.632,8.112-8.113,8.112l0,0c-4.48,0-8.113-3.634-8.113-8.112V69.031c0-4.482,3.632-8.113,8.113-8.113l0,0
		c4.48,0,8.113,3.631,8.113,8.113V119.995z"/>
	<path fill="#59AA89" stroke="#030331" stroke-width="5" stroke-miterlimit="10" d="M305.532,112.93
		c0,4.482-3.632,8.113-8.113,8.113l0,0c-4.481,0-8.113-3.631-8.113-8.113V61.964c0-4.479,3.632-8.113,8.113-8.113l0,0
		c4.48,0,8.113,3.635,8.113,8.113V112.93z"/>
	<path fill="#59AA89" stroke="#030331" stroke-width="5" stroke-miterlimit="10" d="M293.745,119.995
		c0,4.479-3.632,8.112-8.113,8.112l0,0c-4.48,0-8.113-3.634-8.113-8.112V69.031c0-4.482,3.632-8.113,8.113-8.113l0,0
		c4.481,0,8.113,3.631,8.113,8.113V119.995z"/>
	<path fill="#59AA89" stroke="#030331" stroke-width="5" stroke-miterlimit="10" d="M281.957,127.069
		c0,4.479-3.632,8.113-8.113,8.113l0,0c-4.48,0-8.113-3.634-8.113-8.113V76.104c0-4.482,3.632-8.112,8.113-8.112l0,0
		c4.481,0,8.113,3.63,8.113,8.112V127.069z"/>
	<path fill="#59AA89" stroke="#030331" stroke-width="5" stroke-miterlimit="10" d="M317.321,119.995
		c0,4.479-3.632,8.112-8.113,8.112l0,0c-4.481,0-8.113-3.634-8.113-8.112V69.031c0-4.482,3.632-8.113,8.113-8.113l0,0
		c4.48,0,8.113,3.631,8.113,8.113V119.995z"/>
	<path fill="#59AA89" stroke="#030331" stroke-width="5" stroke-miterlimit="10" d="M305.532,127.059
		c0,4.482-3.632,8.113-8.113,8.113l0,0c-4.481,0-8.113-3.631-8.113-8.113V76.094c0-4.479,3.632-8.113,8.113-8.113l0,0
		c4.48,0,8.113,3.635,8.113,8.113V127.059z"/>
	<path fill="#59AA89" stroke="#030331" stroke-width="5" stroke-miterlimit="10" d="M329.109,127.069
		c0,4.479-3.633,8.113-8.112,8.113l0,0c-4.481,0-8.113-3.634-8.113-8.113V76.104c0-4.482,3.632-8.112,8.113-8.112l0,0
		c4.479,0,8.112,3.63,8.112,8.112V127.069z"/>
	<path fill="#59AA89" stroke="#030331" stroke-width="5" stroke-miterlimit="10" d="M293.745,133.586
		c0,4.481-3.632,8.113-8.113,8.113l0,0c-4.48,0-8.113-3.632-8.113-8.113V82.62c0-4.479,3.632-8.113,8.113-8.113l0,0
		c4.481,0,8.113,3.635,8.113,8.113V133.586z"/>
	<path fill="#59AA89" stroke="#030331" stroke-width="5" stroke-miterlimit="10" d="M317.321,133.586
		c0,4.481-3.632,8.113-8.113,8.113l0,0c-4.481,0-8.113-3.632-8.113-8.113V82.62c0-4.479,3.632-8.113,8.113-8.113l0,0
		c4.48,0,8.113,3.635,8.113,8.113V133.586z"/>
	<path fill="#59AA89" stroke="#030331" stroke-width="5" stroke-miterlimit="10" d="M305.532,141.189
		c0,4.479-3.632,8.112-8.113,8.112l0,0c-4.481,0-8.113-3.633-8.113-8.112V90.223c0-4.48,3.632-8.112,8.113-8.112l0,0
		c4.48,0,8.113,3.632,8.113,8.112V141.189z"/>
</g>
<g>
	<path fill="#95D89A" stroke="#030331" stroke-width="5" stroke-miterlimit="10" d="M785.919,81.954
		c0,4.479-3.633,8.112-8.113,8.112l0,0c-4.48,0-8.113-3.635-8.113-8.112V47.838c0-4.482,3.633-8.113,8.113-8.113l0,0
		c4.48,0,8.113,3.631,8.113,8.113V81.954z"/>
	<path fill="#95D89A" stroke="#030331" stroke-width="5" stroke-miterlimit="10" d="M797.708,89.554
		c0,4.481-3.633,24.962-8.113,24.962l0,0c-4.48,0-8.111-20.479-8.111-24.962V55.438c0-4.479,3.631-8.112,8.111-8.112l0,0
		c4.48,0,8.113,3.634,8.113,8.112V89.554z"/>
	<path fill="#95D89A" stroke="#030331" stroke-width="5" stroke-miterlimit="10" d="M809.496,112.922
		c0,4.479-3.633,8.113-8.111,8.113l0,0c-4.48,0-8.113-3.635-8.113-8.113V61.957c0-4.481,3.633-8.112,8.113-8.112l0,0
		c4.479,0,8.111,3.631,8.111,8.112V112.922z"/>
	<path fill="#95D89A" stroke="#030331" stroke-width="5" stroke-miterlimit="10" d="M821.285,119.995
		c0,4.479-3.633,8.112-8.113,8.112l0,0c-4.479,0-8.113-3.634-8.113-8.112V69.031c0-4.482,3.635-8.113,8.113-8.113l0,0
		c4.48,0,8.113,3.631,8.113,8.113V119.995z"/>
	<path fill="#95D89A" stroke="#030331" stroke-width="5" stroke-miterlimit="10" d="M774.132,89.554
		c0,4.481-3.633,24.962-8.113,24.962l0,0c-4.48,0-8.113-20.479-8.113-24.962V55.438c0-4.479,3.633-8.112,8.113-8.112l0,0
		c4.48,0,8.113,3.634,8.113,8.112V89.554z"/>
	<path fill="#95D89A" stroke="#030331" stroke-width="5" stroke-miterlimit="10" d="M762.343,112.922
		c0,4.479-3.633,8.113-8.113,8.113l0,0c-4.48,0-8.113-3.635-8.113-8.113V61.957c0-4.481,3.633-8.112,8.113-8.112l0,0
		c4.48,0,8.113,3.631,8.113,8.112V112.922z"/>
	<path fill="#95D89A" stroke="#030331" stroke-width="5" stroke-miterlimit="10" d="M750.554,119.995
		c0,4.479-3.633,8.112-8.111,8.112l0,0c-4.48,0-8.113-3.634-8.113-8.112V69.031c0-4.482,3.633-8.113,8.113-8.113l0,0
		c4.479,0,8.111,3.631,8.111,8.113V119.995z"/>
	<path fill="#95D89A" stroke="#030331" stroke-width="5" stroke-miterlimit="10" d="M785.919,112.93
		c0,4.482-3.633,8.113-8.113,8.113l0,0c-4.48,0-8.113-3.631-8.113-8.113V61.964c0-4.479,3.633-8.113,8.113-8.113l0,0
		c4.48,0,8.113,3.635,8.113,8.113V112.93z"/>
	<path fill="#95D89A" stroke="#030331" stroke-width="5" stroke-miterlimit="10" d="M774.132,119.995
		c0,4.479-3.633,8.112-8.113,8.112l0,0c-4.48,0-8.113-3.634-8.113-8.112V69.031c0-4.482,3.633-8.113,8.113-8.113l0,0
		c4.48,0,8.113,3.631,8.113,8.113V119.995z"/>
	<path fill="#95D89A" stroke="#030331" stroke-width="5" stroke-miterlimit="10" d="M762.343,127.069
		c0,4.479-3.633,8.113-8.113,8.113l0,0c-4.48,0-8.113-3.634-8.113-8.113V76.104c0-4.482,3.633-8.112,8.113-8.112l0,0
		c4.48,0,8.113,3.63,8.113,8.112V127.069z"/>
	<path fill="#95D89A" stroke="#030331" stroke-width="5" stroke-miterlimit="10" d="M797.708,119.995
		c0,4.479-3.633,8.112-8.113,8.112l0,0c-4.48,0-8.111-3.634-8.111-8.112V69.031c0-4.482,3.631-8.113,8.111-8.113l0,0
		c4.48,0,8.113,3.631,8.113,8.113V119.995z"/>
	<path fill="#95D89A" stroke="#030331" stroke-width="5" stroke-miterlimit="10" d="M785.919,127.059
		c0,4.482-3.633,8.113-8.113,8.113l0,0c-4.48,0-8.113-3.631-8.113-8.113V76.094c0-4.479,3.633-8.113,8.113-8.113l0,0
		c4.48,0,8.113,3.635,8.113,8.113V127.059z"/>
	<path fill="#95D89A" stroke="#030331" stroke-width="5" stroke-miterlimit="10" d="M809.496,127.069
		c0,4.479-3.633,8.113-8.111,8.113l0,0c-4.48,0-8.113-3.634-8.113-8.113V76.104c0-4.482,3.633-8.112,8.113-8.112l0,0
		c4.479,0,8.111,3.63,8.111,8.112V127.069z"/>
	<path fill="#95D89A" stroke="#030331" stroke-width="5" stroke-miterlimit="10" d="M774.132,133.586
		c0,4.481-3.633,8.113-8.113,8.113l0,0c-4.48,0-8.113-3.632-8.113-8.113V82.62c0-4.479,3.633-8.113,8.113-8.113l0,0
		c4.48,0,8.113,3.635,8.113,8.113V133.586z"/>
	<path fill="#95D89A" stroke="#030331" stroke-width="5" stroke-miterlimit="10" d="M797.708,133.586
		c0,4.481-3.633,8.113-8.113,8.113l0,0c-4.48,0-8.111-3.632-8.111-8.113V82.62c0-4.479,3.631-8.113,8.111-8.113l0,0
		c4.48,0,8.113,3.635,8.113,8.113V133.586z"/>
	<path fill="#95D89A" stroke="#030331" stroke-width="5" stroke-miterlimit="10" d="M785.919,141.189
		c0,4.479-3.633,8.112-8.113,8.112l0,0c-4.48,0-8.113-3.633-8.113-8.112V90.223c0-4.48,3.633-8.112,8.113-8.112l0,0
		c4.48,0,8.113,3.632,8.113,8.112V141.189z"/>
</g>
<g>
	<path fill="#FFAABA" stroke="#030331" stroke-width="3.5" stroke-miterlimit="10" d="M360.349,96.457
		c0,2.559-2.074,4.634-4.634,4.634l0,0c-2.56,0-4.634-2.075-4.634-4.634V76.97c0-2.56,2.075-4.634,4.634-4.634l0,0
		c2.56,0,4.634,2.074,4.634,4.634V96.457z"/>
	<path fill="#FFAABA" stroke="#030331" stroke-width="3.5" stroke-miterlimit="10" d="M367.083,100.798
		c0,2.56-2.075,14.258-4.634,14.258l0,0c-2.561,0-4.634-11.698-4.634-14.258V81.311c0-2.558,2.074-4.634,4.634-4.634l0,0
		c2.559,0,4.634,2.076,4.634,4.634V100.798z"/>
	<path fill="#FFAABA" stroke="#030331" stroke-width="3.5" stroke-miterlimit="10" d="M373.816,114.146
		c0,2.56-2.075,4.636-4.635,4.636l0,0c-2.56,0-4.634-2.076-4.634-4.636V85.036c0-2.562,2.075-4.635,4.634-4.635l0,0
		c2.56,0,4.635,2.073,4.635,4.635V114.146z"/>
	<path fill="#FFAABA" stroke="#030331" stroke-width="3.5" stroke-miterlimit="10" d="M380.549,118.186
		c0,2.56-2.075,4.635-4.634,4.635l0,0c-2.559,0-4.634-2.075-4.634-4.635V89.076c0-2.562,2.075-4.636,4.634-4.636l0,0
		c2.56,0,4.634,2.074,4.634,4.636V118.186z"/>
	<path fill="#FFAABA" stroke="#030331" stroke-width="3.5" stroke-miterlimit="10" d="M353.616,100.798
		c0,2.56-2.075,14.258-4.634,14.258l0,0c-2.56,0-4.635-11.698-4.635-14.258V81.311c0-2.558,2.075-4.634,4.635-4.634l0,0
		c2.56,0,4.634,2.076,4.634,4.634V100.798z"/>
	<path fill="#FFAABA" stroke="#030331" stroke-width="3.5" stroke-miterlimit="10" d="M346.883,114.146
		c0,2.56-2.075,4.636-4.634,4.636l0,0c-2.559,0-4.634-2.076-4.634-4.636V85.036c0-2.562,2.075-4.635,4.634-4.635l0,0
		c2.56,0,4.634,2.073,4.634,4.635V114.146z"/>
	<path fill="#FFAABA" stroke="#030331" stroke-width="3.5" stroke-miterlimit="10" d="M340.149,118.186
		c0,2.56-2.075,4.635-4.635,4.635l0,0c-2.56,0-4.634-2.075-4.634-4.635V89.076c0-2.562,2.075-4.636,4.634-4.636l0,0
		c2.56,0,4.635,2.074,4.635,4.636V118.186z"/>
	<path fill="#FFAABA" stroke="#030331" stroke-width="3.5" stroke-miterlimit="10" d="M360.349,114.15
		c0,2.562-2.074,4.636-4.634,4.636l0,0c-2.56,0-4.634-2.074-4.634-4.636V85.04c0-2.56,2.075-4.635,4.634-4.635l0,0
		c2.56,0,4.634,2.075,4.634,4.635V114.15z"/>
	<path fill="#FFAABA" stroke="#030331" stroke-width="3.5" stroke-miterlimit="10" d="M353.616,118.186
		c0,2.56-2.075,4.635-4.634,4.635l0,0c-2.56,0-4.635-2.075-4.635-4.635V89.076c0-2.562,2.075-4.636,4.635-4.636l0,0
		c2.56,0,4.634,2.074,4.634,4.636V118.186z"/>
	<path fill="#FFAABA" stroke="#030331" stroke-width="3.5" stroke-miterlimit="10" d="M346.883,122.226
		c0,2.56-2.075,4.635-4.634,4.635l0,0c-2.559,0-4.634-2.075-4.634-4.635V93.116c0-2.562,2.075-4.636,4.634-4.636l0,0
		c2.56,0,4.634,2.074,4.634,4.636V122.226z"/>
	<path fill="#FFAABA" stroke="#030331" stroke-width="3.5" stroke-miterlimit="10" d="M367.083,118.186
		c0,2.56-2.075,4.635-4.634,4.635l0,0c-2.561,0-4.634-2.075-4.634-4.635V89.076c0-2.562,2.074-4.636,4.634-4.636l0,0
		c2.559,0,4.634,2.074,4.634,4.636V118.186z"/>
	<path fill="#FFAABA" stroke="#030331" stroke-width="3.5" stroke-miterlimit="10" d="M360.349,122.221
		c0,2.561-2.074,4.634-4.634,4.634l0,0c-2.56,0-4.634-2.073-4.634-4.634V93.11c0-2.559,2.075-4.634,4.634-4.634l0,0
		c2.56,0,4.634,2.075,4.634,4.634V122.221z"/>
	<path fill="#FFAABA" stroke="#030331" stroke-width="3.5" stroke-miterlimit="10" d="M373.816,122.226
		c0,2.56-2.075,4.635-4.635,4.635l0,0c-2.56,0-4.634-2.075-4.634-4.635V93.116c0-2.562,2.075-4.636,4.634-4.636l0,0
		c2.56,0,4.635,2.074,4.635,4.636V122.226z"/>
	<path fill="#FFAABA" stroke="#030331" stroke-width="3.5" stroke-miterlimit="10" d="M353.616,125.948
		c0,2.561-2.075,4.635-4.634,4.635l0,0c-2.56,0-4.635-2.074-4.635-4.635v-29.11c0-2.56,2.075-4.635,4.635-4.635l0,0
		c2.56,0,4.634,2.075,4.634,4.635V125.948z"/>
	<path fill="#FFAABA" stroke="#030331" stroke-width="3.5" stroke-miterlimit="10" d="M367.083,125.948
		c0,2.561-2.075,4.635-4.634,4.635l0,0c-2.561,0-4.634-2.074-4.634-4.635v-29.11c0-2.56,2.074-4.635,4.634-4.635l0,0
		c2.559,0,4.634,2.075,4.634,4.635V125.948z"/>
	<path fill="#FFAABA" stroke="#030331" stroke-width="3.5" stroke-miterlimit="10" d="M360.349,130.291
		c0,2.559-2.074,4.634-4.634,4.634l0,0c-2.56,0-4.634-2.075-4.634-4.634V101.18c0-2.56,2.075-4.634,4.634-4.634l0,0
		c2.56,0,4.634,2.074,4.634,4.634V130.291z"/>
</g>
<g>
	<path fill="#FFAA82" stroke="#030331" stroke-width="5" stroke-miterlimit="10" d="M235.053,99.067
		c0,3.723-3.018,6.741-6.741,6.741l0,0c-3.723,0-6.741-3.02-6.741-6.741V70.72c0-3.725,3.018-6.741,6.741-6.741l0,0
		c3.723,0,6.741,3.018,6.741,6.741V99.067z"/>
	<path fill="#FFAA82" stroke="#030331" stroke-width="5" stroke-miterlimit="10" d="M244.848,105.381
		c0,3.724-3.018,20.741-6.741,20.741l0,0c-3.723,0-6.741-17.019-6.741-20.741V77.034c0-3.723,3.018-6.741,6.741-6.741l0,0
		c3.723,0,6.741,3.02,6.741,6.741V105.381z"/>
	<path fill="#FFAA82" stroke="#030331" stroke-width="5" stroke-miterlimit="10" d="M254.643,124.798
		c0,3.722-3.018,6.741-6.741,6.741l0,0c-3.723,0-6.741-3.021-6.741-6.741V82.451c0-3.725,3.018-6.74,6.741-6.74l0,0
		c3.723,0,6.741,3.017,6.741,6.74V124.798z"/>
	<path fill="#FFAA82" stroke="#030331" stroke-width="5" stroke-miterlimit="10" d="M264.438,130.675
		c0,3.722-3.018,6.741-6.741,6.741l0,0c-3.723,0-6.741-3.021-6.741-6.741V88.328c0-3.726,3.018-6.741,6.741-6.741l0,0
		c3.723,0,6.741,3.017,6.741,6.741V130.675z"/>
	<path fill="#FFAA82" stroke="#030331" stroke-width="5" stroke-miterlimit="10" d="M225.259,105.381
		c0,3.724-3.018,20.741-6.741,20.741l0,0c-3.723,0-6.741-17.019-6.741-20.741V77.034c0-3.723,3.018-6.741,6.741-6.741l0,0
		c3.723,0,6.741,3.02,6.741,6.741V105.381z"/>
	<path fill="#FFAA82" stroke="#030331" stroke-width="5" stroke-miterlimit="10" d="M215.464,124.798
		c0,3.722-3.018,6.741-6.741,6.741l0,0c-3.723,0-6.741-3.021-6.741-6.741V82.451c0-3.725,3.018-6.74,6.741-6.74l0,0
		c3.723,0,6.741,3.017,6.741,6.74V124.798z"/>
	<path fill="#FFAA82" stroke="#030331" stroke-width="5" stroke-miterlimit="10" d="M205.669,130.675
		c0,3.722-3.018,6.741-6.741,6.741l0,0c-3.723,0-6.741-3.021-6.741-6.741V88.328c0-3.726,3.018-6.741,6.741-6.741l0,0
		c3.723,0,6.741,3.017,6.741,6.741V130.675z"/>
	<path fill="#FFAA82" stroke="#030331" stroke-width="5" stroke-miterlimit="10" d="M235.053,124.804
		c0,3.725-3.018,6.741-6.741,6.741l0,0c-3.723,0-6.741-3.018-6.741-6.741V82.457c0-3.723,3.018-6.741,6.741-6.741l0,0
		c3.723,0,6.741,3.02,6.741,6.741V124.804z"/>
	<path fill="#FFAA82" stroke="#030331" stroke-width="5" stroke-miterlimit="10" d="M225.259,130.675
		c0,3.722-3.018,6.741-6.741,6.741l0,0c-3.723,0-6.741-3.021-6.741-6.741V88.328c0-3.726,3.018-6.741,6.741-6.741l0,0
		c3.723,0,6.741,3.017,6.741,6.741V130.675z"/>
	<path fill="#FFAA82" stroke="#030331" stroke-width="5" stroke-miterlimit="10" d="M215.464,136.552
		c0,3.722-3.018,6.741-6.741,6.741l0,0c-3.723,0-6.741-3.021-6.741-6.741V94.205c0-3.726,3.018-6.741,6.741-6.741l0,0
		c3.723,0,6.741,3.017,6.741,6.741V136.552z"/>
	<path fill="#FFAA82" stroke="#030331" stroke-width="5" stroke-miterlimit="10" d="M244.848,130.675
		c0,3.722-3.018,6.741-6.741,6.741l0,0c-3.723,0-6.741-3.021-6.741-6.741V88.328c0-3.726,3.018-6.741,6.741-6.741l0,0
		c3.723,0,6.741,3.017,6.741,6.741V130.675z"/>
	<path fill="#FFAA82" stroke="#030331" stroke-width="5" stroke-miterlimit="10" d="M235.053,136.544
		c0,3.724-3.018,6.741-6.741,6.741l0,0c-3.723,0-6.741-3.019-6.741-6.741V94.198c0-3.723,3.018-6.741,6.741-6.741l0,0
		c3.723,0,6.741,3.02,6.741,6.741V136.544z"/>
	<path fill="#FFAA82" stroke="#030331" stroke-width="5" stroke-miterlimit="10" d="M254.643,136.552
		c0,3.722-3.018,6.741-6.741,6.741l0,0c-3.723,0-6.741-3.021-6.741-6.741V94.205c0-3.726,3.018-6.741,6.741-6.741l0,0
		c3.723,0,6.741,3.017,6.741,6.741V136.552z"/>
	<path fill="#FFAA82" stroke="#030331" stroke-width="5" stroke-miterlimit="10" d="M225.259,141.967
		c0,3.725-3.018,6.741-6.741,6.741l0,0c-3.723,0-6.741-3.018-6.741-6.741V99.62c0-3.723,3.018-6.741,6.741-6.741l0,0
		c3.723,0,6.741,3.02,6.741,6.741V141.967z"/>
	<path fill="#FFAA82" stroke="#030331" stroke-width="5" stroke-miterlimit="10" d="M244.848,141.967
		c0,3.725-3.018,6.741-6.741,6.741l0,0c-3.723,0-6.741-3.018-6.741-6.741V99.62c0-3.723,3.018-6.741,6.741-6.741l0,0
		c3.723,0,6.741,3.02,6.741,6.741V141.967z"/>
	<path fill="#FFAA82" stroke="#030331" stroke-width="5" stroke-miterlimit="10" d="M235.053,148.284
		c0,3.722-3.018,6.739-6.741,6.739l0,0c-3.723,0-6.741-3.019-6.741-6.739v-42.349c0-3.724,3.018-6.74,6.741-6.74l0,0
		c3.723,0,6.741,3.018,6.741,6.74V148.284z"/>
</g>
<g>
	<path fill="#FFF1BA" stroke="#030331" stroke-width="3.5" stroke-miterlimit="10" d="M727.595,93.168
		c0,2.559-2.074,4.634-4.635,4.634l0,0c-2.559,0-4.633-2.075-4.633-4.634V73.681c0-2.56,2.074-4.634,4.633-4.634l0,0
		c2.561,0,4.635,2.074,4.635,4.634V93.168z"/>
	<path fill="#FFF1BA" stroke="#030331" stroke-width="3.5" stroke-miterlimit="10" d="M734.33,97.509
		c0,2.56-2.076,14.258-4.635,14.258l0,0c-2.561,0-4.635-11.698-4.635-14.258V78.022c0-2.558,2.074-4.634,4.635-4.634l0,0
		c2.559,0,4.635,2.076,4.635,4.634V97.509z"/>
	<path fill="#FFF1BA" stroke="#030331" stroke-width="3.5" stroke-miterlimit="10" d="M741.062,110.857
		c0,2.56-2.074,4.636-4.635,4.636l0,0c-2.559,0-4.633-2.076-4.633-4.636V81.747c0-2.562,2.074-4.635,4.633-4.635l0,0
		c2.561,0,4.635,2.073,4.635,4.635V110.857z"/>
	<path fill="#FFF1BA" stroke="#030331" stroke-width="3.5" stroke-miterlimit="10" d="M747.794,114.897
		c0,2.56-2.074,4.636-4.633,4.636l0,0c-2.561,0-4.635-2.076-4.635-4.636V85.787c0-2.562,2.074-4.636,4.635-4.636l0,0
		c2.559,0,4.633,2.074,4.633,4.636V114.897z"/>
	<path fill="#FFF1BA" stroke="#030331" stroke-width="3.5" stroke-miterlimit="10" d="M720.863,97.509
		c0,2.56-2.074,14.258-4.635,14.258l0,0c-2.559,0-4.635-11.698-4.635-14.258V78.022c0-2.558,2.076-4.634,4.635-4.634l0,0
		c2.561,0,4.635,2.076,4.635,4.634V97.509z"/>
	<path fill="#FFF1BA" stroke="#030331" stroke-width="3.5" stroke-miterlimit="10" d="M714.128,110.857
		c0,2.56-2.074,4.636-4.635,4.636l0,0c-2.561,0-4.633-2.076-4.633-4.636V81.747c0-2.562,2.072-4.635,4.633-4.635l0,0
		c2.561,0,4.635,2.073,4.635,4.635V110.857z"/>
	<path fill="#FFF1BA" stroke="#030331" stroke-width="3.5" stroke-miterlimit="10" d="M707.396,114.897
		c0,2.56-2.074,4.636-4.635,4.636l0,0c-2.559,0-4.635-2.076-4.635-4.636V85.787c0-2.562,2.076-4.636,4.635-4.636l0,0
		c2.561,0,4.635,2.074,4.635,4.636V114.897z"/>
	<path fill="#FFF1BA" stroke="#030331" stroke-width="3.5" stroke-miterlimit="10" d="M727.595,110.861
		c0,2.562-2.074,4.636-4.635,4.636l0,0c-2.559,0-4.633-2.074-4.633-4.636V81.75c0-2.56,2.074-4.635,4.633-4.635l0,0
		c2.561,0,4.635,2.075,4.635,4.635V110.861z"/>
	<path fill="#FFF1BA" stroke="#030331" stroke-width="3.5" stroke-miterlimit="10" d="M720.863,114.897
		c0,2.56-2.074,4.636-4.635,4.636l0,0c-2.559,0-4.635-2.076-4.635-4.636V85.787c0-2.562,2.076-4.636,4.635-4.636l0,0
		c2.561,0,4.635,2.074,4.635,4.636V114.897z"/>
	<path fill="#FFF1BA" stroke="#030331" stroke-width="3.5" stroke-miterlimit="10" d="M714.128,118.937
		c0,2.56-2.074,4.636-4.635,4.636l0,0c-2.561,0-4.633-2.076-4.633-4.636V89.827c0-2.562,2.072-4.636,4.633-4.636l0,0
		c2.561,0,4.635,2.074,4.635,4.636V118.937z"/>
	<path fill="#FFF1BA" stroke="#030331" stroke-width="3.5" stroke-miterlimit="10" d="M734.33,114.897
		c0,2.56-2.076,4.636-4.635,4.636l0,0c-2.561,0-4.635-2.076-4.635-4.636V85.787c0-2.562,2.074-4.636,4.635-4.636l0,0
		c2.559,0,4.635,2.074,4.635,4.636V114.897z"/>
	<path fill="#FFF1BA" stroke="#030331" stroke-width="3.5" stroke-miterlimit="10" d="M727.595,118.932
		c0,2.561-2.074,4.634-4.635,4.634l0,0c-2.559,0-4.633-2.073-4.633-4.634V89.821c0-2.559,2.074-4.634,4.633-4.634l0,0
		c2.561,0,4.635,2.075,4.635,4.634V118.932z"/>
	<path fill="#FFF1BA" stroke="#030331" stroke-width="3.5" stroke-miterlimit="10" d="M741.062,118.937
		c0,2.56-2.074,4.636-4.635,4.636l0,0c-2.559,0-4.633-2.076-4.633-4.636V89.827c0-2.562,2.074-4.636,4.633-4.636l0,0
		c2.561,0,4.635,2.074,4.635,4.636V118.937z"/>
	<path fill="#FFF1BA" stroke="#030331" stroke-width="3.5" stroke-miterlimit="10" d="M720.863,122.659
		c0,2.561-2.074,4.635-4.635,4.635l0,0c-2.559,0-4.635-2.074-4.635-4.635v-29.11c0-2.559,2.076-4.635,4.635-4.635l0,0
		c2.561,0,4.635,2.076,4.635,4.635V122.659z"/>
	<path fill="#FFF1BA" stroke="#030331" stroke-width="3.5" stroke-miterlimit="10" d="M734.33,122.659
		c0,2.561-2.076,4.635-4.635,4.635l0,0c-2.561,0-4.635-2.074-4.635-4.635v-29.11c0-2.559,2.074-4.635,4.635-4.635l0,0
		c2.559,0,4.635,2.076,4.635,4.635V122.659z"/>
	<path fill="#FFF1BA" stroke="#030331" stroke-width="3.5" stroke-miterlimit="10" d="M727.595,127.002
		c0,2.559-2.074,4.634-4.635,4.634l0,0c-2.559,0-4.633-2.075-4.633-4.634V97.891c0-2.56,2.074-4.634,4.633-4.634l0,0
		c2.561,0,4.635,2.074,4.635,4.634V127.002z"/>
</g>
</svg>
