<?xml version="1.0" encoding="utf-8"?>
<!-- Generator: Adobe Illustrator 16.0.0, SVG Export Plug-In . SVG Version: 6.00 Build 0)  -->
<!DOCTYPE svg PUBLIC "-//W3C//DTD SVG 1.1//EN" "http://www.w3.org/Graphics/SVG/1.1/DTD/svg11.dtd">
<svg version="1.1" id="Layer_1" xmlns="http://www.w3.org/2000/svg" xmlns:xlink="http://www.w3.org/1999/xlink" x="0px" y="0px"
	 width="3155.368px" height="540.441px" viewBox="0 0 3155.368 540.441" enable-background="new 0 0 3155.368 540.441"
	 xml:space="preserve">
<pattern  x="1328.184" y="520.721" width="303" height="218" patternUnits="userSpaceOnUse" id="SVGID_2_" viewBox="0 -218 303 218" overflow="visible">
	<g>
		<polygon fill="none" points="0,0 303,0 303,-218 0,-218 		"/>
		<g>
			<polygon fill="none" points="0,-218 303,-218 303,0 0,0 			"/>
			<g>
				<polygon fill="none" points="0,0 303,0 303,-218 0,-218 				"/>
				<g>
					<polygon fill="none" points="0,-218 303,-218 303,0 0,0 					"/>
					<g>
						<polygon fill="none" points="0,0 303,0 303,-218 0,-218 						"/>
						<g>
							<polygon fill="none" points="0,-218 303,-218 303,0 0,0 							"/>
							<g>
								<polygon fill="none" points="0,0 303,0 303,-218 0,-218 								"/>
								<g>
									<polygon fill="none" points="0,-218 303,-218 303,0 0,0 									"/>
									<g>
										<polygon fill="none" points="0,0 303,0 303,-218 0,-218 										"/>
										<g>
											<polygon fill="none" points="0,-218 303,-218 303,0 0,0 											"/>
											<g>
												<polygon fill="none" points="0,0 303,0 303,-218 0,-218 												"/>
												<polygon fill="#F1D1C7" points="303,0 0,0 0,-218 303,-218 												"/>
												
													<line fill="none" stroke="#C98977" stroke-width="2.9821" stroke-linecap="round" stroke-linejoin="round" stroke-miterlimit="10" x1="245.833" y1="-114.666" x2="248" y2="-114"/>
												
													<line fill="none" stroke="#C98977" stroke-width="2.9821" stroke-linecap="round" stroke-linejoin="round" stroke-miterlimit="10" x1="124.252" y1="-180.123" x2="126.516" y2="-180"/>
												
													<line fill="none" stroke="#C98977" stroke-width="2.9821" stroke-linecap="round" stroke-linejoin="round" stroke-miterlimit="10" x1="83.667" y1="-16.988" x2="85.894" y2="-17.418"/>
												
													<line fill="none" stroke="#C98977" stroke-width="2.9821" stroke-linecap="round" stroke-linejoin="round" stroke-miterlimit="10" x1="130.943" y1="-136.852" x2="133" y2="-137.807"/>
												
													<line fill="none" stroke="#C98977" stroke-width="2.9821" stroke-linecap="round" stroke-linejoin="round" stroke-miterlimit="10" x1="284.333" y1="-194" x2="286.098" y2="-195.425"/>
												
													<line fill="none" stroke="#C98977" stroke-width="2.9821" stroke-linecap="round" stroke-linejoin="round" stroke-miterlimit="10" x1="93.632" y1="-77.189" x2="95" y2="-79"/>
												
													<line fill="none" stroke="#C98977" stroke-width="2.9821" stroke-linecap="round" stroke-linejoin="round" stroke-miterlimit="10" x1="7.143" y1="-64.591" x2="5" y2="-65.333"/>
												
													<line fill="none" stroke="#C98977" stroke-width="2.9821" stroke-linecap="round" stroke-linejoin="round" stroke-miterlimit="10" x1="107.044" y1="-33.268" x2="107" y2="-31"/>
												
													<line fill="none" stroke="#C98977" stroke-width="2.9821" stroke-linecap="round" stroke-linejoin="round" stroke-miterlimit="10" x1="184.694" y1="-85.161" x2="186.865" y2="-85.818"/>
												
													<line fill="none" stroke="#C98977" stroke-width="2.9821" stroke-linecap="round" stroke-linejoin="round" stroke-miterlimit="10" x1="44.297" y1="-14.234" x2="43" y2="-16.096"/>
												
													<line fill="none" stroke="#C98977" stroke-width="2.9821" stroke-linecap="round" stroke-linejoin="round" stroke-miterlimit="10" x1="248.685" y1="-17.904" x2="247.315" y2="-16.096"/>
												
													<line fill="none" stroke="#C98977" stroke-width="2.9821" stroke-linecap="round" stroke-linejoin="round" stroke-miterlimit="10" x1="268" y1="-77.563" x2="270.143" y2="-76.818"/>
												
													<line fill="none" stroke="#C98977" stroke-width="2.9821" stroke-linecap="round" stroke-linejoin="round" stroke-miterlimit="10" x1="71" y1="-133.6" x2="71.045" y2="-135.866"/>
												
													<line fill="none" stroke="#C98977" stroke-width="2.9821" stroke-linecap="round" stroke-linejoin="round" stroke-miterlimit="10" x1="206.171" y1="-137.329" x2="204" y2="-136.671"/>
												
													<line fill="none" stroke="#C98977" stroke-width="2.9821" stroke-linecap="round" stroke-linejoin="round" stroke-miterlimit="10" x1="222.333" y1="-17.025" x2="223.63" y2="-15.165"/>
												
													<line fill="none" stroke="#C98977" stroke-width="2.9821" stroke-linecap="round" stroke-linejoin="round" stroke-miterlimit="10" x1="37.667" y1="-202.191" x2="39.036" y2="-204"/>
												
													<line fill="none" stroke="#C98977" stroke-width="2.9821" stroke-linecap="round" stroke-linejoin="round" stroke-miterlimit="10" x1="280.477" y1="-201.818" x2="278.333" y2="-202.563"/>
												
													<line fill="none" stroke="#C98977" stroke-width="2.9821" stroke-linecap="round" stroke-linejoin="round" stroke-miterlimit="10" x1="209.045" y1="-6.934" x2="209" y2="-4.666"/>
												
													<line fill="none" stroke="#C98977" stroke-width="2.9821" stroke-linecap="round" stroke-linejoin="round" stroke-miterlimit="10" x1="148.986" y1="-52.229" x2="151.156" y2="-52.889"/>
												
													<line fill="none" stroke="#C98977" stroke-width="2.9821" stroke-linecap="round" stroke-linejoin="round" stroke-miterlimit="10" x1="138.945" y1="-144.666" x2="137.648" y2="-146.527"/>
												
													<line fill="none" stroke="#C98977" stroke-width="2.9821" stroke-linecap="round" stroke-linejoin="round" stroke-miterlimit="10" x1="240.467" y1="-180" x2="239.099" y2="-178.191"/>
												
													<line fill="none" stroke="#C98977" stroke-width="2.9821" stroke-linecap="round" stroke-linejoin="round" stroke-miterlimit="10" x1="177" y1="-204.742" x2="179.142" y2="-204"/>
												
													<line fill="none" stroke="#C98977" stroke-width="2.9821" stroke-linecap="round" stroke-linejoin="round" stroke-miterlimit="10" x1="288.956" y1="-13.102" x2="289" y2="-15.368"/>
											</g>
										</g>
									</g>
								</g>
							</g>
						</g>
					</g>
				</g>
			</g>
		</g>
	</g>
</pattern>
<g>
	<pattern  id="SVGID_1_" xlink:href="#SVGID_2_" patternTransform="matrix(0.8568 0 0 0.2821 -9545.2266 17592.6602)">
	</pattern>
	<rect x="0.999" fill="url(#SVGID_1_)" width="3155.369" height="540.441"/>
	<g>
		
			<path fill="#70153B" stroke="#030332" stroke-width="3" stroke-linecap="round" stroke-linejoin="round" stroke-miterlimit="10" d="
			M1142.853,49.283c3.563-0.332,10.5,8.564,10.5,8.564s13.729-1.816,15.589,0.074c1.862,1.89-7.882,8.162-7.882,8.162
			s8.876,7.924,6.736,9.855c-2.146,1.938-15.371-3.518-15.371-3.518s-8.701,6.895-11.427,6.018
			c-2.729-0.877-1.618-10.336-1.618-10.336s-14.104-3.725-13.798-6.139c0.306-2.414,14.37-2.871,14.37-2.871
			S1139.291,49.617,1142.853,49.283z"/>
		
			<line fill="none" stroke="#030332" stroke-width="3" stroke-linecap="round" stroke-linejoin="round" stroke-miterlimit="10" x1="1148.934" y1="64.019" x2="1147.141" y2="59.683"/>
		
			<line fill="none" stroke="#030332" stroke-width="3" stroke-linecap="round" stroke-linejoin="round" stroke-miterlimit="10" x1="1148.934" y1="64.019" x2="1154.934" y2="62.678"/>
		
			<line fill="none" stroke="#030332" stroke-width="3" stroke-linecap="round" stroke-linejoin="round" stroke-miterlimit="10" x1="1148.934" y1="64.019" x2="1142.313" y2="63.855"/>
		
			<line fill="none" stroke="#030332" stroke-width="3" stroke-linecap="round" stroke-linejoin="round" stroke-miterlimit="10" x1="1148.934" y1="64.019" x2="1154.005" y2="67.279"/>
		
			<line fill="none" stroke="#030332" stroke-width="3" stroke-linecap="round" stroke-linejoin="round" stroke-miterlimit="10" x1="1148.934" y1="64.019" x2="1146.839" y2="67.949"/>
		
			<line fill="none" stroke="#030332" stroke-width="3" stroke-linecap="round" stroke-linejoin="round" stroke-miterlimit="10" x1="1135.334" y1="63.205" x2="1135.792" y2="63.219"/>
		
			<line fill="none" stroke="#030332" stroke-width="3" stroke-linecap="round" stroke-linejoin="round" stroke-miterlimit="10" x1="1145.113" y1="54.781" x2="1145.312" y2="55.263"/>
		
			<line fill="none" stroke="#030332" stroke-width="3" stroke-linecap="round" stroke-linejoin="round" stroke-miterlimit="10" x1="1160.133" y1="60.947" x2="1160.837" y2="60.658"/>
		
			<line fill="none" stroke="#030332" stroke-width="3" stroke-linecap="round" stroke-linejoin="round" stroke-miterlimit="10" x1="1158.547" y1="70.525" x2="1158.822" y2="70.695"/>
		
			<line fill="none" stroke="#030332" stroke-width="3" stroke-linecap="round" stroke-linejoin="round" stroke-miterlimit="10" x1="1145.451" y1="71.441" x2="1145.048" y2="71.883"/>
	</g>
	<g>
		<path fill="#FF8589" stroke="#030332" stroke-width="3" stroke-linejoin="round" stroke-miterlimit="10" d="M2088.43,34.418
			c-3.621-0.338-10.676,8.705-10.676,8.705s-13.955-1.852-15.855,0.072c-1.895,1.922,8.02,8.303,8.02,8.303
			s-9.021,8.057-6.854,10.02c2.176,1.965,15.625-3.574,15.625-3.574s8.855,7.012,11.619,6.117
			c2.771-0.893,1.646-10.508,1.646-10.508s14.34-3.787,14.021-6.242c-0.313-2.455-14.604-2.918-14.604-2.918
			S2092.051,34.756,2088.43,34.418z"/>
		
			<line fill="none" stroke="#030332" stroke-width="3" stroke-linecap="round" stroke-linejoin="round" stroke-miterlimit="10" x1="2082.249" y1="49.4" x2="2084.073" y2="44.99"/>
		
			<line fill="none" stroke="#030332" stroke-width="3" stroke-linecap="round" stroke-linejoin="round" stroke-miterlimit="10" x1="2082.249" y1="49.4" x2="2076.147" y2="48.037"/>
		
			<line fill="none" stroke="#030332" stroke-width="3" stroke-linecap="round" stroke-linejoin="round" stroke-miterlimit="10" x1="2082.249" y1="49.4" x2="2088.979" y2="49.234"/>
		
			<line fill="none" stroke="#030332" stroke-width="3" stroke-linecap="round" stroke-linejoin="round" stroke-miterlimit="10" x1="2082.249" y1="49.4" x2="2077.092" y2="52.715"/>
		
			<line fill="none" stroke="#030332" stroke-width="3" stroke-linecap="round" stroke-linejoin="round" stroke-miterlimit="10" x1="2082.249" y1="49.4" x2="2084.381" y2="53.394"/>
		
			<line fill="none" stroke="#030332" stroke-width="3" stroke-linecap="round" stroke-linejoin="round" stroke-miterlimit="10" x1="2096.079" y1="48.572" x2="2095.612" y2="48.586"/>
		
			<line fill="none" stroke="#030332" stroke-width="3" stroke-linecap="round" stroke-linejoin="round" stroke-miterlimit="10" x1="2086.133" y1="40.008" x2="2085.928" y2="40.498"/>
		
			<line fill="none" stroke="#030332" stroke-width="3" stroke-linecap="round" stroke-linejoin="round" stroke-miterlimit="10" x1="2070.862" y1="46.275" x2="2070.149" y2="45.982"/>
		
			<line fill="none" stroke="#030332" stroke-width="3" stroke-linecap="round" stroke-linejoin="round" stroke-miterlimit="10" x1="2072.475" y1="56.015" x2="2072.196" y2="56.187"/>
		
			<line fill="none" stroke="#030332" stroke-width="3" stroke-linecap="round" stroke-linejoin="round" stroke-miterlimit="10" x1="2085.79" y1="56.947" x2="2086.2" y2="57.394"/>
	</g>
	<g>
		<path fill="#FF8589" stroke="#030332" stroke-width="3" stroke-linejoin="round" stroke-miterlimit="10" d="M2975.854,84.721
			c-3.621-0.338-10.676,8.705-10.676,8.705s-13.957-1.852-15.854,0.072c-1.896,1.922,8.018,8.303,8.018,8.303
			s-9.021,8.057-6.852,10.02c2.174,1.965,15.627-3.574,15.627-3.574s8.854,7.012,11.613,6.117
			c2.771-0.893,1.646-10.508,1.646-10.508s14.34-3.787,14.023-6.242c-0.313-2.455-14.605-2.918-14.605-2.918
			S2979.475,85.059,2975.854,84.721z"/>
		
			<line fill="none" stroke="#030332" stroke-width="3" stroke-linecap="round" stroke-linejoin="round" stroke-miterlimit="10" x1="2969.67" y1="99.703" x2="2971.497" y2="95.293"/>
		
			<line fill="none" stroke="#030332" stroke-width="3" stroke-linecap="round" stroke-linejoin="round" stroke-miterlimit="10" x1="2969.67" y1="99.703" x2="2963.573" y2="98.34"/>
		
			<line fill="none" stroke="#030332" stroke-width="3" stroke-linecap="round" stroke-linejoin="round" stroke-miterlimit="10" x1="2969.67" y1="99.703" x2="2976.405" y2="99.537"/>
		
			<line fill="none" stroke="#030332" stroke-width="3" stroke-linecap="round" stroke-linejoin="round" stroke-miterlimit="10" x1="2969.67" y1="99.703" x2="2964.514" y2="103.018"/>
		
			<line fill="none" stroke="#030332" stroke-width="3" stroke-linecap="round" stroke-linejoin="round" stroke-miterlimit="10" x1="2969.67" y1="99.703" x2="2971.803" y2="103.697"/>
		
			<line fill="none" stroke="#030332" stroke-width="3" stroke-linecap="round" stroke-linejoin="round" stroke-miterlimit="10" x1="2983.5" y1="98.875" x2="2983.036" y2="98.889"/>
		
			<line fill="none" stroke="#030332" stroke-width="3" stroke-linecap="round" stroke-linejoin="round" stroke-miterlimit="10" x1="2973.555" y1="90.311" x2="2973.352" y2="90.801"/>
		
			<line fill="none" stroke="#030332" stroke-width="3" stroke-linecap="round" stroke-linejoin="round" stroke-miterlimit="10" x1="2958.286" y1="96.578" x2="2957.573" y2="96.285"/>
		
			<line fill="none" stroke="#030332" stroke-width="3" stroke-linecap="round" stroke-linejoin="round" stroke-miterlimit="10" x1="2959.897" y1="106.318" x2="2959.62" y2="106.49"/>
		
			<line fill="none" stroke="#030332" stroke-width="3" stroke-linecap="round" stroke-linejoin="round" stroke-miterlimit="10" x1="2973.211" y1="107.25" x2="2973.624" y2="107.697"/>
	</g>
	<g>
		<path fill="#FF8589" stroke="#030332" stroke-width="3" stroke-linejoin="round" stroke-miterlimit="10" d="M1587.549,94.236
			c3.26-1.262,15.371,5.391,15.371,5.391s12.234-5.369,15.188-4.064c2.951,1.314-2.729,9.875-2.729,9.875s13.402,5.207,12.494,7.619
			c-0.908,2.412-17.063,0.717-17.063,0.717s-4.289,8.881-7.467,8.771c-3.184-0.113-7.814-9.436-7.814-9.436
			s-15.951,0.189-17.105-2.199c-1.16-2.387,12.229-6.547,12.229-6.547S1584.29,95.498,1587.549,94.236z"/>
		
			<line fill="none" stroke="#030332" stroke-width="3" stroke-linecap="round" stroke-linejoin="round" stroke-miterlimit="10" x1="1602.356" y1="106.681" x2="1597.995" y2="103.019"/>
		
			<line fill="none" stroke="#030332" stroke-width="3" stroke-linecap="round" stroke-linejoin="round" stroke-miterlimit="10" x1="1602.356" y1="106.681" x2="1607.374" y2="103.812"/>
		
			<line fill="none" stroke="#030332" stroke-width="3" stroke-linecap="round" stroke-linejoin="round" stroke-miterlimit="10" x1="1602.356" y1="106.681" x2="1595.823" y2="108.277"/>
		
			<line fill="none" stroke="#030332" stroke-width="3" stroke-linecap="round" stroke-linejoin="round" stroke-miterlimit="10" x1="1602.356" y1="106.681" x2="1609.25" y2="108.447"/>
		
			<line fill="none" stroke="#030332" stroke-width="3" stroke-linecap="round" stroke-linejoin="round" stroke-miterlimit="10" x1="1602.356" y1="106.681" x2="1602.692" y2="110.984"/>
		
			<line fill="none" stroke="#030332" stroke-width="3" stroke-linecap="round" stroke-linejoin="round" stroke-miterlimit="10" x1="1588.649" y1="109.508" x2="1589.102" y2="109.398"/>
		
			<line fill="none" stroke="#030332" stroke-width="3" stroke-linecap="round" stroke-linejoin="round" stroke-miterlimit="10" x1="1593.065" y1="98.881" x2="1593.549" y2="99.289"/>
		
			<line fill="none" stroke="#030332" stroke-width="3" stroke-linecap="round" stroke-linejoin="round" stroke-miterlimit="10" x1="1611.381" y1="100.783" x2="1611.889" y2="100.322"/>
		
			<line fill="none" stroke="#030332" stroke-width="3" stroke-linecap="round" stroke-linejoin="round" stroke-miterlimit="10" x1="1615.624" y1="110.342" x2="1615.993" y2="110.429"/>
		
			<line fill="none" stroke="#030332" stroke-width="3" stroke-linecap="round" stroke-linejoin="round" stroke-miterlimit="10" x1="1603.454" y1="114.683" x2="1603.327" y2="115.211"/>
	</g>
	<g>
		<path fill="#FFAE54" stroke="#030332" stroke-width="3" stroke-linejoin="round" stroke-miterlimit="10" d="M1497.173,23.168
			c-4.521-0.416-12.285,10.717-12.285,10.717s-17.489-2.271-19.625,0.098c-2.143,2.367,10.816,10.217,10.816,10.217
			s-10.313,9.926-7.396,12.346c2.907,2.422,18.974-4.404,18.974-4.404s11.719,8.631,15.055,7.531
			c3.34-1.104,0.899-12.939,0.899-12.939s17.355-4.664,16.705-7.688c-0.646-3.023-18.414-3.596-18.414-3.596
			S1501.697,23.584,1497.173,23.168z"/>
		
			<line fill="none" stroke="#030332" stroke-width="3" stroke-linecap="round" stroke-linejoin="round" stroke-miterlimit="10" x1="1491.132" y1="41.615" x2="1492.913" y2="36.185"/>
		
			<line fill="none" stroke="#030332" stroke-width="3" stroke-linecap="round" stroke-linejoin="round" stroke-miterlimit="10" x1="1491.132" y1="41.615" x2="1483.427" y2="39.935"/>
		
			<line fill="none" stroke="#030332" stroke-width="3" stroke-linecap="round" stroke-linejoin="round" stroke-miterlimit="10" x1="1491.132" y1="41.615" x2="1499.452" y2="41.408"/>
		
			<line fill="none" stroke="#030332" stroke-width="3" stroke-linecap="round" stroke-linejoin="round" stroke-miterlimit="10" x1="1491.132" y1="41.615" x2="1485.103" y2="45.697"/>
		
			<line fill="none" stroke="#030332" stroke-width="3" stroke-linecap="round" stroke-linejoin="round" stroke-miterlimit="10" x1="1491.132" y1="41.615" x2="1494.2" y2="46.533"/>
		
			<line fill="none" stroke="#030332" stroke-width="3" stroke-linecap="round" stroke-linejoin="round" stroke-miterlimit="10" x1="1508.173" y1="40.594" x2="1507.597" y2="40.609"/>
		
			<line fill="none" stroke="#030332" stroke-width="3" stroke-linecap="round" stroke-linejoin="round" stroke-miterlimit="10" x1="1494.931" y1="30.049" x2="1494.731" y2="30.652"/>
		
			<line fill="none" stroke="#030332" stroke-width="3" stroke-linecap="round" stroke-linejoin="round" stroke-miterlimit="10" x1="1476.688" y1="37.769" x2="1475.772" y2="37.406"/>
		
			<line fill="none" stroke="#030332" stroke-width="3" stroke-linecap="round" stroke-linejoin="round" stroke-miterlimit="10" x1="1479.738" y1="49.76" x2="1479.409" y2="49.972"/>
		
			<line fill="none" stroke="#030332" stroke-width="3" stroke-linecap="round" stroke-linejoin="round" stroke-miterlimit="10" x1="1496.331" y1="50.904" x2="1496.888" y2="51.457"/>
	</g>
	<g>
		<path fill="#FFAE54" stroke="#030332" stroke-width="3" stroke-linejoin="round" stroke-miterlimit="10" d="M232.514,78.15
			c-4.521-0.416-12.285,10.717-12.285,10.717s-17.489-2.271-19.625,0.098c-2.143,2.367,10.817,10.217,10.817,10.217
			s-10.31,9.926-7.397,12.346c2.907,2.422,18.973-4.404,18.973-4.404s11.716,8.631,15.052,7.531
			c3.34-1.104,0.903-12.939,0.903-12.939s17.355-4.664,16.705-7.688c-0.647-3.023-18.414-3.596-18.414-3.596
			S237.037,78.565,232.514,78.15z"/>
		
			<line fill="none" stroke="#030332" stroke-width="3" stroke-linecap="round" stroke-linejoin="round" stroke-miterlimit="10" x1="226.473" y1="96.597" x2="228.254" y2="91.167"/>
		
			<line fill="none" stroke="#030332" stroke-width="3" stroke-linecap="round" stroke-linejoin="round" stroke-miterlimit="10" x1="226.473" y1="96.597" x2="218.767" y2="94.917"/>
		
			<line fill="none" stroke="#030332" stroke-width="3" stroke-linecap="round" stroke-linejoin="round" stroke-miterlimit="10" x1="226.473" y1="96.597" x2="234.793" y2="96.39"/>
		
			<line fill="none" stroke="#030332" stroke-width="3" stroke-linecap="round" stroke-linejoin="round" stroke-miterlimit="10" x1="226.473" y1="96.597" x2="220.443" y2="100.679"/>
		
			<line fill="none" stroke="#030332" stroke-width="3" stroke-linecap="round" stroke-linejoin="round" stroke-miterlimit="10" x1="226.473" y1="96.597" x2="229.541" y2="101.515"/>
		
			<line fill="none" stroke="#030332" stroke-width="3" stroke-linecap="round" stroke-linejoin="round" stroke-miterlimit="10" x1="243.514" y1="95.576" x2="242.937" y2="95.591"/>
		
			<line fill="none" stroke="#030332" stroke-width="3" stroke-linecap="round" stroke-linejoin="round" stroke-miterlimit="10" x1="230.271" y1="85.031" x2="230.072" y2="85.634"/>
		
			<line fill="none" stroke="#030332" stroke-width="3" stroke-linecap="round" stroke-linejoin="round" stroke-miterlimit="10" x1="212.029" y1="92.75" x2="211.113" y2="92.388"/>
		
			<line fill="none" stroke="#030332" stroke-width="3" stroke-linecap="round" stroke-linejoin="round" stroke-miterlimit="10" x1="215.08" y1="104.742" x2="214.75" y2="104.954"/>
		
			<line fill="none" stroke="#030332" stroke-width="3" stroke-linecap="round" stroke-linejoin="round" stroke-miterlimit="10" x1="231.672" y1="105.886" x2="232.228" y2="106.438"/>
	</g>
	<g>
		<g>
			<path fill="#FFEAD4" d="M1206.156,123.228c-5.271,0-8.944-2.119-9.834-5.668c-0.842-3.363,1.313-5.52,3.808-7.051
				c-0.222-0.236-0.367-0.498-0.438-0.785c-0.119-0.479-0.013-0.979,0.303-1.416c0.998-1.387,4.146-2.104,6.759-2.311
				c0.615-0.053,1.231-0.074,1.838-0.074c1.741,0,5.846,0.221,6.354,2.256c0.063,0.244,0.09,0.594-0.063,0.986
				c3.126,1.025,6.313,2.695,7.142,6.02c0.391,1.553,0.143,3.004-0.717,4.195c-1.331,1.852-4.099,3.033-7.793,3.326l-5.732,0.457
				C1207.229,123.207,1206.688,123.228,1206.156,123.228z"/>
			<path fill="#030332" d="M1208.587,106.924c2.886,0,5.16,0.596,5.385,1.498c0.104,0.422-0.256,0.85-0.949,1.229
				c4.085,1.129,7.253,2.689,8.025,5.775c0.938,3.762-2.646,5.887-7.619,6.283l-5.733,0.455c-0.521,0.043-1.031,0.063-1.537,0.063
				c-4.335,0-8.021-1.541-8.86-4.91c-0.771-3.09,1.51-5.08,4.88-6.803c-0.854-0.258-1.408-0.611-1.516-1.033
				c-0.271-1.082,2.488-2.189,6.168-2.482C1207.432,106.947,1208.021,106.924,1208.587,106.924 M1208.587,104.924
				c-0.629,0-1.274,0.021-1.918,0.078c-1.767,0.139-6.024,0.686-7.49,2.723c-0.487,0.678-0.649,1.475-0.458,2.242
				c0.018,0.072,0.039,0.145,0.063,0.215c-2.122,1.48-4.354,3.912-3.432,7.623c1.005,4.021,5.044,6.424,10.806,6.424
				c0.557,0,1.125-0.02,1.694-0.063l5.734-0.455c3.992-0.318,7.021-1.646,8.522-3.74c1.033-1.439,1.338-3.174,0.875-5.021
				c-0.867-3.479-3.888-5.313-7-6.447c-0.008-0.227-0.041-0.412-0.073-0.559C1215.29,105.447,1211.585,104.924,1208.587,104.924
				L1208.587,104.924z"/>
		</g>
		
			<line fill="none" stroke="#030332" stroke-width="2" stroke-linecap="round" stroke-linejoin="round" stroke-miterlimit="10" x1="1209.919" y1="119.361" x2="1210.666" y2="122.349"/>
		
			<line fill="none" stroke="#030332" stroke-width="2" stroke-linecap="round" stroke-linejoin="round" stroke-miterlimit="10" x1="1204.835" y1="120.187" x2="1204.215" y2="122.443"/>
		
			<line fill="none" stroke="#030332" stroke-width="2" stroke-linecap="round" stroke-linejoin="round" stroke-miterlimit="10" x1="1215.209" y1="119.361" x2="1216.909" y2="121.433"/>
	</g>
	<g>
		<g>
			<path fill="#CEFFF1" d="M1240.784,142.236c-6.116,0-10.554-1.717-12.483-4.836c-0.787-1.268-1.015-2.535-0.672-3.768
				c0.438-1.584,1.766-3.031,4.222-4.559c-0.362-0.197-0.628-0.439-0.803-0.729c-0.281-0.453-0.313-0.998-0.083-1.494
				c1.007-2.176,7.328-3.273,9.241-3.563c2.053-0.313,4.106-0.475,5.95-0.475c5.116,0,5.849,1.178,6.087,1.564
				c0.228,0.363,0.293,0.795,0.187,1.207c-0.003,0.014-0.007,0.023-0.011,0.041c5.108,0.689,10.206,2.016,12.376,5.516
				c1.146,1.854,0.878,3.35,0.443,4.275c-1.534,3.313-7.346,4.645-10.672,5.141l-8.396,1.256c-1.851,0.275-3.659,0.414-5.387,0.414
				C1240.785,142.236,1240.784,142.236,1240.784,142.236z"/>
			<path fill="#030332" d="M1246.154,123.828c2.761,0,4.801,0.381,5.237,1.09c0.28,0.447-0.136,0.967-1.055,1.477
				c6.399,0.703,11.563,1.998,13.604,5.287c2.485,4.008-2.229,6.814-9.521,7.896l-8.399,1.258c-1.775,0.266-3.546,0.4-5.237,0.4
				c-5.237,0-9.759-1.332-11.637-4.357c-2.04-3.291,0.78-5.777,5.298-8.111c-1.343-0.172-2.271-0.486-2.551-0.938
				c-0.715-1.146,3.07-2.732,8.455-3.541C1242.423,123.974,1244.43,123.828,1246.154,123.828 M1246.154,121.828
				c-1.889,0-3.998,0.166-6.1,0.479c-3.245,0.484-8.859,1.664-10,4.131c-0.374,0.813-0.322,1.697,0.141,2.443
				c0.018,0.02,0.026,0.041,0.041,0.063c-1.659,1.189-3.077,2.633-3.571,4.424c-0.418,1.518-0.152,3.051,0.785,4.564
				c2.123,3.424,6.856,5.309,13.335,5.309c1.774,0,3.641-0.143,5.533-0.426l8.398-1.256c4.307-0.645,9.784-2.154,11.43-5.709
				c0.533-1.15,0.881-2.992-0.504-5.223c-2.248-3.625-7.156-5.094-12.201-5.855c-0.056-0.316-0.173-0.627-0.351-0.912
				C1252.505,122.912,1251.186,121.828,1246.154,121.828L1246.154,121.828z"/>
		</g>
		
			<line fill="none" stroke="#030332" stroke-width="2" stroke-linecap="round" stroke-linejoin="round" stroke-miterlimit="10" x1="1248.521" y1="137.461" x2="1250.495" y2="140.644"/>
		
			<line fill="none" stroke="#030332" stroke-width="2" stroke-linecap="round" stroke-linejoin="round" stroke-miterlimit="10" x1="1241.195" y1="139.037" x2="1240.926" y2="141.594"/>
		
			<line fill="none" stroke="#030332" stroke-width="2" stroke-linecap="round" stroke-linejoin="round" stroke-miterlimit="10" x1="1256.392" y1="136.763" x2="1259.521" y2="138.816"/>
	</g>
	<g>
		<g>
			<path fill="#CEFFF1" d="M2410.926,80.227c-6.117,0-10.551-1.717-12.482-4.836c-0.787-1.268-1.016-2.535-0.674-3.768
				c0.439-1.584,1.768-3.031,4.225-4.559c-0.363-0.197-0.629-0.439-0.807-0.727c-0.277-0.453-0.313-0.998-0.082-1.494
				c1.008-2.176,7.328-3.273,9.24-3.563c2.053-0.313,4.111-0.475,5.951-0.475c5.119,0,5.848,1.178,6.088,1.564
				c0.227,0.363,0.293,0.795,0.186,1.207c-0.004,0.014-0.008,0.023-0.012,0.041c5.109,0.689,10.207,2.016,12.377,5.516
				c1.146,1.854,0.877,3.35,0.445,4.275c-1.535,3.313-7.344,4.645-10.67,5.141l-8.398,1.256c-1.848,0.275-3.656,0.414-5.385,0.414
				C2410.926,80.227,2410.926,80.227,2410.926,80.227z"/>
			<path fill="#030332" d="M2416.299,61.819c2.758,0,4.797,0.381,5.236,1.09c0.279,0.447-0.137,0.967-1.055,1.477
				c6.398,0.703,11.563,1.998,13.604,5.287c2.484,4.008-2.229,6.814-9.52,7.896l-8.398,1.258c-1.779,0.266-3.547,0.4-5.238,0.4
				c-5.236,0-9.758-1.332-11.635-4.357c-2.041-3.291,0.779-5.777,5.297-8.111c-1.344-0.172-2.27-0.486-2.551-0.938
				c-0.715-1.146,3.07-2.732,8.455-3.541C2412.565,61.965,2414.573,61.819,2416.299,61.819 M2416.299,59.819
				c-1.891,0-3.998,0.166-6.102,0.479c-3.244,0.484-8.857,1.664-10,4.131c-0.373,0.813-0.32,1.697,0.143,2.443
				c0.014,0.02,0.025,0.041,0.039,0.063c-1.66,1.189-3.078,2.633-3.572,4.424c-0.418,1.518-0.15,3.051,0.785,4.564
				c2.123,3.424,6.859,5.309,13.334,5.309c1.777,0,3.645-0.143,5.535-0.426l8.396-1.256c4.309-0.645,9.785-2.154,11.434-5.709
				c0.531-1.15,0.879-2.992-0.504-5.223c-2.248-3.625-7.158-5.094-12.203-5.855c-0.055-0.316-0.172-0.627-0.352-0.912
				C2422.647,60.903,2421.331,59.819,2416.299,59.819L2416.299,59.819z"/>
		</g>
		
			<line fill="none" stroke="#030332" stroke-width="2" stroke-linecap="round" stroke-linejoin="round" stroke-miterlimit="10" x1="2418.665" y1="75.452" x2="2420.637" y2="78.635"/>
		
			<line fill="none" stroke="#030332" stroke-width="2" stroke-linecap="round" stroke-linejoin="round" stroke-miterlimit="10" x1="2411.338" y1="77.028" x2="2411.069" y2="79.585"/>
		
			<line fill="none" stroke="#030332" stroke-width="2" stroke-linecap="round" stroke-linejoin="round" stroke-miterlimit="10" x1="2426.536" y1="74.754" x2="2429.665" y2="76.807"/>
	</g>
	<g>
		<g>
			<path fill="#CEFFF1" d="M268.985,51.166c-6.117,0-10.551-1.717-12.484-4.836c-0.787-1.268-1.014-2.535-0.672-3.768
				c0.438-1.584,1.766-3.031,4.222-4.559c-0.363-0.197-0.628-0.439-0.803-0.727c-0.281-0.453-0.313-0.998-0.083-1.494
				c1.007-2.176,7.328-3.273,9.241-3.563c2.053-0.313,4.11-0.475,5.951-0.475c5.119,0,5.848,1.178,6.087,1.564
				c0.227,0.363,0.293,0.795,0.186,1.207c-0.003,0.014-0.007,0.023-0.011,0.041c5.109,0.689,10.206,2.016,12.376,5.516
				c1.147,1.854,0.878,3.35,0.445,4.275c-1.535,3.313-7.344,4.645-10.67,5.141l-8.397,1.256c-1.848,0.275-3.659,0.414-5.386,0.414
				C268.986,51.166,268.985,51.166,268.985,51.166z"/>
			<path fill="#030332" d="M274.356,32.757c2.758,0,4.798,0.381,5.237,1.09c0.28,0.447-0.136,0.967-1.055,1.477
				c6.401,0.703,11.565,1.998,13.606,5.287c2.485,4.008-2.231,6.814-9.521,7.896l-8.399,1.258c-1.779,0.266-3.546,0.4-5.239,0.4
				c-5.239,0-9.757-1.332-11.635-4.357c-2.04-3.291,0.78-5.777,5.298-8.111c-1.343-0.172-2.271-0.486-2.551-0.938
				c-0.715-1.146,3.07-2.732,8.455-3.541C270.623,32.903,272.63,32.757,274.356,32.757 M274.356,30.757
				c-1.889,0-3.998,0.166-6.1,0.479c-3.245,0.484-8.859,1.664-10,4.131c-0.374,0.813-0.322,1.697,0.141,2.443
				c0.014,0.02,0.026,0.041,0.04,0.063c-1.661,1.189-3.079,2.633-3.573,4.424c-0.418,1.518-0.153,3.051,0.785,4.564
				c2.123,3.424,6.859,5.309,13.335,5.309c1.777,0,3.64-0.143,5.535-0.426l8.399-1.256c4.306-0.645,9.784-2.154,11.43-5.709
				c0.533-1.15,0.879-2.992-0.504-5.223c-2.248-3.625-7.158-5.094-12.202-5.855c-0.055-0.316-0.172-0.627-0.35-0.912
				C280.705,31.841,279.386,30.757,274.356,30.757L274.356,30.757z"/>
		</g>
		
			<line fill="none" stroke="#030332" stroke-width="2" stroke-linecap="round" stroke-linejoin="round" stroke-miterlimit="10" x1="276.722" y1="46.391" x2="278.696" y2="49.573"/>
		
			<line fill="none" stroke="#030332" stroke-width="2" stroke-linecap="round" stroke-linejoin="round" stroke-miterlimit="10" x1="269.395" y1="47.966" x2="269.126" y2="50.523"/>
		
			<line fill="none" stroke="#030332" stroke-width="2" stroke-linecap="round" stroke-linejoin="round" stroke-miterlimit="10" x1="284.592" y1="45.692" x2="287.721" y2="47.746"/>
	</g>
	<g>
		<g>
			<path fill="#FFEAD4" d="M1421.314,83.832c-0.467,0-0.938-0.02-1.41-0.047l-5.75-0.375c-3.729-0.242-6.397-1.369-7.52-3.172
				c-0.52-0.82-0.955-2.211-0.157-4.129c1.313-3.152,4.687-4.727,8.125-5.754c-0.12-0.455-0.002-0.834,0.063-1.004
				c0.813-1.951,5.438-2.104,6.847-2.104c0.521,0,1.058,0.018,1.601,0.053c1.282,0.084,5.55,0.49,6.618,2.215
				c0.289,0.465,0.337,0.99,0.137,1.479c-0.104,0.238-0.262,0.463-0.478,0.658c1.934,1.236,4.166,3.396,2.755,6.777
				C1430.738,81.814,1426.689,83.832,1421.314,83.832L1421.314,83.832z"/>
			<path fill="#030332" d="M1421.513,68.252c0.5,0,1.015,0.018,1.536,0.051c3.686,0.24,6.317,1.271,5.895,2.309
				c-0.168,0.404-0.781,0.746-1.686,1.002c3.17,1.609,5.189,3.484,3.965,6.438c-1.363,3.271-5.432,4.779-9.907,4.779
				c-0.442,0-0.896-0.02-1.345-0.045l-5.749-0.375c-4.99-0.324-8.317-2.314-6.817-5.914c1.229-2.955,4.672-4.477,8.979-5.598
				c-0.646-0.354-0.948-0.76-0.78-1.164C1415.965,68.853,1418.477,68.252,1421.513,68.252 M1421.513,66.252
				c-3.024,0-6.828,0.473-7.77,2.719c-0.087,0.207-0.146,0.432-0.184,0.664c-3.403,1.104-6.645,2.809-8.012,6.096
				c-0.962,2.314-0.406,4.021,0.229,5.039c1.313,2.111,4.188,3.369,8.313,3.639l5.749,0.375c0.486,0.031,0.983,0.055,1.476,0.055
				c5.792,0,10.188-2.248,11.754-6.018c1.479-3.541-0.362-5.934-2.293-7.402c0.007-0.018,0.011-0.021,0.016-0.033
				c0.325-0.781,0.249-1.65-0.208-2.393c-1.234-1.992-5.17-2.535-7.396-2.686C1422.623,66.271,1422.063,66.252,1421.513,66.252
				L1421.513,66.252z"/>
		</g>
		
			<line fill="none" stroke="#030332" stroke-width="2" stroke-linecap="round" stroke-linejoin="round" stroke-miterlimit="10" x1="1418.12" y1="80.135" x2="1416.932" y2="82.996"/>
		
			<line fill="none" stroke="#030332" stroke-width="2" stroke-linecap="round" stroke-linejoin="round" stroke-miterlimit="10" x1="1412.757" y1="80.189" x2="1410.73" y2="82.185"/>
		
			<line fill="none" stroke="#030332" stroke-width="2" stroke-linecap="round" stroke-linejoin="round" stroke-miterlimit="10" x1="1423.158" y1="80.871" x2="1423.46" y2="83.015"/>
	</g>
	<g>
		<g>
			<path fill="#FFEAD4" d="M294.15,62.359c-0.467,0-0.938-0.02-1.411-0.047l-5.749-0.375c-3.729-0.242-6.401-1.369-7.52-3.172
				c-0.518-0.82-0.955-2.211-0.157-4.129c1.313-3.152,4.684-4.727,8.125-5.754c-0.12-0.455-0.002-0.834,0.063-1.004
				c0.813-1.951,5.441-2.104,6.846-2.104c0.521,0,1.058,0.018,1.601,0.053c1.282,0.084,5.547,0.49,6.618,2.215
				c0.289,0.465,0.336,0.99,0.137,1.479c-0.104,0.238-0.259,0.463-0.478,0.658c1.935,1.236,4.166,3.396,2.755,6.777
				C303.573,60.341,299.525,62.359,294.15,62.359L294.15,62.359z"/>
			<path fill="#030332" d="M294.348,46.779c0.5,0,1.015,0.018,1.536,0.051c3.686,0.24,6.318,1.271,5.894,2.309
				c-0.168,0.404-0.783,0.746-1.685,1.002c3.17,1.609,5.19,3.484,3.965,6.439c-1.363,3.271-5.432,4.779-9.907,4.779
				c-0.445,0-0.896-0.02-1.345-0.045l-5.749-0.375c-4.99-0.324-8.317-2.314-6.818-5.914c1.23-2.955,4.67-4.477,8.978-5.598
				c-0.646-0.354-0.948-0.76-0.78-1.164C288.8,47.38,291.312,46.779,294.348,46.779 M294.348,44.779
				c-3.025,0-6.828,0.473-7.769,2.719c-0.086,0.207-0.146,0.432-0.181,0.664c-3.406,1.104-6.645,2.809-8.012,6.096
				c-0.962,2.314-0.406,4.021,0.229,5.039c1.313,2.111,4.188,3.369,8.311,3.639l5.749,0.375c0.487,0.031,0.984,0.055,1.476,0.055
				c5.792,0,10.187-2.248,11.75-6.018c1.479-3.541-0.361-5.934-2.293-7.402c0.008-0.018,0.012-0.021,0.017-0.033
				c0.325-0.781,0.249-1.65-0.208-2.393c-1.235-1.992-5.17-2.535-7.397-2.686C295.458,44.798,294.898,44.779,294.348,44.779
				L294.348,44.779z"/>
		</g>
		
			<line fill="none" stroke="#030332" stroke-width="2" stroke-linecap="round" stroke-linejoin="round" stroke-miterlimit="10" x1="290.955" y1="58.662" x2="289.767" y2="61.523"/>
		
			<line fill="none" stroke="#030332" stroke-width="2" stroke-linecap="round" stroke-linejoin="round" stroke-miterlimit="10" x1="285.592" y1="58.716" x2="283.566" y2="60.712"/>
		
			<line fill="none" stroke="#030332" stroke-width="2" stroke-linecap="round" stroke-linejoin="round" stroke-miterlimit="10" x1="295.994" y1="59.398" x2="296.295" y2="61.542"/>
	</g>
	<g>
		<g>
			<path fill="#E3FFF7" d="M1555.3,119.279c-4.535,0-7.666-1.857-8.375-4.979c-0.656-2.895,1.139-4.756,3.24-6.074
				c-0.146-0.188-0.23-0.391-0.281-0.611c-0.104-0.443,0.004-0.92,0.301-1.316c0.896-1.217,3.595-1.838,5.822-2.02
				c0.521-0.043,1.039-0.063,1.529-0.063c1.52,0,5.084,0.201,5.512,2.063c0.045,0.197,0.063,0.475-0.022,0.775
				c2.604,0.902,5.219,2.361,5.864,5.215c0.313,1.373,0.063,2.654-0.705,3.705c-1.178,1.605-3.563,2.619-6.702,2.869l-4.832,0.381
				C1556.195,119.262,1555.743,119.279,1555.3,119.279L1555.3,119.279z"/>
			<path fill="#030332" d="M1557.54,105.213c2.438,0,4.354,0.512,4.53,1.287c0.082,0.357-0.229,0.725-0.813,1.049
				c3.422,0.971,6.063,2.305,6.654,4.938c0.729,3.221-2.313,5.023-6.513,5.355l-4.829,0.383c-0.433,0.033-0.854,0.051-1.271,0.051
				c-3.656,0-6.744-1.314-7.399-4.205c-0.601-2.637,1.354-4.334,4.22-5.801c-0.714-0.223-1.179-0.52-1.261-0.885
				c-0.212-0.924,2.133-1.871,5.229-2.117C1556.585,105.232,1557.072,105.213,1557.54,105.213 M1557.54,103.213
				c-0.523,0-1.066,0.021-1.607,0.063c-1.521,0.121-5.211,0.604-6.553,2.418c-0.476,0.646-0.646,1.4-0.476,2.143
				c0.002,0.006,0.002,0.01,0.005,0.016c-1.824,1.314-3.691,3.439-2.964,6.67c0.818,3.607,4.314,5.762,9.354,5.762
				c0.467,0,0.941-0.02,1.428-0.059l4.832-0.381c3.438-0.271,6.078-1.438,7.433-3.271c0.946-1.291,1.252-2.854,0.873-4.521
				c-0.688-3.033-3.179-4.66-5.787-5.674c-0.017-0.121-0.027-0.23-0.054-0.316C1563.488,103.707,1560.204,103.213,1557.54,103.213
				L1557.54,103.213z"/>
		</g>
		
			<line fill="none" stroke="#030332" stroke-width="2" stroke-linecap="round" stroke-linejoin="round" stroke-miterlimit="10" x1="1558.488" y1="115.836" x2="1559.067" y2="118.388"/>
		
			<line fill="none" stroke="#030332" stroke-width="2" stroke-linecap="round" stroke-linejoin="round" stroke-miterlimit="10" x1="1554.197" y1="116.533" x2="1553.64" y2="118.461"/>
		
			<line fill="none" stroke="#030332" stroke-width="2" stroke-linecap="round" stroke-linejoin="round" stroke-miterlimit="10" x1="1562.938" y1="115.842" x2="1564.335" y2="117.613"/>
	</g>
	<g>
		<path fill="#E39DFF" stroke="#030332" stroke-width="3" stroke-linejoin="round" stroke-miterlimit="10" d="M648.458,64.978
			c5.274-0.492,15.555,12.686,15.555,12.686s20.334-2.689,23.092,0.109c2.758,2.801-11.676,12.09-11.676,12.09
			s13.147,11.736,9.979,14.605c-3.173,2.865-22.771-5.209-22.771-5.209s-12.889,10.213-16.926,8.914
			c-4.039-1.299-2.396-15.314-2.396-15.314s-20.893-5.518-20.438-9.094c0.453-3.576,21.287-4.252,21.287-4.252
			S643.181,65.471,648.458,64.978z"/>
		
			<line fill="none" stroke="#030332" stroke-width="3" stroke-linecap="round" stroke-linejoin="round" stroke-miterlimit="10" x1="657.467" y1="86.806" x2="654.809" y2="80.383"/>
		
			<line fill="none" stroke="#030332" stroke-width="3" stroke-linecap="round" stroke-linejoin="round" stroke-miterlimit="10" x1="657.467" y1="86.806" x2="666.354" y2="84.82"/>
		
			<line fill="none" stroke="#030332" stroke-width="3" stroke-linecap="round" stroke-linejoin="round" stroke-miterlimit="10" x1="657.467" y1="86.806" x2="647.659" y2="86.564"/>
		
			<line fill="none" stroke="#030332" stroke-width="3" stroke-linecap="round" stroke-linejoin="round" stroke-miterlimit="10" x1="657.467" y1="86.806" x2="664.977" y2="91.637"/>
		
			<line fill="none" stroke="#030332" stroke-width="3" stroke-linecap="round" stroke-linejoin="round" stroke-miterlimit="10" x1="657.467" y1="86.806" x2="654.361" y2="92.627"/>
		
			<line fill="none" stroke="#030332" stroke-width="3" stroke-linecap="round" stroke-linejoin="round" stroke-miterlimit="10" x1="637.318" y1="85.601" x2="637.997" y2="85.621"/>
		
			<line fill="none" stroke="#030332" stroke-width="3" stroke-linecap="round" stroke-linejoin="round" stroke-miterlimit="10" x1="651.806" y1="73.123" x2="652.102" y2="73.836"/>
		
			<line fill="none" stroke="#030332" stroke-width="3" stroke-linecap="round" stroke-linejoin="round" stroke-miterlimit="10" x1="674.056" y1="82.256" x2="675.097" y2="81.826"/>
		
			<line fill="none" stroke="#030332" stroke-width="3" stroke-linecap="round" stroke-linejoin="round" stroke-miterlimit="10" x1="671.704" y1="96.445" x2="672.113" y2="96.695"/>
		
			<line fill="none" stroke="#030332" stroke-width="3" stroke-linecap="round" stroke-linejoin="round" stroke-miterlimit="10" x1="652.308" y1="97.801" x2="651.712" y2="98.455"/>
	</g>
	<g>
		
			<path fill="#70153B" stroke="#030332" stroke-width="3" stroke-linecap="round" stroke-linejoin="round" stroke-miterlimit="10" d="
			M726.763,46.09c3.563-0.332,10.5,8.563,10.5,8.563s13.729-1.813,15.589,0.074c1.862,1.891-7.882,8.162-7.882,8.162
			s8.876,7.924,6.736,9.859c-2.144,1.934-15.371-3.521-15.371-3.521s-8.701,6.896-11.427,6.021
			c-2.729-0.877-1.618-10.338-1.618-10.338s-14.104-3.727-13.798-6.141c0.306-2.414,14.371-2.871,14.371-2.871
			S723.201,46.422,726.763,46.09z"/>
		
			<line fill="none" stroke="#030332" stroke-width="3" stroke-linecap="round" stroke-linejoin="round" stroke-miterlimit="10" x1="732.844" y1="60.826" x2="731.05" y2="56.49"/>
		
			<line fill="none" stroke="#030332" stroke-width="3" stroke-linecap="round" stroke-linejoin="round" stroke-miterlimit="10" x1="732.844" y1="60.826" x2="738.844" y2="59.484"/>
		
			<line fill="none" stroke="#030332" stroke-width="3" stroke-linecap="round" stroke-linejoin="round" stroke-miterlimit="10" x1="732.844" y1="60.826" x2="726.224" y2="60.662"/>
		
			<line fill="none" stroke="#030332" stroke-width="3" stroke-linecap="round" stroke-linejoin="round" stroke-miterlimit="10" x1="732.844" y1="60.826" x2="737.915" y2="64.086"/>
		
			<line fill="none" stroke="#030332" stroke-width="3" stroke-linecap="round" stroke-linejoin="round" stroke-miterlimit="10" x1="732.844" y1="60.826" x2="730.749" y2="64.756"/>
		
			<line fill="none" stroke="#030332" stroke-width="3" stroke-linecap="round" stroke-linejoin="round" stroke-miterlimit="10" x1="719.244" y1="60.012" x2="719.702" y2="60.025"/>
		
			<line fill="none" stroke="#030332" stroke-width="3" stroke-linecap="round" stroke-linejoin="round" stroke-miterlimit="10" x1="729.022" y1="51.588" x2="729.223" y2="52.07"/>
		
			<line fill="none" stroke="#030332" stroke-width="3" stroke-linecap="round" stroke-linejoin="round" stroke-miterlimit="10" x1="744.044" y1="57.754" x2="744.747" y2="57.463"/>
		
			<line fill="none" stroke="#030332" stroke-width="3" stroke-linecap="round" stroke-linejoin="round" stroke-miterlimit="10" x1="742.457" y1="67.332" x2="742.731" y2="67.502"/>
		
			<line fill="none" stroke="#030332" stroke-width="3" stroke-linecap="round" stroke-linejoin="round" stroke-miterlimit="10" x1="729.361" y1="68.248" x2="728.959" y2="68.689"/>
	</g>
	<g>
		
			<path fill="#70153B" stroke="#030332" stroke-width="3" stroke-linecap="round" stroke-linejoin="round" stroke-miterlimit="10" d="
			M2908.204,106.704c3.563-0.332,10.5,8.564,10.5,8.564s13.727-1.816,15.59,0.074c1.861,1.89-7.883,8.162-7.883,8.162
			s8.877,7.924,6.736,9.855c-2.145,1.938-15.371-3.518-15.371-3.518s-8.701,6.895-11.43,6.018
			c-2.727-0.877-1.615-10.336-1.615-10.336s-14.105-3.725-13.801-6.139c0.309-2.414,14.371-2.871,14.371-2.871
			S2904.639,107.038,2908.204,106.704z"/>
		
			<line fill="none" stroke="#030332" stroke-width="3" stroke-linecap="round" stroke-linejoin="round" stroke-miterlimit="10" x1="2914.286" y1="121.44" x2="2912.493" y2="117.104"/>
		
			<line fill="none" stroke="#030332" stroke-width="3" stroke-linecap="round" stroke-linejoin="round" stroke-miterlimit="10" x1="2914.286" y1="121.44" x2="2920.286" y2="120.099"/>
		
			<line fill="none" stroke="#030332" stroke-width="3" stroke-linecap="round" stroke-linejoin="round" stroke-miterlimit="10" x1="2914.286" y1="121.44" x2="2907.665" y2="121.276"/>
		
			<line fill="none" stroke="#030332" stroke-width="3" stroke-linecap="round" stroke-linejoin="round" stroke-miterlimit="10" x1="2914.286" y1="121.44" x2="2919.354" y2="124.7"/>
		
			<line fill="none" stroke="#030332" stroke-width="3" stroke-linecap="round" stroke-linejoin="round" stroke-miterlimit="10" x1="2914.286" y1="121.44" x2="2912.188" y2="125.37"/>
		
			<line fill="none" stroke="#030332" stroke-width="3" stroke-linecap="round" stroke-linejoin="round" stroke-miterlimit="10" x1="2900.682" y1="120.626" x2="2901.141" y2="120.64"/>
		
			<line fill="none" stroke="#030332" stroke-width="3" stroke-linecap="round" stroke-linejoin="round" stroke-miterlimit="10" x1="2910.463" y1="112.202" x2="2910.663" y2="112.684"/>
		
			<line fill="none" stroke="#030332" stroke-width="3" stroke-linecap="round" stroke-linejoin="round" stroke-miterlimit="10" x1="2925.481" y1="118.368" x2="2926.186" y2="118.079"/>
		
			<line fill="none" stroke="#030332" stroke-width="3" stroke-linecap="round" stroke-linejoin="round" stroke-miterlimit="10" x1="2923.895" y1="127.946" x2="2924.172" y2="128.116"/>
		
			<line fill="none" stroke="#030332" stroke-width="3" stroke-linecap="round" stroke-linejoin="round" stroke-miterlimit="10" x1="2910.801" y1="128.862" x2="2910.397" y2="129.304"/>
	</g>
	<g>
		<g>
			<path fill="#FFEAD4" d="M2427.706,123.228c-5.271,0-8.945-2.119-9.834-5.668c-0.84-3.363,1.313-5.52,3.807-7.051
				c-0.221-0.236-0.367-0.498-0.438-0.785c-0.117-0.479-0.014-0.979,0.301-1.416c0.998-1.387,4.145-2.104,6.758-2.311
				c0.617-0.053,1.234-0.074,1.838-0.074c1.742,0,5.846,0.221,6.355,2.256c0.061,0.244,0.088,0.594-0.064,0.986
				c3.125,1.025,6.314,2.695,7.145,6.02c0.389,1.553,0.141,3.004-0.721,4.195c-1.33,1.852-4.098,3.033-7.793,3.326l-5.729,0.457
				C2428.776,123.207,2428.237,123.228,2427.706,123.228z"/>
			<path fill="#030332" d="M2430.133,106.924c2.885,0,5.16,0.596,5.385,1.498c0.105,0.422-0.256,0.85-0.943,1.229
				c4.084,1.129,7.252,2.689,8.02,5.775c0.939,3.762-2.645,5.887-7.619,6.283l-5.729,0.455c-0.521,0.043-1.033,0.063-1.539,0.063
				c-4.334,0-8.021-1.541-8.861-4.91c-0.771-3.09,1.51-5.08,4.881-6.803c-0.854-0.258-1.408-0.611-1.516-1.033
				c-0.271-1.082,2.49-2.189,6.168-2.482C2428.977,106.947,2429.569,106.924,2430.133,106.924 M2430.133,104.924
				c-0.629,0-1.27,0.021-1.918,0.078c-1.766,0.139-6.02,0.686-7.49,2.723c-0.482,0.678-0.645,1.475-0.459,2.242
				c0.021,0.072,0.039,0.145,0.064,0.215c-2.123,1.48-4.355,3.912-3.43,7.623c1.004,4.021,5.043,6.424,10.803,6.424
				c0.557,0,1.127-0.02,1.697-0.063l5.734-0.455c3.992-0.318,7.02-1.646,8.525-3.74c1.027-1.439,1.336-3.174,0.875-5.021
				c-0.869-3.479-3.895-5.313-7-6.447c-0.014-0.227-0.041-0.412-0.076-0.559C2436.838,105.447,2433.133,104.924,2430.133,104.924
				L2430.133,104.924z"/>
		</g>
		
			<line fill="none" stroke="#030332" stroke-width="2" stroke-linecap="round" stroke-linejoin="round" stroke-miterlimit="10" x1="2431.467" y1="119.361" x2="2432.213" y2="122.349"/>
		
			<line fill="none" stroke="#030332" stroke-width="2" stroke-linecap="round" stroke-linejoin="round" stroke-miterlimit="10" x1="2426.383" y1="120.187" x2="2425.76" y2="122.443"/>
		
			<line fill="none" stroke="#030332" stroke-width="2" stroke-linecap="round" stroke-linejoin="round" stroke-miterlimit="10" x1="2436.756" y1="119.361" x2="2438.458" y2="121.433"/>
	</g>
	<g>
		<path fill="#E39DFF" stroke="#030332" stroke-width="3" stroke-linejoin="round" stroke-miterlimit="10" d="M1870.004,64.978
			c5.275-0.492,15.555,12.686,15.555,12.686s20.334-2.689,23.098,0.109c2.76,2.801-11.682,12.09-11.682,12.09
			s13.146,11.736,9.98,14.605c-3.172,2.865-22.771-5.209-22.771-5.209s-12.889,10.213-16.926,8.914
			c-4.039-1.299-2.395-15.314-2.395-15.314s-20.895-5.518-20.439-9.094c0.453-3.576,21.287-4.252,21.287-4.252
			S1864.727,65.471,1870.004,64.978z"/>
		
			<line fill="none" stroke="#030332" stroke-width="3" stroke-linecap="round" stroke-linejoin="round" stroke-miterlimit="10" x1="1879.014" y1="86.806" x2="1876.356" y2="80.383"/>
		
			<line fill="none" stroke="#030332" stroke-width="3" stroke-linecap="round" stroke-linejoin="round" stroke-miterlimit="10" x1="1879.014" y1="86.806" x2="1887.901" y2="84.82"/>
		
			<line fill="none" stroke="#030332" stroke-width="3" stroke-linecap="round" stroke-linejoin="round" stroke-miterlimit="10" x1="1879.014" y1="86.806" x2="1869.206" y2="86.564"/>
		
			<line fill="none" stroke="#030332" stroke-width="3" stroke-linecap="round" stroke-linejoin="round" stroke-miterlimit="10" x1="1879.014" y1="86.806" x2="1886.524" y2="91.637"/>
		
			<line fill="none" stroke="#030332" stroke-width="3" stroke-linecap="round" stroke-linejoin="round" stroke-miterlimit="10" x1="1879.014" y1="86.806" x2="1875.909" y2="92.627"/>
		
			<line fill="none" stroke="#030332" stroke-width="3" stroke-linecap="round" stroke-linejoin="round" stroke-miterlimit="10" x1="1858.866" y1="85.601" x2="1859.543" y2="85.621"/>
		
			<line fill="none" stroke="#030332" stroke-width="3" stroke-linecap="round" stroke-linejoin="round" stroke-miterlimit="10" x1="1873.352" y1="73.123" x2="1873.649" y2="73.836"/>
		
			<line fill="none" stroke="#030332" stroke-width="3" stroke-linecap="round" stroke-linejoin="round" stroke-miterlimit="10" x1="1895.602" y1="82.256" x2="1896.643" y2="81.826"/>
		
			<line fill="none" stroke="#030332" stroke-width="3" stroke-linecap="round" stroke-linejoin="round" stroke-miterlimit="10" x1="1893.25" y1="96.445" x2="1893.661" y2="96.695"/>
		
			<line fill="none" stroke="#030332" stroke-width="3" stroke-linecap="round" stroke-linejoin="round" stroke-miterlimit="10" x1="1873.854" y1="97.801" x2="1873.258" y2="98.455"/>
	</g>
	<g>
		
			<path fill="#70153B" stroke="#030332" stroke-width="3" stroke-linecap="round" stroke-linejoin="round" stroke-miterlimit="10" d="
			M1948.309,46.09c3.563-0.332,10.5,8.563,10.5,8.563s13.727-1.813,15.59,0.074c1.861,1.891-7.883,8.162-7.883,8.162
			s8.877,7.924,6.736,9.859c-2.146,1.934-15.371-3.521-15.371-3.521s-8.701,6.896-11.428,6.021
			c-2.73-0.877-1.617-10.338-1.617-10.338s-14.105-3.727-13.799-6.141c0.305-2.414,14.371-2.871,14.371-2.871
			S1944.747,46.422,1948.309,46.09z"/>
		
			<line fill="none" stroke="#030332" stroke-width="3" stroke-linecap="round" stroke-linejoin="round" stroke-miterlimit="10" x1="1954.391" y1="60.826" x2="1952.596" y2="56.49"/>
		
			<line fill="none" stroke="#030332" stroke-width="3" stroke-linecap="round" stroke-linejoin="round" stroke-miterlimit="10" x1="1954.391" y1="60.826" x2="1960.391" y2="59.484"/>
		
			<line fill="none" stroke="#030332" stroke-width="3" stroke-linecap="round" stroke-linejoin="round" stroke-miterlimit="10" x1="1954.391" y1="60.826" x2="1947.77" y2="60.662"/>
		
			<line fill="none" stroke="#030332" stroke-width="3" stroke-linecap="round" stroke-linejoin="round" stroke-miterlimit="10" x1="1954.391" y1="60.826" x2="1959.461" y2="64.086"/>
		
			<line fill="none" stroke="#030332" stroke-width="3" stroke-linecap="round" stroke-linejoin="round" stroke-miterlimit="10" x1="1954.391" y1="60.826" x2="1952.295" y2="64.756"/>
		
			<line fill="none" stroke="#030332" stroke-width="3" stroke-linecap="round" stroke-linejoin="round" stroke-miterlimit="10" x1="1940.79" y1="60.012" x2="1941.249" y2="60.025"/>
		
			<line fill="none" stroke="#030332" stroke-width="3" stroke-linecap="round" stroke-linejoin="round" stroke-miterlimit="10" x1="1950.569" y1="51.588" x2="1950.77" y2="52.07"/>
		
			<line fill="none" stroke="#030332" stroke-width="3" stroke-linecap="round" stroke-linejoin="round" stroke-miterlimit="10" x1="1965.59" y1="57.754" x2="1966.293" y2="57.463"/>
		
			<line fill="none" stroke="#030332" stroke-width="3" stroke-linecap="round" stroke-linejoin="round" stroke-miterlimit="10" x1="1964.002" y1="67.332" x2="1964.278" y2="67.502"/>
		
			<line fill="none" stroke="#030332" stroke-width="3" stroke-linecap="round" stroke-linejoin="round" stroke-miterlimit="10" x1="1950.909" y1="68.248" x2="1950.504" y2="68.689"/>
	</g>
	<g>
		<g>
			<path fill="#FFEAE0" d="M2318.698,92.439c-0.855,0-1.73-0.037-2.605-0.104c-3.291-0.271-7.156-1.146-8.145-2.771
				c-0.303-0.498-0.35-1.055-0.129-1.563c0.145-0.334,0.391-0.637,0.742-0.896c-2.428-1.479-5.434-4.113-3.695-8.188
				c1.666-3.914,6.334-6.16,12.809-6.16c0.748,0,1.521,0.033,2.285,0.096l7.229,0.605c4.689,0.389,8.002,1.813,9.332,4.02
				c0.574,0.953,1.066,2.543,0.146,4.711c-1.605,3.783-5.873,5.574-10.201,6.719c0.221,0.547,0.096,1.021-0.02,1.271
				C2325.575,92.219,2320.737,92.439,2318.698,92.439z"/>
			<path fill="#030332" d="M2317.672,73.754c0.73,0,1.465,0.027,2.201,0.094l7.229,0.6c6.275,0.521,10.48,3.021,8.646,7.348
				c-1.521,3.553-5.814,5.307-11.221,6.559c0.813,0.449,1.207,0.945,1,1.43c-0.438,1.016-3.281,1.662-6.828,1.662
				c-0.814,0-1.658-0.035-2.521-0.104c-4.641-0.383-7.969-1.703-7.438-2.947c0.207-0.484,0.979-0.885,2.104-1.174
				c-4.004-2.029-6.568-4.355-5.063-7.906C2307.413,75.49,2312.247,73.754,2317.672,73.754 M2317.672,71.754L2317.672,71.754
				c-6.895,0-11.895,2.467-13.729,6.77c-1.779,4.189,0.688,7.041,3.104,8.773c-0.063,0.098-0.104,0.199-0.152,0.303
				c-0.342,0.807-0.27,1.709,0.189,2.48c1.439,2.389,6.721,3.063,8.918,3.25c0.898,0.068,1.811,0.107,2.688,0.107
				c3.396,0,7.656-0.5,8.668-2.879c0.064-0.139,0.189-0.479,0.203-0.93c4.271-1.225,8.355-3.154,10.021-7.063
				c1.088-2.557,0.482-4.467-0.209-5.621c-1.928-3.186-6.563-4.201-10.105-4.498l-7.229-0.6
				C2319.247,71.787,2318.448,71.754,2317.672,71.754L2317.672,71.754z"/>
		</g>
		
			<line fill="none" stroke="#030332" stroke-width="2" stroke-linecap="round" stroke-linejoin="round" stroke-miterlimit="10" x1="2322.227" y1="77.109" x2="2323.688" y2="73.674"/>
		
			<line fill="none" stroke="#030332" stroke-width="2" stroke-linecap="round" stroke-linejoin="round" stroke-miterlimit="10" x1="2315.885" y1="76.094" x2="2315.481" y2="73.484"/>
		
			<line fill="none" stroke="#030332" stroke-width="2" stroke-linecap="round" stroke-linejoin="round" stroke-miterlimit="10" x1="2328.969" y1="77.178" x2="2331.497" y2="74.81"/>
	</g>
	<g>
		<g>
			<path fill="#FFEAD4" d="M2307.346,98.57c-0.467,0-0.938-0.016-1.41-0.045l-5.75-0.375c-3.729-0.244-6.398-1.369-7.52-3.17
				c-0.514-0.824-0.953-2.209-0.15-4.127c1.314-3.156,4.686-4.727,8.125-5.754c-0.121-0.455-0.002-0.836,0.064-1.004
				c0.813-1.951,5.438-2.105,6.842-2.105c0.52,0,1.063,0.021,1.604,0.059c1.281,0.082,5.547,0.484,6.617,2.215
				c0.289,0.465,0.336,0.986,0.135,1.475c-0.102,0.244-0.26,0.465-0.477,0.664c1.932,1.234,4.166,3.393,2.756,6.777
				C2316.77,96.554,2312.721,98.57,2307.346,98.57L2307.346,98.57z"/>
			<path fill="#030332" d="M2307.545,82.992c0.5,0,1.021,0.021,1.535,0.057c3.688,0.234,6.32,1.27,5.895,2.309
				c-0.168,0.404-0.779,0.746-1.688,1.002c3.172,1.607,5.191,3.482,3.967,6.438c-1.355,3.271-5.428,4.775-9.902,4.775
				c-0.439,0-0.895-0.014-1.35-0.043l-5.748-0.375c-4.986-0.322-8.314-2.313-6.814-5.914c1.23-2.955,4.67-4.473,8.98-5.594
				c-0.646-0.354-0.951-0.76-0.783-1.164C2301.997,83.592,2304.508,82.992,2307.545,82.992 M2307.545,80.992
				c-3.02,0-6.824,0.477-7.768,2.725c-0.086,0.207-0.145,0.43-0.182,0.664c-3.406,1.104-6.645,2.807-8.012,6.094
				c-0.969,2.311-0.404,4.016,0.229,5.039c1.314,2.113,4.188,3.371,8.309,3.639l5.748,0.375c0.49,0.033,0.986,0.049,1.48,0.049
				c5.791,0,10.188-2.242,11.752-6.01c1.479-3.543-0.363-5.936-2.293-7.41c0.006-0.01,0.01-0.02,0.014-0.027
				c0.326-0.781,0.25-1.652-0.207-2.391c-1.234-1.998-5.17-2.541-7.396-2.688C2308.657,81.01,2308.094,80.992,2307.545,80.992
				L2307.545,80.992z"/>
		</g>
		
			<line fill="none" stroke="#030332" stroke-width="2" stroke-linecap="round" stroke-linejoin="round" stroke-miterlimit="10" x1="2304.155" y1="94.875" x2="2302.963" y2="97.734"/>
		
			<line fill="none" stroke="#030332" stroke-width="2" stroke-linecap="round" stroke-linejoin="round" stroke-miterlimit="10" x1="2298.79" y1="94.929" x2="2296.762" y2="96.926"/>
		
			<line fill="none" stroke="#030332" stroke-width="2" stroke-linecap="round" stroke-linejoin="round" stroke-miterlimit="10" x1="2309.19" y1="95.607" x2="2309.493" y2="97.756"/>
	</g>
	<g>
		<g>
			<path fill="#FFEAE0" d="M2871.448,92.439c-0.855,0-1.73-0.037-2.605-0.104c-3.291-0.271-7.156-1.146-8.145-2.771
				c-0.303-0.498-0.35-1.055-0.129-1.563c0.145-0.334,0.391-0.637,0.742-0.896c-2.428-1.479-5.434-4.113-3.695-8.188
				c1.666-3.914,6.334-6.16,12.809-6.16c0.748,0,1.521,0.033,2.285,0.096l7.229,0.605c4.689,0.389,8.002,1.813,9.332,4.02
				c0.574,0.953,1.066,2.543,0.146,4.711c-1.605,3.783-5.873,5.574-10.201,6.719c0.221,0.547,0.096,1.021-0.02,1.271
				C2878.327,92.219,2873.487,92.439,2871.448,92.439z"/>
			<path fill="#030332" d="M2870.422,73.754c0.73,0,1.465,0.027,2.201,0.094l7.229,0.6c6.275,0.521,10.48,3.021,8.646,7.348
				c-1.521,3.553-5.814,5.307-11.221,6.559c0.813,0.449,1.207,0.945,1,1.43c-0.438,1.016-3.281,1.662-6.828,1.662
				c-0.814,0-1.658-0.035-2.521-0.104c-4.643-0.383-7.969-1.703-7.438-2.947c0.207-0.484,0.979-0.885,2.104-1.174
				c-4.004-2.029-6.568-4.355-5.063-7.906C2860.163,75.49,2864.997,73.754,2870.422,73.754 M2870.422,71.754L2870.422,71.754
				c-6.895,0-11.895,2.467-13.729,6.77c-1.779,4.189,0.688,7.041,3.104,8.773c-0.063,0.098-0.104,0.199-0.152,0.303
				c-0.342,0.807-0.27,1.709,0.189,2.48c1.439,2.389,6.721,3.063,8.918,3.25c0.898,0.068,1.811,0.107,2.688,0.107
				c3.396,0,7.656-0.5,8.668-2.879c0.064-0.139,0.189-0.479,0.203-0.93c4.271-1.225,8.355-3.154,10.021-7.063
				c1.088-2.557,0.482-4.467-0.209-5.621c-1.928-3.186-6.563-4.201-10.105-4.498l-7.229-0.6
				C2871.997,71.787,2871.198,71.754,2870.422,71.754L2870.422,71.754z"/>
		</g>
		
			<line fill="none" stroke="#030332" stroke-width="2" stroke-linecap="round" stroke-linejoin="round" stroke-miterlimit="10" x1="2874.977" y1="77.109" x2="2876.438" y2="73.674"/>
		
			<line fill="none" stroke="#030332" stroke-width="2" stroke-linecap="round" stroke-linejoin="round" stroke-miterlimit="10" x1="2868.635" y1="76.094" x2="2868.231" y2="73.484"/>
		
			<line fill="none" stroke="#030332" stroke-width="2" stroke-linecap="round" stroke-linejoin="round" stroke-miterlimit="10" x1="2881.719" y1="77.178" x2="2884.247" y2="74.81"/>
	</g>
	<g>
		<g>
			<path fill="#FFEAD4" d="M2674.131,60.356c-0.467,0-0.938-0.016-1.41-0.045l-5.75-0.375c-3.729-0.244-6.396-1.369-7.52-3.17
				c-0.514-0.824-0.953-2.209-0.15-4.127c1.314-3.156,4.688-4.727,8.125-5.754c-0.121-0.455-0.002-0.836,0.064-1.004
				c0.813-1.951,5.439-2.105,6.842-2.105c0.521,0,1.064,0.021,1.605,0.059c1.277,0.082,5.547,0.484,6.613,2.215
				c0.289,0.465,0.336,0.986,0.139,1.475c-0.105,0.244-0.264,0.465-0.48,0.664c1.932,1.234,4.166,3.393,2.756,6.777
				C2683.553,58.34,2679.506,60.356,2674.131,60.356L2674.131,60.356z"/>
			<path fill="#030332" d="M2674.331,44.778c0.5,0,1.018,0.021,1.533,0.057c3.688,0.234,6.322,1.27,5.895,2.309
				c-0.168,0.404-0.783,0.746-1.688,1.002c3.174,1.607,5.193,3.482,3.969,6.438c-1.359,3.271-5.43,4.775-9.902,4.775
				c-0.445,0-0.895-0.014-1.352-0.043l-5.748-0.375c-4.984-0.322-8.314-2.313-6.814-5.914c1.23-2.955,4.67-4.473,8.98-5.594
				c-0.646-0.354-0.949-0.76-0.781-1.164C2668.78,45.378,2671.293,44.778,2674.331,44.778 M2674.331,42.778
				c-3.021,0-6.824,0.477-7.768,2.725c-0.086,0.207-0.145,0.43-0.182,0.664c-3.406,1.104-6.645,2.807-8.012,6.094
				c-0.969,2.313-0.404,4.016,0.229,5.039c1.314,2.113,4.186,3.371,8.307,3.639l5.748,0.375c0.492,0.033,0.988,0.049,1.479,0.049
				c5.791,0,10.189-2.242,11.752-6.01c1.48-3.543-0.363-5.936-2.293-7.41c0.006-0.01,0.01-0.02,0.014-0.027
				c0.326-0.781,0.25-1.652-0.207-2.391c-1.229-1.998-5.17-2.541-7.395-2.686C2675.438,42.796,2674.879,42.778,2674.331,42.778
				L2674.331,42.778z"/>
		</g>
		
			<line fill="none" stroke="#030332" stroke-width="2" stroke-linecap="round" stroke-linejoin="round" stroke-miterlimit="10" x1="2670.936" y1="56.661" x2="2669.747" y2="59.52"/>
		
			<line fill="none" stroke="#030332" stroke-width="2" stroke-linecap="round" stroke-linejoin="round" stroke-miterlimit="10" x1="2665.573" y1="56.715" x2="2663.547" y2="58.712"/>
		
			<line fill="none" stroke="#030332" stroke-width="2" stroke-linecap="round" stroke-linejoin="round" stroke-miterlimit="10" x1="2675.973" y1="57.393" x2="2676.276" y2="59.542"/>
	</g>
</g>
<g>
	<path fill="#FFBC89" d="M145.029,74.01c-2.55-2.763-6.302-4.164-11.151-4.164c-13.93,0-14.091,13.321-14.091,13.456v50.091h12.052
		v-48.75c0-1.912,1.477-2.422,2.35-2.422c0.37,0,2.213,0.114,2.213,2.357l-0.014,9.3c0,3.323,2.704,6.026,6.026,6.026
		s6.026-2.703,6.026-6.026V83.98C148.482,83.281,148.678,77.963,145.029,74.01z"/>
	<rect x="119.465" y="125.896" fill="#F4F7F8" width="12.374" height="3.969"/>
	<rect x="119.465" y="117.619" fill="#F4F7F8" width="12.374" height="3.969"/>
	<rect x="119.465" y="109.341" fill="#F4F7F8" width="12.374" height="3.969"/>
	<rect x="119.465" y="101.063" fill="#F4F7F8" width="12.374" height="3.969"/>
	<rect x="119.465" y="92.786" fill="#F4F7F8" width="12.374" height="3.969"/>
	<rect x="119.465" y="84.508" fill="#F4F7F8" width="12.374" height="3.969"/>
	
		<rect x="122.611" y="76.237" transform="matrix(0.5441 0.839 -0.839 0.5441 124.3418 -72.4028)" fill="#F4F7F8" width="12.374" height="3.969"/>
	
		<rect x="133.582" y="76.237" transform="matrix(-0.5943 0.8043 -0.8043 -0.5943 285.7386 12.2938)" fill="#F4F7F8" width="12.373" height="3.969"/>
	<rect x="135.985" y="84.539" fill="#F4F7F8" width="12.374" height="3.969"/>
	<rect x="135.985" y="92.786" fill="#F4F7F8" width="12.374" height="3.969"/>
	<g>
		<path fill="none" d="M125.813,143.977c2.5,0,4.526-2.026,4.526-4.526v-6.057h-9.052v6.057
			C121.286,141.95,123.313,143.977,125.813,143.977z"/>
		<path fill="none" d="M130.338,92.216c0,0,0-2.448,0-7.573c0-2.593,1.937-3.922,3.85-3.922c1.868,0,3.713,1.266,3.713,3.86
			l-0.014,9.297c0,2.5,2.026,4.526,4.526,4.526c2.5,0,4.526-2.026,4.526-4.526V83.93c0,0,1.007-12.583-13.062-12.583
			c-12.591,0-12.591,11.956-12.591,11.956v8.84v41.25h9.052V92.216z"/>
		<path fill="#030331" d="M146.131,72.993c-2.846-3.083-6.968-4.646-12.253-4.646c-12.333,0-15.591,9.783-15.591,14.956v8.84v41.25
			h3v-41.25v-8.84c0,0,0-11.956,12.591-11.956c14.069,0,13.062,12.583,13.062,12.583v9.948c0,2.5-2.026,4.526-4.526,4.526
			c-2.5,0-4.526-2.026-4.526-4.526l0.014-9.297c0-2.594-1.845-3.86-3.713-3.86c-1.913,0-3.85,1.329-3.85,3.922
			c0,5.125,0,7.573,0,7.573v41.177h3V92.216v-7.573c0-0.252,0-0.922,0.85-0.922c0.596,0,0.713,0.315,0.713,0.86l-0.014,9.293
			c0,4.154,3.376,7.53,7.526,7.53s7.526-3.376,7.526-7.526v-9.861C149.992,82.99,150.087,77.278,146.131,72.993z"/>
	</g>
</g>
<g>
	<g>
		<path fill="#FFBC89" d="M158.204,143.837v-37c0-3.313,2.686-6,6-6h0.218c3.313,0,6,2.687,6,6v37"/>
		<path fill="#030331" d="M171.922,143.837h-3v-37c0-2.481-2.019-4.5-4.5-4.5h-0.218c-2.481,0-4.5,2.019-4.5,4.5v37h-3v-37
			c0-4.136,3.364-7.5,7.5-7.5h0.218c4.136,0,7.5,3.364,7.5,7.5V143.837z"/>
	</g>
	<rect x="159.704" y="111.504" fill="#F4F7F8" width="9.218" height="6.333"/>
	<rect x="159.704" y="122.545" fill="#F4F7F8" width="9.218" height="6.333"/>
	<rect x="159.704" y="133.587" fill="#F4F7F8" width="9.218" height="6.333"/>
</g>
<g>
	<path fill="#FFBC89" d="M439.731,70.896c2.55-2.763,6.302-4.164,11.151-4.164c13.93,0,14.091,13.321,14.091,13.456v50.091h-12.052
		v-48.75c0-1.912-1.477-2.422-2.35-2.422c-0.37,0-2.213,0.114-2.213,2.357l0.014,9.3c0,3.323-2.704,6.026-6.026,6.026
		s-6.026-2.703-6.026-6.026v-9.897C436.278,80.167,436.083,74.849,439.731,70.896z"/>
	<rect x="452.922" y="122.783" fill="#F4F7F8" width="12.374" height="3.969"/>
	<rect x="452.922" y="114.505" fill="#F4F7F8" width="12.374" height="3.969"/>
	<rect x="452.922" y="106.228" fill="#F4F7F8" width="12.374" height="3.969"/>
	<rect x="452.922" y="97.95" fill="#F4F7F8" width="12.374" height="3.969"/>
	<rect x="452.922" y="89.672" fill="#F4F7F8" width="12.374" height="3.969"/>
	<rect x="452.922" y="81.394" fill="#F4F7F8" width="12.374" height="3.969"/>
	
		<rect x="449.775" y="73.123" transform="matrix(-0.5441 0.839 -0.839 -0.5441 767.0836 -266.5734)" fill="#F4F7F8" width="12.374" height="3.969"/>
	
		<rect x="438.805" y="73.124" transform="matrix(0.5943 0.8043 -0.8043 0.5943 240.9595 -327.4211)" fill="#F4F7F8" width="12.373" height="3.969"/>
	<rect x="436.402" y="81.425" fill="#F4F7F8" width="12.374" height="3.969"/>
	<rect x="436.402" y="89.672" fill="#F4F7F8" width="12.374" height="3.969"/>
	<g>
		<path fill="none" d="M458.948,140.863c-2.5,0-4.526-2.026-4.526-4.526v-6.057h9.052v6.057
			C463.474,138.836,461.448,140.863,458.948,140.863z"/>
		<path fill="none" d="M454.422,89.103c0,0,0-2.448,0-7.573c0-2.593-1.937-3.922-3.85-3.922c-1.868,0-3.713,1.266-3.713,3.86
			l0.014,9.297c0,2.5-2.026,4.526-4.526,4.526c-2.5,0-4.526-2.026-4.526-4.526v-9.948c0,0-1.007-12.583,13.062-12.583
			c12.591,0,12.591,11.956,12.591,11.956v8.84v41.25h-9.052V89.103z"/>
		<path fill="#030331" d="M438.629,69.879c2.846-3.083,6.968-4.646,12.253-4.646c12.333,0,15.591,9.783,15.591,14.956v8.84v41.25h-3
			v-41.25v-8.84c0,0,0-11.956-12.591-11.956c-14.069,0-13.062,12.583-13.062,12.583v9.948c0,2.5,2.026,4.526,4.526,4.526
			c2.5,0,4.526-2.026,4.526-4.526l-0.014-9.297c0-2.594,1.845-3.86,3.713-3.86c1.913,0,3.85,1.329,3.85,3.922
			c0,5.125,0,7.573,0,7.573v41.177h-3V89.103v-7.573c0-0.252,0-0.922-0.85-0.922c-0.596,0-0.713,0.315-0.713,0.86l0.014,9.293
			c0,4.154-3.376,7.53-7.526,7.53s-7.526-3.376-7.526-7.526v-9.861C434.769,79.876,434.673,74.165,438.629,69.879z"/>
	</g>
</g>
<g>
	<path fill="#FFBC89" d="M2618.727,30.64c-2.55-2.763-6.302-4.164-11.15-4.164c-13.931,0-14.092,13.321-14.092,13.456v50.091h12.053
		v-48.75c0-1.912,1.477-2.422,2.35-2.422c0.369,0,2.213,0.114,2.213,2.357l-0.014,9.3c0,3.323,2.703,6.026,6.025,6.026
		c3.323,0,6.026-2.703,6.026-6.026V40.61C2622.181,39.911,2622.376,34.592,2618.727,30.64z"/>
	<rect x="2593.164" y="82.526" fill="#F4F7F8" width="12.374" height="3.969"/>
	<rect x="2593.164" y="74.248" fill="#F4F7F8" width="12.374" height="3.969"/>
	<rect x="2593.164" y="65.971" fill="#F4F7F8" width="12.374" height="3.969"/>
	<rect x="2593.164" y="57.693" fill="#F4F7F8" width="12.374" height="3.969"/>
	<rect x="2593.164" y="49.415" fill="#F4F7F8" width="12.374" height="3.969"/>
	<rect x="2593.164" y="41.137" fill="#F4F7F8" width="12.374" height="3.969"/>
	
		<rect x="2596.31" y="32.867" transform="matrix(0.5441 0.839 -0.839 0.5441 1215.6926 -2167.6426)" fill="#F4F7F8" width="12.373" height="3.969"/>
	
		<rect x="2607.28" y="32.867" transform="matrix(-0.5943 0.8043 -0.8043 -0.5943 4194.6362 -2046.3325)" fill="#F4F7F8" width="12.374" height="3.969"/>
	<rect x="2609.684" y="41.168" fill="#F4F7F8" width="12.373" height="3.969"/>
	<rect x="2609.684" y="49.415" fill="#F4F7F8" width="12.373" height="3.969"/>
	<g>
		<path fill="none" d="M2599.511,100.606c2.499,0,4.526-2.026,4.526-4.526v-6.057h-9.053v6.057
			C2594.985,98.58,2597.011,100.606,2599.511,100.606z"/>
		<path fill="none" d="M2604.038,48.846c0,0,0-2.448,0-7.573c0-2.593,1.937-3.922,3.85-3.922c1.867,0,3.713,1.266,3.713,3.86
			l-0.014,9.297c0,2.5,2.025,4.526,4.525,4.526s4.526-2.026,4.526-4.526v-9.948c0,0,1.007-12.583-13.062-12.583
			c-12.592,0-12.592,11.956-12.592,11.956v8.84v41.25h9.053V48.846z"/>
		<path fill="#030331" d="M2619.83,29.622c-2.846-3.083-6.968-4.646-12.253-4.646c-12.333,0-15.592,9.783-15.592,14.956v8.84v41.25
			h3v-41.25v-8.84c0,0,0-11.956,12.592-11.956c14.068,0,13.062,12.583,13.062,12.583v9.948c0,2.5-2.026,4.526-4.526,4.526
			s-4.525-2.026-4.525-4.526l0.014-9.297c0-2.594-1.846-3.86-3.713-3.86c-1.913,0-3.85,1.329-3.85,3.922c0,5.125,0,7.573,0,7.573
			v41.177h3V48.846v-7.573c0-0.252,0-0.922,0.85-0.922c0.596,0,0.713,0.315,0.713,0.86l-0.014,9.293c0,4.154,3.376,7.53,7.525,7.53
			c4.15,0,7.526-3.376,7.526-7.526v-9.861C2623.69,39.619,2623.786,33.908,2619.83,29.622z"/>
	</g>
</g>
<g>
	<g>
		<path fill="#FFBC89" d="M482.63,116.132v-37c0-3.313,2.686-6,6-6h0.218c3.313,0,6,2.687,6,6v37"/>
		<path fill="#030331" d="M496.349,116.132h-3v-37c0-2.481-2.019-4.5-4.5-4.5h-0.218c-2.481,0-4.5,2.019-4.5,4.5v37h-3v-37
			c0-4.136,3.364-7.5,7.5-7.5h0.218c4.136,0,7.5,3.364,7.5,7.5V116.132z"/>
	</g>
	<rect x="484.13" y="83.799" fill="#F4F7F8" width="9.218" height="6.333"/>
	<rect x="484.13" y="94.84" fill="#F4F7F8" width="9.218" height="6.333"/>
	<rect x="484.13" y="105.882" fill="#F4F7F8" width="9.218" height="6.333"/>
</g>
<g>
	<g>
		<path fill="#FFBC89" d="M945.889,98.045v-37c0-3.313,2.686-6,6-6h0.218c3.313,0,6,2.687,6,6v37"/>
		<path fill="#030331" d="M959.607,98.045h-3v-37c0-2.481-2.019-4.5-4.5-4.5h-0.218c-2.481,0-4.5,2.019-4.5,4.5v37h-3v-37
			c0-4.136,3.364-7.5,7.5-7.5h0.218c4.136,0,7.5,3.364,7.5,7.5V98.045z"/>
	</g>
	<rect x="947.389" y="65.712" fill="#F4F7F8" width="9.218" height="6.333"/>
	<rect x="947.389" y="76.753" fill="#F4F7F8" width="9.218" height="6.333"/>
	<rect x="947.389" y="87.795" fill="#F4F7F8" width="9.218" height="6.333"/>
</g>
<g>
	<g>
		<path fill="#FFBC89" d="M407.634,90.597v-37c0-3.313,2.686-6,6-6h0.218c3.313,0,6,2.687,6,6v37"/>
		<path fill="#030331" d="M421.353,90.597h-3v-37c0-2.481-2.019-4.5-4.5-4.5h-0.218c-2.481,0-4.5,2.019-4.5,4.5v37h-3v-37
			c0-4.136,3.364-7.5,7.5-7.5h0.218c4.136,0,7.5,3.364,7.5,7.5V90.597z"/>
	</g>
	<rect x="409.134" y="58.263" fill="#F4F7F8" width="9.218" height="6.333"/>
	<rect x="409.134" y="69.305" fill="#F4F7F8" width="9.218" height="6.333"/>
	<rect x="409.134" y="80.346" fill="#F4F7F8" width="9.218" height="6.333"/>
</g>
<g>
	<g>
		<path fill="#FFBC89" d="M924.999,107.644v-37c0-3.313,2.686-6,6-6h0.218c3.313,0,6,2.687,6,6v37"/>
		<path fill="#030331" d="M938.717,107.644h-3v-37c0-2.481-2.019-4.5-4.5-4.5h-0.218c-2.481,0-4.5,2.019-4.5,4.5v37h-3v-37
			c0-4.136,3.364-7.5,7.5-7.5h0.218c4.136,0,7.5,3.364,7.5,7.5V107.644z"/>
	</g>
	<rect x="926.499" y="75.311" fill="#F4F7F8" width="9.218" height="6.333"/>
	<rect x="926.499" y="86.352" fill="#F4F7F8" width="9.218" height="6.333"/>
	<rect x="926.499" y="97.394" fill="#F4F7F8" width="9.218" height="6.333"/>
</g>
<g>
	<g>
		<path fill="#FFBC89" d="M1334.875,95.729v-37c0-3.313,2.686-6,6-6h0.218c3.313,0,6,2.687,6,6v37"/>
		<path fill="#030331" d="M1348.594,95.729h-3v-37c0-2.481-2.019-4.5-4.5-4.5h-0.218c-2.481,0-4.5,2.019-4.5,4.5v37h-3v-37
			c0-4.136,3.364-7.5,7.5-7.5h0.218c4.136,0,7.5,3.364,7.5,7.5V95.729z"/>
	</g>
	<rect x="1336.375" y="63.396" fill="#F4F7F8" width="9.218" height="6.333"/>
	<rect x="1336.375" y="74.438" fill="#F4F7F8" width="9.218" height="6.333"/>
	<rect x="1336.375" y="85.479" fill="#F4F7F8" width="9.218" height="6.333"/>
</g>
<g>
	<g>
		<path fill="#FFBC89" d="M1689.485,81.734v-37c0-3.313,2.686-6,6-6h0.219c3.313,0,6,2.687,6,6v37"/>
		<path fill="#030331" d="M1703.204,81.734h-3v-37c0-2.481-2.02-4.5-4.5-4.5h-0.219c-2.481,0-4.5,2.019-4.5,4.5v37h-3v-37
			c0-4.136,3.364-7.5,7.5-7.5h0.219c4.135,0,7.5,3.364,7.5,7.5V81.734z"/>
	</g>
	<rect x="1690.985" y="49.4" fill="#F4F7F8" width="9.219" height="6.333"/>
	<rect x="1690.985" y="60.442" fill="#F4F7F8" width="9.219" height="6.333"/>
	<rect x="1690.985" y="71.483" fill="#F4F7F8" width="9.219" height="6.333"/>
</g>
<g>
	<g>
		<path fill="#FFBC89" d="M1731.485,97.702v-37c0-3.313,2.686-6,6-6h0.219c3.313,0,6,2.687,6,6v37"/>
		<path fill="#030331" d="M1745.204,97.702h-3v-37c0-2.481-2.02-4.5-4.5-4.5h-0.219c-2.481,0-4.5,2.019-4.5,4.5v37h-3v-37
			c0-4.136,3.364-7.5,7.5-7.5h0.219c4.135,0,7.5,3.364,7.5,7.5V97.702z"/>
	</g>
	<rect x="1732.985" y="65.369" fill="#F4F7F8" width="9.219" height="6.333"/>
	<rect x="1732.985" y="76.41" fill="#F4F7F8" width="9.219" height="6.333"/>
	<rect x="1732.985" y="87.452" fill="#F4F7F8" width="9.219" height="6.333"/>
</g>
<g>
	<g>
		<path fill="#FFBC89" d="M1991.485,62.185v-37c0-3.313,2.686-6,6-6h0.219c3.313,0,6,2.687,6,6v37"/>
		<path fill="#030331" d="M2005.204,62.185h-3v-37c0-2.481-2.02-4.5-4.5-4.5h-0.219c-2.481,0-4.5,2.019-4.5,4.5v37h-3v-37
			c0-4.136,3.364-7.5,7.5-7.5h0.219c4.135,0,7.5,3.364,7.5,7.5V62.185z"/>
	</g>
	<rect x="1992.985" y="29.852" fill="#F4F7F8" width="9.219" height="6.333"/>
	<rect x="1992.985" y="40.893" fill="#F4F7F8" width="9.219" height="6.333"/>
	<rect x="1992.985" y="51.935" fill="#F4F7F8" width="9.219" height="6.333"/>
</g>
<g>
	<g>
		<path fill="#FFBC89" d="M2207.485,105.845v-37c0-3.313,2.686-6,6-6h0.219c3.313,0,6,2.687,6,6v37"/>
		<path fill="#030331" d="M2221.204,105.845h-3v-37c0-2.481-2.02-4.5-4.5-4.5h-0.219c-2.481,0-4.5,2.019-4.5,4.5v37h-3v-37
			c0-4.136,3.364-7.5,7.5-7.5h0.219c4.135,0,7.5,3.364,7.5,7.5V105.845z"/>
	</g>
	<rect x="2208.985" y="73.511" fill="#F4F7F8" width="9.219" height="6.333"/>
	<rect x="2208.985" y="84.553" fill="#F4F7F8" width="9.219" height="6.333"/>
	<rect x="2208.985" y="95.594" fill="#F4F7F8" width="9.219" height="6.333"/>
</g>
<g>
	<g>
		<path fill="#FFBC89" d="M2230.313,87.809v-37c0-3.313,2.686-6,6-6h0.219c3.313,0,6,2.687,6,6v37"/>
		<path fill="#030331" d="M2244.032,87.809h-3v-37c0-2.481-2.02-4.5-4.5-4.5h-0.219c-2.481,0-4.5,2.019-4.5,4.5v37h-3v-37
			c0-4.136,3.364-7.5,7.5-7.5h0.219c4.135,0,7.5,3.364,7.5,7.5V87.809z"/>
	</g>
	<rect x="2231.813" y="55.475" fill="#F4F7F8" width="9.219" height="6.333"/>
	<rect x="2231.813" y="66.517" fill="#F4F7F8" width="9.219" height="6.333"/>
	<rect x="2231.813" y="77.558" fill="#F4F7F8" width="9.219" height="6.333"/>
</g>
<g>
	<g>
		<path fill="#FFBC89" d="M2254.266,103.815v-37c0-3.313,2.686-6,6-6h0.219c3.313,0,6,2.687,6,6v37"/>
		<path fill="#030331" d="M2267.985,103.815h-3v-37c0-2.481-2.02-4.5-4.5-4.5h-0.219c-2.481,0-4.5,2.019-4.5,4.5v37h-3v-37
			c0-4.136,3.364-7.5,7.5-7.5h0.219c4.135,0,7.5,3.364,7.5,7.5V103.815z"/>
	</g>
	<rect x="2255.766" y="71.482" fill="#F4F7F8" width="9.219" height="6.333"/>
	<rect x="2255.766" y="82.523" fill="#F4F7F8" width="9.219" height="6.333"/>
	<rect x="2255.766" y="93.565" fill="#F4F7F8" width="9.219" height="6.333"/>
</g>
<g>
	<g>
		<path fill="#FFBC89" d="M2714.485,112.53v-37c0-3.313,2.686-6,6-6h0.219c3.313,0,6,2.687,6,6v37"/>
		<path fill="#030331" d="M2728.204,112.53h-3v-37c0-2.481-2.02-4.5-4.5-4.5h-0.219c-2.481,0-4.5,2.019-4.5,4.5v37h-3v-37
			c0-4.136,3.364-7.5,7.5-7.5h0.219c4.135,0,7.5,3.364,7.5,7.5V112.53z"/>
	</g>
	<rect x="2715.985" y="80.197" fill="#F4F7F8" width="9.219" height="6.333"/>
	<rect x="2715.985" y="91.238" fill="#F4F7F8" width="9.219" height="6.333"/>
	<rect x="2715.985" y="102.28" fill="#F4F7F8" width="9.219" height="6.333"/>
</g>
<g>
	<g>
		<path fill="#FFBC89" d="M2756.516,92.775v-37c0-3.313,2.686-6,6-6h0.219c3.313,0,6,2.687,6,6v37"/>
		<path fill="#030331" d="M2770.235,92.775h-3v-37c0-2.481-2.02-4.5-4.5-4.5h-0.219c-2.481,0-4.5,2.019-4.5,4.5v37h-3v-37
			c0-4.136,3.364-7.5,7.5-7.5h0.219c4.135,0,7.5,3.364,7.5,7.5V92.775z"/>
	</g>
	<rect x="2758.016" y="60.442" fill="#F4F7F8" width="9.219" height="6.333"/>
	<rect x="2758.016" y="71.483" fill="#F4F7F8" width="9.219" height="6.333"/>
	<rect x="2758.016" y="82.525" fill="#F4F7F8" width="9.219" height="6.333"/>
</g>
<g>
	<path fill="#FFBC89" d="M2732.839,70.128c2.55-2.763,6.302-4.164,11.151-4.164c13.93,0,14.092,13.321,14.092,13.456v50.091h-12.053
		v-48.75c0-1.912-1.477-2.422-2.35-2.422c-0.369,0-2.213,0.114-2.213,2.357l0.014,9.3c0,3.323-2.703,6.026-6.026,6.026
		s-6.026-2.703-6.026-6.026v-9.897C2729.385,79.399,2729.19,74.081,2732.839,70.128z"/>
	<rect x="2746.03" y="122.015" fill="#F4F7F8" width="12.373" height="3.969"/>
	<rect x="2746.03" y="113.737" fill="#F4F7F8" width="12.373" height="3.969"/>
	<rect x="2746.03" y="105.459" fill="#F4F7F8" width="12.373" height="3.969"/>
	<rect x="2746.03" y="97.182" fill="#F4F7F8" width="12.373" height="3.969"/>
	<rect x="2746.03" y="88.904" fill="#F4F7F8" width="12.373" height="3.969"/>
	<rect x="2746.03" y="80.626" fill="#F4F7F8" width="12.373" height="3.969"/>
	
		<rect x="2742.883" y="72.355" transform="matrix(-0.5442 0.839 -0.839 -0.5442 4307.3896 -2191.616)" fill="#F4F7F8" width="12.374" height="3.969"/>
	
		<rect x="2731.913" y="72.355" transform="matrix(0.5942 0.8043 -0.8043 0.5942 1170.8234 -2172.0706)" fill="#F4F7F8" width="12.373" height="3.97"/>
	<rect x="2729.51" y="80.657" fill="#F4F7F8" width="12.373" height="3.969"/>
	<rect x="2729.51" y="88.904" fill="#F4F7F8" width="12.373" height="3.969"/>
	<g>
		<path fill="none" d="M2752.055,140.095c-2.499,0-4.525-2.026-4.525-4.526v-6.057h9.053v6.057
			C2756.583,138.068,2754.555,140.095,2752.055,140.095z"/>
		<path fill="none" d="M2747.53,88.334c0,0,0-2.448,0-7.573c0-2.593-1.938-3.922-3.85-3.922c-1.868,0-3.713,1.266-3.713,3.86
			l0.014,9.297c0,2.5-2.026,4.526-4.526,4.526c-2.499,0-4.526-2.026-4.526-4.526v-9.948c0,0-1.007-12.583,13.063-12.583
			c12.592,0,12.592,11.956,12.592,11.956v8.84v41.25h-9.053V88.334z"/>
		<path fill="#030331" d="M2731.737,69.111c2.846-3.083,6.969-4.646,12.254-4.646c12.332,0,15.592,9.783,15.592,14.956v8.84v41.25
			h-3v-41.25v-8.84c0,0,0-11.956-12.592-11.956c-14.069,0-13.063,12.583-13.063,12.583v9.948c0,2.5,2.027,4.526,4.526,4.526
			c2.5,0,4.526-2.026,4.526-4.526l-0.014-9.297c0-2.594,1.845-3.86,3.713-3.86c1.912,0,3.85,1.329,3.85,3.922
			c0,5.125,0,7.573,0,7.573v41.177h-3V88.334v-7.573c0-0.252,0-0.922-0.85-0.922c-0.597,0-0.713,0.315-0.713,0.86l0.014,9.293
			c0,4.154-3.377,7.53-7.526,7.53s-7.526-3.376-7.526-7.526v-9.861C2727.876,79.108,2727.781,73.396,2731.737,69.111z"/>
	</g>
</g>
<rect x="0.999" opacity="0.2" fill="#030331" enable-background="new    " width="3155.369" height="540.441"/>
</svg>
