<?xml version="1.0" encoding="utf-8"?>
<!-- Generator: Adobe Illustrator 16.0.0, SVG Export Plug-In . SVG Version: 6.00 Build 0)  -->
<!DOCTYPE svg PUBLIC "-//W3C//DTD SVG 1.1//EN" "http://www.w3.org/Graphics/SVG/1.1/DTD/svg11.dtd">
<svg version="1.1" id="Layer_1" xmlns="http://www.w3.org/2000/svg" xmlns:xlink="http://www.w3.org/1999/xlink" x="0px" y="0px"
	 width="176.771px" height="73.697px" viewBox="0 0 176.771 73.697" enable-background="new 0 0 176.771 73.697"
	 xml:space="preserve">
<g>
	<g>
		<polygon fill="#D9D2D7" points="127.24,12.543 126.25,15.053 90.75,15.012 82.798,35.162 131.139,35.217 130.666,37.342 
			136.145,23.491 134.651,26.017 98.093,25.975 99.052,23.542 134.553,23.583 142.533,3.354 95.617,3.302 96.35,0 90.721,14.239 
			91.748,12.503 		"/>
	</g>
	<g>
		<polygon fill="#D9D2D7" points="153.559,7.492 158.401,8.263 154.128,20.181 146.102,45.201 140.981,46.019 158.989,46.019 
			154.539,45.31 166.3,20.194 171.406,8.347 176.772,7.492 		"/>
	</g>
	<g>
		<polygon fill="#D9D2D7" points="139.201,31.451 135.442,37.81 75.305,37.74 76.856,30.771 68.321,52.356 71.345,47.246 
			131.94,47.313 130.666,53.037 		"/>
	</g>
	<g>
		<path fill="#D9D2D7" d="M129.132,50.244H72.405l4.279,0.423l-8.559,21.686l-5.061,0.498h44.851l7.703,0.01l0.004-0.01h4.172
			l-4.016-0.396l8.578-21.735L129.132,50.244z M84.61,59.965l24.494,0.026l-1.32,3.347L83.29,63.312L84.61,59.965z"/>
	</g>
	<g>
		<path fill="#D9D2D7" d="M84.97,2.021H73.356l-5.758-0.044l-0.021,0.044h-5.82l5.479,0.871l-5.159,13.075l-12.975-0.015
			c-0.867-5.935-8.454-9.217-14.434-9.217c-12.97,0-23.858,8.363-30.188,20.649c-7.862,15.262-5.709,31.059,9.075,31.059
			c9.354,0,17.815-4.104,24.497-10.78l11.513,0.016l-9.889,25.06l-6.03,0.961H56.86l-5.406-0.86L79.023,2.97L84.97,2.021z
			 M26.209,27.091c-2.771,7.023-8.847,12.717-13.567,12.71c-4.723-0.006-6.305-5.704-3.529-12.729
			c2.771-7.025,8.846-12.715,13.567-12.71C27.4,14.367,28.981,20.066,26.209,27.091z M32.001,11.879
			c-1.063,0.511-2.22,0.317-2.578-0.43c-0.354-0.748,0.219-1.767,1.282-2.276c1.066-0.512,2.22-0.318,2.578,0.429
			S33.068,11.367,32.001,11.879z M37.904,12.706c-0.229,1.158-1.074,1.969-1.887,1.81c-0.813-0.16-1.286-1.231-1.06-2.391
			c0.229-1.159,1.073-1.97,1.888-1.81C37.659,10.478,38.132,11.547,37.904,12.706z M42.938,14.026
			c-0.625,0.546-1.764,0.266-2.538-0.625c-0.777-0.891-0.901-2.055-0.277-2.6c0.625-0.545,1.761-0.266,2.538,0.627
			C43.438,12.318,43.562,13.482,42.938,14.026z M53.435,37.869l-9.552-0.013c0.909-1.75,1.645-3.421,2.395-5.322
			c0.931-2.355,1.715-4.714,2.16-6.768l9.768,0.011L53.435,37.869z"/>
	</g>
	<g>
		<path fill="#D9D2D7" d="M148.147,50.681c-4.447-0.008-9.094,3.643-10.953,8.354c-1.861,4.713-0.125,8.445,4.322,8.449
			c4.52,0.006,9.195-3.717,11.057-8.434C154.434,54.338,152.666,50.685,148.147,50.681z M146.973,57.549
			c-1.531,2.362-4.174,3.996-5.898,3.646c-1.727-0.35-1.885-2.551-0.352-4.916c1.529-2.364,4.172-3.997,5.896-3.646
			C148.345,52.985,148.505,55.185,146.973,57.549z"/>
	</g>
</g>
</svg>
