<?xml version="1.0" encoding="utf-8"?>
<!-- Generator: Adobe Illustrator 16.0.0, SVG Export Plug-In . SVG Version: 6.00 Build 0)  -->
<!DOCTYPE svg PUBLIC "-//W3C//DTD SVG 1.1//EN" "http://www.w3.org/Graphics/SVG/1.1/DTD/svg11.dtd">
<svg version="1.1" id="Layer_1" xmlns="http://www.w3.org/2000/svg" xmlns:xlink="http://www.w3.org/1999/xlink" x="0px" y="0px"
	 width="485.667px" height="207.924px" viewBox="0 0 485.667 207.924" enable-background="new 0 0 485.667 207.924"
	 xml:space="preserve">
<g>
	<g>
		<path fill="#030332" d="M356.917,107.789c-0.242,0-0.488-0.036-0.732-0.11c-1.248-0.383-1.99-1.66-1.707-2.934l0.592-2.667
			l-126.711-0.144c-0.827-0.001-1.6-0.411-2.065-1.095s-0.561-1.554-0.258-2.323c0,0,21.36-54.138,21.364-54.147
			c-0.311-0.617-0.364-1.358-0.093-2.046L262.43,4.081c0.387-0.976,1.323-1.581,2.324-1.581c0.243,0,0.489,0.036,0.732,0.11
			c1.248,0.383,1.99,1.66,1.707,2.933l-1.297,5.827l122.893,0.139c0.828,0.001,1.602,0.411,2.064,1.095
			c0.465,0.684,0.563,1.554,0.258,2.323L371.1,65.645c0.172-0.037,0.348-0.056,0.527-0.056c0.369,0,0.744,0.083,1.098,0.255
			c1.17,0.574,1.705,1.952,1.225,3.165l-14.709,37.199C358.854,107.185,357.918,107.789,356.917,107.789z M366.188,72.368
			l0.91-1.537l-93.387-0.105l-0.605,1.537L366.188,72.368z M343.354,42.922l0.688-1.742l-90.225-0.102l-1.03,1.742L343.354,42.922z"
			/>
		<path fill="#F4F7F8" d="M264.754,5l-1.973,8.867l126.006,0.143l-21.436,54.323l-95.34-0.108l-2.578,6.535l98.18,0.111l4.012-6.781
			l-14.709,37.199l1.27-5.707l-129.827-0.148l21.354-54.118l95.342,0.108l2.658-6.74l-95.32-0.108l-2.762,4.667L264.754,5
			 M264.753-0.001c-2.002,0-3.877,1.21-4.647,3.162l-15.124,38.243c-0.375,0.951-0.44,1.953-0.239,2.888L223.709,97.6
			c-0.607,1.538-0.414,3.277,0.516,4.646c0.93,1.368,2.476,2.188,4.129,2.189l123.613,0.14c-0.352,2.42,1.109,4.767,3.482,5.494
			c0.486,0.148,0.98,0.221,1.467,0.221c2.004,0,3.879-1.21,4.648-3.162l14.709-37.2c0.869-2.198,0.076-4.666-1.824-5.964
			l18.988-48.119c0.607-1.539,0.414-3.278-0.516-4.646c-0.93-1.368-2.477-2.188-4.131-2.189L269.016,8.874l0.619-2.788
			c0.566-2.546-0.92-5.101-3.414-5.866C265.733,0.07,265.239-0.001,264.753-0.001L264.753-0.001z"/>
	</g>
	<g>
		<path fill="#030332" d="M384.618,131.085c-1.305,0-2.391-1.003-2.492-2.303c-0.104-1.301,0.813-2.461,2.1-2.666l12.23-1.946
			l21.09-65.736l10.482-29.25l-10.021-1.594c-1.287-0.205-2.201-1.365-2.1-2.666c0.102-1.301,1.188-2.303,2.492-2.303h62.34
			c1.305,0,2.391,1.003,2.492,2.303c0.102,1.3-0.813,2.461-2.1,2.666l-13.053,2.077l-13.164,30.557L424.7,124.735l8.67,1.382
			c1.287,0.205,2.201,1.366,2.1,2.666c-0.104,1.3-1.189,2.303-2.492,2.303L384.618,131.085L384.618,131.085z"/>
		<path fill="#F4F7F8" d="M480.739,25.121h0.004 M480.739,25.121l-14.41,2.292L452.62,59.234l-31.592,67.449l11.949,1.901h-48.359
			l13.75-2.188l21.559-67.2l11.473-32.008l-13-2.068L480.739,25.121 M480.743,20.121h-0.004h-62.34
			c-2.609,0-4.779,2.005-4.984,4.606c-0.207,2.601,1.623,4.922,4.199,5.332l7.043,1.12l-9.438,26.331
			c-0.02,0.053-0.037,0.106-0.055,0.16l-20.619,64.272l-10.713,1.705c-2.576,0.408-4.404,2.73-4.199,5.33
			c0.205,2.602,2.377,4.606,4.984,4.606h48.359c2.607,0,4.777-2.005,4.984-4.604c0.205-2.601-1.623-4.922-4.199-5.332l-5.391-0.858
			l28.775-61.434c0.02-0.047,0.043-0.094,0.063-0.142l12.619-29.294l11.613-1.847c2.428-0.343,4.297-2.429,4.297-4.951
			C485.741,22.36,483.506,20.121,480.743,20.121L480.743,20.121z"/>
	</g>
	<g>
		<path fill="#030332" d="M356.917,149.94c-0.242,0-0.488-0.035-0.732-0.11c-1.248-0.382-1.99-1.659-1.707-2.933l2.742-12.334
			l-158.197-0.179l-7.4,12.505c-0.464,0.783-1.295,1.227-2.153,1.227c-0.37,0-0.745-0.082-1.098-0.256
			c-1.171-0.572-1.705-1.95-1.225-3.163l22.924-57.972c0.386-0.976,1.323-1.581,2.324-1.581c0.243,0,0.49,0.036,0.734,0.11
			c1.247,0.382,1.99,1.66,1.707,2.933l-3.484,15.675l156.961,0.177l9.377-15.844c0.463-0.784,1.295-1.227,2.152-1.227
			c0.371,0,0.746,0.083,1.098,0.255c1.172,0.574,1.705,1.952,1.227,3.165l-22.924,57.972
			C358.854,149.336,357.917,149.94,356.917,149.94z"/>
		<path fill="#F4F7F8" d="M212.396,87.645l-4.16,18.713l161.501,0.183l10.105-17.072l-22.926,57.974l3.42-15.373L197.6,131.885
			l-8.127,13.732L212.396,87.645 M379.84,89.468h0.006 M212.395,82.644c-2.002,0-3.877,1.21-4.649,3.162l-22.924,57.972
			c-0.959,2.426,0.108,5.182,2.451,6.328c0.706,0.347,1.456,0.512,2.196,0.512c1.716,0,3.378-0.887,4.306-2.454l6.673-11.276
			l153.655,0.174l-2.066,9.295c-0.564,2.547,0.922,5.101,3.414,5.865c0.488,0.149,0.982,0.221,1.469,0.221
			c2.002,0,3.877-1.211,4.648-3.161l22.857-57.807c0.27-0.614,0.42-1.292,0.42-2.004c0-2.575-1.945-4.696-4.447-4.97
			c-0.184-0.021-0.369-0.031-0.553-0.031c-0.176,0-0.35,0.009-0.521,0.027c-0.768,0.079-1.48,0.332-2.105,0.717
			c-0.529,0.326-1.004,0.754-1.391,1.275c-0.123,0.165-0.234,0.337-0.336,0.516l-8.602,14.534l-152.422-0.171l2.809-12.636
			c0.566-2.546-0.92-5.1-3.415-5.865C213.375,82.715,212.88,82.644,212.395,82.644L212.395,82.644z"/>
	</g>
	<g>
		<path fill="#030332" d="M295.811,203.144H175.359c-1.333,0-2.432-1.045-2.497-2.377c-0.065-1.332,0.925-2.479,2.252-2.61
			l12.072-1.188l21.202-53.732l-8.195-0.807c-1.327-0.131-2.318-1.279-2.252-2.609c0.065-1.332,1.164-2.379,2.497-2.379h152.357
			c1.334,0,2.432,1.047,2.498,2.379c0.064,1.33-0.928,2.479-2.254,2.609l-11.307,1.112l-21.26,53.878l7.488,0.736
			c1.326,0.131,2.316,1.279,2.252,2.609c-0.064,1.332-1.164,2.379-2.496,2.379H316.84c-0.111,0.016-0.225,0.022-0.336,0.022
			C316.504,203.167,295.811,203.144,295.811,203.144z M293.751,172.603l1.573-3.987l-60.407-0.068l-1.574,3.988L293.751,172.603z"/>
		<path fill="#F4F7F8" d="M352.795,139.94h0.006 M352.795,139.94l-12.826,1.262l-23.035,58.381l10.783,1.061h-11.203l-0.01,0.023
			l-20.691-0.023H175.359l13.592-1.338l22.979-58.234l-11.492-1.131H352.795 M295.452,175.104l3.545-8.986l-65.779-0.074
			l-3.545,8.986L295.452,175.104 M352.801,134.94h-0.006H200.438c-2.666,0-4.863,2.092-4.994,4.754
			c-0.13,2.664,1.851,4.961,4.504,5.222l4.899,0.481l-19.426,49.23l-10.552,1.039c-2.653,0.261-4.635,2.559-4.504,5.221
			c0.131,2.663,2.328,4.756,4.994,4.756h120.453l20.686,0.022c0.002,0,0.006,0,0.008,0c0.162,0,0.322-0.008,0.482-0.022h10.73
			c2.666,0,4.861-2.093,4.994-4.756c0.131-2.662-1.854-4.96-4.506-5.221l-4.189-0.412l19.48-49.377l9.734-0.957
			c2.557-0.222,4.566-2.367,4.566-4.98C357.799,137.179,355.563,134.94,352.801,134.94L352.801,134.94z"/>
	</g>
	<g>
		<path fill="#030332" d="M96.346,205.423c-1.304,0-2.39-1.003-2.492-2.303c-0.103-1.301,0.812-2.461,2.1-2.666l14.788-2.354
			l24.687-62.563l-26.217-0.031c-19.272,18.945-42.358,28.953-66.824,28.953c-14.805,0-26.103-5.693-32.671-16.467
			c-10.126-16.607-7.797-43.654,6.077-70.587c18.327-35.575,49.47-56.814,83.307-56.814c17.546,0,37.015,9.211,40.813,24.756
			l31.088,0.035l12.089-30.638l-11.634-1.851c-1.288-0.205-2.203-1.365-2.1-2.666c0.103-1.3,1.188-2.303,2.492-2.303h14.922
			c0.241-0.077,0.496-0.118,0.758-0.118c0.006,0,15.482,0.118,15.482,0.118h31.177c1.304,0,2.39,1.003,2.492,2.303
			c0.103,1.3-0.812,2.461-2.1,2.666l-14.571,2.318l-72.375,183.422l11.443,1.819c1.288,0.204,2.202,1.364,2.1,2.666
			c-0.103,1.3-1.188,2.303-2.492,2.303L96.346,205.423L96.346,205.423z M66.872,46.071c-11.521,0-27.135,14.907-34.097,32.552
			c-4.309,10.92-4.65,21.141-0.89,26.672c1.843,2.713,4.552,4.09,8.05,4.095c11.537,0,27.151-14.907,34.113-32.551
			c4.309-10.92,4.65-21.141,0.89-26.674c-1.844-2.712-4.552-4.09-8.051-4.094l-0.015-2.5V46.071z M147.793,104.198l10.841-27.473
			l-20.575-0.023c-1.183,4.822-3.016,10.392-5.462,16.592c-1.618,4.099-3.124,7.586-4.707,10.881L147.793,104.198z M104.383,35.149
			c-0.532,0-1.675,0.968-2.056,2.896c-0.384,1.944,0.356,3.38,0.871,3.481c0.002,0,0.004,0,0.007,0c0.608,0,1.743-0.967,2.122-2.887
			c0.196-0.993,0.122-1.985-0.204-2.721c-0.186-0.419-0.447-0.718-0.667-0.762L104.383,35.149z M115.878,35.765
			c-0.156,0-0.368,0.022-0.492,0.13c-0.169,0.147-0.246,0.537-0.198,0.993c0.085,0.801,0.516,1.697,1.181,2.458
			c1.012,1.16,2.139,1.571,2.796,1.571c0.156,0,0.368-0.022,0.491-0.13c0.168-0.147,0.246-0.537,0.197-0.993
			c-0.085-0.8-0.516-1.696-1.18-2.458C117.663,36.177,116.536,35.765,115.878,35.765z M91.67,31.364
			c-0.688,0-1.429,0.18-2.142,0.521c-1.788,0.856-2.495,2.308-2.268,2.782c0.119,0.248,0.653,0.499,1.446,0.499
			c0.688,0,1.429-0.181,2.142-0.522c0.913-0.438,1.663-1.09,2.058-1.792c0.225-0.4,0.308-0.789,0.211-0.99
			C92.999,31.615,92.463,31.364,91.67,31.364z"/>
		<path fill="#F4F7F8" d="M187.529,10.308l15.463,0.118h31.196l-15.98,2.542l-74.042,187.646l14.519,2.309h-62.34l16.197-2.576
			l26.557-67.303l-30.917-0.037c-17.938,17.939-40.667,28.953-65.795,28.953c-39.706,0-45.485-42.424-24.372-83.409
			c17-33,46.25-55.459,81.084-55.459c16.053,0,36.427,8.814,38.756,24.754l34.846,0.039l13.857-35.119l-14.71-2.34h15.634
			L187.529,10.308 M88.707,37.667c1.022,0,2.139-0.249,3.222-0.768c2.864-1.371,4.405-4.109,3.443-6.116
			c-0.597-1.248-2.021-1.919-3.701-1.918c-1.022,0-2.139,0.249-3.222,0.767c-2.863,1.371-4.404,4.109-3.443,6.116
			C85.604,36.995,87.027,37.667,88.707,37.667 M103.272,44.034c1.999,0,3.945-2.063,4.507-4.911
			c0.615-3.115-0.656-5.988-2.839-6.419c-0.186-0.037-0.372-0.055-0.558-0.055c-1.998,0-3.945,2.063-4.508,4.911
			c-0.615,3.114,0.656,5.988,2.839,6.419C102.9,44.016,103.086,44.034,103.272,44.034 M119.167,43.418
			c0.812,0,1.556-0.241,2.135-0.747c1.676-1.463,1.343-4.588-0.744-6.978c-1.365-1.565-3.143-2.428-4.679-2.428
			c-0.812,0-1.556,0.241-2.136,0.747c-1.676,1.462-1.344,4.587,0.744,6.979C115.853,42.555,117.629,43.418,119.167,43.418
			 M39.952,111.89c12.678,0,28.981-15.275,36.422-34.133c7.444-18.865,3.198-34.171-9.483-34.186c-0.006,0-0.012,0-0.018,0
			c-12.679,0-28.982,15.277-36.423,34.135c-7.444,18.866-3.199,34.17,9.483,34.184C39.938,111.89,39.944,111.89,39.952,111.89
			 M149.495,106.7l12.813-32.471L136.073,74.2c-1.196,5.515-3.303,11.846-5.801,18.177c-2.015,5.105-3.983,9.598-6.424,14.294
			L149.495,106.7 M234.188,10.426h0.005 M187.529,5.308c-0.368,0-0.729,0.041-1.079,0.118H171.85c-2.608,0-4.779,2.005-4.984,4.606
			c-0.205,2.601,1.623,4.922,4.199,5.332l8.558,1.361l-10.321,26.156l-27.506-0.031c-5.142-15.588-24.87-24.758-42.695-24.758
			c-17.712,0-35.042,5.626-50.114,16.271C34.764,44.406,22.518,58.895,13.57,76.262c-14.271,27.702-16.565,55.687-5.989,73.033
			c4.914,8.06,14.941,17.665,34.806,17.665c24.826,0,48.239-10.001,67.839-28.95l21.528,0.025l-22.816,57.821l-13.379,2.129
			c-2.577,0.408-4.405,2.729-4.199,5.33c0.206,2.602,2.375,4.606,4.984,4.606h62.34c2.609,0,4.779-2.006,4.984-4.606
			c0.205-2.6-1.623-4.922-4.199-5.33l-8.367-1.332l70.708-179.196l13.083-2.081c2.427-0.343,4.296-2.429,4.296-4.951
			c0-2.761-2.236-5-4.998-5h-0.005h-31.196l-15.425-0.118C187.556,5.308,187.542,5.308,187.529,5.308L187.529,5.308z M39.932,111.89
			l0.005-5c-2.658-0.002-4.616-0.982-5.985-2.999c-3.251-4.784-2.801-14.342,1.148-24.35c7.309-18.525,22.329-30.97,31.772-30.97
			c2.67,0.003,4.628,0.984,5.998,3c3.252,4.785,2.801,14.343-1.147,24.351c-7.31,18.524-22.329,30.968-31.771,30.968L39.932,111.89
			L39.932,111.89z M131.801,101.68c1.029-2.306,2.052-4.756,3.122-7.468c2.173-5.506,3.873-10.535,5.074-15.008l14.965,0.017
			l-8.869,22.476L131.801,101.68L131.801,101.68z"/>
	</g>
	<g>
		<path fill="#030332" d="M386.051,188.739c-5.887-0.008-10.656-2.26-13.432-6.342c-3.338-4.912-3.521-12.117-0.504-19.769
			c5.492-13.92,18.834-24.022,31.721-24.022c6.078,0.006,10.951,2.278,13.752,6.399c3.34,4.911,3.512,11.839,0.484,19.507
			c-5.449,13.811-19.205,24.227-31.994,24.227C386.077,188.739,386.051,188.739,386.051,188.739z M398.442,148.726
			c-3.311,0-8.863,3.284-12.424,8.781c-2.52,3.887-2.74,6.862-2.164,8.23c0.27,0.646,0.736,1.005,1.506,1.16
			c0.256,0.053,0.533,0.078,0.83,0.078c3.309,0,8.861-3.283,12.424-8.779c2.518-3.887,2.738-6.862,2.162-8.231
			c-0.271-0.647-0.738-1.006-1.508-1.162C399.016,148.751,398.737,148.726,398.442,148.726z"/>
		<path fill="#F4F7F8" d="M403.836,141.106c0.01,0,0.018,0,0.025,0c12.139,0.014,16.883,9.826,11.887,22.487
			c-4.992,12.653-17.539,22.646-29.672,22.646c-0.008,0-0.016,0-0.023,0c-11.941-0.014-16.607-10.029-11.611-22.691
			C379.436,150.896,391.903,141.106,403.836,141.106 M386.19,169.478c4.58,0,10.781-4.149,14.521-9.922
			c4.111-6.35,3.689-12.262-0.947-13.203c-0.422-0.086-0.863-0.127-1.322-0.127c-4.578,0-10.783,4.15-14.521,9.922
			c-4.115,6.351-3.691,12.263,0.943,13.201C385.288,169.435,385.729,169.478,386.19,169.478 M403.836,136.106
			c-13.873,0-28.191,10.769-34.047,25.605c-3.324,8.432-3.049,16.482,0.764,22.09c3.254,4.788,8.756,7.43,15.494,7.438
			c14.018,0,28.451-10.854,34.354-25.811c3.338-8.46,3.072-16.212-0.744-21.828c-3.279-4.824-8.887-7.486-15.789-7.494
			C403.866,136.106,403.838,136.106,403.836,136.106L403.836,136.106z M386.102,164.476c-0.066-0.757,0.146-2.728,2.016-5.607
			c3.229-4.986,8.072-7.643,10.326-7.643c0.031,0,0.061,0,0.086,0.002c0.066,0.754-0.146,2.727-2.014,5.609
			c-3.23,4.984-8.072,7.641-10.326,7.641C386.157,164.478,386.129,164.476,386.102,164.476L386.102,164.476z"/>
	</g>
</g>
</svg>
