<?xml version="1.0" encoding="utf-8"?>
<!-- Generator: Adobe Illustrator 16.0.0, SVG Export Plug-In . SVG Version: 6.00 Build 0)  -->
<!DOCTYPE svg PUBLIC "-//W3C//DTD SVG 1.1//EN" "http://www.w3.org/Graphics/SVG/1.1/DTD/svg11.dtd">
<svg version="1.1" id="Layer_1" xmlns="http://www.w3.org/2000/svg" xmlns:xlink="http://www.w3.org/1999/xlink" x="0px" y="0px"
	 width="218.5px" height="104px" viewBox="0 0 218.5 104" enable-background="new 0 0 218.5 104" xml:space="preserve">
<g>
	
		<path fill="#1F1F26" stroke="#030332" stroke-width="2.6645" stroke-linecap="round" stroke-linejoin="round" stroke-miterlimit="10" d="
		M25.477,101.664L5.678,81.865l15.014-15.014c5.467-5.468,14.332-5.468,19.799,0l0,0c5.467,5.467,5.467,14.331,0,19.799
		L25.477,101.664z"/>
	<g>
		<path fill="#030332" d="M98.314,96.321c-10.156,0-18.423-8.268-18.423-18.426s8.267-18.424,18.423-18.424h91.895
			c10.158,0,18.423,8.266,18.423,18.424s-8.265,18.426-18.423,18.426H98.314z"/>
		<path fill="#030332" d="M190.207,61.153c9.229,0,16.742,7.512,16.742,16.742c0,9.231-7.513,16.742-16.742,16.742H98.313
			c-9.229,0-16.74-7.511-16.74-16.742c0-9.23,7.512-16.742,16.74-16.742H190.207 M190.207,57.791H98.313
			c-11.104,0-20.104,9.002-20.104,20.104C78.21,88.999,87.211,98,98.313,98h91.895c11.104,0,20.104-9.002,20.104-20.105
			C210.311,66.793,201.311,57.791,190.207,57.791L190.207,57.791z"/>
	</g>
	<g>
		<path fill="#030332" d="M194.503,96.352c-7.896,0-14.318-8.35-14.318-18.611V24.847c0-8.724,4.416-12.614,14.318-12.614
			c9.901,0,14.317,3.893,14.317,12.614V77.74C208.82,88.002,202.397,96.352,194.503,96.352z"/>
		<path fill="#030332" d="M194.503,13.725c8.991,0,12.827,3.326,12.827,11.122V77.74c0,9.439-5.754,17.122-12.827,17.122
			s-12.827-7.683-12.827-17.122V24.847C181.676,17.051,185.512,13.725,194.503,13.725 M194.503,10.742
			c-8.731,0-15.81,3.001-15.81,14.104v52.892c0,11.104,7.076,20.105,15.81,20.105c8.729,0,15.809-9.002,15.809-20.105V24.846
			C210.312,13.743,203.232,10.742,194.503,10.742L194.503,10.742z"/>
	</g>
	<g>
		<path fill="#030332" d="M153.07,96.352c-7.896,0-14.318-8.35-14.318-18.611V24.847c0-8.724,4.416-12.614,14.318-12.614
			c9.9,0,14.315,3.893,14.315,12.614V77.74C167.388,88.002,160.965,96.352,153.07,96.352z"/>
		<path fill="#030332" d="M153.07,13.725c8.988,0,12.824,3.326,12.824,11.122V77.74c0,9.439-5.754,17.122-12.824,17.122
			c-7.073,0-12.828-7.683-12.828-17.122V24.847C140.242,17.051,144.079,13.725,153.07,13.725 M153.07,10.742
			c-8.732,0-15.812,3.001-15.812,14.104v52.892c0,11.104,7.077,20.105,15.812,20.105c8.729,0,15.809-9.002,15.809-20.105V24.846
			C168.879,13.743,161.801,10.742,153.07,10.742L153.07,10.742z"/>
	</g>
	
		<path fill="#1F1F26" stroke="#030332" stroke-width="2.6645" stroke-linecap="round" stroke-linejoin="round" stroke-miterlimit="10" d="
		M129.715,44.244H62.336c-14.803,0-26.803,12-26.803,26.803c0,14.801,12,26.801,26.803,26.801h67.379
		c14.803,0,26.803-12,26.803-26.801C156.518,56.244,144.518,44.244,129.715,44.244z"/>
	<g>
		
			<path fill="#FFD000" stroke="#030332" stroke-width="2.9801" stroke-linecap="round" stroke-linejoin="round" stroke-miterlimit="10" d="
			M43.265,59.537c-0.35-0.352-0.7-0.701-1.053-1.055C42.865,59.099,43.265,59.537,43.265,59.537z"/>
		
			<path fill="#FFD000" stroke="#030332" stroke-width="2.9801" stroke-linecap="round" stroke-linejoin="round" stroke-miterlimit="10" d="
			M26.427,43.008l9.329,9.33c0.149,1.002-1.304,2.455-2.223,3.264c2.638-1.854,5.48,0.11,7.396,1.91
			c0.354,0.354,0.702,0.703,1.052,1.053c1.212,1.211,2.404,2.403,3.536,3.535c3.438,6.663-6.099,14.23-6.099,14.23L16.522,99.223
			c0,0-0.011,0.002-0.017,0.004c-3.34,3.27-8.693,3.25-12.006-0.063c-3.315-3.316-3.332-8.678-0.058-12.018c0-0.002,0-0.004,0-0.006
			l0.057-0.057l0,0l0,0l22.837-22.836c-0.832-0.832-1.688-1.688-2.593-2.593C13.521,50.432,26.427,43.008,26.427,43.008z"/>
	</g>
	
		<path fill="#FFD000" stroke="#030332" stroke-width="3.1074" stroke-linecap="round" stroke-linejoin="round" stroke-miterlimit="10" d="
		M67.117,54.082H56.935c-1.776,0-3.219,1.344-3.219,3v12.506c0,4.588,3.72,8.309,8.312,8.309c4.588,0,8.309-3.721,8.309-8.309
		V57.082C70.336,55.426,68.896,54.082,67.117,54.082z"/>
	<g>
		
			<path fill="#1C0A00" stroke="#030332" stroke-width="3" stroke-linecap="round" stroke-linejoin="round" stroke-miterlimit="10" d="
			M67.207,52.979c0,0,29.162-10.744,30.185,21.999C97.392,74.979,84.857,55.537,67.207,52.979z"/>
		
			<circle fill="#FFD000" stroke="#030332" stroke-width="3" stroke-linecap="round" stroke-linejoin="round" stroke-miterlimit="10" cx="22.135" cy="42.244" r="9.591"/>
		
			<circle fill="#FFD000" stroke="#030332" stroke-width="3" stroke-linecap="round" stroke-linejoin="round" stroke-miterlimit="10" cx="87.801" cy="42.244" r="9.591"/>
		<g>
			<path fill="#FFD000" d="M55.226,70.835c-17.971,0-32.591-14.62-32.591-32.591c0-17.973,14.62-32.59,32.591-32.59
				c17.972,0,32.591,14.617,32.591,32.59C87.816,56.215,73.195,70.835,55.226,70.835z"/>
			<path fill="#030332" d="M55.226,7.153c17.146,0,31.091,13.947,31.091,31.092S72.371,69.336,55.226,69.336
				c-17.144,0-31.091-13.946-31.091-31.091C24.135,21.102,38.082,7.153,55.226,7.153 M55.226,4.153
				c-18.828,0-34.091,15.264-34.091,34.092s15.263,34.091,34.091,34.091c18.827,0,34.091-15.263,34.091-34.091
				S74.053,4.153,55.226,4.153L55.226,4.153z"/>
		</g>
		
			<line fill="none" stroke="#030332" stroke-width="3" stroke-linecap="round" stroke-miterlimit="10" x1="56.732" y1="53.391" x2="51.718" y2="53.391"/>
		<g>
			<g>
				<path fill="#1C0A00" d="M86.486,36.828c-8.951,0-31.121-1.961-43.615-20.117c-0.281-0.408-0.745-0.649-1.236-0.649
					c-0.041,0-0.082,0.001-0.123,0.005c-0.535,0.044-1.006,0.371-1.232,0.857c-3.301,7.021-11.157,8.426-15.102,8.676
					C30.23,13.584,42.045,5.656,55.225,5.656c17.492,0,31.811,13.849,32.563,31.156c-0.369,0.012-0.805,0.018-1.297,0.018
					C86.488,36.828,86.487,36.828,86.486,36.828z"/>
				<path fill="#030332" d="M55.225,7.153c16.16,0,29.48,12.395,30.955,28.176c-7.162-0.044-29.822-1.666-42.074-19.469
					c-0.563-0.816-1.486-1.3-2.471-1.3c-0.081,0-0.163,0.003-0.245,0.013c-1.069,0.087-2.013,0.738-2.47,1.713
					c-2.365,5.031-7.432,6.862-11.237,7.516C32.986,13.684,43.543,7.153,55.225,7.153 M55.225,4.153
					c-14.938,0-27.631,9.607-32.236,22.98c0,0,0.248,0.014,0.687,0.014c2.842,0,13.739-0.601,17.962-9.587
					C54.742,36.604,78.369,38.329,86.49,38.329c1.794,0,2.83-0.084,2.83-0.084C89.316,19.416,74.053,4.153,55.225,4.153
					L55.225,4.153z"/>
			</g>
		</g>
		<g>
			
				<circle fill="#E2FFFF" stroke="#030332" stroke-width="3.2897" stroke-linecap="round" stroke-miterlimit="10" cx="37.744" cy="41.518" r="11.814"/>
			<circle fill="#E2FFFF" stroke="#030332" stroke-width="3.2897" stroke-miterlimit="10" cx="70.014" cy="41.518" r="11.814"/>
			
				<line fill="none" stroke="#030332" stroke-width="3.2897" stroke-miterlimit="10" x1="49.558" y1="41.518" x2="58.898" y2="41.518"/>
		</g>
	</g>
	
		<path fill="#1F1F26" stroke="#030332" stroke-width="2.6645" stroke-linecap="round" stroke-linejoin="round" stroke-miterlimit="10" d="
		M92.023,101.664l19.799-19.799L96.808,66.852c-5.467-5.468-14.332-5.468-19.799,0l0,0c-5.467,5.467-5.467,14.331,0,19.799
		L92.023,101.664z"/>
	<g>
		
			<path fill="#FFD000" stroke="#030332" stroke-width="2.9801" stroke-linecap="round" stroke-linejoin="round" stroke-miterlimit="10" d="
			M68.671,59.537c0.35-0.352,0.7-0.701,1.053-1.055C69.07,59.099,68.671,59.537,68.671,59.537z"/>
		
			<path fill="#FFD000" stroke="#030332" stroke-width="2.9801" stroke-linecap="round" stroke-linejoin="round" stroke-miterlimit="10" d="
			M85.509,43.008l-9.329,9.33c-0.147,1.002,1.306,2.455,2.225,3.264c-2.64-1.854-5.482,0.11-7.397,1.91
			c-0.352,0.354-0.702,0.703-1.052,1.053c-1.212,1.211-2.404,2.403-3.536,3.535c-3.436,6.663,6.099,14.23,6.099,14.23l22.896,22.893
			c0,0,0.011,0.002,0.017,0.004c3.34,3.27,8.693,3.25,12.006-0.063c3.315-3.316,3.332-8.678,0.059-12.018c0-0.002,0-0.004,0-0.006
			l-0.058-0.057l0,0l0,0L84.6,64.248c0.832-0.832,1.688-1.688,2.595-2.593C98.414,50.432,85.509,43.008,85.509,43.008z"/>
	</g>
	
		<path fill="#260C0C" stroke="#030332" stroke-width="3.363" stroke-linecap="round" stroke-linejoin="round" stroke-miterlimit="10" d="
		M181.822,2.336h34c0,0,2,19.333-17,19.333s-17,0-17,0V2.336z"/>
	
		<path fill="#260C0C" stroke="#030332" stroke-width="3.363" stroke-linecap="round" stroke-linejoin="round" stroke-miterlimit="10" d="
		M140.032,3.075h34c0,0,2,19.333-17,19.333s-17,0-17,0V3.075z"/>
</g>
</svg>
