<?xml version="1.0" encoding="utf-8"?>
<!-- Generator: Adobe Illustrator 16.0.0, SVG Export Plug-In . SVG Version: 6.00 Build 0)  -->
<!DOCTYPE svg PUBLIC "-//W3C//DTD SVG 1.1//EN" "http://www.w3.org/Graphics/SVG/1.1/DTD/svg11.dtd">
<svg version="1.1" id="Layer_1" xmlns="http://www.w3.org/2000/svg" xmlns:xlink="http://www.w3.org/1999/xlink" x="0px" y="0px"
	 width="1200px" height="900px" viewBox="0 0 1200 900" enable-background="new 0 0 1200 900" xml:space="preserve">
<path fill="#1F1F26" stroke="#030332" stroke-width="10.2407" stroke-linecap="round" stroke-linejoin="round" stroke-miterlimit="10" d="
	M975.898,608.737v-38.729c0-56.887-76.121-123.007-133.008-123.007C786,447,709.882,513.121,709.882,570.008v38.729H975.898z"/>
<path fill="#FFD000" stroke="#030332" stroke-width="11.9427" stroke-linecap="round" stroke-linejoin="round" stroke-miterlimit="10" d="
	M855.283,396.461h-39.124c-6.834,0-12.37,5.163-12.37,11.529v48.063c0,17.637,14.296,31.935,31.933,31.935
	s31.933-14.298,31.933-31.935V407.99C867.654,401.624,862.122,396.461,855.283,396.461z"/>
<g>
	
		<path fill="#1C0A00" stroke="#030332" stroke-width="11.5299" stroke-linecap="round" stroke-linejoin="round" stroke-miterlimit="10" d="
		M862.771,383.971c0,0,112.08-41.293,116.013,84.548C978.783,468.52,930.607,393.803,862.771,383.971z"/>
	
		<circle fill="#FFD000" stroke="#030332" stroke-width="11.5299" stroke-linecap="round" stroke-linejoin="round" stroke-miterlimit="10" cx="689.548" cy="342.714" r="36.861"/>
	
		<path fill="#FFD000" stroke="#030332" stroke-width="11.5299" stroke-linecap="round" stroke-linejoin="round" stroke-miterlimit="10" d="
		M905.063,342.714c0,20.357,16.498,36.86,36.855,36.86s36.864-16.503,36.864-36.86s-16.507-36.86-36.864-36.86
		S905.063,322.356,905.063,342.714z"/>
	<g>
		<path fill="#FFD000" d="M816.727,452.595c-69.068,0-125.261-56.188-125.261-125.254c0-69.067,56.192-125.256,125.261-125.256
			c69.065,0,125.254,56.189,125.254,125.256C941.98,396.406,885.792,452.595,816.727,452.595z"/>
		<path fill="#030332" d="M816.727,207.849c31.917,0,61.923,12.429,84.491,34.998c22.568,22.568,34.997,52.576,34.997,84.494
			c0,31.917-12.429,61.923-34.997,84.492c-22.568,22.568-52.574,34.998-84.491,34.998c-31.918,0-61.926-12.429-84.496-34.998
			c-22.569-22.568-34.999-52.575-34.999-84.491c0-31.917,12.43-61.925,34.999-84.494
			C754.801,220.278,784.809,207.849,816.727,207.849 M816.727,196.319c-72.362,0-131.025,58.659-131.025,131.021
			c0,72.36,58.663,131.019,131.025,131.019c72.359,0,131.019-58.659,131.019-131.019
			C947.745,254.978,889.086,196.319,816.727,196.319L816.727,196.319z"/>
	</g>
	
		<line fill="none" stroke="#030332" stroke-width="11.5299" stroke-linecap="round" stroke-miterlimit="10" x1="822.519" y1="385.553" x2="803.245" y2="385.553"/>
	<g>
		<g>
			<path fill="#1C0A00" d="M936.872,321.898c-14.992,0-44.959-1.582-77.207-12.173c-39.09-12.838-69.514-34.755-90.427-65.145
				c-1.081-1.571-2.861-2.497-4.748-2.497c-0.156,0-0.313,0.006-0.472,0.02c-2.058,0.168-3.869,1.425-4.747,3.294
				c-12.68,26.984-42.879,32.386-58.028,33.345c19.419-46.179,64.823-76.658,115.48-76.658c67.225,0,122.25,53.227,125.137,119.752
				c-1.416,0.036-3.086,0.062-4.983,0.062C936.875,321.898,936.874,321.898,936.872,321.898z"/>
			<path fill="#030332" d="M816.724,207.849c31.918,0,61.925,12.429,84.494,34.998c19.905,19.906,31.924,45.596,34.482,73.283
				c-15-0.083-43.568-1.81-74.236-11.881c-37.864-12.436-67.295-33.61-87.477-62.936c-2.162-3.142-5.723-4.994-9.496-4.994
				c-0.313,0-0.628,0.013-0.943,0.039c-4.116,0.337-7.737,2.85-9.494,6.588c-5.55,11.811-15.612,20.359-29.909,25.407
				c-4.6,1.624-9.135,2.706-13.249,3.425C731.292,232.924,771.849,207.849,816.724,207.849 M816.724,196.319
				c-57.415,0-106.194,36.926-123.902,88.323c0,0,0.948,0.055,2.636,0.055c10.922,0,52.804-2.311,69.032-36.848
				c50.368,73.191,141.177,79.814,172.383,79.814c6.893,0,10.873-0.323,10.873-0.323
				C947.745,254.978,889.086,196.319,816.724,196.319L816.724,196.319z"/>
		</g>
	</g>
	<g>
		<path fill="#E2FFFF" stroke="#030332" stroke-width="12.6434" stroke-linecap="round" stroke-miterlimit="10" d="M794.943,339.921
			c0,25.077-20.336,45.409-45.407,45.409c-25.079,0-45.407-20.332-45.407-45.409c0-25.075,20.328-45.405,45.407-45.405
			C774.607,294.517,794.943,314.846,794.943,339.921z"/>
		<path fill="#E2FFFF" stroke="#030332" stroke-width="12.6434" stroke-miterlimit="10" d="M918.965,339.921
			c0,25.077-20.327,45.409-45.407,45.409c-25.074,0-45.398-20.332-45.398-45.409c0-25.075,20.324-45.405,45.398-45.405
			C898.638,294.517,918.965,314.846,918.965,339.921z"/>
		
			<line fill="#E2FFFF" stroke="#030332" stroke-width="12.6434" stroke-miterlimit="10" x1="794.943" y1="339.921" x2="830.839" y2="339.921"/>
	</g>
</g>
</svg>
