<?xml version="1.0" encoding="utf-8"?>
<!-- Generator: Adobe Illustrator 16.0.0, SVG Export Plug-In . SVG Version: 6.00 Build 0)  -->
<!DOCTYPE svg PUBLIC "-//W3C//DTD SVG 1.1//EN" "http://www.w3.org/Graphics/SVG/1.1/DTD/svg11.dtd">
<svg version="1.1" id="Layer_1" xmlns="http://www.w3.org/2000/svg" xmlns:xlink="http://www.w3.org/1999/xlink" x="0px" y="0px"
	 width="400px" height="400px" viewBox="0 0 400 400" enable-background="new 0 0 400 400" xml:space="preserve">
<path fill="#1F1F26" stroke="#030332" stroke-width="10.2407" stroke-linecap="round" stroke-linejoin="round" stroke-miterlimit="10" d="
	M360.162,446.858v-38.729c0-56.887-76.121-123.007-133.01-123.007c-56.89-0.001-133.007,66.12-133.007,123.007v38.729H360.162
	L360.162,446.858z"/>
<path fill="#FFD000" stroke="#030332" stroke-width="11.9427" stroke-linecap="round" stroke-linejoin="round" stroke-miterlimit="10" d="
	M239.547,234.582h-39.124c-6.834,0-12.37,5.163-12.37,11.529v48.063c0,17.641,14.296,31.938,31.933,31.938
	c17.64,0,31.937-14.297,31.937-31.938v-48.063C251.918,239.745,246.387,234.582,239.547,234.582z"/>
<path fill="#FFD000" stroke="#030332" stroke-width="10" stroke-linecap="round" stroke-linejoin="round" stroke-miterlimit="10" d="
	M188.053,346.75c0-17.121,19.375-31,43.272-31s43.271,13.879,43.271,31v137.5h-55V376.588
	C201.4,372.925,188.053,360.958,188.053,346.75z"/>
<g>
	
		<path fill="#1C0A00" stroke="#030332" stroke-width="11.5299" stroke-linecap="round" stroke-linejoin="round" stroke-miterlimit="10" d="
		M247.035,222.092c0,0,112.078-41.292,116.014,84.549C363.047,306.641,314.871,231.924,247.035,222.092z"/>
	
		<circle fill="#FFD000" stroke="#030332" stroke-width="11.5299" stroke-linecap="round" stroke-linejoin="round" stroke-miterlimit="10" cx="73.812" cy="180.835" r="36.861"/>
	
		<path fill="#FFD000" stroke="#030332" stroke-width="11.5299" stroke-linecap="round" stroke-linejoin="round" stroke-miterlimit="10" d="
		M289.326,180.835c0,20.356,16.498,36.86,36.854,36.86s36.862-16.504,36.862-36.86c0-20.356-16.506-36.86-36.862-36.86
		S289.326,160.477,289.326,180.835z"/>
	<g>
		<path fill="#FFD000" d="M200.99,290.716c-69.066,0-125.261-56.188-125.261-125.253c0-69.068,56.191-125.257,125.261-125.257
			c69.064,0,125.254,56.188,125.254,125.256C326.244,234.527,270.057,290.716,200.99,290.716z"/>
		<path fill="#030332" d="M200.99,45.971c31.918,0,61.926,12.428,84.492,34.998c22.564,22.567,34.995,52.575,34.995,84.493
			c0,31.917-12.431,61.923-34.995,84.492c-22.566,22.567-52.574,34.998-84.492,34.998c-31.918,0-61.926-12.429-84.494-34.998
			c-22.569-22.567-34.999-52.575-34.999-84.491s12.43-61.925,34.999-84.494C139.064,58.399,169.072,45.971,200.99,45.971
			 M200.99,34.439c-72.36,0-131.023,58.66-131.023,131.021c0,72.36,58.663,131.021,131.023,131.021
			c72.359,0,131.021-58.657,131.021-131.021C332.01,93.1,273.35,34.439,200.99,34.439L200.99,34.439z"/>
	</g>
	<g>
		<g>
			<path fill="#1C0A00" d="M321.137,160.02c-14.992,0-44.959-1.582-77.207-12.174c-39.09-12.838-69.515-34.754-90.428-65.145
				c-1.081-1.57-2.861-2.497-4.748-2.497c-0.156,0-0.313,0.006-0.474,0.021c-2.059,0.168-3.867,1.424-4.745,3.293
				c-12.682,26.984-42.881,32.387-58.028,33.346c19.419-46.18,64.823-76.658,115.479-76.658c67.227,0,122.25,53.227,125.139,119.752
				c-1.416,0.036-3.086,0.063-4.982,0.063C321.139,160.02,321.139,160.02,321.137,160.02z"/>
			<path fill="#030332" d="M200.988,45.971c31.918,0,61.926,12.428,84.494,34.998c19.902,19.905,31.924,45.596,34.479,73.282
				c-15-0.083-43.564-1.81-74.234-11.881c-37.863-12.437-67.295-33.61-87.479-62.937c-2.162-3.142-5.725-4.994-9.496-4.994
				c-0.313,0-0.628,0.014-0.942,0.039c-4.116,0.338-7.737,2.851-9.494,6.589c-5.551,11.811-15.61,20.358-29.909,25.407
				c-4.601,1.623-9.135,2.705-13.247,3.424C115.556,71.045,156.112,45.971,200.988,45.971 M200.988,34.439
				c-57.417,0-106.193,36.927-123.901,88.324c0,0,0.946,0.055,2.636,0.055c10.922,0,52.805-2.311,69.032-36.848
				c50.368,73.19,141.177,79.813,172.384,79.813c6.895,0,10.873-0.323,10.873-0.323C332.01,93.1,273.35,34.439,200.988,34.439
				L200.988,34.439z"/>
		</g>
	</g>
</g>
<path fill="#E9C4CD" stroke="#030331" stroke-width="10" stroke-miterlimit="10" d="M204.549,446.858c0,3.313-2.688,6-6.001,6
	H54.764c-3.313,0-6-2.688-6-6V273.124c0-3.313,2.688-6,6-6h143.784c3.313,0,6.001,2.688,6.001,6V446.858L204.549,446.858z"/>
<path fill="#332933" stroke="#030331" stroke-width="10" stroke-miterlimit="10" d="M102.086,314.346c0,3.313-2.688,6-6,6h-28
	c-3.313,0-6-2.687-6-6v-28c0-3.313,2.688-6,6-6h28c3.313,0,6,2.688,6,6V314.346z"/>
<circle fill="#030331" cx="75.035" cy="293.296" r="7.05"/>
<circle fill="#030331" cx="88.898" cy="307.158" r="7.05"/>
<path fill="#FFD000" stroke="#030332" stroke-width="10" stroke-linecap="round" stroke-linejoin="round" stroke-miterlimit="10" d="
	M105.357,367.111c0-17.121-19.374-31-43.272-31c-23.896,0-43.271,13.879-43.271,31v137.5h55V396.949
	C92.011,393.286,105.357,381.318,105.357,367.111z"/>
<g>
	<g>
		
			<line fill="none" stroke="#030332" stroke-width="5" stroke-linecap="round" stroke-linejoin="round" stroke-miterlimit="10" x1="135.153" y1="176.313" x2="146.528" y2="187.688"/>
		
			<line fill="none" stroke="#030332" stroke-width="5" stroke-linecap="round" stroke-linejoin="round" stroke-miterlimit="10" x1="146.528" y1="176.313" x2="135.153" y2="187.688"/>
		
			<line fill="none" stroke="#030332" stroke-width="5" stroke-linecap="round" stroke-linejoin="round" stroke-miterlimit="10" x1="132.797" y1="182" x2="148.883" y2="182"/>
	</g>
	<g>
		
			<line fill="none" stroke="#030332" stroke-width="5" stroke-linecap="round" stroke-linejoin="round" stroke-miterlimit="10" x1="239.594" y1="176.313" x2="250.969" y2="187.688"/>
		
			<line fill="none" stroke="#030332" stroke-width="5" stroke-linecap="round" stroke-linejoin="round" stroke-miterlimit="10" x1="250.969" y1="176.313" x2="239.594" y2="187.688"/>
		
			<line fill="none" stroke="#030332" stroke-width="5" stroke-linecap="round" stroke-linejoin="round" stroke-miterlimit="10" x1="237.238" y1="182" x2="253.324" y2="182"/>
	</g>
	
		<line fill="none" stroke="#030332" stroke-width="5" stroke-linecap="round" stroke-linejoin="round" stroke-miterlimit="10" x1="132.797" y1="170.5" x2="140.84" y2="167.5"/>
	
		<line fill="none" stroke="#030332" stroke-width="5" stroke-linecap="round" stroke-linejoin="round" stroke-miterlimit="10" x1="254.304" y1="170.5" x2="246.26" y2="167.5"/>
</g>
</svg>
