<?xml version="1.0" encoding="utf-8"?>
<!-- Generator: Adobe Illustrator 16.0.0, SVG Export Plug-In . SVG Version: 6.00 Build 0)  -->
<!DOCTYPE svg PUBLIC "-//W3C//DTD SVG 1.1//EN" "http://www.w3.org/Graphics/SVG/1.1/DTD/svg11.dtd">
<svg version="1.1" id="Layer_1" xmlns="http://www.w3.org/2000/svg" xmlns:xlink="http://www.w3.org/1999/xlink" x="0px" y="0px"
	 width="1200px" height="900px" viewBox="0 0 1200 900" enable-background="new 0 0 1200 900" xml:space="preserve">
<g>
	<path fill="#FFFFFF" d="M610.426,391.806H478.473H363.038h-49.213c-3.505-1.325-6.898-2.891-10.121-4.733
		c-20.826-9-35.422-29.884-35.422-54.222c0-1.135,0.112-2.245,0.172-3.362c-0.052-1.112-0.172-2.205-0.172-3.33
		c0-24.549,12.629-46.122,31.72-58.661c0.514-67.071,55.02-121.292,122.219-121.292c43.537,0,81.734,22.783,103.385,57.058
		c6.125-1.034,12.415-1.6,18.841-1.6c60.316,0,109.219,47.379,109.219,105.824C653.666,341.909,636.699,372.479,610.426,391.806z"/>
</g>
</svg>
