<?xml version="1.0" encoding="utf-8"?>
<!-- Generator: Adobe Illustrator 16.0.0, SVG Export Plug-In . SVG Version: 6.00 Build 0)  -->
<!DOCTYPE svg PUBLIC "-//W3C//DTD SVG 1.1//EN" "http://www.w3.org/Graphics/SVG/1.1/DTD/svg11.dtd">
<svg version="1.1" id="Layer_1" xmlns="http://www.w3.org/2000/svg" xmlns:xlink="http://www.w3.org/1999/xlink" x="0px" y="0px"
	 width="150px" height="150px" viewBox="0 0 150 150" enable-background="new 0 0 150 150" xml:space="preserve">
<g>
	<g>
		<g>
			<g>
				<path fill="#F4F7F9" d="M21.946,143.4c-6.359,0-11.534-5.176-11.534-11.533V17.3c0-6.359,5.174-11.534,11.534-11.534h70.658
					l46.983,46.985v79.115c0,6.358-5.174,11.532-11.532,11.532H21.946V143.4z"/>
				<path fill="#E76724" d="M90.215,11.533l43.605,43.608v76.726c0,3.179-2.586,5.767-5.766,5.767H21.946
					c-3.18,0-5.767-2.588-5.767-5.767V17.3c0-3.18,2.587-5.767,5.767-5.767H90.215 M94.992,0H21.946c-9.553,0-17.3,7.746-17.3,17.3
					v114.567c0,9.554,7.747,17.3,17.3,17.3h106.109c9.555,0,17.299-7.746,17.299-17.3V50.363L94.992,0L94.992,0z"/>
			</g>
		</g>
		<path fill="#E76724" d="M89.369,5.767v4.218v40.177c0,3.295,2.672,5.967,5.969,5.967h40.174h4.221"/>
	</g>
	<text transform="matrix(1 0 0 1 21.5781 38.4434)" fill="#030332" font-family="'Dovemayo_gothic'" font-size="27.6803">HTML</text>
	<g enable-background="new    ">
		<path fill="#030332" d="M48.889,76.903h0.369c1.107,0,1.722,0.738,1.845,2.215c0,0.83-2.461,2.676-7.381,5.536l-6.089,4.429v0.185
			c7.566,4.736,11.872,7.505,12.917,8.304l0.369,1.292c-0.246,1.354-0.922,2.03-2.03,2.03c-2.491-1.261-6.859-3.968-13.102-8.12
			c-2.461-1.537-3.69-2.768-3.69-3.69c0-1.292,1.538-2.706,4.613-4.244C44.091,79.549,48.151,76.903,48.889,76.903z"/>
		<path fill="#030332" d="M79.152,69.338c1.107,0,1.722,0.738,1.845,2.214c0,1.2-3.198,13.318-9.596,36.354
			c-0.646,0.861-1.323,1.292-2.03,1.292c-1.23-0.339-1.845-1.015-1.845-2.029c0-0.462,1.476-5.874,4.429-16.239
			c2.706-10.18,4.49-17.069,5.352-20.668C77.953,69.646,78.567,69.338,79.152,69.338z"/>
		<path fill="#030332" d="M99.404,76.857h0.369c0.646,0,6.119,3.568,16.424,10.703c0.245,0.462,0.368,0.954,0.368,1.477
			c0,0.923-1.354,2.214-4.06,3.875c-7.936,5.29-12.241,7.936-12.918,7.936c-1.23-0.339-1.845-1.016-1.845-2.03
			c0-1.199,1.968-2.798,5.905-4.798c1.107-0.86,3.566-2.46,7.381-4.798v-0.185c-2.983-2.245-7.228-5.136-12.732-8.673
			c-0.492-0.646-0.738-1.2-0.738-1.661C97.836,77.474,98.45,76.857,99.404,76.857z"/>
	</g>
</g>
</svg>
