<?xml version="1.0" encoding="utf-8"?>
<!-- Generator: Adobe Illustrator 16.0.0, SVG Export Plug-In . SVG Version: 6.00 Build 0)  -->
<!DOCTYPE svg PUBLIC "-//W3C//DTD SVG 1.1//EN" "http://www.w3.org/Graphics/SVG/1.1/DTD/svg11.dtd">
<svg version="1.1" id="Layer_1" xmlns="http://www.w3.org/2000/svg" xmlns:xlink="http://www.w3.org/1999/xlink" x="0px" y="0px"
	 width="150px" height="150px" viewBox="0 0 150 150" enable-background="new 0 0 150 150" xml:space="preserve">
<g>
	<g>
		<g>
			<g>
				<path fill="#F4F7F9" d="M21.531,144.521c-6.409,0-11.624-5.215-11.624-11.623V17.436c0-6.409,5.215-11.624,11.624-11.624H92.74
					l47.352,47.353v79.733c0,6.408-5.215,11.623-11.623,11.623H21.531L21.531,144.521z"/>
				<path fill="#4056AC" d="M90.332,11.624l43.949,43.949v77.325c0,3.205-2.609,5.813-5.813,5.813H21.531
					c-3.205,0-5.812-2.607-5.812-5.813V17.436c0-3.205,2.607-5.812,5.812-5.812H90.332 M95.146,0H21.531
					C11.901,0,4.095,7.806,4.095,17.436v115.462c0,9.629,7.806,17.437,17.436,17.437h106.938c9.629,0,17.436-7.808,17.436-17.437
					V50.757L95.146,0L95.146,0z"/>
			</g>
		</g>
		<path fill="#4056AC" d="M89.482,5.812v4.251v40.491c0,3.321,2.69,6.014,6.012,6.014h40.492h4.252"/>
	</g>
	<text transform="matrix(1 0 0 1 22.3667 38.7451)" fill="#030332" font-family="'Dovemayo_gothic'" font-size="27.8969">CSS</text>
	<g enable-background="new    ">
		<path fill="#030332" d="M49.149,69.557h0.744c1.364,0.217,2.046,0.899,2.046,2.046c0,1.487-1.054,2.231-3.162,2.231
			c-0.868,0.744-1.302,1.984-1.302,3.72l0.558,5.579c0,3.41-0.682,5.704-2.046,6.882V90.2c1.116,1.767,1.674,3.564,1.674,5.394
			c-0.124,1.674-0.186,3.1-0.186,4.277v3.72c0,1.611,1.116,2.418,3.348,2.418c0.744,0.558,1.116,1.177,1.116,1.859v0.186
			c0,0.992-0.682,1.611-2.046,1.86h-1.116c-2.976,0-4.774-2.108-5.394-6.323c0.124-4.277,0.186-7.005,0.186-8.184
			c0-1.921-0.807-3.161-2.418-3.72c-0.744,0-1.24-0.619-1.488-1.859v-0.372c0-0.991,1.239-1.859,3.72-2.604
			c0.372-0.589,0.558-1.704,0.558-3.348v-0.186c0-0.713-0.186-2.697-0.558-5.952c0-3.595,1.425-6.074,4.277-7.438
			C48.126,69.681,48.622,69.557,49.149,69.557z"/>
		<path fill="#030332" d="M100.941,69.649h0.744c2.541,0,4.401,1.922,5.58,5.766l0.186,2.231c-0.372,2.976-0.559,4.898-0.559,5.766
			v0.186c0,2.729,0.744,4.092,2.232,4.092c1.363,0.248,2.046,0.868,2.046,1.859v0.372c0,1.023-1.054,1.953-3.161,2.79
			c-0.497,1.054-0.744,2.046-0.744,2.976c0,1.147,0.061,3.875,0.186,8.183c-0.682,4.092-2.48,6.138-5.394,6.138h-1.116
			c-1.363-0.248-2.045-0.868-2.045-1.859v-0.187c0-1.487,1.178-2.231,3.533-2.231c0.619-0.589,0.93-1.271,0.93-2.046v-3.72
			c0-1.178-0.063-2.604-0.186-4.277c0-1.828,0.558-3.627,1.674-5.394v-0.186c-1.365-1.116-2.046-3.472-2.046-7.067
			c0.372-3.285,0.558-5.207,0.558-5.766c0-2.479-1.115-3.72-3.348-3.72c-0.744-0.558-1.115-1.178-1.115-1.859
			C99.113,70.332,99.795,69.649,100.941,69.649z"/>
	</g>
</g>
</svg>
