<?xml version="1.0" encoding="utf-8"?>
<!-- Generator: Adobe Illustrator 16.0.0, SVG Export Plug-In . SVG Version: 6.00 Build 0)  -->
<!DOCTYPE svg PUBLIC "-//W3C//DTD SVG 1.1//EN" "http://www.w3.org/Graphics/SVG/1.1/DTD/svg11.dtd">
<svg version="1.1" id="Layer_1" xmlns="http://www.w3.org/2000/svg" xmlns:xlink="http://www.w3.org/1999/xlink" x="0px" y="0px"
	 width="150px" height="150px" viewBox="0 0 150 150" enable-background="new 0 0 150 150" xml:space="preserve">
<g>
	<g>
		<g>
			<g>
				<path fill="#F4F7F9" d="M21.532,144.521c-6.41,0-11.624-5.215-11.624-11.623V17.436c0-6.409,5.214-11.624,11.624-11.624H92.74
					l47.354,47.353v79.733c0,6.408-5.215,11.623-11.623,11.623H21.532z"/>
				<path fill="#FFCC00" d="M90.334,11.624l43.949,43.948v77.326c0,3.205-2.607,5.813-5.813,5.813H21.533
					c-3.206,0-5.812-2.607-5.812-5.813V17.436c0-3.205,2.606-5.812,5.812-5.812H90.334 M95.146,0H21.531
					C11.901,0,4.095,7.806,4.095,17.436v115.462c0,9.629,7.806,17.437,17.436,17.437h106.938c9.627,0,17.436-7.808,17.436-17.437
					V50.757L95.146,0L95.146,0z"/>
			</g>
		</g>
		<path fill="#FFCC00" d="M89.482,5.812v4.251v40.491c0,3.321,2.689,6.014,6.012,6.014h40.492h4.252"/>
	</g>
	<g enable-background="new    ">
		<path fill="#030332" d="M30.784,20.333h0.223c0.669,0,1.041,0.446,1.116,1.339v7.142c0,5.06-0.335,7.588-1.004,7.588
			c-0.986,1.563-2.325,2.344-4.017,2.344h-0.669c-1.246,0-2.437-0.743-3.571-2.231c-0.223-0.633-0.335-1.042-0.335-1.228
			c0.205-0.744,0.614-1.116,1.228-1.116c0.576,0,1.134,0.558,1.674,1.674c0.539,0.316,1.06,0.502,1.563,0.558
			c1.636-0.371,2.455-1.189,2.455-2.454c0.13-1.19,0.242-3.46,0.335-6.808c-0.075-0.706-0.112-1.674-0.112-2.901l0.112-0.669
			c-0.075-0.391-0.112-0.763-0.112-1.116v-0.893C29.817,20.742,30.188,20.333,30.784,20.333z"/>
		<path fill="#030332" d="M41.859,20.11c2.399,0,4.073,0.707,5.021,2.12l0.112,0.558c0,0.613-0.446,0.986-1.339,1.116
			c-1.283-0.818-2.102-1.228-2.455-1.228c-0.279-0.074-0.614-0.112-1.004-0.112h-0.446c-1.935,0.205-2.901,1.023-2.901,2.455v0.446
			c0,1.358,1.785,2.474,5.356,3.348c2.083,1.246,3.125,2.734,3.125,4.464v1.004c0,1.897-1.079,3.273-3.236,4.129
			c-0.651,0.149-1.469,0.261-2.455,0.335c-2.715,0-4.649-1.041-5.802-3.124v-0.224c0-0.707,0.483-1.078,1.45-1.116
			c0.335,0.131,1.042,0.688,2.121,1.674c0.985,0.224,1.804,0.335,2.455,0.335c2.083,0,3.125-0.893,3.125-2.678
			c0-1.655-1.637-2.846-4.91-3.571C37.619,29,36.391,27.4,36.391,25.243v-0.111c0-2.418,1.376-4.055,4.129-4.91L41.859,20.11z"/>
	</g>
	<g enable-background="new    ">
		<path fill="#030332" d="M48.081,70.161h1.302c1.735,0.186,2.604,0.868,2.604,2.046v0.372c-0.155,1.115-0.713,1.673-1.674,1.673
			c-0.589,0-1.208-0.062-1.86-0.186c-1.859,0-2.79,1.364-2.79,4.092v2.23h3.348c1.611,0,2.418,0.684,2.418,2.047v0.186
			c0,1.115-0.744,1.736-2.232,1.859h-3.72v16.553c0,1.611-0.682,2.418-2.045,2.418c-1.147,0-1.83-0.867-2.046-2.604V84.48h-2.418
			c-0.992,0-1.736-0.434-2.231-1.301v-0.931c0-1.085,0.806-1.705,2.417-1.86h1.116l1.302,0.188v-1.674
			C41.572,73.075,43.741,70.161,48.081,70.161z"/>
		<path fill="#030332" d="M64.865,69.557h0.744c1.364,0.217,2.046,0.899,2.046,2.046c0,1.487-1.054,2.231-3.162,2.231
			c-0.868,0.744-1.302,1.984-1.302,3.721l0.558,5.578c0,3.41-0.682,5.704-2.046,6.883V90.2c1.116,1.767,1.674,3.563,1.674,5.394
			c-0.124,1.674-0.186,3.1-0.186,4.277v3.72c0,1.611,1.116,2.418,3.348,2.418c0.744,0.558,1.116,1.177,1.116,1.859v0.187
			c0,0.991-0.682,1.61-2.046,1.859h-1.116c-2.976,0-4.774-2.107-5.394-6.323c0.124-4.276,0.186-7.005,0.186-8.184
			c0-1.921-0.807-3.161-2.418-3.72c-0.744,0-1.24-0.619-1.488-1.859v-0.372c0-0.991,1.239-1.858,3.72-2.604
			c0.372-0.588,0.558-1.703,0.558-3.348v-0.186c0-0.713-0.186-2.697-0.558-5.952c0-3.595,1.425-6.074,4.277-7.438
			C63.842,69.681,64.337,69.557,64.865,69.557z"/>
		<path fill="#030332" d="M102.711,69.649h0.743c2.542,0,4.401,1.922,5.579,5.766l0.188,2.231c-0.373,2.976-0.559,4.897-0.559,5.766
			v0.186c0,2.729,0.744,4.092,2.23,4.092c1.364,0.248,2.047,0.869,2.047,1.859v0.372c0,1.022-1.056,1.953-3.162,2.79
			c-0.496,1.055-0.744,2.046-0.744,2.977c0,1.146,0.063,3.875,0.188,8.183c-0.684,4.092-2.48,6.138-5.395,6.138h-1.115
			c-1.365-0.248-2.047-0.867-2.047-1.859v-0.187c0-1.487,1.178-2.231,3.533-2.231c0.621-0.588,0.931-1.271,0.931-2.045v-3.721
			c0-1.178-0.063-2.604-0.187-4.277c0-1.828,0.559-3.627,1.674-5.394v-0.187c-1.363-1.115-2.045-3.472-2.045-7.066
			c0.371-3.285,0.558-5.207,0.558-5.766c0-2.479-1.116-3.72-3.349-3.72c-0.742-0.558-1.115-1.178-1.115-1.859
			C100.881,70.332,101.563,69.649,102.711,69.649z"/>
	</g>
</g>
</svg>
