<?xml version="1.0" encoding="utf-8"?>
<!-- Generator: Adobe Illustrator 16.0.0, SVG Export Plug-In . SVG Version: 6.00 Build 0)  -->
<!DOCTYPE svg PUBLIC "-//W3C//DTD SVG 1.1//EN" "http://www.w3.org/Graphics/SVG/1.1/DTD/svg11.dtd">
<svg version="1.1" id="Layer_1" xmlns="http://www.w3.org/2000/svg" xmlns:xlink="http://www.w3.org/1999/xlink" x="0px" y="0px"
	 width="150px" height="150px" viewBox="0 0 150 150" enable-background="new 0 0 150 150" xml:space="preserve">
<g>
	<g>
		<g>
			<g>
				<path fill="#F4F7F9" d="M21.646,144.207c-6.395,0-11.599-5.203-11.599-11.599V17.397c0-6.395,5.204-11.598,11.599-11.598h71.055
					l47.247,47.25v79.56c0,6.396-5.202,11.599-11.598,11.599H21.646z"/>
				<path fill="#2164C3" d="M90.299,11.598L134.15,55.45v77.158c0,3.198-2.601,5.8-5.799,5.8H21.646c-3.198,0-5.799-2.602-5.799-5.8
					V17.397c0-3.197,2.602-5.799,5.799-5.799H90.299 M95.104,0H21.647C12.041,0,4.25,7.789,4.25,17.397v115.211
					c0,9.608,7.791,17.397,17.397,17.397h106.705c9.609,0,17.397-7.789,17.397-17.397V50.646L95.104,0L95.104,0z"/>
			</g>
		</g>
		<path fill="#2164C3" d="M89.449,5.799v4.242v40.403c0,3.314,2.687,6.001,6.002,6.001h40.401h4.242"/>
	</g>
	<text transform="matrix(1 0 0 1 22.4028 38.6606)" fill="#030332" font-family="'Dovemayo_gothic'" font-size="27.8361">JQ</text>
	<g>
		<path fill="#030332" d="M65.976,99.917l-5.741-5.741c-9.398-9.397-9.494-24.552-0.323-34.09c-0.116,0.113-0.241,0.209-0.357,0.323
			l-5.742,5.741c-9.512,9.512-9.512,24.934,0,34.446l5.742,5.739c9.512,9.512,24.934,9.512,34.446,0l5.739-5.739
			c0.116-0.116,0.212-0.241,0.323-0.358C90.527,109.41,75.372,109.313,65.976,99.917z"/>
		<path fill="#030332" d="M78.776,85.51l-4.133-4.136c-6.765-6.764-6.834-17.676-0.233-24.542c-0.083,0.079-0.173,0.148-0.256,0.232
			l-4.134,4.132c-6.848,6.848-6.848,17.953,0,24.803l4.134,4.132c6.849,6.85,17.952,6.85,24.799,0l4.135-4.132
			c0.08-0.084,0.15-0.175,0.23-0.259C96.453,92.343,85.54,92.273,78.776,85.51z"/>
		<path fill="#030332" d="M89.02,73.429l-2.297-2.296c-3.758-3.758-3.797-9.82-0.129-13.635c-0.047,0.045-0.098,0.083-0.143,0.128
			l-2.296,2.296c-3.804,3.805-3.804,9.974,0,13.779l2.296,2.295c3.805,3.804,9.974,3.804,13.777,0l2.297-2.295
			c0.046-0.045,0.084-0.096,0.129-0.143C98.839,77.226,92.777,77.187,89.02,73.429z"/>
	</g>
</g>
</svg>
