<?xml version="1.0" encoding="utf-8"?>
<!-- Generator: Adobe Illustrator 16.0.0, SVG Export Plug-In . SVG Version: 6.00 Build 0)  -->
<!DOCTYPE svg PUBLIC "-//W3C//DTD SVG 1.1//EN" "http://www.w3.org/Graphics/SVG/1.1/DTD/svg11.dtd">
<svg version="1.1" id="Layer_1" xmlns="http://www.w3.org/2000/svg" xmlns:xlink="http://www.w3.org/1999/xlink" x="0px" y="0px"
	 width="150px" height="150px" viewBox="0 0 150 150" enable-background="new 0 0 150 150" xml:space="preserve">
<g>
	<g>
		<g>
			<g>
				<path fill="#F4F7F9" d="M21.946,143.4c-6.359,0-11.534-5.176-11.534-11.533V17.3c0-6.359,5.174-11.534,11.534-11.534h70.658
					l46.983,46.985v79.115c0,6.358-5.174,11.532-11.532,11.532H21.946V143.4z"/>
				<path fill="#E76724" d="M90.215,11.533l43.605,43.608v76.726c0,3.179-2.586,5.767-5.766,5.767H21.946
					c-3.18,0-5.767-2.588-5.767-5.767V17.3c0-3.18,2.587-5.767,5.767-5.767H90.215 M94.992,0H21.946c-9.553,0-17.3,7.746-17.3,17.3
					v114.567c0,9.554,7.747,17.3,17.3,17.3h106.109c9.555,0,17.299-7.746,17.299-17.3V50.363L94.992,0L94.992,0z"/>
			</g>
		</g>
		<path fill="#E76724" d="M89.369,5.767v4.218v40.177c0,3.295,2.672,5.967,5.969,5.967h40.174h4.221"/>
	</g>
	<g enable-background="new    ">
		<path fill="#030332" d="M25.315,19.842c0.665,0.222,0.997,0.702,0.997,1.439v0.886c0,1.126,0.037,2.861,0.111,5.204h0.11
			c1.015,0,2.343-0.036,3.986-0.11l3.654,0.222v-6.201c0-0.72,0.443-1.125,1.329-1.218c0.59,0,0.959,0.517,1.107,1.55v15.059
			c0,1.181-0.369,1.771-1.107,1.771h-0.333c-0.553,0-0.886-0.369-0.996-1.107v-7.529c-0.37,0-1.735-0.036-4.097-0.11
			c-1.975,0.074-3.193,0.11-3.654,0.11v7.197c0,0.72-0.443,1.126-1.329,1.218c-0.591,0-0.96-0.517-1.107-1.55v-7.418
			c0-1.993-0.037-4.798-0.111-8.415C23.875,20.248,24.355,19.916,25.315,19.842z"/>
		<path fill="#030332" d="M39.709,20.175h9.301c0.424,0,1.015,0.037,1.771,0.11c0.129-0.073,0.277-0.11,0.443-0.11
			c0.812,0.166,1.218,0.535,1.218,1.106v0.222c0,0.664-0.443,1.034-1.329,1.107h-4.429c0.073,1.864,0.11,3.34,0.11,4.429v4.207
			c0,0.314,0.037,0.72,0.111,1.219c-0.074,0.129-0.111,0.276-0.111,0.442c0.074,1.624,0.111,2.842,0.111,3.654
			c0,1.255-0.443,1.882-1.329,1.882c-0.738-0.222-1.107-0.591-1.107-1.107c-0.074-6.791-0.111-11.699-0.111-14.726h-3.211
			c-1.477,0-2.214-0.406-2.214-1.218v-0.222C38.934,20.746,39.192,20.414,39.709,20.175z"/>
		<path fill="#030332" d="M56.621,20.396c1.144,0,2.214,2.142,3.211,6.422c1.495,4.061,2.306,6.09,2.436,6.09
			c0.959-3.45,2.288-7.437,3.986-11.958c0.756-0.369,1.384-0.554,1.882-0.554c1.107,0.203,1.661,0.684,1.661,1.439v4.982
			c0,2.769-0.074,6.238-0.222,10.408c0,0.627-0.443,1.033-1.329,1.218c-0.738-0.295-1.107-0.701-1.107-1.218
			c0.147-3.192,0.221-6.293,0.221-9.301v-2.768H67.25c-2.067,6.569-3.359,10.297-3.875,11.183c-0.425,0.222-0.904,0.369-1.439,0.442
			c-0.738,0-1.55-1.402-2.436-4.207c-0.664-1.384-1.439-3.524-2.325-6.422h-0.11c0.073,1.477,0.11,2.584,0.11,3.321v7.861
			c-0.147,0.738-0.517,1.107-1.107,1.107h-0.111c-0.812,0-1.218-0.664-1.218-1.993c0-1.089,0.037-2.122,0.111-3.1
			c-0.074-2.362-0.111-4.945-0.111-7.751c0-0.59-0.037-1.365-0.111-2.325c0-1.919,0.517-2.879,1.55-2.879H56.621z"/>
		<path fill="#030332" d="M75.887,20.396c0.498,0,0.904,0.37,1.218,1.107l-0.11,0.775v11.625c0,0.314-0.037,0.72-0.111,1.219
			c0.074,0.073,0.111,0.369,0.111,0.886h5.093c1.993,0,2.989,0.332,2.989,0.996v0.443c0,0.553-0.369,0.886-1.107,0.996h-8.082
			c-0.886-0.073-1.329-0.443-1.329-1.107v-6.532c0-1.07,0.037-2.288,0.11-3.654l-0.11-0.554c0.073-0.737,0.11-1.291,0.11-1.66
			c0-0.129-0.037-1.015-0.11-2.657C74.558,21.023,75.001,20.396,75.887,20.396z"/>
	</g>
	<g enable-background="new    ">
		<path fill="#030332" d="M48.889,76.902h0.369c1.107,0,1.722,0.738,1.845,2.216c0,0.83-2.461,2.676-7.381,5.536l-6.089,4.429v0.185
			c7.566,4.736,11.872,7.506,12.917,8.305l0.369,1.292c-0.246,1.354-0.922,2.03-2.03,2.03c-2.491-1.262-6.859-3.969-13.102-8.121
			c-2.461-1.537-3.69-2.768-3.69-3.689c0-1.292,1.538-2.706,4.613-4.244C44.091,79.549,48.151,76.902,48.889,76.902z"/>
		<path fill="#030332" d="M79.152,69.338c1.106,0,1.722,0.738,1.845,2.214c0,1.2-3.198,13.318-9.596,36.354
			c-0.646,0.861-1.323,1.292-2.03,1.292c-1.23-0.339-1.845-1.015-1.845-2.029c0-0.462,1.476-5.874,4.429-16.239
			c2.706-10.18,4.49-17.069,5.352-20.668C77.953,69.646,78.566,69.338,79.152,69.338z"/>
		<path fill="#030332" d="M99.404,76.857h0.369c0.646,0,6.119,3.567,16.424,10.703c0.244,0.461,0.367,0.953,0.367,1.477
			c0,0.923-1.354,2.214-4.06,3.875c-7.937,5.29-12.241,7.936-12.918,7.936c-1.229-0.339-1.845-1.016-1.845-2.029
			c0-1.199,1.968-2.799,5.904-4.799c1.107-0.859,3.566-2.459,7.381-4.797v-0.186c-2.982-2.245-7.228-5.137-12.731-8.673
			c-0.491-0.646-0.737-1.2-0.737-1.661C97.836,77.475,98.45,76.857,99.404,76.857z"/>
	</g>
</g>
</svg>
