<?xml version="1.0" encoding="utf-8"?>
<!-- Generator: Adobe Illustrator 16.0.0, SVG Export Plug-In . SVG Version: 6.00 Build 0)  -->
<!DOCTYPE svg PUBLIC "-//W3C//DTD SVG 1.1//EN" "http://www.w3.org/Graphics/SVG/1.1/DTD/svg11.dtd">
<svg version="1.1" id="Layer_1" xmlns="http://www.w3.org/2000/svg" xmlns:xlink="http://www.w3.org/1999/xlink" x="0px" y="0px"
	 width="150px" height="150px" viewBox="0 0 150 150" enable-background="new 0 0 150 150" xml:space="preserve">
<pattern  x="-174.5" y="325.5" width="303" height="218" patternUnits="userSpaceOnUse" id="SVGID_1_" viewBox="0 -218 303 218" overflow="visible">
	<g>
		<polygon fill="none" points="0,0 303,0 303,-218 0,-218 		"/>
		<g>
			<polygon fill="none" points="0,-218 303,-218 303,0 0,0 			"/>
			<g>
				<polygon fill="none" points="0,0 303,0 303,-218 0,-218 				"/>
				<g>
					<polygon fill="none" points="0,-218 303,-218 303,0 0,0 					"/>
					<g>
						<polygon fill="none" points="0,0 303,0 303,-218 0,-218 						"/>
						<g>
							<polygon fill="none" points="0,-218 303,-218 303,0 0,0 							"/>
							<polygon fill="#F1D1C7" points="303,-218 0,-218 0,0 303,0 							"/>
							
								<line fill="none" stroke="#C98977" stroke-width="2.9821" stroke-linecap="round" stroke-linejoin="round" stroke-miterlimit="10" x1="245.833" y1="-103.334" x2="248" y2="-104"/>
							
								<line fill="none" stroke="#C98977" stroke-width="2.9821" stroke-linecap="round" stroke-linejoin="round" stroke-miterlimit="10" x1="124.252" y1="-37.877" x2="126.516" y2="-38"/>
							
								<line fill="none" stroke="#C98977" stroke-width="2.9821" stroke-linecap="round" stroke-linejoin="round" stroke-miterlimit="10" x1="83.667" y1="-201.012" x2="85.894" y2="-200.582"/>
							
								<line fill="none" stroke="#C98977" stroke-width="2.9821" stroke-linecap="round" stroke-linejoin="round" stroke-miterlimit="10" x1="130.943" y1="-81.148" x2="133" y2="-80.193"/>
							
								<line fill="none" stroke="#C98977" stroke-width="2.9821" stroke-linecap="round" stroke-linejoin="round" stroke-miterlimit="10" x1="284.333" y1="-24" x2="286.098" y2="-22.575"/>
							
								<line fill="none" stroke="#C98977" stroke-width="2.9821" stroke-linecap="round" stroke-linejoin="round" stroke-miterlimit="10" x1="93.632" y1="-140.811" x2="95" y2="-139"/>
							
								<line fill="none" stroke="#C98977" stroke-width="2.9821" stroke-linecap="round" stroke-linejoin="round" stroke-miterlimit="10" x1="7.143" y1="-153.409" x2="5" y2="-152.667"/>
							
								<line fill="none" stroke="#C98977" stroke-width="2.9821" stroke-linecap="round" stroke-linejoin="round" stroke-miterlimit="10" x1="107.044" y1="-184.732" x2="107" y2="-187"/>
							
								<line fill="none" stroke="#C98977" stroke-width="2.9821" stroke-linecap="round" stroke-linejoin="round" stroke-miterlimit="10" x1="184.694" y1="-132.839" x2="186.865" y2="-132.182"/>
							
								<line fill="none" stroke="#C98977" stroke-width="2.9821" stroke-linecap="round" stroke-linejoin="round" stroke-miterlimit="10" x1="44.297" y1="-203.766" x2="43" y2="-201.904"/>
							
								<line fill="none" stroke="#C98977" stroke-width="2.9821" stroke-linecap="round" stroke-linejoin="round" stroke-miterlimit="10" x1="248.685" y1="-200.096" x2="247.315" y2="-201.904"/>
							
								<line fill="none" stroke="#C98977" stroke-width="2.9821" stroke-linecap="round" stroke-linejoin="round" stroke-miterlimit="10" x1="268" y1="-140.438" x2="270.143" y2="-141.182"/>
							
								<line fill="none" stroke="#C98977" stroke-width="2.9821" stroke-linecap="round" stroke-linejoin="round" stroke-miterlimit="10" x1="71" y1="-84.4" x2="71.045" y2="-82.134"/>
							
								<line fill="none" stroke="#C98977" stroke-width="2.9821" stroke-linecap="round" stroke-linejoin="round" stroke-miterlimit="10" x1="206.171" y1="-80.671" x2="204" y2="-81.329"/>
							
								<line fill="none" stroke="#C98977" stroke-width="2.9821" stroke-linecap="round" stroke-linejoin="round" stroke-miterlimit="10" x1="222.333" y1="-200.975" x2="223.63" y2="-202.835"/>
							
								<line fill="none" stroke="#C98977" stroke-width="2.9821" stroke-linecap="round" stroke-linejoin="round" stroke-miterlimit="10" x1="37.667" y1="-15.809" x2="39.036" y2="-14"/>
							
								<line fill="none" stroke="#C98977" stroke-width="2.9821" stroke-linecap="round" stroke-linejoin="round" stroke-miterlimit="10" x1="280.477" y1="-16.182" x2="278.333" y2="-15.438"/>
							
								<line fill="none" stroke="#C98977" stroke-width="2.9821" stroke-linecap="round" stroke-linejoin="round" stroke-miterlimit="10" x1="209.045" y1="-211.066" x2="209" y2="-213.334"/>
							
								<line fill="none" stroke="#C98977" stroke-width="2.9821" stroke-linecap="round" stroke-linejoin="round" stroke-miterlimit="10" x1="148.986" y1="-165.771" x2="151.156" y2="-165.111"/>
							
								<line fill="none" stroke="#C98977" stroke-width="2.9821" stroke-linecap="round" stroke-linejoin="round" stroke-miterlimit="10" x1="138.945" y1="-73.334" x2="137.648" y2="-71.473"/>
							
								<line fill="none" stroke="#C98977" stroke-width="2.9821" stroke-linecap="round" stroke-linejoin="round" stroke-miterlimit="10" x1="240.467" y1="-38" x2="239.099" y2="-39.809"/>
							
								<line fill="none" stroke="#C98977" stroke-width="2.9821" stroke-linecap="round" stroke-linejoin="round" stroke-miterlimit="10" x1="177" y1="-13.258" x2="179.142" y2="-14"/>
							
								<line fill="none" stroke="#C98977" stroke-width="2.9821" stroke-linecap="round" stroke-linejoin="round" stroke-miterlimit="10" x1="288.956" y1="-204.898" x2="289" y2="-202.632"/>
						</g>
					</g>
				</g>
			</g>
		</g>
	</g>
</pattern>
<rect x="-241.807" y="-143.147" fill="#E2FFFF" width="722.895" height="345.969"/>
<g>
	
		<path fill="#365B27" stroke="#030332" stroke-width="4.0165" stroke-linecap="round" stroke-linejoin="round" stroke-miterlimit="10" d="
		M-421.667,54.473c0,0,123.187-168.919,230.306-168.919c107.125,0,225.221,168.919,225.221,168.919H-421.667z"/>
</g>
<g>
	
		<path fill="#00753B" stroke="#030332" stroke-width="1.5227" stroke-linecap="round" stroke-linejoin="round" stroke-miterlimit="10" d="
		M30.703,60.987c5.256-8.36,6.031-15.648,4.717-21.648c-1.079-6.051-4.576-12.489-12.628-18.209c-0.677-0.494-1.08-0.746-1.08-0.746
		l0,0l0,0c1.254,2.189,2.339,4.372,3.276,6.527l1.208-0.361l-0.959,0.939c0.757,1.794,1.414,3.569,1.98,5.309l2.25-0.199
		l-1.921,1.238c0.123,0.398,0.239,0.794,0.354,1.189l3.011-0.46l-2.738,1.443c0.105,0.389,0.206,0.773,0.301,1.16l2.541-0.226
		l-2.242,1.448c0.109,0.479,0.216,0.953,0.314,1.423c0.003,0.018,0.295,1.481,0.297,1.496c0.202,1.068,0.38,2.166,0.533,3.298
		l2.95-0.06l-2.822,1.039c0.047,0.404,0.094,0.812,0.136,1.224l2.479,0.11l-2.362,1.117c0.169,2.012,0.255,4.107,0.234,6.276
		l1.151,0.368l-1.158,0.204c-0.045,2.323-0.212,4.729-0.534,7.201l0,0l0,0C29.988,62.092,30.267,61.704,30.703,60.987z"/>
	
		<path fill="#00753B" stroke="#030332" stroke-width="1.5227" stroke-linecap="round" stroke-linejoin="round" stroke-miterlimit="10" d="
		M73.78,64.171c-1.32-18.611-8.273-30.581-16.977-38.268c-8.397-8.017-20.916-13.928-39.571-13.659
		c-1.582,0.002-2.485,0.069-2.485,0.069l0,0l0,0c4.36,1.935,8.452,4.052,12.284,6.294l1.438-1.898l-0.411,2.506
		c3.155,1.888,6.136,3.86,8.94,5.88l3.204-2.813l-1.541,4.033c0.629,0.47,1.252,0.942,1.864,1.417l4.076-4.065l-2.562,5.256
		c0.595,0.475,1.18,0.952,1.758,1.43l3.622-3.177l-1.803,4.712c0.704,0.605,1.395,1.212,2.072,1.819
		c0.021,0.021,2.102,1.929,2.123,1.949c1.493,1.404,2.993,2.882,4.49,4.432l4.428-3.384l-3.142,4.738
		c0.527,0.561,1.052,1.129,1.575,1.712l3.899-2.604l-2.356,4.341c2.508,2.878,4.978,5.977,7.365,9.305l2.165-0.722L66.7,55.083
		c2.524,3.59,4.955,7.441,7.222,11.571l0,0l0,0C73.919,66.653,73.912,65.747,73.78,64.171z"/>
	
		<path fill="#00753B" stroke="#030332" stroke-width="1.5227" stroke-linecap="round" stroke-linejoin="round" stroke-miterlimit="10" d="
		M65.99,33.518c-3.546-10.405-9.307-16.177-15.416-19.248c-5.988-3.307-14.007-4.792-24.595-1.836
		c-0.9,0.237-1.405,0.413-1.405,0.413l0,0l0,0c2.775,0.445,5.422,1.038,7.944,1.739l0.535-1.298l0.141,1.489
		c2.082,0.601,4.077,1.276,5.978,2.007l1.403-2.085l-0.273,2.529c0.43,0.174,0.855,0.35,1.274,0.527l1.712-2.928l-0.67,3.381
		c0.409,0.181,0.815,0.364,1.215,0.552l1.586-2.355l-0.321,2.956c0.492,0.237,0.978,0.479,1.452,0.725
		c0.017,0.008,1.488,0.783,1.504,0.792c1.063,0.575,2.139,1.189,3.224,1.848l2.013-2.591l-1.075,3.174
		c0.385,0.237,0.768,0.485,1.152,0.737l1.83-2.068l-0.689,2.826c1.861,1.263,3.733,2.656,5.593,4.194l1.126-0.736l-0.636,1.147
		c1.98,1.663,3.941,3.494,5.853,5.506l0,0l0,0C66.446,34.911,66.302,34.396,65.99,33.518z"/>
	
		<path fill="#00753B" stroke="#030332" stroke-width="1.5227" stroke-linecap="round" stroke-linejoin="round" stroke-miterlimit="10" d="
		M93.859,12.202C80.072-0.911,66.609-5.144,54.772-4.951C42.937-5.217,29.447-1.065,15.579,11.96
		c-1.189,1.091-1.821,1.761-1.821,1.761l0,0l0,0c4.611-1.536,9.146-2.757,13.573-3.7l-0.222-2.42l1.411,2.171
		c3.676-0.747,7.274-1.313,10.776-1.718l0.479-4.323l1.607,4.1c0.8-0.078,1.592-0.152,2.38-0.215l0.276-5.861l1.682,5.718
		c0.776-0.05,1.542-0.094,2.307-0.131l0.544-4.879l1.881,4.784c0.946-0.026,1.883-0.046,2.809-0.051
		c0.029,0,2.908,0.008,2.938,0.008c2.089,0.031,4.235,0.11,6.428,0.251l1.009-5.592l0.894,5.725c0.781,0.063,1.57,0.129,2.362,0.206
		l1.147-4.639l1.209,4.887c3.87,0.444,7.855,1.082,11.943,1.947l1.133-2.032l-0.053,2.269c4.371,0.967,8.848,2.2,13.395,3.749l0,0
		l0,0C95.67,13.974,95.041,13.297,93.859,12.202z"/>
	
		<path fill="#00753B" stroke="#030332" stroke-width="1.5227" stroke-linecap="round" stroke-linejoin="round" stroke-miterlimit="10" d="
		M66.507-13.044c-12.125-3.942-21.489-2.606-28.588,0.932C30.688-8.851,23.732-2.438,19.118,9.445
		c-0.403,1.003-0.592,1.593-0.592,1.593l0,0l0,0c2.343-2.265,4.731-4.313,7.135-6.167l-0.834-1.396l1.482,0.902
		c2.005-1.516,4.017-2.896,6.017-4.152l-0.961-2.753l2.158,2.015c0.459-0.28,0.917-0.554,1.377-0.819l-1.528-3.625l2.673,2.969
		c0.453-0.252,0.904-0.503,1.354-0.744L36.313-5.84l2.523,2.349c0.564-0.291,1.125-0.572,1.683-0.844
		c0.018-0.01,1.762-0.837,1.779-0.844c1.273-0.586,2.594-1.157,3.958-1.706l-1.006-3.674l2.197,3.203
		c0.489-0.189,0.986-0.376,1.485-0.557l-0.648-3.137l2.143,2.607c2.467-0.851,5.063-1.62,7.785-2.278l0.099-1.557l0.622,1.387
		c2.923-0.679,5.983-1.228,9.185-1.606l0,0l0,0C68.116-12.496,67.539-12.723,66.507-13.044z"/>
	<g>
		<path fill="#BF8B00" d="M48.08,33.92c-0.319,0-0.65-0.12-1.036-0.385c-0.135-0.091-0.237-0.224-0.291-0.377
			c-0.054-0.154-5.63-15.407-20.528-15.407c-4.038,0-8.456,1.11-13.132,3.304c-0.102,0.048-0.21,0.074-0.325,0.074
			c-0.051,0-0.103-0.007-0.158-0.018c-0.482-0.102-1.089-0.456-1.221-1.115c-0.205-1.028,0.91-1.926,1.762-2.51
			c0.026-0.02,0.058-0.037,0.086-0.052c0.23-0.115,5.722-2.847,12.77-2.847c6.98,0,16.608,2.788,22.843,16.076
			c0.014,0.03,0.022,0.059,0.036,0.09c0.285,0.889,0.533,2.084,0.063,2.729C48.75,33.759,48.43,33.92,48.08,33.92z"/>
		<path fill="#030332" d="M26.012,15.347c7.31,0,16.253,3.062,22.152,15.64c0,0,0.703,2.175-0.084,2.175
			c-0.145,0-0.344-0.078-0.611-0.255c0,0-5.611-15.914-21.246-15.914c-3.853,0-8.316,0.965-13.455,3.377
			c0,0-1.887-0.402,0.814-2.252C13.583,18.114,19.063,15.347,26.012,15.347 M26.012,13.823v1.523V13.823h-0.003
			c-7.225,0.002-12.875,2.813-13.112,2.932c-0.063,0.031-0.118,0.063-0.175,0.103c-0.658,0.449-2.403,1.646-2.081,3.285
			c0.204,1.023,1.103,1.562,1.812,1.712c0.106,0.021,0.209,0.034,0.315,0.034c0.223,0,0.444-0.049,0.649-0.145
			c4.573-2.145,8.88-3.231,12.805-3.231c14.392,0,19.76,14.751,19.811,14.897c0.11,0.31,0.313,0.573,0.585,0.755
			c0.512,0.348,0.99,0.517,1.461,0.517c0.598,0,1.141-0.275,1.489-0.755c0.53-0.725,0.541-1.87,0.045-3.408
			c-0.021-0.063-0.045-0.121-0.069-0.178C43.139,16.689,33.212,13.823,26.012,13.823L26.012,13.823z"/>
	</g>
	<g>
		<path fill="#BF8B00" d="M34.85,46.286c-0.395,0-0.933-0.206-1.24-1.184c-0.047-0.155-0.046-0.323,0.008-0.478
			c0.034-0.101,3.404-10.16-1.388-18.86c-3.12-5.664-8.982-9.552-17.432-11.558c-0.163-0.039-0.307-0.129-0.411-0.257
			c-0.305-0.366-0.557-1.006-0.28-1.593c0.439-0.936,1.813-0.936,2.264-0.936c0.208,0,0.44,0.008,0.698,0.026
			c0.032,0.003,0.064,0.006,0.098,0.014c0.46,0.096,11.28,2.426,17.116,11.588c3.622,5.695,4.475,12.734,2.53,20.928
			c-0.009,0.03-0.017,0.063-0.028,0.092C36.406,45.081,35.764,46.286,34.85,46.286z"/>
		<path fill="#030332" d="M16.369,12.183c0.194,0,0.407,0.008,0.643,0.025c0,0,25.313,5.236,19.059,31.594
			c0,0-0.644,1.724-1.222,1.724c-0.185,0-0.365-0.179-0.514-0.653c0,0,8.563-24.782-19.364-31.408
			C14.974,13.466,13.917,12.183,16.369,12.183 M16.369,10.661L16.369,10.661c-0.571,0-2.308,0-2.953,1.372
			c-0.431,0.909-0.062,1.862,0.381,2.401c0.209,0.257,0.501,0.435,0.824,0.512c8.224,1.952,13.922,5.713,16.935,11.176
			c4.629,8.393,1.374,18.16,1.339,18.259c-0.104,0.305-0.109,0.641-0.013,0.951c0.488,1.551,1.539,1.718,1.967,1.718
			c1.085,0,1.976-0.912,2.649-2.712c0.021-0.059,0.042-0.118,0.056-0.182c1.993-8.403,1.109-15.639-2.632-21.512
			c-6.004-9.433-17.131-11.829-17.603-11.925c-0.065-0.017-0.132-0.024-0.2-0.028C16.855,10.671,16.603,10.661,16.369,10.661
			L16.369,10.661z"/>
	</g>
	<g>
		
			<path fill="#92C83E" stroke="#030332" stroke-width="1.5227" stroke-linecap="round" stroke-linejoin="round" stroke-miterlimit="10" d="
			M31.73,15.258c-2.15,1.115-4.632,0.875-6.456-0.406c-0.542-0.077-0.929-0.361-1.159-0.43c-0.593-0.08-0.711-0.786-0.776-0.81
			c-0.038-0.176-0.104-0.359-0.125-0.403c-0.492-0.145-0.588-0.655-0.616-0.649c-0.476-0.876,0.038-2.623,0.147-2.967
			c0.125-2.101,1.344-4.098,3.377-5.153c2.54-1.315,5.55-0.745,7.378,1.211c0.996,0.682,2.269,1.961,1.608,3.788
			C35.229,11.775,33.978,14.095,31.73,15.258z"/>
		
			<path fill="#92C83E" stroke="#030332" stroke-width="1.5227" stroke-linecap="round" stroke-linejoin="round" stroke-miterlimit="10" d="
			M35.184,9.208c0,0-1.574,1.918-4.088,2.955"/>
		
			<path fill="#92C83E" stroke="#030332" stroke-width="1.5227" stroke-linecap="round" stroke-linejoin="round" stroke-miterlimit="10" d="
			M23.214,13.214c0,0,2.232,0.393,3.281-0.13"/>
		
			<path fill="#92C83E" stroke="#030332" stroke-width="1.5227" stroke-linecap="round" stroke-linejoin="round" stroke-miterlimit="10" d="
			M25.273,14.849c0,0,0.333,0.141,0.846-0.064"/>
	</g>
	<g>
		<path fill="#BF8B00" d="M20.975,23.687c-0.424,0-0.788-0.179-1.022-0.506c-0.389-0.537-0.376-1.351,0.046-2.637
			c0.011-0.031,0.023-0.064,0.038-0.093c0.066-0.135,6.654-13.444,20.23-13.444c3.983,0,8.201,1.142,12.542,3.398
			c0.026,0.013,0.054,0.03,0.081,0.048c1.207,0.836,1.723,1.603,1.531,2.282c-0.101,0.358-0.421,0.799-1.367,0.853
			c-0.016,0.003-0.03,0.003-0.044,0.003c-0.146,0-0.291-0.045-0.415-0.125C52.54,13.431,47.149,9.97,40.493,9.97
			c-7.684,0-13.891,4.447-18.447,13.215c-0.077,0.147-0.199,0.268-0.347,0.337C21.618,23.561,21.327,23.687,20.975,23.687z"/>
		<path fill="#030332" d="M40.268,7.77c3.557,0,7.615,0.935,12.188,3.31c0,0,2.378,1.643,0.556,1.752c0,0-5.54-3.619-12.517-3.619
			c-6.195,0-13.525,2.851-19.121,13.625c0,0-0.188,0.089-0.396,0.089c-0.393,0-0.853-0.317-0.251-2.144
			C20.723,20.783,27.012,7.77,40.268,7.77 M40.268,6.247c-14.05,0-20.641,13.307-20.917,13.873c-0.03,0.063-0.055,0.124-0.076,0.188
			c-0.341,1.038-0.642,2.354,0.06,3.321c0.378,0.522,0.974,0.818,1.64,0.818c0.496,0,0.899-0.166,1.049-0.238
			c0.299-0.141,0.545-0.376,0.698-0.672c4.414-8.496,10.392-12.805,17.771-12.805c6.448,0,11.63,3.336,11.682,3.37
			c0.248,0.163,0.538,0.248,0.833,0.248c0.028,0,0.06,0,0.088-0.002c1.524-0.087,1.947-1.014,2.057-1.407
			c0.287-1.028-0.329-2.076-1.832-3.114c-0.054-0.038-0.107-0.07-0.164-0.099C48.708,7.418,44.375,6.247,40.268,6.247L40.268,6.247z
			"/>
	</g>
	
		<path fill="#00753B" stroke="#030332" stroke-width="1.5227" stroke-linecap="round" stroke-linejoin="round" stroke-miterlimit="10" d="
		M15.349,14.7c-18.097-7.807-32.703-7.1-44.14-2.677c-11.599,3.981-23.225,12.85-32.039,30.479
		c-0.767,1.482-1.142,2.364-1.142,2.364l0,0l0,0c3.933-3.152,7.907-5.959,11.87-8.464l-1.082-2.271l2.15,1.604
		c3.305-2.045,6.603-3.882,9.86-5.528l-1.082-4.374l3.031,3.408c0.747-0.363,1.492-0.718,2.236-1.063l-1.83-5.798l3.682,4.958
		c0.737-0.328,1.469-0.646,2.197-0.955l-1.22-4.938l3.542,3.981c0.909-0.366,1.815-0.72,2.711-1.059
		c0.03-0.012,2.831-1.033,2.861-1.044c2.044-0.72,4.159-1.409,6.336-2.06l-1.02-5.797l2.919,5.247
		c0.78-0.222,1.571-0.437,2.369-0.647l-0.548-4.92l2.927,4.32c3.917-0.955,8.025-1.765,12.306-2.386l0.373-2.383l0.759,2.224
		c4.597-0.625,9.391-1.028,14.366-1.152l0,0l0,0C17.744,15.776,16.891,15.342,15.349,14.7z"/>
	
		<path fill="#00753B" stroke="#030332" stroke-width="1.5227" stroke-linecap="round" stroke-linejoin="round" stroke-miterlimit="10" d="
		M15.01,10.561C4.581,17.163-0.214,24.965-1.965,32.444c-2.039,7.403-1.561,16.547,4.443,27.333c0.496,0.923,0.82,1.426,0.82,1.426
		l0,0l0,0c-0.242-3.146-0.287-6.191-0.183-9.127l-1.558-0.242l1.589-0.548c0.112-2.43,0.326-4.783,0.625-7.05L1.125,43.25
		l2.834-0.364c0.077-0.513,0.157-1.025,0.241-1.53l-3.645-1.102l3.863-0.155c0.091-0.495,0.185-0.986,0.284-1.471l-2.987-1.115
		l3.309-0.426c0.134-0.601,0.271-1.192,0.413-1.777c0.005-0.019,0.465-1.828,0.471-1.846c0.349-1.312,0.74-2.649,1.174-4.006
		l-3.36-1.521l3.744,0.345c0.163-0.482,0.333-0.966,0.503-1.454l-2.735-1.454L8.5,25.384c0.892-2.363,1.921-4.773,3.114-7.205
		l-1.1-1.036l1.417,0.393c1.301-2.597,2.785-5.218,4.479-7.836l0,0l0,0C16.411,9.703,15.888,9.993,15.01,10.561z"/>
	
		<path fill="#00753B" stroke="#030332" stroke-width="1.5227" stroke-linecap="round" stroke-linejoin="round" stroke-miterlimit="10" d="
		M16.046,13.727c-15.124,1.479-24.72,7.404-30.785,14.657c-6.343,7.012-10.883,17.332-10.256,32.516
		c0.036,1.289,0.111,2.022,0.111,2.022l0,0l0,0c1.479-3.595,3.116-6.97,4.855-10.138l-1.576-1.13l2.048,0.282
		c1.469-2.614,3.008-5.082,4.592-7.408l-2.362-2.551l3.317,1.17c0.368-0.524,0.741-1.04,1.112-1.548l-3.396-3.23l4.334,1.971
		c0.374-0.494,0.749-0.982,1.127-1.463l-2.668-2.879l3.876,1.367c0.479-0.587,0.957-1.162,1.436-1.726
		c0.015-0.02,1.524-1.753,1.539-1.774c1.111-1.246,2.279-2.5,3.508-3.752l-2.85-3.531l3.926,2.453
		c0.445-0.441,0.898-0.881,1.359-1.32L-2.913,24.6l3.583,1.822c2.291-2.104,4.759-4.182,7.416-6.199l-0.636-1.746l1.341,1.218
		c2.871-2.138,5.953-4.196,9.266-6.136l0,0l0,0C18.063,13.556,17.327,13.585,16.046,13.727z"/>
	
		<path fill="#00753B" stroke="#030332" stroke-width="1.5227" stroke-linecap="round" stroke-linejoin="round" stroke-miterlimit="10" d="
		M15.92,9.911C2.057-3.725-11.631-8.281-23.729-8.287C-35.817-8.762-49.673-4.753-64.067,8.321
		c-1.235,1.092-1.891,1.771-1.891,1.771l0,0l0,0c4.739-1.494,9.395-2.662,13.936-3.555l-0.187-2.475l1.407,2.242
		c3.769-0.701,7.456-1.215,11.04-1.57l0.566-4.408l1.573,4.215c0.817-0.067,1.628-0.126,2.435-0.176l0.382-5.985l1.624,5.872
		c0.791-0.04,1.578-0.071,2.358-0.096l0.637-4.979l1.841,4.925c0.966-0.012,1.926-0.016,2.871-0.008c0.032,0,2.972,0.06,3.001,0.06
		c2.137,0.067,4.328,0.189,6.565,0.364l1.129-5.696l0.813,5.87c0.798,0.074,1.601,0.158,2.409,0.252l1.251-4.721l1.152,5.015
		c3.946,0.521,8.012,1.236,12.169,2.194l1.195-2.058L4.115,7.69c4.449,1.062,9.001,2.401,13.624,4.062l0,0l0,0
		C17.741,11.753,17.111,11.053,15.92,9.911z"/>
	
		<path fill="#00753B" stroke="#030332" stroke-width="1.5227" stroke-linecap="round" stroke-linejoin="round" stroke-miterlimit="10" d="
		M20.337,13.001C18.51-1.329,12.613-10.278,5.555-15.841c-6.838-5.831-16.77-9.856-31.179-8.84c-1.223,0.07-1.918,0.164-1.918,0.164
		l0,0l0,0c3.453,1.305,6.708,2.765,9.767,4.33l1.029-1.53l-0.209,1.954c2.522,1.324,4.912,2.717,7.167,4.158l2.354-2.314
		l-1.019,3.185c0.509,0.336,1.009,0.674,1.504,1.014l2.973-3.317l-1.751,4.172c0.479,0.341,0.953,0.685,1.42,1.028l2.662-2.613
		l-1.191,3.72c0.571,0.438,1.13,0.878,1.68,1.315C-1.139-9.399,0.551-8.014,0.57-8c1.215,1.02,2.438,2.097,3.664,3.229l3.278-2.807
		L5.29-3.777C5.721-3.368,6.153-2.95,6.58-2.526l2.901-2.18L7.849-1.247c2.063,2.117,4.106,4.404,6.096,6.873l1.64-0.654
		l-1.118,1.31c2.109,2.665,4.153,5.538,6.085,8.633l0,0l0,0C20.553,14.913,20.508,14.212,20.337,13.001z"/>
	<g>
		
			<path fill="#92C83E" stroke="#030332" stroke-width="1.5227" stroke-linecap="round" stroke-linejoin="round" stroke-miterlimit="10" d="
			M35.091,19.3c-0.521-3.044-2.677-5.391-5.386-6.258c-0.491-0.492-1.079-0.667-1.327-0.846c-0.534-0.542-1.349-0.118-1.419-0.171
			c-0.204,0.098-0.446,0.172-0.507,0.183c-0.526-0.389-1.124-0.093-1.135-0.124c-1.254,0.187-2.639,2.058-2.902,2.434
			c-2.041,1.741-3.138,4.52-2.646,7.402c0.615,3.598,3.512,6.22,6.911,6.577c1.458,0.489,3.742,0.799,5.092-1.278
			C34.239,25.54,35.634,22.482,35.091,19.3z"/>
		
			<path fill="#92C83E" stroke="#030332" stroke-width="1.5227" stroke-linecap="round" stroke-linejoin="round" stroke-miterlimit="10" d="
			M31.591,27.471c0,0,0.741-3.077-0.142-6.436"/>
		
			<path fill="#92C83E" stroke="#030332" stroke-width="1.5227" stroke-linecap="round" stroke-linejoin="round" stroke-miterlimit="10" d="
			M26.452,12.207c0,0,2.119,1.97,2.395,3.44"/>
		
			<path fill="#92C83E" stroke="#030332" stroke-width="1.5227" stroke-linecap="round" stroke-linejoin="round" stroke-miterlimit="10" d="
			M29.706,13.042c0,0,0.397,0.231,0.586,0.909"/>
	</g>
	<g>
		<path fill="#BF8B00" d="M15.078,24.857c-0.36,0-0.856-0.181-1.185-1.042c-0.06-0.149-0.065-0.316-0.021-0.476
			c0.024-0.089,2.464-9.112-2.197-16.51C8.64,2.011,3.277-1.103-4.259-2.43c-0.164-0.028-0.314-0.108-0.426-0.23
			C-4.999-2.996-5.273-3.596-5.02-4.177c0.382-0.876,1.614-0.979,2.508-0.979l0.128,0.001c0.033,0,0.067,0.003,0.1,0.007
			c0.412,0.062,10.126,1.56,15.775,9.376c3.511,4.86,4.635,11.055,3.342,18.414c-0.005,0.032-0.014,0.063-0.021,0.093
			C16.376,24.143,15.795,24.857,15.078,24.857z"/>
		<path fill="#030332" d="M-2.511-4.393c0.038,0,0.079,0,0.117,0c0,0,22.626,3.305,18.477,26.903c0,0-0.49,1.586-1.005,1.586
			c-0.158,0-0.322-0.15-0.471-0.55c0,0,6.269-22.328-18.733-26.723C-4.126-3.176-5.256-4.393-2.511-4.393 M-2.509-5.915
			L-2.509-5.915c-0.708,0-2.582,0-3.206,1.436C-6.114-3.562-5.709-2.647-5.24-2.142c0.227,0.244,0.524,0.407,0.852,0.465
			c7.322,1.286,12.514,4.291,15.43,8.923c4.485,7.13,2.125,15.802,2.101,15.888c-0.087,0.313-0.073,0.648,0.042,0.952
			c0.506,1.333,1.407,1.533,1.896,1.533c1.089,0,1.917-0.895,2.46-2.66c0.018-0.06,0.033-0.121,0.045-0.185
			c1.331-7.569,0.162-13.96-3.473-18.989C8.276-4.29-1.747-5.839-2.171-5.899c-0.066-0.01-0.134-0.017-0.202-0.019h-0.134v0.003
			H-2.509z"/>
	</g>
	<g>
		
			<path fill="#92C83E" stroke="#030332" stroke-width="1.5227" stroke-linecap="round" stroke-linejoin="round" stroke-miterlimit="10" d="
			M11.849,6.085c-0.579-2.351,0.236-4.711,1.912-6.181c0.198-0.509,0.564-0.818,0.686-1.023c0.217-0.558,0.934-0.508,0.967-0.567
			c0.178,0.005,0.375-0.016,0.422-0.029c0.258-0.442,0.777-0.418,0.777-0.442c0.961-0.26,2.54,0.653,2.844,0.837
			c2.014,0.617,3.671,2.27,4.218,4.491c0.684,2.774-0.578,5.567-2.905,6.888c-0.897,0.808-2.438,1.746-4.06,0.677
			C14.415,10.302,12.455,8.544,11.849,6.085z"/>
		
			<path fill="#92C83E" stroke="#030332" stroke-width="1.5227" stroke-linecap="round" stroke-linejoin="round" stroke-miterlimit="10" d="
			M16.92,10.862c0,0-1.496-1.978-1.912-4.671"/>
		
			<path fill="#92C83E" stroke="#030332" stroke-width="1.5227" stroke-linecap="round" stroke-linejoin="round" stroke-miterlimit="10" d="
			M15.836-1.714c0,0-0.907,2.076-0.645,3.221"/>
		
			<path fill="#92C83E" stroke="#030332" stroke-width="1.5227" stroke-linecap="round" stroke-linejoin="round" stroke-miterlimit="10" d="
			M13.761-0.093c0,0-0.213,0.288-0.136,0.837"/>
	</g>
	<g>
		
			<path fill="#92C83E" stroke="#030332" stroke-width="1.5227" stroke-linecap="round" stroke-linejoin="round" stroke-miterlimit="10" d="
			M6.913,7.853c-2.811,1.414-4.453,4.216-4.489,7.112c-0.335,0.628-0.327,1.252-0.429,1.547c-0.368,0.683,0.287,1.348,0.258,1.433
			c0.158,0.172,0.301,0.382,0.328,0.439c-0.218,0.631,0.246,1.122,0.221,1.143c0.557,1.169,2.791,1.956,3.235,2.103
			c2.308,1.468,5.341,1.706,8,0.367c3.318-1.674,5.007-5.277,4.344-8.694c0.038-1.568-0.339-3.882-2.766-4.581
			C13.247,6.82,9.85,6.375,6.913,7.853z"/>
		
			<path fill="#92C83E" stroke="#030332" stroke-width="1.5227" stroke-linecap="round" stroke-linejoin="round" stroke-miterlimit="10" d="
			M15.916,8.82c0,0-3.218,0.198-6.227,2.061"/>
		
			<path fill="#92C83E" stroke="#030332" stroke-width="1.5227" stroke-linecap="round" stroke-linejoin="round" stroke-miterlimit="10" d="
			M2.582,18.384c0,0,1.285-2.652,2.636-3.358"/>
		
			<path fill="#92C83E" stroke="#030332" stroke-width="1.5227" stroke-linecap="round" stroke-linejoin="round" stroke-miterlimit="10" d="
			M2.426,14.965c0,0,0.108-0.454,0.713-0.841"/>
	</g>
	<g>
		
			<path fill="#92C83E" stroke="#030332" stroke-width="1.5227" stroke-linecap="round" stroke-linejoin="round" stroke-miterlimit="10" d="
			M31.234,7.951c-0.857,2.674-3.097,4.509-5.648,4.939c-0.507,0.382-1.058,0.463-1.302,0.593c-0.554,0.418-1.228-0.066-1.299-0.028
			c-0.173-0.116-0.379-0.213-0.431-0.23c-0.526,0.28-1.024-0.062-1.04-0.034c-1.105-0.331-2.109-2.192-2.299-2.562
			c-1.611-1.83-2.243-4.472-1.43-6.998c1.014-3.158,3.957-5.147,7.059-5.034c1.378-0.25,3.472-0.237,4.42,1.804
			C31.27,2.227,32.133,5.155,31.234,7.951z"/>
		
			<path fill="#92C83E" stroke="#030332" stroke-width="1.5227" stroke-linecap="round" stroke-linejoin="round" stroke-miterlimit="10" d="
			M29.137,0.148c0,0,0.27,2.865-0.953,5.774"/>
		
			<path fill="#92C83E" stroke="#030332" stroke-width="1.5227" stroke-linecap="round" stroke-linejoin="round" stroke-miterlimit="10" d="
			M22.551,13.224c0,0,2.161-1.499,2.597-2.788"/>
		
			<path fill="#92C83E" stroke="#030332" stroke-width="1.5227" stroke-linecap="round" stroke-linejoin="round" stroke-miterlimit="10" d="
			M25.586,12.892c0,0,0.389-0.157,0.643-0.747"/>
	</g>
	<g>
		
			<path fill="#573A1B" stroke="#030332" stroke-width="1.5227" stroke-linecap="round" stroke-linejoin="round" stroke-miterlimit="10" d="
			M-17.776,173.771c0,0-9.152-107.249,31.119-159.242c1.222-0.13,3.964,2.311,3.964,2.311C4.342,34.687-19.606,79.318-8.015,173.771
			C-7.403,173.65-17.776,173.771-17.776,173.771z"/>
		
			<line fill="none" stroke="#030332" stroke-width="1.5227" stroke-linecap="round" stroke-linejoin="round" stroke-miterlimit="10" x1="-14.209" y1="87.822" x2="-12.056" y2="87.822"/>
		
			<line fill="none" stroke="#030332" stroke-width="1.5227" stroke-linecap="round" stroke-linejoin="round" stroke-miterlimit="10" x1="-14.551" y1="89.979" x2="-12.914" y2="89.979"/>
		
			<line fill="none" stroke="#030332" stroke-width="1.5227" stroke-linecap="round" stroke-linejoin="round" stroke-miterlimit="10" x1="-12.914" y1="159.82" x2="-9.497" y2="159.82"/>
		
			<line fill="none" stroke="#030332" stroke-width="1.5227" stroke-linecap="round" stroke-linejoin="round" stroke-miterlimit="10" x1="-14.551" y1="163.277" x2="-9.157" y2="163.277"/>
		
			<line fill="none" stroke="#030332" stroke-width="1.5227" stroke-linecap="round" stroke-linejoin="round" stroke-miterlimit="10" x1="-12.156" y1="166.531" x2="-9.071" y2="166.531"/>
		
			<line fill="none" stroke="#030332" stroke-width="1.5227" stroke-linecap="round" stroke-linejoin="round" stroke-miterlimit="10" x1="-12.335" y1="134.498" x2="-10.988" y2="134.498"/>
		
			<line fill="none" stroke="#030332" stroke-width="1.5227" stroke-linecap="round" stroke-linejoin="round" stroke-miterlimit="10" x1="-17.877" y1="121.361" x2="-16.556" y2="121.361"/>
		
			<line fill="none" stroke="#030332" stroke-width="1.5227" stroke-linecap="round" stroke-linejoin="round" stroke-miterlimit="10" x1="-17.877" y1="122.473" x2="-17.217" y2="122.473"/>
		
			<line fill="none" stroke="#030332" stroke-width="1.5227" stroke-linecap="round" stroke-linejoin="round" stroke-miterlimit="10" x1="-7.479" y1="68.171" x2="-4.979" y2="68.171"/>
		
			<line fill="none" stroke="#030332" stroke-width="1.5227" stroke-linecap="round" stroke-linejoin="round" stroke-miterlimit="10" x1="-6.869" y1="70.307" x2="-5.618" y2="70.307"/>
	</g>
	<g>
		<path fill="#BF8B00" d="M-9.676,28.667c-0.416,0-0.775-0.177-1.01-0.498c-0.387-0.531-0.379-1.332,0.028-2.602
			c0.011-0.031,0.024-0.064,0.038-0.095c0.064-0.136,6.5-13.372,19.962-13.372c3.872,0,7.981,1.095,12.213,3.254
			c0.028,0.016,0.057,0.03,0.083,0.048c1.198,0.815,1.712,1.57,1.528,2.249c-0.098,0.356-0.411,0.795-1.349,0.857
			c-0.017,0-0.033,0.001-0.049,0.001c-0.146,0-0.291-0.042-0.411-0.122c-0.054-0.032-5.304-3.35-11.783-3.35
			c-7.616,0-13.729,4.416-18.173,13.12c-0.077,0.147-0.198,0.268-0.347,0.341C-9.028,28.539-9.32,28.667-9.676,28.667z"/>
		<path fill="#030332" d="M9.344,12.863c3.465,0,7.414,0.898,11.865,3.171c0,0,2.352,1.598,0.555,1.718
			c0,0-5.396-3.473-12.191-3.473c-6.125,0-13.384,2.818-18.854,13.537c0,0-0.188,0.09-0.396,0.09c-0.383,0-0.833-0.316-0.255-2.107
			C-9.931,25.802-3.792,12.863,9.344,12.863 M9.344,11.339c-13.939,0-20.381,13.244-20.652,13.807
			c-0.028,0.063-0.052,0.125-0.072,0.189c-0.329,1.026-0.618,2.327,0.081,3.283c0.376,0.515,0.968,0.811,1.626,0.811
			c0.501,0,0.907-0.169,1.058-0.243c0.301-0.143,0.543-0.381,0.694-0.679c4.303-8.429,10.188-12.705,17.496-12.705
			c6.274,0,11.318,3.197,11.367,3.229c0.246,0.159,0.534,0.243,0.824,0.243c0.034,0,0.067,0,0.101-0.005
			c1.516-0.098,1.927-1.023,2.033-1.415c0.281-1.024-0.336-2.061-1.833-3.078c-0.053-0.036-0.109-0.067-0.167-0.097
			C17.563,12.463,13.337,11.339,9.344,11.339L9.344,11.339z"/>
	</g>
	<g>
		<path fill="#BF8B00" d="M17.596,18.49c-0.319,0-0.648-0.122-1.037-0.386c-0.134-0.092-0.237-0.223-0.29-0.379
			C16.213,17.572,10.636,2.317-4.26,2.317c-4.039,0-8.456,1.113-13.133,3.308c-0.102,0.047-0.21,0.071-0.324,0.071
			c-0.051,0-0.105-0.004-0.159-0.016c-0.482-0.104-1.089-0.456-1.222-1.117c-0.203-1.028,0.91-1.926,1.762-2.509
			c0.029-0.02,0.057-0.037,0.087-0.052c0.23-0.117,5.723-2.848,12.77-2.848c6.98,0,16.609,2.79,22.844,16.076
			c0.014,0.029,0.024,0.061,0.035,0.091c0.287,0.89,0.533,2.084,0.067,2.728C18.267,18.329,17.948,18.49,17.596,18.49z"/>
		<path fill="#030332" d="M-4.474-0.083c7.313,0,16.253,3.06,22.155,15.638c0,0,0.704,2.173-0.084,2.173
			c-0.147,0-0.347-0.075-0.61-0.254c0,0-5.611-15.915-21.245-15.915c-3.854,0-8.318,0.967-13.456,3.378c0,0-1.886-0.403,0.814-2.252
			C-16.901,2.681-11.422-0.083-4.474-0.083 M-4.472-1.607v1.523V-1.607h-0.002c-7.227,0-12.875,2.812-13.113,2.932
			c-0.06,0.028-0.119,0.063-0.176,0.102c-0.657,0.449-2.402,1.646-2.08,3.287c0.203,1.021,1.102,1.56,1.809,1.71
			c0.104,0.022,0.211,0.035,0.317,0.035c0.222,0,0.443-0.05,0.648-0.144c4.57-2.146,8.882-3.235,12.806-3.235
			c14.345,0.003,19.595,14.293,19.811,14.903c0.11,0.306,0.315,0.571,0.582,0.751c0.515,0.348,0.991,0.52,1.465,0.52
			c0.596,0,1.139-0.275,1.489-0.757c0.525-0.723,0.541-1.871,0.043-3.409c-0.021-0.061-0.043-0.12-0.071-0.178
			C12.654,1.257,2.726-1.607-4.472-1.607L-4.472-1.607z"/>
	</g>
	<g>
		
			<path fill="#92C83E" stroke="#030332" stroke-width="1.5227" stroke-linecap="round" stroke-linejoin="round" stroke-miterlimit="10" d="
			M24.354,23.229c2.357-2.355,3.08-5.719,2.153-8.646c0.127-0.742-0.086-1.366-0.081-1.698c0.143-0.809-0.737-1.26-0.737-1.354
			c-0.215-0.12-0.43-0.285-0.475-0.334c0.011-0.705-0.62-1.046-0.602-1.076c-0.949-0.991-3.458-1.041-3.954-1.041
			c-2.81-0.71-5.94,0.058-8.169,2.288c-2.786,2.784-3.288,6.974-1.484,10.191c0.482,1.588,1.631,3.792,4.302,3.688
			C18.322,26.373,21.887,25.697,24.354,23.229z"/>
		
			<path fill="#92C83E" stroke="#030332" stroke-width="1.5227" stroke-linecap="round" stroke-linejoin="round" stroke-miterlimit="10" d="
			M14.972,25.248c0,0,3.173-1.269,5.582-4.14"/>
		
			<path fill="#92C83E" stroke="#030332" stroke-width="1.5227" stroke-linecap="round" stroke-linejoin="round" stroke-miterlimit="10" d="
			M25.213,11.195c0,0-0.415,3.095-1.539,4.256"/>
		
			<path fill="#92C83E" stroke="#030332" stroke-width="1.5227" stroke-linecap="round" stroke-linejoin="round" stroke-miterlimit="10" d="
			M26.507,14.583c0,0,0.042,0.492-0.439,1.082"/>
	</g>
</g>
<pattern  id="SVGID_2_" xlink:href="#SVGID_1_" patternTransform="matrix(0.794 0 0 -0.7871 19398.4844 -45718.3242)">
</pattern>
<rect x="-381.722" y="45.137" fill="url(#SVGID_2_)" width="1016.319" height="403.015"/>
<g>
	<path fill="#FF8589" stroke="#030332" stroke-width="2.4055" stroke-linejoin="round" stroke-miterlimit="10" d="M-16.206,54.455
		c2.616-1.011,12.326,4.319,12.326,4.319s9.816-4.305,12.181-3.255c2.366,1.053-2.188,7.916-2.188,7.916s10.751,4.178,10.02,6.111
		c-0.732,1.933-13.68,0.576-13.68,0.576s-3.438,7.12-5.988,7.028c-2.549-0.09-6.264-7.563-6.264-7.563s-12.792,0.149-13.723-1.765
		c-0.929-1.913,9.806-5.246,9.806-5.246S-18.819,55.466-16.206,54.455z"/>
	
		<line fill="none" stroke="#030332" stroke-width="2.4055" stroke-linecap="round" stroke-linejoin="round" stroke-miterlimit="10" x1="-4.333" y1="64.434" x2="-7.83" y2="61.499"/>
	
		<line fill="none" stroke="#030332" stroke-width="2.4055" stroke-linecap="round" stroke-linejoin="round" stroke-miterlimit="10" x1="-4.333" y1="64.434" x2="-0.31" y2="62.133"/>
	
		<line fill="none" stroke="#030332" stroke-width="2.4055" stroke-linecap="round" stroke-linejoin="round" stroke-miterlimit="10" x1="-4.333" y1="64.434" x2="-9.573" y2="65.714"/>
	
		<line fill="none" stroke="#030332" stroke-width="2.4055" stroke-linecap="round" stroke-linejoin="round" stroke-miterlimit="10" x1="-4.333" y1="64.434" x2="1.195" y2="65.85"/>
	
		<line fill="none" stroke="#030332" stroke-width="2.4055" stroke-linecap="round" stroke-linejoin="round" stroke-miterlimit="10" x1="-4.333" y1="64.434" x2="-4.065" y2="67.886"/>
	
		<line fill="none" stroke="#030332" stroke-width="2.4055" stroke-linecap="round" stroke-linejoin="round" stroke-miterlimit="10" x1="-15.324" y1="66.701" x2="-14.96" y2="66.614"/>
	
		<line fill="none" stroke="#030332" stroke-width="2.4055" stroke-linecap="round" stroke-linejoin="round" stroke-miterlimit="10" x1="-11.782" y1="58.18" x2="-11.395" y2="58.505"/>
	
		<line fill="none" stroke="#030332" stroke-width="2.4055" stroke-linecap="round" stroke-linejoin="round" stroke-miterlimit="10" x1="2.903" y1="59.706" x2="3.312" y2="59.334"/>
	
		<line fill="none" stroke="#030332" stroke-width="2.4055" stroke-linecap="round" stroke-linejoin="round" stroke-miterlimit="10" x1="6.305" y1="67.371" x2="6.603" y2="67.439"/>
	
		<line fill="none" stroke="#030332" stroke-width="2.4055" stroke-linecap="round" stroke-linejoin="round" stroke-miterlimit="10" x1="-3.453" y1="70.851" x2="-3.555" y2="71.274"/>
</g>
<g>
	<g>
		<path fill="#E3FFF7" d="M144.309,99.771c-3.176,0-5.369-1.304-5.866-3.49c-0.46-2.024,0.798-3.33,2.272-4.254
			c-0.099-0.132-0.164-0.275-0.199-0.427c-0.073-0.316,0.004-0.646,0.212-0.928c0.626-0.851,2.518-1.284,4.077-1.412
			c0.369-0.025,0.73-0.042,1.074-0.042c1.063,0,3.562,0.141,3.858,1.446c0.031,0.139,0.046,0.329-0.016,0.543
			c1.824,0.631,3.654,1.652,4.108,3.653c0.218,0.963,0.047,1.859-0.493,2.596c-0.826,1.122-2.494,1.834-4.697,2.01l-3.385,0.269
			C144.937,99.758,144.62,99.771,144.309,99.771L144.309,99.771z"/>
		<path fill="#030332" d="M145.878,89.917c1.712,0,3.054,0.359,3.176,0.903c0.058,0.251-0.16,0.509-0.571,0.733
			c2.395,0.683,4.244,1.616,4.663,3.461c0.512,2.252-1.623,3.519-4.561,3.753l-3.385,0.268c-0.302,0.023-0.599,0.035-0.892,0.035
			c-2.561,0-4.724-0.923-5.184-2.943c-0.419-1.85,0.948-3.036,2.954-4.064c-0.5-0.158-0.824-0.368-0.881-0.622
			c-0.148-0.646,1.492-1.312,3.661-1.482C145.21,89.933,145.551,89.917,145.878,89.917 M145.878,88.518
			c-0.37,0-0.751,0.015-1.129,0.045c-1.067,0.084-3.65,0.42-4.588,1.694c-0.33,0.451-0.448,0.979-0.33,1.496
			c0,0.005,0.001,0.008,0.001,0.012c-1.279,0.92-2.589,2.41-2.075,4.673c0.574,2.526,3.022,4.035,6.551,4.035
			c0.328,0,0.665-0.013,1.002-0.039l3.385-0.268c2.408-0.19,4.257-1.008,5.205-2.293c0.666-0.905,0.878-1.999,0.612-3.167
			c-0.481-2.125-2.225-3.266-4.055-3.976c-0.009-0.085-0.021-0.16-0.036-0.22C150.048,88.861,147.745,88.518,145.878,88.518
			L145.878,88.518z"/>
	</g>
	
		<line fill="none" stroke="#030332" stroke-width="1.4011" stroke-linecap="round" stroke-linejoin="round" stroke-miterlimit="10" x1="146.543" y1="97.36" x2="146.949" y2="99.147"/>
	
		<line fill="none" stroke="#030332" stroke-width="1.4011" stroke-linecap="round" stroke-linejoin="round" stroke-miterlimit="10" x1="143.536" y1="97.85" x2="143.146" y2="99.198"/>
	
		<line fill="none" stroke="#030332" stroke-width="1.4011" stroke-linecap="round" stroke-linejoin="round" stroke-miterlimit="10" x1="149.662" y1="97.364" x2="150.64" y2="98.605"/>
</g>
<g>
	<g>
		<path fill="#E6EEFF" d="M-154.843,176.275c-6.309,0-10.794-2.1-12.302-5.758c-1.541-3.754,1.147-6.225,3.555-7.688
			c-0.139-0.168-0.249-0.348-0.331-0.547c-0.237-0.578-0.179-1.195,0.155-1.753c1.253-2.057,6.65-2.667,8.272-2.806
			c0.936-0.082,1.868-0.122,2.774-0.122c3.019,0,6.775,0.397,7.551,2.288c0.072,0.172,0.186,0.535,0.118,0.982
			c4.084,1.037,8.007,2.691,9.434,6.158c0.835,2.03,0.34,3.555-0.224,4.479c-1.352,2.209-4.741,3.649-9.549,4.059l-7.017,0.594
			C-153.225,176.239-154.044,176.275-154.843,176.275L-154.843,176.275z"/>
		<path fill="#030332" d="M-152.715,158.94c3.325,0,5.95,0.563,6.314,1.459c0.183,0.438-0.214,0.89-1.022,1.304
			c5.168,1.088,9.257,2.643,10.574,5.851c1.605,3.896-2.563,6.188-8.647,6.694l-7.02,0.594c-0.783,0.072-1.561,0.104-2.324,0.104
			c-5.161,0-9.669-1.539-11.068-4.932c-1.316-3.201,1.262-5.321,5.21-7.188c-1.079-0.25-1.805-0.606-1.987-1.045
			c-0.46-1.119,2.809-2.337,7.31-2.717C-154.459,158.979-153.563,158.94-152.715,158.94 M-152.715,156.276
			c-0.942,0-1.916,0.037-2.885,0.122c-3.467,0.296-7.891,1.135-9.298,3.436c-0.475,0.781-0.612,1.685-0.393,2.528
			c-2.449,1.757-4.77,4.563-3.084,8.657c1.723,4.193,6.653,6.586,13.534,6.586c0.833,0,1.694-0.034,2.554-0.107l7.013-0.596
			c3.712-0.314,8.554-1.384,10.578-4.697c0.72-1.188,1.365-3.136,0.315-5.68c-1.523-3.707-5.329-5.553-9.405-6.701
			c-0.04-0.162-0.09-0.31-0.15-0.459C-144.248,158.613-145.208,156.276-152.715,156.276L-152.715,156.276z"/>
	</g>
	
		<line fill="none" stroke="#030332" stroke-width="2.6676" stroke-linecap="round" stroke-linejoin="round" stroke-miterlimit="10" x1="-150.103" y1="171.875" x2="-148.831" y2="174.974"/>
	
		<line fill="none" stroke="#030332" stroke-width="2.6676" stroke-linecap="round" stroke-linejoin="round" stroke-miterlimit="10" x1="-156.273" y1="172.836" x2="-156.769" y2="175.203"/>
	
		<line fill="none" stroke="#030332" stroke-width="2.6676" stroke-linecap="round" stroke-linejoin="round" stroke-miterlimit="10" x1="-143.582" y1="171.763" x2="-141.236" y2="173.885"/>
</g>
<g>
	<g>
		<path fill="#FFEAD4" d="M-174.393,155.967c-0.696,0-1.406-0.032-2.123-0.084l-7.861-0.592c-5.065-0.379-8.825-1.973-10.588-4.486
			c-1.139-1.623-1.429-3.592-0.84-5.701c1.256-4.512,5.543-6.742,10.039-8.186c-0.211-0.545-0.163-1.035-0.067-1.367
			c0.764-2.746,6.44-3.041,8.846-3.041c0.788,0,1.599,0.027,2.408,0.09c3.579,0.271,7.876,1.23,9.198,3.115
			c0.419,0.595,0.546,1.276,0.365,1.924c-0.108,0.395-0.32,0.753-0.635,1.066c3.374,2.068,6.253,4.993,4.978,9.571
			C-162.007,153.094-167.14,155.967-174.393,155.967L-174.393,155.967z"/>
		<path fill="#030332" d="M-176.983,133.845c0.748,0,1.521,0.03,2.307,0.084c5.036,0.381,8.791,1.884,8.384,3.353
			c-0.163,0.579-0.936,1.059-2.12,1.416c4.574,2.322,7.636,5.022,6.466,9.223c-1.287,4.604-6.452,6.713-12.445,6.713
			c-0.665,0-1.339-0.024-2.021-0.078l-7.864-0.59c-6.822-0.516-11.667-3.383-10.243-8.502c1.169-4.201,5.581-6.336,11.231-7.89
			c-0.935-0.518-1.418-1.096-1.26-1.668C-184.2,134.668-181,133.845-176.983,133.845 M-176.983,131.179
			c-4.112,0-9.2,0.69-10.128,4.012c-0.052,0.181-0.112,0.469-0.119,0.825c-4.315,1.543-8.542,4.029-9.857,8.734
			c-0.696,2.506-0.339,4.862,1.034,6.821c1.997,2.849,6.112,4.642,11.578,5.054l7.863,0.594c0.75,0.056,1.496,0.084,2.225,0.084
			c7.888,0,13.5-3.24,15.013-8.666c1.402-5.041-1.574-8.34-4.438-10.35c0.034-0.095,0.067-0.195,0.091-0.289
			c0.291-1.039,0.092-2.121-0.558-3.052c-1.945-2.769-7.777-3.495-10.193-3.674C-175.316,131.209-176.163,131.179-176.983,131.179
			L-176.983,131.179z"/>
	</g>
	
		<line fill="none" stroke="#030332" stroke-width="2.6676" stroke-linecap="round" stroke-linejoin="round" stroke-miterlimit="10" x1="-179.365" y1="150.758" x2="-180.501" y2="154.819"/>
	
		<line fill="none" stroke="#030332" stroke-width="2.6676" stroke-linecap="round" stroke-linejoin="round" stroke-miterlimit="10" x1="-186.635" y1="150.783" x2="-189.044" y2="153.606"/>
	
		<line fill="none" stroke="#030332" stroke-width="2.6676" stroke-linecap="round" stroke-linejoin="round" stroke-miterlimit="10" x1="-172.414" y1="151.854" x2="-171.641" y2="154.918"/>
</g>
<g>
	<rect x="-2290.542" y="45.137" fill="#030332" width="5252.577" height="6.671"/>
</g>
<g>
	<g>
		<path fill="#F4F7F9" d="M-206.717,272.774c-0.729,0-1.384-0.45-1.649-1.123c-0.271-0.682-0.097-1.452,0.436-1.95l158.524-148.794
			c0.328-0.309,0.763-0.481,1.212-0.481h332.868c0.723,0,1.379,0.443,1.648,1.115c0.267,0.67,0.099,1.44-0.421,1.942
			L130.929,272.275c-0.328,0.318-0.771,0.499-1.226,0.499H-206.717L-206.717,272.774z"/>
		<path fill="#030332" d="M284.675,122.207L129.704,270.998h-336.421l158.523-148.799h332.868 M284.675,118.651H-48.193
			c-0.901,0-1.771,0.347-2.431,0.966L-209.148,268.41c-1.062,0.995-1.406,2.537-0.868,3.894c0.535,1.356,1.844,2.245,3.302,2.245
			h336.418c0.918,0,1.801-0.354,2.459-0.99l154.973-148.793c1.049-1.001,1.374-2.542,0.832-3.891
			C287.43,119.532,286.128,118.651,284.675,118.651L284.675,118.651z"/>
	</g>
	<g>
		<polygon fill="#2CA6DC" points="-206.717,270.994 -139.544,270.994 18.981,122.207 -48.193,122.207 		"/>
		<polygon fill="#2CA6DC" points="-4.921,270.994 153.601,122.207 86.427,122.207 -72.096,270.994 		"/>
		<polygon fill="#2CA6DC" points="129.704,270.994 284.675,122.207 221.052,122.207 62.526,270.994 		"/>
	</g>
</g>
<g>
	<g>
		
			<path fill="#97ABB0" stroke="#030332" stroke-width="2.4314" stroke-linecap="round" stroke-linejoin="round" stroke-miterlimit="10" d="
			M120.059-124.076C53.517-121.006-6.632-30.981-17.772-14.425c11.166-12.566,44.932-4.66,82.471,12.371
			c37.536,17.034,65.723,37.233,63.626,53.915C133.439,32.575,161.57-71.979,120.059-124.076z"/>
		
			<path fill="#008EB0" stroke="#030332" stroke-width="2.4314" stroke-linecap="round" stroke-linejoin="round" stroke-miterlimit="10" d="
			M120.059-124.076c41.514,52.097,13.383,156.651,8.26,175.937c-0.174,1.387,0.464,0.5-0.104,1.758
			c6.518-14.369,36.465-11.044,66.028-1.357c14.528,4.756,51.99,19.778,45.474,34.147C273.095,12.831,217.38-79.922,120.059-124.076
			z"/>
		
			<path fill="#008EB0" stroke="#030332" stroke-width="2.4314" stroke-linecap="round" stroke-linejoin="round" stroke-miterlimit="10" d="
			M120.059-124.076C53.517-121.006-6.632-30.981-17.772-14.425c-0.93,1.042-0.684-0.021-1.254,1.236
			c6.522-14.37-15.705-34.715-42.462-50.587c-13.151-7.8-49.125-26.096-55.645-11.728
			C-83.752-149.076,22.741-168.231,120.059-124.076z"/>
	</g>
	
		<rect x="61.247" y="-169.052" transform="matrix(0.9106 0.4132 -0.4132 0.9106 5.2881 -26.6635)" fill="#030332" stroke="#030332" stroke-width="2.4314" stroke-linecap="round" stroke-linejoin="round" stroke-miterlimit="10" width="6.078" height="335.892"/>
	<g>
		<path fill="#4162A3" d="M0.036-53.688c-0.927,1.045-1.683,2.192-2.256,3.451C-2.22-50.235-1.44-51.491,0.036-53.688z"/>
		<path fill="#4162A3" d="M145.021,16.57c0.57-1.256,0.938-2.583,1.111-3.97C145.453,15.159,145.021,16.57,145.021,16.57z"/>
		
			<path fill="#FAFFFF" stroke="#030332" stroke-width="2.4314" stroke-linecap="round" stroke-linejoin="round" stroke-miterlimit="10" d="
			M126.15-137.504C59.608-134.433,11.179-70.243,0.036-53.687c11.169-12.563,49.622-14.989,87.159,2.042
			c37.541,17.034,61.041,47.566,58.941,64.244C151.254-6.686,167.666-85.407,126.15-137.504z"/>
		
			<path fill="#5BBEFF" stroke="#030332" stroke-width="2.4314" stroke-linecap="round" stroke-linejoin="round" stroke-miterlimit="10" d="
			M126.15-137.504c41.515,52.097,25.105,130.818,19.982,150.103c-0.174,1.387,0.461,0.5-0.107,1.758
			c6.521-14.369,31.422-8.218,59.751,4.639c28.329,12.851,44.876,43.306,38.357,57.676C277.517,3.091,223.471-93.349,126.15-137.504
			z"/>
		
			<path fill="#5BBEFF" stroke="#030332" stroke-width="2.4314" stroke-linecap="round" stroke-linejoin="round" stroke-miterlimit="10" d="
			M126.15-137.504c-97.317-44.154-205.485-21.311-238.866,52.265c6.519-14.368,40.334-21.971,68.662-9.12
			C-15.722-81.505,5.303-66.818-1.216-52.45c0.571-1.253,0.322-0.191,1.252-1.234C11.179-70.243,59.608-134.433,126.15-137.504z"/>
	</g>
</g>
<g>
	<path fill="#030332" d="M127.872,217.502l-46.806-4l-46.8,4c0,0-6.352,26.676,9.984,26.676c16.334,0,36.815,0,36.815,0
		s20.476,0,36.816,0C134.22,244.179,127.872,217.502,127.872,217.502z"/>
	
		<path fill="#1F1F26" stroke="#030332" stroke-width="4.0014" stroke-linecap="round" stroke-linejoin="round" stroke-miterlimit="10" d="
		M130.554,229.594v-82.227c0-19.75-29.342-35.752-49.084-35.752s-49.088,16.002-49.088,35.752v82.227H130.554z"/>
	
		<path fill="#FFD000" stroke="#030332" stroke-width="4.1446" stroke-linecap="round" stroke-linejoin="round" stroke-miterlimit="10" d="
		M86.524,97.793h-13.58c-2.369,0-4.291,1.795-4.291,4.002v16.683c0,6.118,4.959,11.084,11.08,11.084
		c6.126,0,11.09-4.966,11.09-11.084v-16.683C90.813,99.588,88.896,97.793,86.524,97.793z"/>
	<g>
		
			<path fill="#1C0A00" stroke="#030332" stroke-width="4.0014" stroke-linecap="round" stroke-linejoin="round" stroke-miterlimit="10" d="
			M92.147,91.86c0,0,38.896-14.33,40.26,29.343C132.409,121.203,115.69,95.273,92.147,91.86z"/>
		
			<circle fill="#FFD000" stroke="#030332" stroke-width="4.0014" stroke-linecap="round" stroke-linejoin="round" stroke-miterlimit="10" cx="32.034" cy="77.544" r="12.792"/>
		
			<circle fill="#FFD000" stroke="#030332" stroke-width="4.0014" stroke-linecap="round" stroke-linejoin="round" stroke-miterlimit="10" cx="119.62" cy="77.544" r="12.792"/>
		<g>
			<path fill="#FFD000" d="M76.169,115.672c-23.965,0-43.467-19.494-43.467-43.465c0-23.973,19.5-43.474,43.467-43.474
				c23.972,0,43.472,19.498,43.472,43.474C119.639,96.176,100.14,115.672,76.169,115.672z"/>
			<path fill="#030332" d="M76.169,30.737c22.869,0,41.473,18.601,41.473,41.468c0,22.87-18.605,41.469-41.473,41.469
				S34.702,95.075,34.702,72.205C34.699,49.341,53.298,30.737,76.169,30.737 M76.169,26.735c-25.111,0-45.467,20.357-45.467,45.472
				c0,25.111,20.355,45.473,45.467,45.473c25.114,0,45.475-20.358,45.475-45.473C121.638,47.092,101.283,26.735,76.169,26.735
				L76.169,26.735z"/>
		</g>
		
			<line fill="none" stroke="#030332" stroke-width="4.0014" stroke-linecap="round" stroke-miterlimit="10" x1="78.181" y1="92.41" x2="71.491" y2="92.41"/>
		<g>
			<g>
				<path fill="#1C0A00" d="M117.862,70.316c-11.938,0-41.506-2.613-58.171-26.829c-0.374-0.544-0.995-0.865-1.646-0.865
					c-0.051,0-0.108,0.004-0.162,0.007c-0.717,0.059-1.344,0.494-1.646,1.142c-4.404,9.368-14.881,11.239-20.143,11.572
					c6.74-16.029,22.5-26.604,40.076-26.604c23.33,0,42.428,18.476,43.431,41.561C119.106,70.307,118.526,70.316,117.862,70.316
					L117.862,70.316z"/>
				<path fill="#030332" d="M76.169,30.737c21.556,0,39.317,16.531,41.29,37.58c-9.556-0.058-39.778-2.22-56.12-25.968
					c-0.75-1.091-1.985-1.731-3.297-1.731c-0.108,0-0.217,0.005-0.322,0.013c-1.428,0.118-2.69,0.99-3.295,2.287
					c-3.155,6.71-9.916,9.157-14.988,10.028C46.507,39.45,60.589,30.737,76.169,30.737 M76.169,26.735
					c-19.926,0-36.854,12.815-42.996,30.65c0,0,0.33,0.021,0.918,0.021c3.795,0,18.322-0.805,23.955-12.788
					c17.478,25.402,48.99,27.701,59.824,27.701c2.396,0,3.772-0.112,3.772-0.112C121.638,47.092,101.283,26.735,76.169,26.735
					L76.169,26.735z"/>
			</g>
		</g>
		<g>
			
				<circle fill="#E2FFFF" stroke="#030332" stroke-width="4.3877" stroke-linecap="round" stroke-miterlimit="10" cx="52.851" cy="76.574" r="15.758"/>
			<circle fill="#E2FFFF" stroke="#030332" stroke-width="4.3877" stroke-miterlimit="10" cx="95.896" cy="76.573" r="15.755"/>
			
				<line fill="none" stroke="#030332" stroke-width="4.3877" stroke-miterlimit="10" x1="68.609" y1="76.572" x2="81.066" y2="76.572"/>
		</g>
	</g>
	<g>
		<path fill="#030332" stroke="#030332" stroke-width="4.0014" stroke-miterlimit="10" d="M1.206,170.637
			c-6.547,6.55-6.547,17.169,0,23.72L43.452,236.6c6.545,6.548,17.162,6.548,23.717,0c6.545-6.551,6.545-17.168,0-23.719
			l-42.248-42.244C18.37,164.088,7.755,164.088,1.206,170.637z"/>
		<path fill="#030332" stroke="#030332" stroke-width="4.0014" stroke-miterlimit="10" d="M24.806,170.637
			c6.545,6.55,6.545,17.169,0,23.72L-17.44,236.6c-6.546,6.548-17.168,6.548-23.717,0c-6.549-6.551-6.549-17.168,0-23.719
			l42.246-42.244C7.634,164.088,18.255,164.088,24.806,170.637z"/>
		
			<path fill="#260C0C" stroke="#030332" stroke-width="4.0014" stroke-linecap="round" stroke-linejoin="round" stroke-miterlimit="10" d="
			M-28.247,241.512h-35.638c0,0-2.096-20.264,17.814-20.264c19.915,0,17.821,0,17.821,0v20.264H-28.247z"/>
	</g>
	<g>
		<path fill="#030332" stroke="#030332" stroke-width="4.0014" stroke-miterlimit="10" d="M47.927,170.638
			c-6.549,6.549-6.549,17.168,0,23.719L90.173,236.6c6.543,6.548,17.166,6.548,23.715,0c6.544-6.551,6.544-17.168,0-23.719
			l-42.249-42.243C65.093,164.088,54.477,164.088,47.927,170.638z"/>
		<path fill="#030332" stroke="#030332" stroke-width="4.0014" stroke-miterlimit="10" d="M72.177,170.638
			c6.546,6.549,6.546,17.168,0,23.719L29.933,236.6c-6.549,6.548-17.168,6.548-23.719,0c-6.549-6.551-6.549-17.168,0-23.719
			l42.244-42.243C55.011,164.088,65.626,164.088,72.177,170.638z"/>
		
			<path fill="#260C0C" stroke="#030332" stroke-width="4.0014" stroke-linecap="round" stroke-linejoin="round" stroke-miterlimit="10" d="
			M19.122,241.512h-35.635c0,0-2.096-20.264,17.814-20.264c19.918,0,17.816,0,17.816,0L19.122,241.512L19.122,241.512z"/>
	</g>
	<g>
		
			<path fill="#FFD000" stroke="#030332" stroke-width="4.0014" stroke-linecap="round" stroke-linejoin="round" stroke-miterlimit="10" d="
			M130.154,234.135h-0.126v-82.08h-23.117v81.974c-3.979,0.028-12.742,1.472-12.742,13.665h13.779c0,0,8.896,0,16.232,0
			c7.334,0,5.848-8.441,5.848-8.441L130.154,234.135z"/>
		
			<path fill="none" stroke="#030332" stroke-width="1.3338" stroke-linecap="round" stroke-linejoin="round" stroke-miterlimit="10" d="
			M105.284,240.358c0,0-7.365-1.948-7.365,7.365"/>
		
			<path fill="none" stroke="#030332" stroke-width="1.3338" stroke-linecap="round" stroke-linejoin="round" stroke-miterlimit="10" d="
			M111.839,240.358c0,0-7.359-1.948-7.359,7.365"/>
		
			<path fill="none" stroke="#030332" stroke-width="1.3338" stroke-linecap="round" stroke-linejoin="round" stroke-miterlimit="10" d="
			M118.47,240.358c0,0-7.357-1.948-7.357,7.365"/>
	</g>
	<g>
		
			<path fill="#FFD000" stroke="#030332" stroke-width="3.9748" stroke-linecap="round" stroke-linejoin="round" stroke-miterlimit="10" d="
			M59.7,112.318c-0.466-0.471-0.932-0.933-1.402-1.408C59.169,111.731,59.7,112.318,59.7,112.318z"/>
		
			<path fill="#FFD000" stroke="#030332" stroke-width="3.9748" stroke-linecap="round" stroke-linejoin="round" stroke-miterlimit="10" d="
			M37.24,90.272l12.443,12.44c0.198,1.338-1.74,3.276-2.968,4.356c3.522-2.476,7.31,0.146,9.869,2.547
			c0.467,0.474,0.936,0.938,1.401,1.401c1.617,1.62,3.202,3.207,4.716,4.715c4.586,8.889-8.14,18.979-8.14,18.979L24.025,165.25
			c0,0-0.017,0.004-0.024,0.008c-4.453,4.361-11.597,4.332-16.012-0.084c-4.42-4.422-4.443-11.573-0.078-16.029c0,0,0-0.004,0-0.008
			l0.078-0.076l0,0l0,0l30.455-30.457c-1.107-1.109-2.249-2.253-3.458-3.461C20.03,100.17,37.24,90.272,37.24,90.272z"/>
	</g>
</g>
<g>
	<g>
		<path fill="#FFFFFF" stroke="#030332" stroke-width="2.7349" stroke-linejoin="round" stroke-miterlimit="10" d="M24.799,183.572
			v1.992c0,2.333,1.89,4.223,4.222,4.223h2.714c2.332,0,4.223-1.888,4.223-4.223v-1.992H24.799z"/>
		<path fill="#603813" stroke="#030332" stroke-width="0.9116" stroke-linejoin="round" stroke-miterlimit="10" d="M23.542,183.572
			c0-0.519,0.42-0.941,0.94-0.941H36.27c0.52,0,0.94,0.422,0.94,0.941l0,0c0,0.516-0.42,0.939-0.94,0.939H24.485
			C23.964,184.512,23.542,184.09,23.542,183.572L23.542,183.572z"/>
	</g>
	<g>
		<g>
			<g>
				<path fill="#A87C4F" d="M64.88,124.04c-0.157,0-0.317-0.032-0.47-0.089l-2.979-1.09c-0.708-0.258-1.071-1.042-0.812-1.753
					l9.419-25.716c0.202-0.555,0.725-0.897,1.282-0.897c0.157,0,0.318,0.025,0.47,0.085l2.979,1.088
					c0.342,0.124,0.62,0.382,0.773,0.705c0.152,0.33,0.169,0.708,0.043,1.046l-9.421,25.721c-0.123,0.339-0.379,0.616-0.71,0.77
					C65.275,123.993,65.079,124.04,64.88,124.04z"/>
				<path fill="#030332" d="M71.321,95.862l2.979,1.091l-9.421,25.719l-2.976-1.088L71.321,95.862 M71.321,93.125
					c-1.116,0-2.16,0.688-2.57,1.799l-9.416,25.717c-0.52,1.416,0.206,2.986,1.624,3.509l2.978,1.09
					c0.303,0.114,0.624,0.169,0.941,0.169c0.394,0,0.786-0.084,1.15-0.252c0.658-0.308,1.169-0.858,1.418-1.54l9.42-25.721
					c0.249-0.68,0.219-1.431-0.086-2.089c-0.307-0.659-0.859-1.169-1.541-1.419l-2.977-1.09
					C71.95,93.18,71.632,93.125,71.321,93.125L71.321,93.125z"/>
			</g>
			
				<line fill="none" stroke="#030332" stroke-width="0.4325" stroke-miterlimit="10" x1="73.297" y1="99.695" x2="68.833" y2="102.663"/>
			
				<line fill="none" stroke="#030332" stroke-width="0.4325" stroke-miterlimit="10" x1="71.811" y1="103.755" x2="67.344" y2="106.722"/>
			
				<line fill="none" stroke="#030332" stroke-width="0.4325" stroke-miterlimit="10" x1="70.323" y1="107.814" x2="65.856" y2="110.786"/>
			
				<line fill="none" stroke="#030332" stroke-width="0.4325" stroke-miterlimit="10" x1="68.835" y1="111.874" x2="64.371" y2="114.845"/>
			
				<line fill="none" stroke="#030332" stroke-width="0.4325" stroke-miterlimit="10" x1="67.35" y1="115.938" x2="62.883" y2="118.907"/>
		</g>
		<g>
			
				<linearGradient id="SVGID_3_" gradientUnits="userSpaceOnUse" x1="1092.8545" y1="-612.9634" x2="1092.8545" y2="-679.8188" gradientTransform="matrix(1 0 0 -1 -1038.3008 -501.7998)">
				<stop  offset="0" style="stop-color:#FFFFFF;stop-opacity:0"/>
				<stop  offset="0.0407" style="stop-color:#F8FCFE;stop-opacity:0.0476"/>
				<stop  offset="0.2148" style="stop-color:#DDF2FD;stop-opacity:0.2514"/>
				<stop  offset="0.3926" style="stop-color:#CAEBFB;stop-opacity:0.4596"/>
				<stop  offset="0.575" style="stop-color:#BFE6FA;stop-opacity:0.6731"/>
				<stop  offset="0.7688" style="stop-color:#BBE5FA;stop-opacity:0.9"/>
				<stop  offset="1" style="stop-color:#BBE5FA"/>
			</linearGradient>
			<path fill="url(#SVGID_3_)" stroke="#030332" stroke-width="2.7349" stroke-miterlimit="10" d="M40.441,178.019
				c-0.073,0-0.135-0.058-0.14-0.134l-4.092-66.566c-0.002-0.041,0.014-0.077,0.04-0.11c0.024-0.027,0.063-0.045,0.101-0.045h36.414
				c0.035,0,0.072,0.018,0.099,0.045c0.025,0.031,0.039,0.069,0.036,0.11l-4.09,66.566c-0.006,0.076-0.063,0.134-0.137,0.134H40.441
				z"/>
			
				<linearGradient id="SVGID_4_" gradientUnits="userSpaceOnUse" x1="1092.8574" y1="-612.8179" x2="1092.8574" y2="-679.9624" gradientTransform="matrix(1 0 0 -1 -1038.3008 -501.7998)">
				<stop  offset="0" style="stop-color:#FFFFFF;stop-opacity:0"/>
				<stop  offset="0.028" style="stop-color:#F6FCFE;stop-opacity:0.028"/>
				<stop  offset="0.1134" style="stop-color:#E0F3FD;stop-opacity:0.1134"/>
				<stop  offset="0.2142" style="stop-color:#CFEDFC;stop-opacity:0.2142"/>
				<stop  offset="0.339" style="stop-color:#C4E8FB;stop-opacity:0.339"/>
				<stop  offset="0.514" style="stop-color:#BDE6FA;stop-opacity:0.514"/>
				<stop  offset="1" style="stop-color:#BBE5FA"/>
			</linearGradient>
			<path fill="url(#SVGID_4_)" stroke="#030332" stroke-width="2.7349" stroke-miterlimit="10" d="M72.764,111.304l-4.094,66.572
				H40.441l-4.091-66.572H72.764 M72.764,111.018H36.351c-0.078,0-0.151,0.034-0.202,0.091c-0.056,0.061-0.08,0.137-0.074,0.215
				l4.09,66.572c0.011,0.146,0.129,0.267,0.276,0.267h28.23c0.146,0,0.267-0.12,0.276-0.267l4.09-66.572
				c0.008-0.077-0.019-0.154-0.072-0.215C72.914,111.052,72.839,111.018,72.764,111.018L72.764,111.018z"/>
		</g>
		<g opacity="0.95">
			<g>
				
					<linearGradient id="SVGID_5_" gradientUnits="userSpaceOnUse" x1="1092.8555" y1="-618.0874" x2="1092.8555" y2="-671.9194" gradientTransform="matrix(1 0 0 -1 -1038.3008 -501.7998)">
					<stop  offset="0" style="stop-color:#FFFFFF;stop-opacity:0.9"/>
					<stop  offset="0.0531" style="stop-color:#EDDED0;stop-opacity:0.9494"/>
					<stop  offset="0.1075" style="stop-color:#D8BA9C"/>
					<stop  offset="0.11" style="stop-color:#D6B89B"/>
					<stop  offset="0.1722" style="stop-color:#AE9077"/>
					<stop  offset="0.2043" style="stop-color:#9E816A"/>
					<stop  offset="0.245" style="stop-color:#846853"/>
					<stop  offset="0.298" style="stop-color:#694F3C"/>
					<stop  offset="0.3562" style="stop-color:#553B2A"/>
					<stop  offset="0.4214" style="stop-color:#462E1E"/>
					<stop  offset="0.4994" style="stop-color:#3E2516"/>
					<stop  offset="0.6237" style="stop-color:#3B2314"/>
					<stop  offset="1" style="stop-color:#260008"/>
				</linearGradient>
				<path fill="url(#SVGID_5_)" d="M44.186,170.119c-0.842,0-1.494-0.909-1.494-1.689l-3.475-51.436c0-0.637,0.411-0.707,1.35-0.707
					h27.979c0.937,0,1.348,0.07,1.348,0.716l-3.475,51.415c0,0.788-0.654,1.695-1.494,1.695L44.186,170.119L44.186,170.119z"/>
			</g>
		</g>
		<g>
			
				<linearGradient id="SVGID_6_" gradientUnits="userSpaceOnUse" x1="1098.9863" y1="-628.5732" x2="1098.9863" y2="-618.5361" gradientTransform="matrix(1 0 0 -1 -1038.3008 -501.7998)">
				<stop  offset="0" style="stop-color:#DEF1F8;stop-opacity:0.2"/>
				<stop  offset="0.8619" style="stop-color:#DEF1F8;stop-opacity:0.0276"/>
				<stop  offset="1" style="stop-color:#DEF1F8;stop-opacity:0"/>
			</linearGradient>
			
				<path opacity="0.9" fill="url(#SVGID_6_)" stroke="#C3996B" stroke-width="0.9116" stroke-miterlimit="10" enable-background="new    " d="
				M56.183,124.219l5.273,2.476c0.426,0.197,0.931,0.016,1.129-0.41l3.009-5.562c0.199-0.422,0.02-0.932-0.409-1.125l-5.931-2.78
				c-0.424-0.198-0.93-0.02-1.131,0.406l-2.347,5.867C55.577,123.515,55.76,124.021,56.183,124.219z"/>
			
				<linearGradient id="SVGID_7_" gradientUnits="userSpaceOnUse" x1="1092.8574" y1="-651.2578" x2="1092.8574" y2="-618.9644" gradientTransform="matrix(1 0 0 -1 -1038.3008 -501.7998)">
				<stop  offset="0" style="stop-color:#DEF1F8;stop-opacity:0.2"/>
				<stop  offset="0.8619" style="stop-color:#DEF1F8;stop-opacity:0.0276"/>
				<stop  offset="1" style="stop-color:#DEF1F8;stop-opacity:0"/>
			</linearGradient>
			
				<path opacity="0.9" fill="url(#SVGID_7_)" stroke="#C3996B" stroke-width="0.9116" stroke-miterlimit="10" enable-background="new    " d="
				M67.675,130.049l-5.644-2.84c-0.404-0.231-0.927-0.095-1.158,0.311l-2.439,4.225l1.088-3.968c0.098-0.462-0.194-0.909-0.65-1.009
				l-6.41-1.367c-0.458-0.094-0.911,0.198-1.006,0.657l-0.66,4.28l-2.657-4.604l2.343-0.927c0.439-0.171,0.656-0.663,0.479-1.101
				l-1.975-6.006c-0.171-0.435-0.665-0.646-1.103-0.477l-6.094,2.408c-0.438,0.17-0.651,0.663-0.478,1.101l2.654,5.733
				c0.029,0.088,0.08,0.157,0.134,0.225l-2.668,1.751c-0.406,0.236-0.544,0.754-0.311,1.159l2.737,4.741l-0.448-0.025
				c-0.467-0.055-0.887,0.279-0.94,0.745l-0.663,5.786c-0.057,0.468,0.279,0.886,0.745,0.939l6.226,1.085
				c0.467,0.055,0.887-0.281,0.941-0.744l0.747-6.512c0.054-0.467-0.282-0.887-0.747-0.938l-3.567-0.207l4.343-2.184l-0.003,0.015
				c-0.098,0.458,0.195,0.907,0.654,1.005l5.695,1.215c0.462,0.097,0.91-0.194,1.008-0.654l0.121-0.438
				c0.072,0.115,0.171,0.221,0.3,0.297l3.361,2.211l-4.127,1.723c-0.432,0.181-0.635,0.68-0.455,1.112l1.296,2.657l-5.378-0.927
				c-0.464-0.081-0.902,0.231-0.982,0.695l-0.711,6.28c-0.079,0.462,0.231,0.898,0.694,0.977l5.74,0.99
				c0.461,0.078,0.9-0.231,0.98-0.692l1.042-4.491l0.094,0.188c0.177,0.433,0.678,0.635,1.11,0.458l5.375-2.246
				c0.433-0.184,0.635-0.68,0.455-1.115l-1.797-5.102l3.021-5.238C68.223,130.801,68.084,130.28,67.675,130.049z"/>
		</g>
		
			<linearGradient id="SVGID_8_" gradientUnits="userSpaceOnUse" x1="1089.1074" y1="-657.1724" x2="1089.1074" y2="-658.9907" gradientTransform="matrix(1 0 0 -1 -1038.3008 -501.7998)">
			<stop  offset="0" style="stop-color:#FFFFFF;stop-opacity:0.3"/>
			<stop  offset="0.0529" style="stop-color:#F8FCFE;stop-opacity:0.3053"/>
			<stop  offset="0.2793" style="stop-color:#DDF2FD;stop-opacity:0.3279"/>
			<stop  offset="0.5107" style="stop-color:#CAEBFB;stop-opacity:0.3511"/>
			<stop  offset="0.7479" style="stop-color:#BFE6FA;stop-opacity:0.3748"/>
			<stop  offset="1" style="stop-color:#BBE5FA;stop-opacity:0.4"/>
		</linearGradient>
		<circle fill="url(#SVGID_8_)" cx="50.807" cy="156.281" r="0.909"/>
		
			<linearGradient id="SVGID_9_" gradientUnits="userSpaceOnUse" x1="1094.3145" y1="-664.4106" x2="1094.3145" y2="-668.0483" gradientTransform="matrix(1 0 0 -1 -1038.3008 -501.7998)">
			<stop  offset="0" style="stop-color:#FFFFFF;stop-opacity:0.3"/>
			<stop  offset="0.0529" style="stop-color:#F8FCFE;stop-opacity:0.3053"/>
			<stop  offset="0.2793" style="stop-color:#DDF2FD;stop-opacity:0.3279"/>
			<stop  offset="0.5107" style="stop-color:#CAEBFB;stop-opacity:0.3511"/>
			<stop  offset="0.7479" style="stop-color:#BFE6FA;stop-opacity:0.3748"/>
			<stop  offset="1" style="stop-color:#BBE5FA;stop-opacity:0.4"/>
		</linearGradient>
		<circle fill="url(#SVGID_9_)" cx="56.015" cy="164.429" r="1.819"/>
		
			<linearGradient id="SVGID_10_" gradientUnits="userSpaceOnUse" x1="1096.1309" y1="-653.8647" x2="1096.1309" y2="-656.2827" gradientTransform="matrix(1 0 0 -1 -1038.3008 -501.7998)">
			<stop  offset="0" style="stop-color:#FFFFFF;stop-opacity:0.3"/>
			<stop  offset="0.0529" style="stop-color:#F8FCFE;stop-opacity:0.3053"/>
			<stop  offset="0.2793" style="stop-color:#DDF2FD;stop-opacity:0.3279"/>
			<stop  offset="0.5107" style="stop-color:#CAEBFB;stop-opacity:0.3511"/>
			<stop  offset="0.7479" style="stop-color:#BFE6FA;stop-opacity:0.3748"/>
			<stop  offset="1" style="stop-color:#BBE5FA;stop-opacity:0.4"/>
		</linearGradient>
		<circle fill="url(#SVGID_10_)" cx="57.832" cy="153.273" r="1.209"/>
		<circle fill="#FFFFFF" stroke="#231F20" stroke-width="0.4325" stroke-miterlimit="10" cx="43.062" cy="174.337" r="0.938"/>
		<circle fill="#FFFFFF" stroke="#231F20" stroke-width="0.4325" stroke-miterlimit="10" cx="45.728" cy="174.338" r="0.541"/>
		<circle fill="#FFFFFF" stroke="#231F20" stroke-width="0.4325" stroke-miterlimit="10" cx="65.477" cy="174.337" r="0.649"/>
	</g>
</g>
<g>
	<g>
		
			<path fill="#00753B" stroke="#030332" stroke-width="2.1084" stroke-linecap="round" stroke-linejoin="round" stroke-miterlimit="10" d="
			M190.297,7.019c-3.271-23.157,0.091-40.521,6.038-53.38c5.597-13.14,15.385-25.385,32.146-32.594
			c1.412-0.639,2.239-0.917,2.239-0.917l0,0l0,0c-3.439,4.109-6.595,8.338-9.484,12.612l-1.744-1.73l0.97,2.881
			c-2.373,3.572-4.566,7.173-6.594,10.765l-3.54-2.128l2.349,4.278c-0.452,0.828-0.9,1.654-1.332,2.479l-4.621-3.293l3.55,5.352
			c-0.417,0.82-0.829,1.637-1.23,2.452l-4.002-2.402l2.742,5c-0.485,1.021-0.956,2.041-1.416,3.049
			c-0.02,0.031-1.42,3.192-1.434,3.229c-1.001,2.306-1.993,4.713-2.964,7.202l-4.768-2.324l3.941,4.493
			c-0.333,0.894-0.67,1.799-0.997,2.715l-4.111-1.587l3.147,4.327c-1.559,4.51-3.025,9.279-4.37,14.289l-2.108-0.005l1.762,1.333
			c-1.403,5.383-2.651,11.05-3.697,16.99v0.002l0,0C190.768,10.095,190.555,8.991,190.297,7.019z"/>
		
			<path fill="#00753B" stroke="#030332" stroke-width="2.1084" stroke-linecap="round" stroke-linejoin="round" stroke-miterlimit="10" d="
			M194.207-7.541c-26.503,1.613-43.622,11.344-54.682,23.61c-11.521,11.835-20.108,29.558-19.984,56.104
			c-0.022,2.252,0.063,3.536,0.063,3.536l0,0l0,0c2.813-6.173,5.88-11.965,9.125-17.385l-2.683-2.074l3.557,0.624
			c2.733-4.468,5.582-8.674,8.493-12.639l-3.956-4.594l5.715,2.251c0.678-0.889,1.359-1.771,2.042-2.635l-5.724-5.854l7.438,3.715
			c0.687-0.838,1.375-1.666,2.061-2.481l-4.469-5.196l6.678,2.631c0.871-0.99,1.744-1.964,2.616-2.919
			c0.028-0.03,2.771-2.964,2.803-2.993c2.016-2.106,4.142-4.222,6.366-6.329l-4.749-6.344l6.696,4.533
			c0.808-0.74,1.623-1.479,2.455-2.219l-3.646-5.58l6.14,3.41c4.131-3.53,8.573-6.999,13.341-10.347l-0.994-3.087l2.263,2.207
			c5.146-3.542,10.658-6.942,16.568-10.114l0,0l0,0C197.74-7.707,196.451-7.707,194.207-7.541z"/>
		
			<path fill="#00753B" stroke="#030332" stroke-width="2.1084" stroke-linecap="round" stroke-linejoin="round" stroke-miterlimit="10" d="
			M204.088,0.747c-18.604-26.028-39.502-37.296-59.107-40.738c-19.461-4.195-43.058-1.616-70.092,15.496
			c-2.313,1.419-3.572,2.326-3.572,2.326l0,0l0,0c8.106-1.078,15.987-1.648,23.597-1.808l0.402-4.064l1.644,4.033
			c6.313-0.066,12.432,0.144,18.341,0.583l2.168-6.984l1.355,7.28c1.34,0.12,2.676,0.253,3.996,0.399l2.317-9.594l0.965,9.981
			c1.297,0.162,2.579,0.332,3.852,0.512l2.445-7.89l1.583,8.507c1.575,0.253,3.128,0.521,4.658,0.804
			c0.051,0.006,4.801,0.938,4.854,0.947c3.441,0.71,6.961,1.528,10.534,2.453l3.447-8.914l-0.343,9.739
			c1.27,0.348,2.547,0.71,3.833,1.09l3.365-7.295l0.444,8.456c6.248,1.959,12.634,4.278,19.105,7.006l2.52-2.999l-0.81,3.724
			c6.915,2.983,13.914,6.444,20.932,10.449l0,0l0,0C206.523,4.25,205.695,2.934,204.088,0.747z"/>
		
			<path fill="#00753B" stroke="#030332" stroke-width="2.1084" stroke-linecap="round" stroke-linejoin="round" stroke-miterlimit="10" d="
			M206.374-4.127c-34.486-16.655-62.898-16.493-85.464-8.843C98.062-6.202,74.763,10.051,56.188,43.543
			c-1.613,2.824-2.412,4.498-2.412,4.498l0,0h0.001c7.892-5.784,15.84-10.912,23.745-15.444l-1.916-4.503l4.043,3.294
			c6.586-3.697,13.141-6.99,19.596-9.919l-1.738-8.579l5.609,6.866c1.479-0.641,2.954-1.266,4.426-1.871l-3.074-11.403l6.743,9.927
			c1.451-0.575,2.9-1.132,4.336-1.671l-1.956-9.692l6.546,8.02c1.8-0.637,3.579-1.25,5.351-1.83c0.062-0.021,5.58-1.774,5.644-1.791
			c4.022-1.226,8.188-2.393,12.475-3.474l-1.502-11.34l5.229,10.427c1.534-0.364,3.091-0.717,4.655-1.058l-0.654-9.597l5.32,8.623
			c7.688-1.525,15.727-2.758,24.091-3.61l0.923-4.594l1.289,4.375c8.979-0.831,18.314-1.218,27.986-1.045h0.003l0,0
			C210.938-1.844,209.319-2.752,206.374-4.127z"/>
		
			<path fill="#00753B" stroke="#030332" stroke-width="2.1084" stroke-linecap="round" stroke-linejoin="round" stroke-miterlimit="10" d="
			M194.078-6.063c19.454-15.982,37.632-20.277,53.235-18.886c15.651,0.786,33.057,7.559,50.105,26.086
			c1.471,1.552,2.238,2.496,2.238,2.496l0,0l0,0c-5.941-2.474-11.808-4.515-17.564-6.19l0.531-3.173l-2.074,2.729
			c-4.781-1.339-9.476-2.429-14.055-3.299l-0.221-5.752l-2.52,5.252c-1.048-0.181-2.087-0.35-3.121-0.51l0.201-7.763l-2.771,7.386
			c-1.021-0.141-2.026-0.274-3.031-0.393l-0.249-6.497l-2.94,6.14c-1.249-0.128-2.481-0.244-3.703-0.341
			c-0.044-0.003-3.843-0.269-3.88-0.271c-2.767-0.16-5.605-0.261-8.509-0.288l-0.801-7.477l-1.729,7.475
			c-1.034,0.002-2.081,0.018-3.14,0.042l-1.068-6.23L226.95-9.19c-5.151,0.212-10.478,0.672-15.954,1.42l-1.298-2.788l-0.147,2.998
			c-5.869,0.856-11.888,2.057-18.038,3.667h-0.005l0,0C191.515-3.898,192.411-4.728,194.078-6.063z"/>
		
			<path fill="#00753B" stroke="#030332" stroke-width="2.1084" stroke-linecap="round" stroke-linejoin="round" stroke-miterlimit="10" d="
			M327.192-59.738c-34.848-14.08-62.657-12.085-84.262-3.139c-21.937,8.105-43.705,25.524-59.726,59.525
			c-1.39,2.864-2.07,4.559-2.07,4.559l0,0v0c7.357-6.176,14.809-11.708,22.254-16.661l-2.167-4.285l4.171,2.968
			c6.21-4.044,12.409-7.692,18.548-10.978l-2.256-8.292l5.931,6.362c1.41-0.726,2.816-1.433,4.21-2.12l-3.743-10.973l7.241,9.288
			c1.385-0.658,2.765-1.297,4.144-1.917l-2.547-9.363l6.931,7.432c1.72-0.736,3.427-1.45,5.121-2.136
			c0.055-0.022,5.347-2.097,5.407-2.121c3.864-1.46,7.862-2.868,11.988-4.203L264.171-56.8l5.795,9.874
			c1.476-0.458,2.973-0.9,4.486-1.336l-1.26-9.356l5.77,8.103c7.432-1.995,15.22-3.72,23.353-5.097l0.604-4.555l1.552,4.2
			c8.729-1.394,17.852-2.378,27.334-2.833l0,0l0,0C331.807-57.799,330.162-58.585,327.192-59.738z"/>
		
			<path fill="#00753B" stroke="#030332" stroke-width="2.1084" stroke-linecap="round" stroke-linejoin="round" stroke-miterlimit="10" d="
			M190.845-14.629c-0.372-17.048-6.183-28.285-13.782-35.694c-7.312-7.693-18.474-13.649-35.515-14.239
			c-1.446-0.069-2.271-0.046-2.271-0.046l0,0l0,0c3.891,1.959,7.532,4.074,10.933,6.294l1.397-1.67l-0.491,2.27
			c2.799,1.866,5.43,3.8,7.901,5.769l3.053-2.426l-1.591,3.613c0.553,0.458,1.102,0.917,1.639,1.378l3.903-3.527l-2.57,4.684
			c0.52,0.458,1.034,0.917,1.539,1.382l3.451-2.738l-1.856,4.218c0.614,0.588,1.215,1.17,1.806,1.754
			c0.023,0.019,1.829,1.856,1.853,1.873c1.302,1.35,2.605,2.766,3.901,4.248l4.195-2.892l-3.08,4.186
			c0.456,0.538,0.908,1.082,1.362,1.634l3.672-2.201l-2.345,3.857c2.161,2.741,4.277,5.682,6.303,8.827l2.014-0.563l-1.478,1.396
			c2.147,3.392,4.192,7.02,6.077,10.892l0,0l0,0C190.86-12.354,190.896-13.182,190.845-14.629z"/>
		
			<path fill="#00753B" stroke="#030332" stroke-width="2.1084" stroke-linecap="round" stroke-linejoin="round" stroke-miterlimit="10" d="
			M195.125-5.835c24.065-1.353,40.541,5.603,51.809,15.493c11.646,9.448,21.266,24.519,23.976,48.474
			c0.254,2.025,0.314,3.197,0.314,3.197l0,0v-0.006c-3.187-5.268-6.57-10.166-10.072-14.708l2.196-2.155l-3.143,0.939
			c-2.937-3.738-5.946-7.233-8.995-10.492l3.079-4.568l-4.915,2.638c-0.707-0.729-1.411-1.452-2.119-2.158l4.541-5.887l-6.316,4.141
			c-0.709-0.683-1.413-1.355-2.119-2.016l3.479-5.162l-5.741,3.083c-0.893-0.804-1.783-1.591-2.671-2.356
			c-0.026-0.023-2.817-2.376-2.845-2.4c-2.043-1.686-4.183-3.364-6.414-5.029l3.613-6.228l-5.561,4.799
			c-0.806-0.585-1.619-1.164-2.448-1.735l2.698-5.42l-5.178,3.727c-4.098-2.746-8.475-5.402-13.129-7.917l0.574-2.891l-1.808,2.231
			c-5.017-2.651-10.351-5.128-16.013-7.361v-0.001l0,0C191.919-5.609,193.084-5.747,195.125-5.835z"/>
		
			<path fill="#00753B" stroke="#030332" stroke-width="2.1084" stroke-linecap="round" stroke-linejoin="round" stroke-miterlimit="10" d="
			M189.577-3.381c-16.417,13.9-22.825,28.513-24.054,41.841c-1.742,13.271,1.274,28.939,14.224,46.116
			c1.075,1.472,1.758,2.262,1.758,2.262l0,0l0,0c-1.167-5.371-1.98-10.618-2.505-15.71l-2.742-0.047l2.61-1.324
			c-0.391-4.223-0.588-8.335-0.612-12.317l-4.802-1.07l4.805-1.309c0.009-0.905,0.021-1.805,0.051-2.699l-6.555-1.029l6.635-1.191
			c0.034-0.88,0.079-1.746,0.132-2.613l-5.422-1.208l5.611-1.528c0.083-1.067,0.178-2.121,0.284-3.164
			c0.006-0.033,0.365-3.268,0.369-3.304c0.288-2.345,0.645-4.743,1.069-7.193l-6.164-1.817l6.546-0.306
			c0.162-0.872,0.338-1.746,0.516-2.631l-5.07-1.853l5.641-0.766c0.972-4.291,2.174-8.699,3.646-13.185l-2.145-1.521l2.542,0.333
			c1.621-4.793,3.553-9.675,5.854-14.597l0,0l0,0C191.789-5.198,190.956-4.573,189.577-3.381z"/>
	</g>
	<g>
		
			<path fill="#573A1B" stroke="#030332" stroke-width="2.1084" stroke-linecap="round" stroke-linejoin="round" stroke-miterlimit="10" d="
			M188.682,190.232h24.301c0,0,27.553-141.619-1.17-176.368c-10.93-15.775-25.717-24.063-25.717-24.063l-4.767,3.278
			c0,0,33.251,21.404,32.294,53.828C212.822,59.215,213.782,90.02,188.682,190.232z"/>
		
			<line fill="none" stroke="#030332" stroke-width="2.1084" stroke-linecap="round" stroke-linejoin="round" stroke-miterlimit="10" x1="220.611" y1="58.446" x2="223.968" y2="58.446"/>
		
			<line fill="none" stroke="#030332" stroke-width="2.1084" stroke-linecap="round" stroke-linejoin="round" stroke-miterlimit="10" x1="217.205" y1="63.562" x2="224.26" y2="63.562"/>
		
			<line fill="none" stroke="#030332" stroke-width="2.1084" stroke-linecap="round" stroke-linejoin="round" stroke-miterlimit="10" x1="220.611" y1="67.96" x2="224.26" y2="67.96"/>
		
			<line fill="none" stroke="#030332" stroke-width="2.1084" stroke-linecap="round" stroke-linejoin="round" stroke-miterlimit="10" x1="208.566" y1="99.536" x2="212.249" y2="99.536"/>
		
			<line fill="none" stroke="#030332" stroke-width="2.1084" stroke-linecap="round" stroke-linejoin="round" stroke-miterlimit="10" x1="207.439" y1="103.81" x2="213.608" y2="103.81"/>
		
			<line fill="none" stroke="#030332" stroke-width="2.1084" stroke-linecap="round" stroke-linejoin="round" stroke-miterlimit="10" x1="214.324" y1="150.746" x2="219.26" y2="150.746"/>
		
			<line fill="none" stroke="#030332" stroke-width="2.1084" stroke-linecap="round" stroke-linejoin="round" stroke-miterlimit="10" x1="209.956" y1="155.545" x2="218.604" y2="155.545"/>
		
			<line fill="none" stroke="#030332" stroke-width="2.1084" stroke-linecap="round" stroke-linejoin="round" stroke-miterlimit="10" x1="212.514" y1="160.659" x2="217.31" y2="160.659"/>
	</g>
	<g>
		<path fill="#BF8B00" d="M164.06,57.317c-1.199,0-2.286-1.076-3.421-3.398c-0.021-0.042-0.038-0.086-0.057-0.129
			c-0.247-0.739-5.947-18.237,2.335-34.275c5.146-9.958,14.547-17.067,27.95-21.13c0.041-0.012,0.085-0.019,0.129-0.026
			c0.043-0.007,1.026-0.175,2.013-0.175c0.534,0,2.155,0,2.663,1.153c0.313,0.71,0.075,1.514-0.718,2.379
			c-0.153,0.167-0.354,0.281-0.573,0.325c-0.178,0.034-17.618,3.637-26.201,17.94c-5.59,9.318-6.284,21.111-2.061,35.052
			c0.067,0.22,0.06,0.457-0.021,0.674C165.825,56.451,165.125,57.317,164.06,57.317z"/>
		<path fill="#030332" d="M193.012-0.759c1.265,0,2.498,0.304,1.164,1.763c0,0-42.966,8.462-29.066,54.338
			c0,0-0.338,0.918-1.05,0.918c-0.576,0-1.397-0.605-2.475-2.806c0,0-13.711-40.939,29.587-54.058
			C191.172-0.603,192.1-0.759,193.012-0.759 M193.012-2.87L193.012-2.87c-1.059,0-2.079,0.171-2.192,0.19
			c-0.088,0.016-0.171,0.035-0.254,0.061c-13.686,4.146-23.305,11.432-28.577,21.653c-8.487,16.431-2.651,34.335-2.396,35.091
			c0.028,0.087,0.063,0.172,0.105,0.257c0.841,1.715,2.207,3.989,4.373,3.989c1.605,0,2.634-1.237,3.025-2.301
			c0.158-0.429,0.175-0.903,0.042-1.34c-4.134-13.639-3.479-25.142,1.945-34.19c8.328-13.901,25.342-17.438,25.511-17.469
			c0.443-0.088,0.847-0.317,1.148-0.647c1.365-1.501,1.246-2.741,0.903-3.513C196.116-2.27,194.898-2.87,193.012-2.87L193.012-2.87z
			"/>
	</g>
	<g>
		<path fill="#BF8B00" d="M190.042-0.629c-0.361,0-0.766-0.085-1.238-0.26c-0.212-0.075-0.393-0.221-0.518-0.412
			c-0.114-0.179-11.985-17.963-31.475-17.963c-9.179,0-18.685,3.904-28.246,11.613c-0.183,0.142-0.401,0.225-0.63,0.232
			c-0.003,0-0.003,0-0.005,0c-0.84,0-1.821-0.321-2.225-1.22c-0.657-1.474,0.734-3.276,1.842-4.512
			c0.029-0.035,0.064-0.063,0.102-0.095c0.516-0.445,12.864-10.836,29.196-10.836c12.532,0,23.808,6.108,33.511,18.159
			c0.029,0.034,0.056,0.073,0.077,0.112c0.848,1.367,1.725,3.241,1.087,4.376C191.233-0.924,190.691-0.629,190.042-0.629z"/>
		<path fill="#030332" d="M156.845-23.029c10.128,0,21.739,4.172,32.69,17.768c0,0,2.216,3.578,0.508,3.578
			c-0.221,0-0.508-0.059-0.872-0.196c0,0-12.042-18.438-32.357-18.438c-8.333,0-18.054,3.098-28.914,11.842c0,0-0.004,0-0.015,0
			c-0.26,0-3.038-0.088,0.444-3.976C128.33-12.448,140.714-23.029,156.845-23.029 M156.845-25.138
			c-16.716,0-29.354,10.636-29.885,11.086c-0.07,0.063-0.138,0.128-0.199,0.199c-1.299,1.45-2.923,3.613-2.02,5.641
			c0.609,1.367,2.021,1.853,3.142,1.853c0.019,0,0.061-0.002,0.08-0.002c0.462-0.013,0.903-0.179,1.262-0.462
			c9.371-7.553,18.655-11.38,27.589-11.38c18.955,0,30.476,17.311,30.593,17.486c0.247,0.377,0.607,0.668,1.031,0.823
			c0.595,0.224,1.118,0.328,1.605,0.328c1.031,0,1.925-0.506,2.396-1.351c0.71-1.271,0.331-3.101-1.11-5.446
			c-0.045-0.076-0.098-0.147-0.154-0.215C181.263-18.896,169.708-25.138,156.845-25.138L156.845-25.138z"/>
	</g>
	<g>
		<path fill="#BF8B00" d="M242.126,42.055c-0.979-0.002-1.678-0.748-1.812-0.898c-0.153-0.171-0.244-0.391-0.26-0.619
			C237.55,5.942,214.349,0.776,200.747,0.776c-3.64,0-6.042,0.407-6.069,0.412c-0.062,0.01-0.122,0.016-0.181,0.016
			c-0.164,0-0.327-0.036-0.475-0.112c-1.114-0.559-1.622-1.262-1.511-2.09c0.193-1.412,2.284-2.119,4.008-2.46
			c0.043-0.01,0.085-0.018,0.129-0.02c1.647-0.119,3.276-0.181,4.851-0.181c41.012,0,43.258,40.64,43.274,41.05
			c0.004,0.049,0.004,0.094,0,0.142C244.672,38.646,244.365,42.055,242.126,42.055L242.126,42.055z"/>
		<path fill="#030332" d="M201.498-2.605C241.972-2.6,243.72,37.434,243.72,37.434c-0.257,2.882-0.976,3.562-1.595,3.562
			c-0.55,0-1.021-0.539-1.021-0.539c-2.637-36.393-28.271-40.739-40.358-40.738c-3.793,0-6.252,0.427-6.252,0.427
			c-3.038-1.525,2.229-2.581,2.229-2.581C198.375-2.547,199.962-2.605,201.498-2.605 M201.498-4.714h-0.008
			c-1.597,0-3.248,0.063-4.916,0.183c-0.091,0.008-0.176,0.021-0.262,0.037c-2.992,0.596-4.625,1.729-4.843,3.355
			c-0.101,0.744,0.034,2.146,2.082,3.172c0.295,0.149,0.619,0.227,0.945,0.227c0.117,0,0.239-0.011,0.361-0.03
			c0.021-0.005,2.354-0.397,5.888-0.397C213.986,1.832,236.559,6.87,239,40.614c0.034,0.46,0.217,0.897,0.521,1.24
			c0.258,0.293,1.207,1.255,2.605,1.255c2.128,0,3.369-1.846,3.693-5.483c0.012-0.093,0.014-0.186,0.011-0.28
			c-0.021-0.429-0.522-10.619-6.19-20.943C234.351,6.771,223.438-4.709,201.498-4.714L201.498-4.714z"/>
	</g>
	<g>
		
			<path fill="#92C83E" stroke="#030332" stroke-width="2.1084" stroke-linecap="round" stroke-linejoin="round" stroke-miterlimit="10" d="
			M203.085-14.265c4.153-0.643,8.108,1.129,10.399,4.25c0.846,0.422,1.324,1.104,1.664,1.346c0.931,0.458,0.736,1.688,0.831,1.761
			c-0.037,0.309-0.029,0.647-0.018,0.732c0.725,0.511,0.603,1.41,0.644,1.414c0.305,1.699-1.513,4.291-1.88,4.792
			c-1.377,3.389-4.482,6.001-8.413,6.612c-4.904,0.758-9.542-1.854-11.472-6.082c-1.258-1.673-2.646-4.483-0.548-7.123
			C195.398-10.473,198.739-13.595,203.085-14.265z"/>
		
			<path fill="#92C83E" stroke="#030332" stroke-width="2.1084" stroke-linecap="round" stroke-linejoin="round" stroke-miterlimit="10" d="
			M194.049-6.224c0,0,3.652-2.283,8.369-2.592"/>
		
			<path fill="#92C83E" stroke="#030332" stroke-width="2.1084" stroke-linecap="round" stroke-linejoin="round" stroke-miterlimit="10" d="
			M215.967-6.177c0,0-3.453-1.885-5.473-1.605"/>
		
			<path fill="#92C83E" stroke="#030332" stroke-width="2.1084" stroke-linecap="round" stroke-linejoin="round" stroke-miterlimit="10" d="
			M213.484-10.015c0,0-0.471-0.412-1.428-0.36"/>
	</g>
	<g>
		<path fill="#BF8B00" d="M195.146-0.629c-0.654,0-1.193-0.295-1.479-0.808c-0.635-1.137,0.245-3.008,1.087-4.378
			c0.02-0.038,0.048-0.075,0.077-0.109c9.71-12.052,20.98-18.161,33.512-18.161c16.33,0,28.68,10.39,29.195,10.834
			c0.037,0.03,0.066,0.064,0.104,0.099c1.105,1.232,2.498,3.041,1.844,4.507c-0.408,0.905-1.393,1.227-2.185,1.227l0,0
			c-0.239,0-0.489-0.083-0.678-0.236c-9.563-7.705-19.068-11.61-28.251-11.61c-19.486,0-31.357,17.781-31.476,17.964
			c-0.121,0.187-0.304,0.331-0.514,0.409C195.908-0.708,195.505-0.629,195.146-0.629z"/>
		<path fill="#030332" d="M228.344-23.029c16.132,0,28.515,10.582,28.515,10.582c3.485,3.889,0.707,3.974,0.444,3.974
			c-0.01,0-0.017,0-0.017,0c-10.855-8.744-20.58-11.842-28.916-11.842c-20.312,0-32.354,18.44-32.354,18.44
			c-0.367,0.136-0.652,0.194-0.87,0.194c-1.706,0,0.503-3.578,0.503-3.578C206.603-18.857,218.215-23.03,228.344-23.029
			 M228.344-25.138c-12.863,0-24.416,6.242-34.336,18.552c-0.055,0.071-0.103,0.143-0.153,0.217
			c-1.444,2.344-1.816,4.176-1.108,5.449c0.47,0.846,1.371,1.349,2.397,1.349c0.484,0,1.012-0.107,1.603-0.327
			c0.423-0.154,0.784-0.447,1.032-0.822c0.113-0.172,11.7-17.485,30.596-17.485c8.936,0,18.214,3.829,27.586,11.378
			c0.357,0.287,0.803,0.455,1.261,0.465c0.026,0,0.061,0.002,0.082,0.002c1.119,0,2.53-0.489,3.143-1.851
			c0.905-2.026-0.718-4.19-2.021-5.643c-0.061-0.066-0.129-0.135-0.198-0.198C257.698-14.502,245.062-25.138,228.344-25.138
			L228.344-25.138z"/>
	</g>
	<g>
		
			<path fill="#92C83E" stroke="#030332" stroke-width="2.1084" stroke-linecap="round" stroke-linejoin="round" stroke-miterlimit="10" d="
			M194.041-23.764c3.819-0.594,7.461,1.037,9.566,3.909c0.781,0.388,1.22,1.02,1.533,1.24c0.856,0.42,0.676,1.554,0.765,1.62
			c-0.033,0.282-0.022,0.593-0.013,0.675c0.67,0.472,0.559,1.294,0.595,1.301c0.279,1.564-1.395,3.948-1.734,4.414
			c-1.261,3.116-4.123,5.52-7.741,6.08c-4.516,0.698-8.785-1.702-10.561-5.596c-1.156-1.537-2.435-4.127-0.503-6.556
			C186.965-20.271,190.042-23.146,194.041-23.764z"/>
		
			<path fill="#92C83E" stroke="#030332" stroke-width="2.1084" stroke-linecap="round" stroke-linejoin="round" stroke-miterlimit="10" d="
			M185.724-16.362c0,0,3.359-2.101,7.699-2.391"/>
		
			<path fill="#92C83E" stroke="#030332" stroke-width="2.1084" stroke-linecap="round" stroke-linejoin="round" stroke-miterlimit="10" d="
			M205.894-16.321c0,0-3.18-1.733-5.035-1.477"/>
		
			<path fill="#92C83E" stroke="#030332" stroke-width="2.1084" stroke-linecap="round" stroke-linejoin="round" stroke-miterlimit="10" d="
			M203.607-19.854c0,0-0.431-0.38-1.316-0.331"/>
	</g>
	<g>
		
			<path fill="#92C83E" stroke="#030332" stroke-width="2.1084" stroke-linecap="round" stroke-linejoin="round" stroke-miterlimit="10" d="
			M200.143,7.852c0.171,4.571-2.239,8.628-5.9,10.704c-0.565,0.864-1.363,1.294-1.664,1.631c-0.613,0.942-1.921,0.579-2.009,0.675
			c-0.328-0.082-0.697-0.109-0.79-0.109c-0.644,0.721-1.598,0.474-1.608,0.521c-1.873,0.112-4.447-2.179-4.943-2.641
			c-3.487-1.91-5.92-5.604-6.084-9.917c-0.2-5.402,3.2-10.083,8.016-11.63c1.963-1.152,5.179-2.297,7.768,0.304
			C197.012-0.929,199.965,3.073,200.143,7.852z"/>
		
			<path fill="#92C83E" stroke="#030332" stroke-width="2.1084" stroke-linecap="round" stroke-linejoin="round" stroke-miterlimit="10" d="
			M192.592-2.927c0,0,2.009,4.234,1.749,9.369"/>
		
			<path fill="#92C83E" stroke="#030332" stroke-width="2.1084" stroke-linecap="round" stroke-linejoin="round" stroke-miterlimit="10" d="
			M189.782,20.753c0,0,2.47-3.495,2.424-5.711"/>
		
			<path fill="#92C83E" stroke="#030332" stroke-width="2.1084" stroke-linecap="round" stroke-linejoin="round" stroke-miterlimit="10" d="
			M194.24,18.556c0,0,0.507-0.46,0.57-1.5"/>
	</g>
	<g>
		<path fill="#BF8B00" d="M179.157,63.261c-1.044,0-2.214-0.781-3.679-2.465c-0.031-0.033-0.062-0.07-0.087-0.11
			c-0.426-0.646-10.465-16.071-6.613-33.709c2.392-10.95,9.636-20.251,21.529-27.644c0.035-0.02,0.077-0.044,0.114-0.061
			c0.198-0.091,1.995-0.899,3.255-0.899c0.951,0,1.416,0.432,1.637,0.793c0.545,0.899-0.014,1.969-0.197,2.319
			c-0.104,0.202-0.269,0.363-0.471,0.463c-0.158,0.078-16.07,8.07-20.664,24.116c-2.99,10.444-0.607,22.02,7.08,34.395
			c0.122,0.189,0.177,0.423,0.155,0.648C181.119,62.146,180.436,63.261,179.157,63.261z"/>
		<path fill="#030332" d="M193.669-0.571c0.722-0.001,1.137,0.363,0.507,1.575c0,0-39.315,19.295-14.014,60.008
			c0,0-0.111,1.192-1.01,1.192c-0.577,0-1.475-0.489-2.882-2.1c0,0-23.84-35.998,14.588-59.873
			C190.86,0.232,192.604-0.571,193.669-0.571 M193.669-2.68L193.669-2.68c-1.418,0-3.183,0.764-3.69,0.994
			c-0.082,0.037-0.156,0.079-0.233,0.125c-12.147,7.548-19.549,17.071-22.001,28.309c-3.942,18.069,6.325,33.853,6.767,34.521
			c0.054,0.074,0.112,0.149,0.168,0.222c1.704,1.953,3.086,2.821,4.474,2.821c1.853,0,2.967-1.562,3.106-3.106
			c0.044-0.458-0.066-0.915-0.311-1.305c-7.529-12.116-9.867-23.408-6.958-33.564c4.479-15.613,19.956-23.363,20.111-23.439
			c0.408-0.198,0.735-0.523,0.942-0.922c0.67-1.297,0.724-2.424,0.154-3.351C195.912-1.864,195.194-2.68,193.669-2.68L193.669-2.68z
			"/>
	</g>
	<g>
		
			<path fill="#92C83E" stroke="#030332" stroke-width="2.1084" stroke-linecap="round" stroke-linejoin="round" stroke-miterlimit="10" d="
			M192.594-3.851c0.33-3.992-1.615-7.636-4.734-9.6c-0.457-0.78-1.14-1.188-1.392-1.498c-0.494-0.854-1.65-0.582-1.729-0.67
			c-0.287,0.058-0.61,0.07-0.691,0.064c-0.539-0.655-1.379-0.482-1.385-0.522c-1.643-0.17-3.976,1.732-4.431,2.113
			c-3.126,1.53-5.404,4.66-5.72,8.436c-0.392,4.716,2.396,8.943,6.546,10.494c1.673,1.085,4.438,2.219,6.809,0.044
			C189.503,3.705,192.246,0.318,192.594-3.851z"/>
		
			<path fill="#92C83E" stroke="#030332" stroke-width="2.1084" stroke-linecap="round" stroke-linejoin="round" stroke-miterlimit="10" d="
			M185.554,5.27c0,0,1.926-3.622,1.907-8.122"/>
		
			<path fill="#92C83E" stroke="#030332" stroke-width="2.1084" stroke-linecap="round" stroke-linejoin="round" stroke-miterlimit="10" d="
			M184.046-15.554c0,0,2.022,3.159,1.891,5.092"/>
		
			<path fill="#92C83E" stroke="#030332" stroke-width="2.1084" stroke-linecap="round" stroke-linejoin="round" stroke-miterlimit="10" d="
			M187.862-13.451c0,0,0.423,0.417,0.435,1.332"/>
	</g>
	<g>
		
			<path fill="#92C83E" stroke="#030332" stroke-width="2.1084" stroke-linecap="round" stroke-linejoin="round" stroke-miterlimit="10" d="
			M201.262-8.519c-2.27-3.296-6.084-4.882-9.746-4.422c-0.851-0.313-1.632-0.199-2.023-0.275c-0.923-0.347-1.645,0.595-1.762,0.575
			c-0.189,0.227-0.431,0.445-0.497,0.487c-0.832-0.164-1.374,0.506-1.401,0.478c-1.379,0.901-1.982,3.857-2.09,4.439
			c-1.448,3.169-1.225,7.03,0.925,10.151c2.684,3.895,7.526,5.401,11.713,3.969c1.984-0.22,4.838-1.099,5.294-4.281
			C203.659-0.712,203.637-5.069,201.262-8.519z"/>
		
			<path fill="#92C83E" stroke="#030332" stroke-width="2.1084" stroke-linecap="round" stroke-linejoin="round" stroke-miterlimit="10" d="
			M201.603,3c0,0-0.809-4.02-3.676-7.492"/>
		
			<path fill="#92C83E" stroke="#030332" stroke-width="2.1084" stroke-linecap="round" stroke-linejoin="round" stroke-miterlimit="10" d="
			M187.23-12.153c0,0,3.57,1.164,4.693,2.743"/>
		
			<path fill="#92C83E" stroke="#030332" stroke-width="2.1084" stroke-linecap="round" stroke-linejoin="round" stroke-miterlimit="10" d="
			M191.515-12.938c0,0,0.596,0.051,1.186,0.753"/>
	</g>
</g>
</svg>
