<?xml version="1.0" encoding="utf-8"?>
<!-- Generator: Adobe Illustrator 16.0.0, SVG Export Plug-In . SVG Version: 6.00 Build 0)  -->
<!DOCTYPE svg PUBLIC "-//W3C//DTD SVG 1.1//EN" "http://www.w3.org/Graphics/SVG/1.1/DTD/svg11.dtd">
<svg version="1.1" id="Layer_1" xmlns="http://www.w3.org/2000/svg" xmlns:xlink="http://www.w3.org/1999/xlink" x="0px" y="0px"
	 width="150px" height="150px" viewBox="0 0 150 150" enable-background="new 0 0 150 150" xml:space="preserve">
<g>
	<g>
		<path fill="#001D40" d="M74.993,144.163c-38.142,0-69.171-31.03-69.171-69.172c0-38.141,31.03-69.169,69.171-69.169
			c38.141,0,69.17,31.029,69.17,69.169C144.161,113.133,113.134,144.163,74.993,144.163z"/>
		<path fill="#99CCFF" d="M74.993,11.643c34.986,0,63.348,28.362,63.348,63.348c0,34.988-28.361,63.35-63.348,63.35
			c-34.987,0-63.35-28.361-63.35-63.35C11.644,40.005,40.006,11.643,74.993,11.643 M74.993,0C33.641,0,0,33.642,0,74.991
			c0,41.352,33.641,74.993,74.993,74.993c41.351,0,74.991-33.643,74.991-74.993C149.983,33.641,116.344,0,74.993,0L74.993,0z"/>
	</g>
	<g>
		<path fill="#99CCFF" d="M31.47,44.058h21.355c13.287,0,24.29,4.81,24.29,19.809c0,14.427-11.085,20.785-23.965,20.785h-7.091
			v20.133H31.47V44.058z M52.417,73.157c7.091,0,10.515-3.342,10.515-9.291c0-6.114-3.912-8.234-10.922-8.234h-5.951v17.525
			L52.417,73.157L52.417,73.157z"/>
		<path fill="#99CCFF" d="M81.347,99.404l6.439-9.047c4.239,3.177,8.069,4.891,11.736,4.891c3.831,0,5.462-1.386,5.462-3.667
			c0-2.773-4.484-4.077-9.211-5.952c-5.543-2.2-11.819-5.949-11.819-13.693c0-8.722,7.093-14.672,17.934-14.672
			c7.254,0,12.634,2.935,16.546,5.949l-6.439,8.641c-3.342-2.363-6.603-3.912-9.618-3.912c-3.343,0-4.892,1.14-4.892,3.342
			c0,2.772,3.996,3.832,8.805,5.543c5.787,2.201,12.227,5.543,12.227,13.938c0,8.56-6.683,15.161-19.317,15.161
			C93.166,105.925,86.075,103.316,81.347,99.404z"/>
	</g>
</g>
</svg>
