<?xml version="1.0" encoding="utf-8"?>
<!-- Generator: Adobe Illustrator 16.0.0, SVG Export Plug-In . SVG Version: 6.00 Build 0)  -->
<!DOCTYPE svg PUBLIC "-//W3C//DTD SVG 1.1//EN" "http://www.w3.org/Graphics/SVG/1.1/DTD/svg11.dtd">
<svg version="1.1" id="Layer_1" xmlns="http://www.w3.org/2000/svg" xmlns:xlink="http://www.w3.org/1999/xlink" x="0px" y="0px"
	 width="150px" height="150px" viewBox="0 0 150 150" enable-background="new 0 0 150 150" xml:space="preserve">
<g>
	<g>
		<path fill="#330000" d="M75,143.633c-37.844,0-68.633-30.789-68.633-68.634C6.367,37.155,37.156,6.367,75,6.367
			s68.633,30.788,68.633,68.632C143.633,112.844,112.844,143.633,75,143.633z"/>
		<path fill="#FF9900" d="M75,12.144c34.714,0,62.856,28.141,62.856,62.855c0,34.716-28.143,62.857-62.856,62.857
			s-62.856-28.142-62.856-62.857C12.144,40.285,40.286,12.144,75,12.144 M75,0.591c-41.028,0-74.409,33.381-74.409,74.408
			c0,41.029,33.381,74.41,74.409,74.41c41.029,0,74.409-33.382,74.409-74.41C149.409,33.97,116.029,0.591,75,0.591L75,0.591z"/>
	</g>
	<g>
		<path fill="#FF9900" d="M52.693,44.885H70l18.682,60.254H73.477L70,91.308H52.208l-3.479,13.832H34.01L52.693,44.885z
			 M54.958,80.147H67.25l-1.294-5.094c-1.617-5.986-3.153-13.184-4.771-19.329h-0.324c-1.456,6.309-3.075,13.344-4.611,19.329
			L54.958,80.147z"/>
		<path fill="#FF9900" d="M93.044,45.29c0-4.449,3.153-7.358,8.006-7.358c4.772,0,8.009,2.911,8.009,7.358
			c0,4.531-3.236,7.44-8.009,7.44C96.198,52.731,93.044,49.82,93.044,45.29z M93.852,59.121h14.397v46.019H93.852V59.121z"/>
	</g>
</g>
</svg>
