<?xml version="1.0" encoding="utf-8"?>
<!-- Generator: Adobe Illustrator 16.0.0, SVG Export Plug-In . SVG Version: 6.00 Build 0)  -->
<!DOCTYPE svg PUBLIC "-//W3C//DTD SVG 1.1//EN" "http://www.w3.org/Graphics/SVG/1.1/DTD/svg11.dtd">
<svg version="1.1" id="Layer_1" xmlns="http://www.w3.org/2000/svg" xmlns:xlink="http://www.w3.org/1999/xlink" x="0px" y="0px"
	 width="1200px" height="900px" viewBox="0 0 1200 900" enable-background="new 0 0 1200 900" xml:space="preserve">
<g>
	<path fill="#D6EFFF" d="M570.891,396.355h106.475h93.146h39.71c2.828-1.069,5.566-2.332,8.167-3.819
		c16.805-7.262,28.583-24.113,28.583-43.751c0-0.916-0.091-1.811-0.139-2.714c0.041-0.896,0.139-1.779,0.139-2.687
		c0-19.809-10.191-37.216-25.596-47.334c-0.416-54.121-44.396-97.872-98.619-97.872c-35.131,0-65.953,18.384-83.423,46.041
		c-4.942-0.834-10.018-1.291-15.203-1.291c-48.671,0-88.13,38.23-88.13,85.391C536,356.093,549.691,380.76,570.891,396.355z"/>
</g>
</svg>
