<?xml version="1.0" encoding="utf-8"?>
<!-- Generator: Adobe Illustrator 16.0.0, SVG Export Plug-In . SVG Version: 6.00 Build 0)  -->
<!DOCTYPE svg PUBLIC "-//W3C//DTD SVG 1.1//EN" "http://www.w3.org/Graphics/SVG/1.1/DTD/svg11.dtd">
<svg version="1.1" id="Layer_1" xmlns="http://www.w3.org/2000/svg" xmlns:xlink="http://www.w3.org/1999/xlink" x="0px" y="0px"
	 width="150px" height="150px" viewBox="0 0 150 150" enable-background="new 0 0 150 150" xml:space="preserve">
<g>
	<g>
		<g>
			<g>
				<path fill="#F4F7F9" d="M21.531,144.521c-6.409,0-11.624-5.215-11.624-11.623V17.436c0-6.409,5.215-11.624,11.624-11.624H92.74
					l47.352,47.353v79.733c0,6.408-5.215,11.623-11.623,11.623H21.531L21.531,144.521z"/>
				<path fill="#4056AC" d="M90.332,11.624l43.949,43.949v77.325c0,3.205-2.609,5.813-5.813,5.813H21.531
					c-3.205,0-5.812-2.607-5.812-5.813V17.436c0-3.205,2.607-5.812,5.812-5.812H90.332 M95.146,0H21.531
					C11.901,0,4.095,7.806,4.095,17.436v115.462c0,9.629,7.806,17.437,17.436,17.437h106.938c9.629,0,17.436-7.808,17.436-17.437
					V50.757L95.146,0L95.146,0z"/>
			</g>
		</g>
		<path fill="#4056AC" d="M89.482,5.812v4.251v40.491c0,3.321,2.689,6.014,6.012,6.014h40.492h4.252"/>
	</g>
	<g enable-background="new    ">
		<path fill="#030332" d="M31.545,20.222h0.781c1.079,0,2.38,0.558,3.906,1.674l0.223,0.781v0.223
			c-0.093,0.67-0.428,1.005-1.004,1.005h-0.558c-1.116-0.818-1.972-1.228-2.567-1.228H31.21c-2.232,0-3.832,1.488-4.798,4.463
			c0,0.038-0.074,0.707-0.223,2.009v0.67c0,2.306,1.079,4.314,3.236,6.025c0.874,0.298,1.506,0.446,1.897,0.446
			c1.376,0,2.641-0.558,3.794-1.674h0.446c0.614,0,0.985,0.409,1.116,1.228c0,1.098-1.302,2.027-3.905,2.79
			c-0.707,0.074-1.377,0.111-2.009,0.111h-0.112c-1.19-0.167-2.417-0.726-3.682-1.674c-2.158-2.361-3.236-4.816-3.236-7.365
			c0-4.667,1.859-7.718,5.579-9.149C29.964,20.333,30.708,20.222,31.545,20.222z"/>
		<path fill="#030332" d="M44.768,20.11c2.399,0,4.073,0.707,5.021,2.12l0.112,0.558c0,0.613-0.446,0.986-1.339,1.116
			c-1.283-0.818-2.102-1.228-2.455-1.228c-0.279-0.074-0.614-0.112-1.004-0.112h-0.446c-1.935,0.205-2.901,1.023-2.901,2.455v0.446
			c0,1.358,1.785,2.474,5.356,3.348c2.083,1.246,3.125,2.734,3.125,4.464v1.004c0,1.897-1.079,3.273-3.236,4.129
			c-0.651,0.149-1.469,0.261-2.455,0.335c-2.715,0-4.649-1.041-5.802-3.124v-0.224c0-0.707,0.483-1.078,1.45-1.116
			c0.335,0.131,1.042,0.688,2.121,1.674c0.985,0.224,1.804,0.335,2.455,0.335c2.083,0,3.125-0.893,3.125-2.678
			c0-1.655-1.637-2.846-4.91-3.571C40.527,29,39.3,27.4,39.3,25.243v-0.111c0-2.418,1.376-4.055,4.129-4.91L44.768,20.11z"/>
		<path fill="#030332" d="M58.883,20.11c2.399,0,4.073,0.707,5.021,2.12l0.112,0.558c0,0.613-0.446,0.986-1.339,1.116
			c-1.283-0.818-2.102-1.228-2.455-1.228c-0.279-0.074-0.614-0.112-1.004-0.112h-0.446c-1.935,0.205-2.901,1.023-2.901,2.455v0.446
			c0,1.358,1.785,2.474,5.356,3.348c2.083,1.246,3.125,2.734,3.125,4.464v1.004c0,1.897-1.079,3.273-3.236,4.129
			c-0.651,0.149-1.469,0.261-2.455,0.335c-2.715,0-4.649-1.041-5.802-3.124v-0.224c0-0.707,0.483-1.078,1.45-1.116
			c0.335,0.131,1.042,0.688,2.121,1.674c0.985,0.224,1.804,0.335,2.455,0.335c2.083,0,3.125-0.893,3.125-2.678
			c0-1.655-1.637-2.846-4.91-3.571C54.643,29,53.416,27.4,53.416,25.243v-0.111c0-2.418,1.376-4.055,4.129-4.91L58.883,20.11z"/>
	</g>
	<g enable-background="new    ">
		<path fill="#030332" d="M49.149,69.557h0.744c1.364,0.217,2.046,0.899,2.046,2.046c0,1.487-1.054,2.231-3.162,2.231
			c-0.868,0.744-1.302,1.984-1.302,3.721l0.558,5.578c0,3.41-0.682,5.704-2.046,6.883V90.2c1.116,1.767,1.674,3.563,1.674,5.394
			c-0.124,1.674-0.186,3.1-0.186,4.277v3.72c0,1.611,1.116,2.418,3.348,2.418c0.744,0.558,1.116,1.177,1.116,1.859v0.187
			c0,0.991-0.682,1.61-2.046,1.859h-1.116c-2.976,0-4.774-2.107-5.394-6.323c0.124-4.276,0.186-7.005,0.186-8.184
			c0-1.921-0.807-3.161-2.418-3.72c-0.744,0-1.24-0.619-1.488-1.859v-0.372c0-0.991,1.239-1.858,3.72-2.604
			c0.372-0.588,0.558-1.703,0.558-3.348v-0.186c0-0.713-0.186-2.697-0.558-5.952c0-3.595,1.425-6.074,4.277-7.438
			C48.126,69.681,48.622,69.557,49.149,69.557z"/>
		<path fill="#030332" d="M100.941,69.649h0.744c2.541,0,4.4,1.922,5.58,5.766l0.186,2.231c-0.372,2.976-0.559,4.897-0.559,5.766
			v0.186c0,2.729,0.744,4.092,2.231,4.092c1.362,0.248,2.046,0.869,2.046,1.859v0.372c0,1.022-1.054,1.953-3.161,2.79
			c-0.497,1.055-0.743,2.046-0.743,2.977c0,1.146,0.061,3.875,0.186,8.183c-0.682,4.092-2.48,6.138-5.395,6.138h-1.115
			c-1.363-0.248-2.045-0.867-2.045-1.859v-0.187c0-1.487,1.178-2.231,3.533-2.231c0.618-0.588,0.93-1.271,0.93-2.045v-3.721
			c0-1.178-0.063-2.604-0.187-4.277c0-1.828,0.558-3.627,1.675-5.394v-0.187c-1.365-1.115-2.047-3.472-2.047-7.066
			c0.372-3.285,0.559-5.207,0.559-5.766c0-2.479-1.115-3.72-3.348-3.72c-0.744-0.558-1.115-1.178-1.115-1.859
			C99.113,70.332,99.795,69.649,100.941,69.649z"/>
	</g>
</g>
</svg>
