<?xml version="1.0" encoding="utf-8"?>
<!-- Generator: Adobe Illustrator 16.0.0, SVG Export Plug-In . SVG Version: 6.00 Build 0)  -->
<!DOCTYPE svg PUBLIC "-//W3C//DTD SVG 1.1//EN" "http://www.w3.org/Graphics/SVG/1.1/DTD/svg11.dtd">
<svg version="1.1" id="Layer_1" xmlns="http://www.w3.org/2000/svg" xmlns:xlink="http://www.w3.org/1999/xlink" x="0px" y="0px"
	 width="150px" height="150px" viewBox="0 0 150 150" enable-background="new 0 0 150 150" xml:space="preserve">
<g>
	<g>
		<g>
			<g>
				<path fill="#F4F7F9" d="M21.646,144.207c-6.395,0-11.599-5.203-11.599-11.6V17.397c0-6.395,5.204-11.598,11.599-11.598h71.055
					l47.247,47.25v79.561c0,6.396-5.202,11.599-11.599,11.599L21.646,144.207L21.646,144.207z"/>
				<path fill="#2164C3" d="M90.299,11.598L134.15,55.45v77.157c0,3.199-2.602,5.801-5.799,5.801H21.646
					c-3.198,0-5.799-2.602-5.799-5.801V17.397c0-3.197,2.602-5.799,5.799-5.799H90.299 M95.104,0H21.647
					C12.041,0,4.25,7.789,4.25,17.397v115.21c0,9.608,7.791,17.397,17.397,17.397h106.705c9.609,0,17.397-7.789,17.397-17.397
					V50.646L95.104,0L95.104,0z"/>
			</g>
		</g>
		<path fill="#2164C3" d="M89.449,5.799v4.242v40.403c0,3.314,2.688,6.001,6.002,6.001h40.4h4.242"/>
	</g>
	<g enable-background="new    ">
		<path fill="#030332" d="M30.921,20.288h0.223c0.668,0,1.039,0.445,1.113,1.336v7.127c0,5.048-0.334,7.571-1.002,7.571
			c-0.984,1.559-2.32,2.338-4.009,2.338h-0.668c-1.243,0-2.431-0.742-3.563-2.227c-0.223-0.631-0.334-1.039-0.334-1.226
			c0.204-0.741,0.612-1.113,1.225-1.113c0.575,0,1.132,0.557,1.67,1.671c0.538,0.315,1.058,0.501,1.559,0.557
			c1.633-0.371,2.45-1.188,2.45-2.45c0.13-1.188,0.241-3.451,0.334-6.792c-0.074-0.705-0.111-1.67-0.111-2.895l0.111-0.668
			c-0.074-0.39-0.111-0.761-0.111-1.113v-0.892C29.956,20.696,30.327,20.288,30.921,20.288z"/>
		<path fill="#030332" d="M43.28,20.288c2.987,0,5.066,1.263,6.235,3.786c0.891,1.373,1.336,3.267,1.336,5.679
			c0,3.266-1.225,5.864-3.674,7.794c-1.132,0.594-1.875,0.891-2.227,0.891v0.223c0.52,0.965,1.521,1.447,3.006,1.447
			c1.855,0,2.784,0.408,2.784,1.225v0.557c-0.297,0.52-0.743,0.78-1.336,0.78h-0.111c-3.637,0-5.901-1.151-6.792-3.452
			c0-0.557-0.668-0.965-2.004-1.225c-2.06-1.299-3.322-2.746-3.786-4.343c-0.446-1.67-0.668-3.377-0.668-5.122
			c0-1.67,0.668-3.674,2.004-6.012C39.716,21.031,41.46,20.288,43.28,20.288z M38.492,28.862v0.668c0,2.913,0.891,4.918,2.672,6.013
			c0.779,0.445,1.559,0.668,2.338,0.668h0.445c1.317,0,2.579-1.003,3.786-3.007c0.445-1.392,0.668-2.616,0.668-3.674v-0.223
			c0-2.635-0.891-4.677-2.672-6.124c-0.854-0.297-1.596-0.445-2.227-0.445H43.28c-2.357,0-3.842,1.299-4.454,3.896
			C38.603,27.285,38.492,28.026,38.492,28.862z"/>
	</g>
	<g>
		<path fill="#030332" d="M65.976,99.917l-5.741-5.741c-9.398-9.396-9.494-24.552-0.323-34.09c-0.116,0.113-0.241,0.209-0.357,0.323
			l-5.742,5.741c-9.512,9.512-9.512,24.934,0,34.446l5.742,5.739c9.512,9.513,24.933,9.513,34.446,0l5.739-5.739
			c0.115-0.115,0.212-0.24,0.322-0.357C90.527,109.41,75.372,109.313,65.976,99.917z"/>
		<path fill="#030332" d="M78.775,85.51l-4.132-4.136c-6.765-6.764-6.834-17.676-0.233-24.542c-0.083,0.079-0.173,0.148-0.256,0.232
			l-4.134,4.132c-6.848,6.848-6.848,17.953,0,24.803l4.134,4.132c6.849,6.85,17.952,6.85,24.799,0l4.135-4.132
			c0.08-0.084,0.15-0.175,0.23-0.259C96.453,92.343,85.54,92.273,78.775,85.51z"/>
		<path fill="#030332" d="M89.02,73.429l-2.297-2.296c-3.758-3.758-3.797-9.82-0.129-13.635c-0.047,0.045-0.098,0.083-0.143,0.128
			l-2.297,2.296c-3.803,3.805-3.803,9.974,0,13.779l2.297,2.295c3.805,3.804,9.974,3.804,13.777,0l2.297-2.295
			c0.045-0.045,0.084-0.096,0.129-0.143C98.839,77.227,92.777,77.188,89.02,73.429z"/>
	</g>
</g>
</svg>
