<?xml version="1.0" encoding="utf-8"?>
<!-- Generator: Adobe Illustrator 16.0.0, SVG Export Plug-In . SVG Version: 6.00 Build 0)  -->
<!DOCTYPE svg PUBLIC "-//W3C//DTD SVG 1.1//EN" "http://www.w3.org/Graphics/SVG/1.1/DTD/svg11.dtd">
<svg version="1.1" id="Layer_1" xmlns="http://www.w3.org/2000/svg" xmlns:xlink="http://www.w3.org/1999/xlink" x="0px" y="0px"
	 width="50px" height="50px" viewBox="0 50 50 50" enable-background="new 0 50 50 50" xml:space="preserve">
<g>
	<path fill="#030332" d="M18.607,92.983c-0.271,0.087-0.446,0.307-0.392,0.488c0.056,0.182,0.32,0.26,0.592,0.173
		c0.273-0.087,0.447-0.305,0.394-0.487C19.145,92.975,18.88,92.896,18.607,92.983z"/>
	<path fill="#030332" d="M25,50C11.193,50,0,61.46,0,75.596C0,87.034,7.331,96.72,17.444,100c1.791-0.421,2.439-1.245,2.658-2.329
		c0.056-0.708,0.069-0.91,0.044-2.609c0,0-0.685,0.277-1.161,0.454c-5.197,2.122-7.125-2.576-7.355-3.309
		c-0.999-4.521-1.764-4.097-2.554-4.636c-0.789-0.539-1.858-1.157,0.84-1.022c3.096,0.164,3.639,3.297,4.004,4.387
		c1.801,3.404,4.637,1.953,6.169,0.93c-0.107-3.686,0.771-5.485,2.29-6.588h-1.617c-6.104,0-11.052-5.064-11.052-11.313v-1.617
		c0-3.138,0.925-6.056,2.611-8.185c-1.475-3.963,0.646-6.781,0.646-6.781s3.916-0.286,6.459,3.335l0,0
		c4.229-1.502,8.438-1.502,12.666,0h0.001c2.543-3.621,6.459-3.335,6.459-3.335s2.121,2.818,0.647,6.781
		c1.687,2.129,2.61,5.047,2.61,8.185v1.617c0,6.249-4.946,11.313-11.052,11.313h-1.616c1.579,1.146,2.471,3.304,2.274,7.275
		c-0.074,3.809-0.074,4.163,0,5.118c0.182,0.9,0.663,1.622,1.85,2.082c9.742-3.496,16.731-12.988,16.731-24.157
		C50,61.46,38.807,50,25,50z"/>
	
		<ellipse transform="matrix(0.0749 0.9972 -0.9972 0.0749 109.0213 69.8587)" fill="#030332" cx="16.861" cy="93.686" rx="0.346" ry="0.515"/>
	<path fill="#030332" d="M13.302,90.856c-0.131,0.069-0.152,0.29-0.052,0.493c0.104,0.205,0.292,0.314,0.423,0.245
		s0.153-0.29,0.052-0.494C13.622,90.897,13.433,90.788,13.302,90.856z"/>
	<path fill="#030332" d="M11.342,87.383c-0.082,0.082-0.049,0.252,0.072,0.379c0.123,0.129,0.289,0.166,0.37,0.084
		c0.082-0.083,0.05-0.253-0.073-0.381C11.59,87.337,11.424,87.301,11.342,87.383z"/>
	<path fill="#030332" d="M12.596,88.889c-0.131,0.047-0.181,0.249-0.111,0.452c0.068,0.204,0.229,0.332,0.36,0.286
		c0.131-0.047,0.182-0.248,0.112-0.453C12.889,88.971,12.727,88.843,12.596,88.889z"/>
	<path fill="#030332" d="M14.344,92.624c-0.1,0.144-0.007,0.39,0.209,0.547c0.217,0.156,0.476,0.167,0.574,0.021
		c0.102-0.146,0.008-0.39-0.209-0.547C14.702,92.487,14.445,92.478,14.344,92.624z"/>
</g>
</svg>
