<?xml version="1.0" encoding="utf-8"?>
<!-- Generator: Adobe Illustrator 16.0.0, SVG Export Plug-In . SVG Version: 6.00 Build 0)  -->
<!DOCTYPE svg PUBLIC "-//W3C//DTD SVG 1.1//EN" "http://www.w3.org/Graphics/SVG/1.1/DTD/svg11.dtd">
<svg version="1.1" id="Layer_1" xmlns="http://www.w3.org/2000/svg" xmlns:xlink="http://www.w3.org/1999/xlink" x="0px" y="0px"
	 width="400px" height="400px" viewBox="0 0 400 400" enable-background="new 0 0 400 400" xml:space="preserve">
<g>
	
		<path fill="#1F1F26" stroke="#030332" stroke-width="10.2407" stroke-linecap="round" stroke-linejoin="round" stroke-miterlimit="10" d="
		M360.539,447.408V408.68c0-56.888-76.121-123.009-133.01-123.009c-56.89,0-133.008,66.121-133.008,123.009v38.729H360.539z"/>
	
		<path fill="#FFD000" stroke="#030332" stroke-width="11.9427" stroke-linecap="round" stroke-linejoin="round" stroke-miterlimit="10" d="
		M239.924,235.133H200.8c-6.834,0-12.37,5.162-12.37,11.529v48.063c0,17.639,14.296,31.936,31.934,31.936
		c17.639,0,31.935-14.297,31.935-31.936v-48.063C252.295,240.295,246.763,235.133,239.924,235.133z"/>
	<g>
		
			<path fill="#1C0A00" stroke="#030332" stroke-width="11.5299" stroke-linecap="round" stroke-linejoin="round" stroke-miterlimit="10" d="
			M247.412,222.643c0,0,112.078-41.293,116.013,84.547C363.424,307.191,315.248,232.475,247.412,222.643z"/>
		
			<circle fill="#FFD000" stroke="#030332" stroke-width="11.5299" stroke-linecap="round" stroke-linejoin="round" stroke-miterlimit="10" cx="74.189" cy="181.385" r="36.861"/>
		
			<path fill="#FFD000" stroke="#030332" stroke-width="11.5299" stroke-linecap="round" stroke-linejoin="round" stroke-miterlimit="10" d="
			M289.703,181.385c0,20.357,16.498,36.861,36.854,36.861c20.357,0,36.864-16.504,36.864-36.861
			c0-20.356-16.507-36.859-36.864-36.859C306.201,144.525,289.703,161.027,289.703,181.385z"/>
		<g>
			<path fill="#FFD000" d="M201.367,291.266c-69.066,0-125.262-56.188-125.262-125.254c0-69.066,56.192-125.256,125.262-125.256
				c69.064,0,125.254,56.189,125.254,125.256S270.433,291.266,201.367,291.266z"/>
			<path fill="#030332" d="M201.367,46.52c31.917,0,61.925,12.43,84.49,34.998c22.568,22.568,34.997,52.576,34.997,84.494
				s-12.429,61.924-34.997,84.492c-22.565,22.568-52.572,34.998-84.49,34.998s-61.926-12.428-84.494-34.998
				c-22.569-22.566-34.999-52.574-34.999-84.49c0-31.918,12.43-61.926,34.999-84.494C139.441,58.949,169.449,46.52,201.367,46.52
				 M201.367,34.99c-72.36,0-131.023,58.659-131.023,131.021c0,72.359,58.663,131.02,131.023,131.02
				c72.358,0,131.021-58.658,131.021-131.02C332.386,93.649,273.727,34.99,201.367,34.99L201.367,34.99z"/>
		</g>
		
			<line fill="none" stroke="#030332" stroke-width="11.5299" stroke-linecap="round" stroke-miterlimit="10" x1="207.159" y1="224.225" x2="187.886" y2="224.225"/>
		<g>
			<g>
				<path fill="#1C0A00" d="M321.513,160.569c-14.992,0-44.959-1.582-77.207-12.173c-39.09-12.838-69.514-34.756-90.427-65.145
					c-1.081-1.572-2.861-2.498-4.748-2.498c-0.156,0-0.313,0.006-0.474,0.021c-2.059,0.168-3.867,1.425-4.745,3.294
					c-12.683,26.984-42.881,32.386-58.028,33.345c19.419-46.179,64.823-76.657,115.479-76.657
					c67.227,0,122.25,53.227,125.139,119.752c-1.416,0.035-3.086,0.062-4.983,0.062
					C321.516,160.569,321.515,160.569,321.513,160.569z"/>
				<path fill="#030332" d="M201.364,46.52c31.918,0,61.927,12.43,84.494,34.998c19.904,19.906,31.924,45.597,34.481,73.283
					c-15-0.082-43.568-1.81-74.236-11.881c-37.863-12.436-67.295-33.609-87.477-62.936c-2.162-3.143-5.725-4.994-9.496-4.994
					c-0.313,0-0.628,0.014-0.943,0.039c-4.115,0.337-7.736,2.85-9.493,6.588c-5.551,11.811-15.61,20.359-29.909,25.407
					c-4.601,1.624-9.135,2.706-13.247,3.425C115.933,71.596,156.489,46.52,201.364,46.52 M201.364,34.99
					c-57.415,0-106.192,36.926-123.9,88.323c0,0,0.946,0.055,2.636,0.055c10.922,0,52.805-2.312,69.032-36.849
					c50.368,73.191,141.177,79.814,172.383,79.814c6.894,0,10.873-0.322,10.873-0.322C332.386,93.649,273.727,34.99,201.364,34.99
					L201.364,34.99z"/>
			</g>
		</g>
		<g>
			<path fill="#E2FFFF" stroke="#030332" stroke-width="12.6434" stroke-linecap="round" stroke-miterlimit="10" d="
				M179.584,178.592c0,25.078-20.336,45.41-45.407,45.41c-25.079,0-45.407-20.332-45.407-45.41
				c0-25.074,20.328-45.404,45.407-45.404C159.248,133.188,179.584,153.518,179.584,178.592z"/>
			<path fill="#E2FFFF" stroke="#030332" stroke-width="12.6434" stroke-miterlimit="10" d="M303.605,178.592
				c0,25.078-20.326,45.41-45.406,45.41c-25.072,0-45.396-20.332-45.396-45.41c0-25.074,20.324-45.404,45.396-45.404
				C283.278,133.188,303.605,153.518,303.605,178.592z"/>
			
				<line fill="none" stroke="#030332" stroke-width="12.6434" stroke-miterlimit="10" x1="179.584" y1="178.592" x2="215.48" y2="178.592"/>
		</g>
	</g>
	<g>
		<g>
			<path fill="#1F1F26" d="M-33.661,458.693c-12.913,0-23.418-13.279-23.418-29.603V299.691c0-16.322,10.505-29.603,23.418-29.603
				h237.698c12.913,0,23.418,13.279,23.418,29.603v129.399c0,16.322-10.505,29.604-23.418,29.604H-33.661V458.693z"/>
			<path fill="#030331" d="M204.037,274.176c10.679,0,19.334,11.425,19.334,25.517v129.399c0,14.095-8.655,25.519-19.334,25.519
				H-33.661c-10.679,0-19.333-11.424-19.333-25.519V299.692c0-14.092,8.654-25.517,19.333-25.517H204.037 M204.037,266.006H-33.661
				c-7.669,0-15.026,3.902-20.184,10.709c-4.722,6.23-7.319,14.39-7.319,22.976v129.401c0,8.586,2.6,16.746,7.319,22.978
				c5.156,6.807,12.514,10.711,20.184,10.711h237.698c7.671,0,15.025-3.904,20.184-10.711c4.722-6.23,7.32-14.392,7.32-22.978
				V299.692c0-8.586-2.601-16.746-7.32-22.978C219.064,269.908,211.708,266.006,204.037,266.006L204.037,266.006z"/>
		</g>
		<path fill="#060B0B" d="M197.573,437.761c0,7.863-6.934,14.236-15.487,14.236H-35.081c-8.555,0-15.488-6.373-15.488-14.236
			V310.537c0-7.861,6.936-14.236,15.488-14.236h217.166c8.556,0,15.487,6.375,15.487,14.236L197.573,437.761L197.573,437.761z"/>
		
			<line fill="none" stroke="#030332" stroke-width="8.1231" stroke-linecap="round" stroke-linejoin="round" stroke-miterlimit="10" x1="-38.032" y1="288.475" x2="178.471" y2="288.475"/>
		
			<line fill="none" stroke="#030332" stroke-width="8.1231" stroke-linecap="round" stroke-linejoin="round" stroke-miterlimit="10" x1="204.657" y1="304.18" x2="204.657" y2="435.939"/>
	</g>
	<g>
		
			<path fill="#1F1F26" stroke="#030332" stroke-width="8.1231" stroke-linecap="round" stroke-linejoin="round" stroke-miterlimit="10" d="
			M96.567,469.436c0,8.123-6.584,14.707-14.706,14.707H58.578c-8.122,0-14.706-6.584-14.706-14.707v-108.66
			c0-8.121,6.584-14.705,14.706-14.705h23.283c8.122,0,14.706,6.584,14.706,14.705V469.436z"/>
		
			<line fill="none" stroke="#030332" stroke-width="8.1231" stroke-linecap="round" stroke-linejoin="round" stroke-miterlimit="10" x1="53.267" y1="370.059" x2="79.41" y2="370.059"/>
		
			<line fill="none" stroke="#030332" stroke-width="8.1231" stroke-linecap="round" stroke-linejoin="round" stroke-miterlimit="10" x1="79.41" y1="385.287" x2="79.41" y2="467.804"/>
	</g>
	<path fill="#060B0B" d="M74.189,472.525c0,3.303-3.099,5.979-6.918,5.979H53.79c-3.819,0-6.917-2.678-6.917-5.979V386.15
		c0-3.303,3.098-5.979,6.917-5.979h13.481c3.819,0,6.918,2.679,6.918,5.979V472.525z"/>
</g>
</svg>
