<?xml version="1.0" encoding="utf-8"?>
<!-- Generator: Adobe Illustrator 16.0.0, SVG Export Plug-In . SVG Version: 6.00 Build 0)  -->
<!DOCTYPE svg PUBLIC "-//W3C//DTD SVG 1.1//EN" "http://www.w3.org/Graphics/SVG/1.1/DTD/svg11.dtd">
<svg version="1.1" id="Layer_1" xmlns="http://www.w3.org/2000/svg" xmlns:xlink="http://www.w3.org/1999/xlink" x="0px" y="0px"
	 width="400px" height="400px" viewBox="0 0 400 400" enable-background="new 0 0 400 400" xml:space="preserve">
<line fill="none" stroke="#030332" stroke-width="11.5299" stroke-linecap="round" stroke-miterlimit="10" x1="207.159" y1="224.225" x2="187.886" y2="224.225"/>
<g>
	<path fill="#E2FFFF" stroke="#030332" stroke-width="12.6434" stroke-linecap="round" stroke-miterlimit="10" d="M179.584,178.592
		c0,25.078-20.336,45.41-45.407,45.41c-25.079,0-45.407-20.332-45.407-45.41c0-25.074,20.328-45.404,45.407-45.404
		C159.248,133.188,179.584,153.518,179.584,178.592z"/>
	<path fill="#E2FFFF" stroke="#030332" stroke-width="12.6434" stroke-miterlimit="10" d="M303.605,178.592
		c0,25.078-20.326,45.41-45.406,45.41c-25.072,0-45.396-20.332-45.396-45.41c0-25.074,20.324-45.404,45.396-45.404
		C283.277,133.188,303.605,153.518,303.605,178.592z"/>
	
		<line fill="none" stroke="#030332" stroke-width="12.6434" stroke-miterlimit="10" x1="179.584" y1="178.592" x2="215.48" y2="178.592"/>
</g>
</svg>
