<?xml version="1.0" encoding="utf-8"?>
<!-- Generator: Adobe Illustrator 16.0.0, SVG Export Plug-In . SVG Version: 6.00 Build 0)  -->
<!DOCTYPE svg PUBLIC "-//W3C//DTD SVG 1.1//EN" "http://www.w3.org/Graphics/SVG/1.1/DTD/svg11.dtd">
<svg version="1.1" id="Layer_1" xmlns="http://www.w3.org/2000/svg" xmlns:xlink="http://www.w3.org/1999/xlink" x="0px" y="0px"
	 width="62.842px" height="62.841px" viewBox="0 37.159 62.842 62.841" enable-background="new 0 37.159 62.842 62.841"
	 xml:space="preserve">
<g>
	<path fill="#030332" d="M7.347,44.506c-9.796,9.796-9.795,25.679,0,35.475c9.796,9.796,25.677,9.796,35.475,0
		c9.795-9.796,9.795-25.679-0.001-35.475C33.023,34.711,17.142,34.71,7.347,44.506z M36.338,73.498
		c-6.216,6.216-16.293,6.216-22.51,0c-6.215-6.216-6.216-16.294,0.001-22.51c6.215-6.215,16.293-6.215,22.509,0
		C42.554,57.204,42.553,67.282,36.338,73.498z"/>
	<path fill="#030332" d="M52.012,82.689c-1.79-1.789-4.69-1.789-6.48,0l0,0c-1.79,1.79-1.79,4.691-0.001,6.481l9.487,9.486
		c1.789,1.791,4.691,1.79,6.481,0l0,0c1.79-1.789,1.79-4.691,0-6.48L52.012,82.689z"/>
</g>
</svg>
