<?xml version="1.0" encoding="utf-8"?>
<!-- Generator: Adobe Illustrator 16.0.0, SVG Export Plug-In . SVG Version: 6.00 Build 0)  -->
<!DOCTYPE svg PUBLIC "-//W3C//DTD SVG 1.1//EN" "http://www.w3.org/Graphics/SVG/1.1/DTD/svg11.dtd">
<svg version="1.1" id="Layer_1" xmlns="http://www.w3.org/2000/svg" xmlns:xlink="http://www.w3.org/1999/xlink" x="0px" y="0px"
	 width="400px" height="400px" viewBox="0 0 400 400" enable-background="new 0 0 400 400" xml:space="preserve">
<g>
	
		<path fill="#1F1F26" stroke="#030332" stroke-width="10.2407" stroke-linecap="round" stroke-linejoin="round" stroke-miterlimit="10" d="
		M360.408,447.292v-38.729c0-56.887-76.121-123.007-133.01-123.007c-56.89-0.001-133.008,66.12-133.008,123.007v38.729H360.408z"/>
	
		<path fill="#FFD000" stroke="#030332" stroke-width="11.9427" stroke-linecap="round" stroke-linejoin="round" stroke-miterlimit="10" d="
		M239.793,235.016H200.67c-6.835,0-12.371,5.163-12.371,11.529v48.063c0,17.64,14.297,31.938,31.934,31.938
		c17.639,0,31.936-14.298,31.936-31.938v-48.063C252.164,240.179,246.633,235.016,239.793,235.016z"/>
	<g>
		
			<path fill="#1C0A00" stroke="#030332" stroke-width="11.5299" stroke-linecap="round" stroke-linejoin="round" stroke-miterlimit="10" d="
			M247.281,222.525c0,0,112.078-41.292,116.014,84.547C363.293,307.074,315.117,232.357,247.281,222.525z"/>
		
			<circle fill="#FFD000" stroke="#030332" stroke-width="11.5299" stroke-linecap="round" stroke-linejoin="round" stroke-miterlimit="10" cx="74.058" cy="181.269" r="36.861"/>
		
			<path fill="#FFD000" stroke="#030332" stroke-width="11.5299" stroke-linecap="round" stroke-linejoin="round" stroke-miterlimit="10" d="
			M289.572,181.269c0,20.357,16.498,36.86,36.855,36.86s36.863-16.503,36.863-36.86s-16.506-36.859-36.863-36.859
			S289.572,160.911,289.572,181.269z"/>
		<g>
			<path fill="#FFD000" d="M201.236,291.149c-69.066,0-125.262-56.188-125.262-125.254S132.167,40.64,201.236,40.64
				c69.064,0,125.254,56.189,125.254,125.256C326.49,234.961,270.303,291.149,201.236,291.149z"/>
			<path fill="#030332" d="M201.236,46.403c31.918,0,61.926,12.43,84.492,34.998s34.996,52.576,34.996,84.494
				c0,31.917-12.43,61.923-34.996,84.492c-22.566,22.568-52.574,34.998-84.492,34.998s-61.927-12.429-84.494-34.998
				c-22.569-22.567-34.999-52.575-34.999-84.491c0-31.917,12.43-61.925,34.999-84.493C139.312,58.833,169.318,46.403,201.236,46.403
				 M201.236,34.874c-72.36,0-131.023,58.658-131.023,131.021c0,72.36,58.663,131.021,131.023,131.021
				c72.359,0,131.021-58.659,131.021-131.021C332.256,93.532,273.596,34.874,201.236,34.874L201.236,34.874z"/>
		</g>
		
			<line fill="none" stroke="#030332" stroke-width="11.5299" stroke-linecap="round" stroke-miterlimit="10" x1="207.029" y1="224.107" x2="187.755" y2="224.107"/>
		<g>
			<g>
				<path fill="#1C0A00" d="M321.383,160.452c-14.992,0-44.959-1.582-77.207-12.172c-39.09-12.838-69.515-34.756-90.428-65.146
					c-1.081-1.571-2.861-2.497-4.748-2.497c-0.156,0-0.313,0.006-0.474,0.02c-2.059,0.168-3.867,1.426-4.745,3.295
					c-12.683,26.983-42.881,32.386-58.028,33.345c19.419-46.179,64.823-76.658,115.479-76.658
					c67.227,0,122.25,53.228,125.139,119.752c-1.416,0.036-3.086,0.062-4.982,0.062
					C321.385,160.452,321.385,160.452,321.383,160.452z"/>
				<path fill="#030332" d="M201.234,46.403c31.918,0,61.926,12.43,84.494,34.998c19.904,19.906,31.924,45.596,34.48,73.283
					c-15-0.083-43.568-1.811-74.236-11.881c-37.863-12.436-67.295-33.609-87.477-62.936c-2.162-3.143-5.725-4.994-9.496-4.994
					c-0.313,0-0.628,0.013-0.943,0.039c-4.115,0.336-7.736,2.85-9.493,6.588c-5.551,11.811-15.61,20.359-29.909,25.406
					c-4.601,1.625-9.136,2.707-13.247,3.426C115.802,71.479,156.358,46.403,201.234,46.403 M201.234,34.874
					c-57.416,0-106.193,36.926-123.901,88.322c0,0,0.946,0.055,2.636,0.055c10.922,0,52.805-2.311,69.032-36.848
					c50.368,73.191,141.177,79.814,172.384,79.814c6.893,0,10.873-0.323,10.873-0.323C332.256,93.532,273.596,34.874,201.234,34.874
					L201.234,34.874z"/>
			</g>
		</g>
		<g>
			<path fill="#E2FFFF" stroke="#030332" stroke-width="12.6434" stroke-linecap="round" stroke-miterlimit="10" d="
				M179.453,178.476c0,25.077-20.336,45.409-45.407,45.409c-25.079,0-45.407-20.332-45.407-45.409
				c0-25.074,20.328-45.404,45.407-45.404C159.117,133.071,179.453,153.401,179.453,178.476z"/>
			<path fill="#E2FFFF" stroke="#030332" stroke-width="12.6434" stroke-miterlimit="10" d="M303.475,178.476
				c0,25.077-20.326,45.409-45.406,45.409c-25.072,0-45.396-20.332-45.396-45.409c0-25.074,20.324-45.404,45.396-45.404
				C283.148,133.071,303.475,153.401,303.475,178.476z"/>
			
				<line fill="none" stroke="#030332" stroke-width="12.6434" stroke-miterlimit="10" x1="179.453" y1="178.476" x2="215.35" y2="178.476"/>
		</g>
	</g>
	<g>
		
			<path fill="#B4B9DE" stroke="#030332" stroke-width="10.2407" stroke-linecap="round" stroke-linejoin="round" stroke-miterlimit="10" d="
			M162.927,377.138c0,3.313-2.687,6-6,6H98.26c-3.313,0-6-2.688-6-6V252.972c0-3.313,2.688-6,6-6h58.667c3.313,0,6,2.688,6,6
			V377.138z"/>
		<circle fill="#030331" cx="105.642" cy="259.471" r="4.875"/>
		<circle fill="#030331" cx="105.642" cy="271.596" r="4.875"/>
		<circle fill="#030331" cx="105.642" cy="283.721" r="4.875"/>
	</g>
	
		<path fill="#FFD000" stroke="#030332" stroke-width="10" stroke-linecap="round" stroke-linejoin="round" stroke-miterlimit="10" d="
		M119.248,325.674c0-17.121-19.374-31-43.272-31c-23.896,0-43.271,13.879-43.271,31v137.5h55V355.512
		C105.901,351.849,119.248,339.882,119.248,325.674z"/>
	
		<path fill="#FFD000" stroke="#030332" stroke-width="10" stroke-linecap="round" stroke-linejoin="round" stroke-miterlimit="10" d="
		M138.271,325.674c0-17.121,19.375-31,43.272-31c23.898,0,43.271,13.879,43.271,31v137.5h-55.001V355.512
		C151.618,351.849,138.271,339.882,138.271,325.674z"/>
</g>
</svg>
