<?xml version="1.0" encoding="utf-8"?>
<!-- Generator: Adobe Illustrator 16.0.0, SVG Export Plug-In . SVG Version: 6.00 Build 0)  -->
<!DOCTYPE svg PUBLIC "-//W3C//DTD SVG 1.1//EN" "http://www.w3.org/Graphics/SVG/1.1/DTD/svg11.dtd">
<svg version="1.1" id="Layer_1" xmlns="http://www.w3.org/2000/svg" xmlns:xlink="http://www.w3.org/1999/xlink" x="0px" y="0px"
	 width="1200px" height="900px" viewBox="0 0 1200 900" enable-background="new 0 0 1200 900" xml:space="preserve">
<g>
	<path fill="#F4F7F9" d="M478.221,382.021H405.72h-63.425h-27.04c-1.926-0.728-3.791-1.588-5.561-2.601
		c-11.443-4.945-19.462-16.419-19.462-29.792c0-0.624,0.062-1.233,0.094-1.848c-0.028-0.611-0.094-1.211-0.094-1.83
		c0-13.488,6.939-25.341,17.428-32.231c0.283-36.852,30.23-66.644,67.152-66.644c23.921,0,44.909,12.518,56.805,31.35
		c3.366-0.567,6.821-0.879,10.352-0.879c33.141,0,60.01,26.032,60.01,58.145C501.979,354.606,492.656,371.403,478.221,382.021z"/>
</g>
</svg>
