<?xml version="1.0" encoding="utf-8"?>
<!-- Generator: Adobe Illustrator 16.0.0, SVG Export Plug-In . SVG Version: 6.00 Build 0)  -->
<!DOCTYPE svg PUBLIC "-//W3C//DTD SVG 1.1//EN" "http://www.w3.org/Graphics/SVG/1.1/DTD/svg11.dtd">
<svg version="1.1" id="Layer_1" xmlns="http://www.w3.org/2000/svg" xmlns:xlink="http://www.w3.org/1999/xlink" x="0px" y="0px"
	 width="100px" height="100px" viewBox="0 0 100 100" enable-background="new 0 0 100 100" xml:space="preserve">
<g>
	<g>
		<polygon fill="#030332" points="72.662,36.12 72.097,37.554 51.824,37.53 47.284,49.037 74.889,49.068 74.618,50.282 
			77.746,42.373 76.893,43.814 56.018,43.791 56.565,42.401 76.838,42.425 81.395,30.874 54.604,30.844 55.022,28.958 51.807,37.09 
			52.395,36.098 		"/>
	</g>
	<g>
		<polygon fill="#030332" points="87.691,33.236 90.455,33.677 88.017,40.482 83.432,54.771 80.509,55.235 90.791,55.235 
			88.25,54.831 94.968,40.49 97.882,33.724 100.946,33.236 		"/>
	</g>
	<g>
		<polygon fill="#030332" points="79.492,46.918 77.345,50.549 43.005,50.51 43.89,46.53 39.016,58.857 40.744,55.938 
			75.345,55.977 74.618,59.245 		"/>
	</g>
	<g>
		<path fill="#030332" d="M73.742,57.65H41.347l2.443,0.24l-4.886,12.382l-2.89,0.285h25.611l4.4,0.005l0.001-0.005h2.383
			l-2.293-0.227l4.897-12.412L73.742,57.65z M48.317,63.2l13.986,0.016l-0.753,1.911l-13.986-0.016L48.317,63.2z"/>
	</g>
	<g>
		<path fill="#030332" d="M48.523,30.112h-6.633l-3.288-0.025l-0.01,0.025h-3.324l3.128,0.497l-2.946,7.468l-7.409-0.009
			c-0.496-3.389-4.828-5.263-8.241-5.263c-7.407,0-13.626,4.774-17.241,11.792c-4.489,8.714-3.26,17.735,5.182,17.735
			c5.343,0,10.176-2.343,13.99-6.157l6.574,0.008l-5.646,14.311l-3.444,0.548H32.47l-3.087-0.491l15.744-39.898L48.523,30.112z
			 M14.968,44.429c-1.583,4.012-5.052,7.261-7.749,7.257c-2.696-0.003-3.599-3.257-2.017-7.268c1.583-4.012,5.052-7.262,7.749-7.258
			C15.648,37.163,16.551,40.417,14.968,44.429z M18.275,35.741c-0.608,0.291-1.268,0.182-1.472-0.245
			c-0.204-0.427,0.124-1.009,0.732-1.301c0.608-0.291,1.268-0.182,1.472,0.245C19.212,34.867,18.884,35.449,18.275,35.741z
			 M21.646,36.214c-0.13,0.662-0.613,1.124-1.077,1.032c-0.464-0.092-0.734-0.702-0.604-1.364c0.131-0.662,0.613-1.124,1.078-1.032
			C21.506,34.94,21.777,35.552,21.646,36.214z M24.521,36.968c-0.356,0.312-1.005,0.151-1.449-0.356
			c-0.444-0.509-0.515-1.173-0.159-1.484c0.356-0.311,1.005-0.151,1.449,0.357C24.806,35.992,24.877,36.657,24.521,36.968z
			 M30.516,50.582l-5.453-0.006c0.519-0.999,0.938-1.954,1.366-3.039c0.531-1.347,0.979-2.692,1.233-3.865l5.578,0.007
			L30.516,50.582z"/>
	</g>
	<g>
		<path fill="#030332" d="M84.601,57.898c-2.539-0.003-5.193,2.079-6.256,4.771s-0.07,4.822,2.469,4.824
			c2.581,0.004,5.252-2.122,6.314-4.814S87.182,57.901,84.601,57.898z M83.931,61.821c-0.875,1.35-2.384,2.282-3.37,2.082
			c-0.985-0.2-1.075-1.457-0.2-2.807c0.875-1.351,2.383-2.283,3.369-2.083C84.715,59.214,84.805,60.471,83.931,61.821z"/>
	</g>
</g>
</svg>
